<?xml version="1.0" encoding="UTF-8"?>
<!DOCTYPE svg PUBLIC "-//W3C//DTD SVG 1.1//EN" "http://www.w3.org/Graphics/SVG/1.1/DTD/svg11.dtd">
<svg xmlns="http://www.w3.org/2000/svg" version="1.1" width="225px" height="225px" style="shape-rendering:geometricPrecision; text-rendering:geometricPrecision; image-rendering:optimizeQuality; fill-rule:evenodd; clip-rule:evenodd" xmlns:xlink="http://www.w3.org/1999/xlink">
<g><path style="opacity:0.141" fill="#dcd4cf" d="M 121.5,43.5 C 129.714,43.8024 137.381,45.8024 144.5,49.5C 142.5,49.1667 140.5,48.8333 138.5,48.5C 132.957,46.3649 127.291,44.6982 121.5,43.5 Z"/></g>
<g><path style="opacity:0.267" fill="#d2c4bb" d="M 99.5,43.5 C 96.4557,45.0114 93.1224,45.678 89.5,45.5C 92.5885,44.2154 95.9219,43.5488 99.5,43.5 Z"/></g>
<g><path style="opacity:0.545" fill="#bcafab" d="M 89.5,45.5 C 87.5615,47.1628 85.2282,47.8294 82.5,47.5C 84.5994,46.3882 86.9327,45.7215 89.5,45.5 Z"/></g>
<g><path style="opacity:0.867" fill="#6d5443" d="M 121.5,43.5 C 127.291,44.6982 132.957,46.3649 138.5,48.5C 129.215,46.8458 119.882,45.5125 110.5,44.5C 105.907,44.3789 101.574,45.0456 97.5,46.5C 95.7085,46.366 94.0418,46.6993 92.5,47.5C 88.8333,48.1667 85.1667,48.8333 81.5,49.5C 81.8333,48.8333 82.1667,48.1667 82.5,47.5C 85.2282,47.8294 87.5615,47.1628 89.5,45.5C 93.1224,45.678 96.4557,45.0114 99.5,43.5C 106.962,42.2204 114.296,42.2204 121.5,43.5 Z"/></g>
<g><path style="opacity:1" fill="#684125" d="M 92.5,47.5 C 90.6287,48.7972 88.6287,49.7972 86.5,50.5C 71.9371,53.3969 60.6037,61.0635 52.5,73.5C 50.3567,75.1307 48.69,77.1307 47.5,79.5C 46.609,80.1098 45.609,80.4431 44.5,80.5C 45.0787,77.6689 46.412,75.3356 48.5,73.5C 51.5443,71.0907 53.8777,68.0907 55.5,64.5C 58.0892,63.5806 60.0892,61.914 61.5,59.5C 65.4787,55.5058 70.1454,52.5058 75.5,50.5C 77.5648,50.4828 79.5648,50.1495 81.5,49.5C 85.1667,48.8333 88.8333,48.1667 92.5,47.5 Z"/></g>
<g><path style="opacity:0.71" fill="#9d8d81" d="M 82.5,47.5 C 82.1667,48.1667 81.8333,48.8333 81.5,49.5C 79.5648,50.1495 77.5648,50.4828 75.5,50.5C 77.4261,48.7073 79.7594,47.7073 82.5,47.5 Z"/></g>
<g><path style="opacity:1" fill="#ca8149" d="M 97.5,46.5 C 111.009,45.886 124.342,47.0526 137.5,50C 143.799,52.9928 150.132,55.9928 156.5,59C 157.381,59.7083 158.047,60.5416 158.5,61.5C 157.167,61.1667 155.833,60.8333 154.5,60.5C 154.027,59.0937 153.027,58.427 151.5,58.5C 147.973,55.8713 143.973,55.0379 139.5,56C 140.711,56.8928 140.711,57.7261 139.5,58.5C 138.914,58.2907 138.414,57.9574 138,57.5C 137.505,55.5273 137.338,53.5273 137.5,51.5C 133.833,51.5 130.167,51.5 126.5,51.5C 126.567,52.9587 126.234,54.2921 125.5,55.5C 123.833,55.5 122.167,55.5 120.5,55.5C 120.244,53.2075 120.577,51.0408 121.5,49C 117.442,48.2334 113.442,48.4001 109.5,49.5C 106.34,47.9733 103.007,47.3067 99.5,47.5C 98.0222,47.238 96.6888,47.5713 95.5,48.5C 94.9258,51.1767 94.2592,53.8434 93.5,56.5C 92.7691,54.5988 92.7691,52.5988 93.5,50.5C 91.1667,50.5 88.8333,50.5 86.5,50.5C 88.6287,49.7972 90.6287,48.7972 92.5,47.5C 94.0418,46.6993 95.7085,46.366 97.5,46.5 Z"/></g>
<g><path style="opacity:1" fill="#e0974c" d="M 99.5,47.5 C 98.791,48.404 97.791,48.7373 96.5,48.5C 96.0022,51.4869 95.5022,54.4869 95,57.5C 92.8422,58.677 91.3422,58.0103 90.5,55.5C 90.6799,54.4461 91.0133,53.4461 91.5,52.5C 89.3635,51.2072 87.3635,51.2072 85.5,52.5C 84.8333,52.5 84.1667,52.5 83.5,52.5C 75.9437,54.7664 69.6104,58.7664 64.5,64.5C 60.5766,67.4767 56.5766,70.4767 52.5,73.5C 60.6037,61.0635 71.9371,53.3969 86.5,50.5C 88.8333,50.5 91.1667,50.5 93.5,50.5C 92.7691,52.5988 92.7691,54.5988 93.5,56.5C 94.2592,53.8434 94.9258,51.1767 95.5,48.5C 96.6888,47.5713 98.0222,47.238 99.5,47.5 Z"/></g>
<g><path style="opacity:1" fill="#f6972d" d="M 83.5,52.5 C 84.1667,52.5 84.8333,52.5 85.5,52.5C 86.8734,52.3433 88.2068,52.51 89.5,53C 88.2446,58.8945 90.578,60.7279 96.5,58.5C 96.3976,53.428 98.7309,51.5946 103.5,53C 106.388,59.2223 110.388,60.0556 115.5,55.5C 115.833,56 116.167,56.5 116.5,57C 115.318,58.7351 113.651,59.7351 111.5,60C 115.521,62.259 119.188,61.759 122.5,58.5C 123.491,60.3231 124.824,61.8231 126.5,63C 125.941,63.7247 125.608,64.5581 125.5,65.5C 126.004,68.8648 126.671,72.1981 127.5,75.5C 130.16,76.7026 132.827,76.7026 135.5,75.5C 135.389,76.1174 135.056,76.6174 134.5,77C 131.792,77.851 129.292,78.351 127,78.5C 126.417,76.9984 125.584,75.6651 124.5,74.5C 123.781,76.5167 122.614,78.1834 121,79.5C 120.5,79.1667 120,78.8333 119.5,78.5C 121.298,75.7107 121.798,72.7107 121,69.5C 119.961,70.7101 118.794,71.7101 117.5,72.5C 117.66,70.8008 117.494,69.1341 117,67.5C 115.951,66.4829 114.784,66.3162 113.5,67C 112.55,69.4321 112.55,71.9321 113.5,74.5C 114.959,74.5674 116.292,74.2341 117.5,73.5C 116.854,75.1561 116.187,76.8228 115.5,78.5C 117.763,87.7394 114.429,90.9061 105.5,88C 104.833,87 104.167,86 103.5,85C 103.734,81.6256 103.734,78.2923 103.5,75C 102.906,74.5357 102.239,74.369 101.5,74.5C 102.059,72.3208 102.726,70.1542 103.5,68C 103.07,66.5659 102.236,65.3992 101,64.5C 96.4491,64.6472 94.1158,66.9805 94,71.5C 92.9887,70.6634 91.8221,70.33 90.5,70.5C 90.2279,66.1862 88.8945,65.6862 86.5,69C 84.1902,69.4966 81.8568,69.6633 79.5,69.5C 79.33,68.1779 79.6634,67.0113 80.5,66C 82.5,65.6667 84.5,65.3333 86.5,65C 86.9574,64.586 87.2907,64.086 87.5,63.5C 85.6385,62.4717 84.3052,60.9717 83.5,59C 81.7536,58.5291 80.087,57.8624 78.5,57C 80.0429,55.2608 81.7096,53.7608 83.5,52.5 Z"/></g>
<g><path style="opacity:0.949" fill="#663e24" d="M 138.5,48.5 C 140.5,48.8333 142.5,49.1667 144.5,49.5C 146.819,49.9925 148.819,50.9925 150.5,52.5C 151.659,54.2503 153.326,55.2503 155.5,55.5C 156.492,55.3284 157.158,55.6618 157.5,56.5C 158.759,57.9791 159.759,59.6458 160.5,61.5C 159.833,61.5 159.167,61.5 158.5,61.5C 158.047,60.5416 157.381,59.7083 156.5,59C 150.132,55.9928 143.799,52.9928 137.5,50C 124.342,47.0526 111.009,45.886 97.5,46.5C 101.574,45.0456 105.907,44.3789 110.5,44.5C 119.882,45.5125 129.215,46.8458 138.5,48.5 Z"/></g>
<g><path style="opacity:0.125" fill="#d8cdc5" d="M 150.5,52.5 C 152.674,52.7497 154.341,53.7497 155.5,55.5C 153.326,55.2503 151.659,54.2503 150.5,52.5 Z"/></g>
<g><path style="opacity:1" fill="#f19836" d="M 99.5,47.5 C 103.007,47.3067 106.34,47.9733 109.5,49.5C 113.442,48.4001 117.442,48.2334 121.5,49C 120.577,51.0408 120.244,53.2075 120.5,55.5C 122.167,55.5 123.833,55.5 125.5,55.5C 126.15,55.8039 126.817,56.1373 127.5,56.5C 127.833,55.8333 128.167,55.1667 128.5,54.5C 133.79,58.9532 138.957,63.6199 144,68.5C 144.41,69.9007 144.91,71.234 145.5,72.5C 142.856,70.4145 139.856,68.7478 136.5,67.5C 135.52,70.0865 135.187,72.7531 135.5,75.5C 132.827,76.7026 130.16,76.7026 127.5,75.5C 126.671,72.1981 126.004,68.8648 125.5,65.5C 125.608,64.5581 125.941,63.7247 126.5,63C 124.824,61.8231 123.491,60.3231 122.5,58.5C 119.188,61.759 115.521,62.259 111.5,60C 113.651,59.7351 115.318,58.7351 116.5,57C 116.167,56.5 115.833,56 115.5,55.5C 110.388,60.0556 106.388,59.2223 103.5,53C 98.7309,51.5946 96.3976,53.428 96.5,58.5C 90.578,60.7279 88.2446,58.8945 89.5,53C 88.2068,52.51 86.8734,52.3433 85.5,52.5C 87.3635,51.2072 89.3635,51.2072 91.5,52.5C 91.0133,53.4461 90.6799,54.4461 90.5,55.5C 91.3422,58.0103 92.8422,58.677 95,57.5C 95.5022,54.4869 96.0022,51.4869 96.5,48.5C 97.791,48.7373 98.791,48.404 99.5,47.5 Z"/></g>
<g><path style="opacity:0.882" fill="#856a56" d="M 157.5,56.5 C 161.238,58.697 164.571,61.3637 167.5,64.5C 165.5,63.8333 163.5,63.1667 161.5,62.5C 160.833,62.5 160.5,62.1667 160.5,61.5C 159.759,59.6458 158.759,57.9791 157.5,56.5 Z"/></g>
<g><path style="opacity:0.416" fill="#a18f84" d="M 61.5,59.5 C 60.0892,61.914 58.0892,63.5806 55.5,64.5C 56.9108,62.086 58.9108,60.4194 61.5,59.5 Z"/></g>
<g><path style="opacity:1" fill="#d07933" d="M 151.5,58.5 C 146.821,56.4207 143.154,57.5873 140.5,62C 141.905,63.2692 143.571,63.7692 145.5,63.5C 146.553,66.0788 147.887,68.5788 149.5,71C 148.956,71.7172 148.289,72.2172 147.5,72.5C 146.833,72.5 146.167,72.5 145.5,72.5C 144.91,71.234 144.41,69.9007 144,68.5C 138.957,63.6199 133.79,58.9532 128.5,54.5C 128.167,55.1667 127.833,55.8333 127.5,56.5C 126.817,56.1373 126.15,55.8039 125.5,55.5C 126.234,54.2921 126.567,52.9587 126.5,51.5C 130.167,51.5 133.833,51.5 137.5,51.5C 137.338,53.5273 137.505,55.5273 138,57.5C 138.414,57.9574 138.914,58.2907 139.5,58.5C 140.711,57.7261 140.711,56.8928 139.5,56C 143.973,55.0379 147.973,55.8713 151.5,58.5 Z"/></g>
<g><path style="opacity:0.278" fill="#ab9b88" d="M 167.5,64.5 C 169.262,65.2623 170.262,66.5956 170.5,68.5C 168.738,67.7377 167.738,66.4044 167.5,64.5 Z"/></g>
<g><path style="opacity:1" fill="#d79a49" d="M 117.5,72.5 C 117.5,72.8333 117.5,73.1667 117.5,73.5C 116.292,74.2341 114.959,74.5674 113.5,74.5C 112.55,71.9321 112.55,69.4321 113.5,67C 114.784,66.3162 115.951,66.4829 117,67.5C 117.494,69.1341 117.66,70.8008 117.5,72.5 Z"/></g>
<g><path style="opacity:1" fill="#f7972b" d="M 101.5,74.5 C 102.239,74.369 102.906,74.5357 103.5,75C 103.734,78.2923 103.734,81.6256 103.5,85C 104.167,86 104.833,87 105.5,88C 114.429,90.9061 117.763,87.7394 115.5,78.5C 116.187,76.8228 116.854,75.1561 117.5,73.5C 117.5,73.1667 117.5,72.8333 117.5,72.5C 118.794,71.7101 119.961,70.7101 121,69.5C 121.798,72.7107 121.298,75.7107 119.5,78.5C 120,78.8333 120.5,79.1667 121,79.5C 122.614,78.1834 123.781,76.5167 124.5,74.5C 125.584,75.6651 126.417,76.9984 127,78.5C 129.292,78.351 131.792,77.851 134.5,77C 135.056,76.6174 135.389,76.1174 135.5,75.5C 135.187,72.7531 135.52,70.0865 136.5,67.5C 139.856,68.7478 142.856,70.4145 145.5,72.5C 146.167,72.5 146.833,72.5 147.5,72.5C 150.901,75.4644 152.901,79.2977 153.5,84C 151.971,85.582 151.471,87.4153 152,89.5C 154.437,86.8506 155.77,87.5172 156,91.5C 156.868,97.0247 155.701,102.025 152.5,106.5C 147.5,106.5 142.5,106.5 137.5,106.5C 121.83,106.667 106.163,106.5 90.5,106C 89.5,105.667 88.5,105.333 87.5,105C 88.4158,104.722 89.0825,104.222 89.5,103.5C 89.3893,102.883 89.056,102.383 88.5,102C 93.2546,100.097 93.4213,98.2633 89,96.5C 84.7523,97.2345 80.5856,98.2345 76.5,99.5C 71.5841,99.3138 66.5841,99.1471 61.5,99C 59.8988,98.7266 58.3988,98.2266 57,97.5C 55.9935,90.6702 57.8269,84.8369 62.5,80C 63.9437,79.2195 65.277,79.3861 66.5,80.5C 65.1667,82.8333 65.1667,85.1667 66.5,87.5C 68.0064,88.7472 69.5064,88.7472 71,87.5C 71.6667,85.1667 71.6667,82.8333 71,80.5C 69.9887,79.6634 68.8221,79.33 67.5,79.5C 68.7084,76.3062 69.7084,72.9728 70.5,69.5C 72.059,68.5535 73.7257,67.8868 75.5,67.5C 77.2664,67.4342 78.2664,68.2676 78.5,70C 75.7646,71.5243 73.7646,73.691 72.5,76.5C 72.5454,79.1895 73.8787,80.5228 76.5,80.5C 76.5331,83.5426 77.8664,85.8759 80.5,87.5C 83.772,84.8505 86.1054,85.6839 87.5,90C 91.2928,91.052 93.2928,89.552 93.5,85.5C 91.1667,83.5 88.8333,81.5 86.5,79.5C 87.2692,76.8853 87.6025,74.2186 87.5,71.5C 88.5,71.5 89.5,71.5 90.5,71.5C 90.5,73.8333 90.5,76.1667 90.5,78.5C 91.5,78.5 92.5,78.5 93.5,78.5C 93.3433,77.1266 93.51,75.7932 94,74.5C 96.494,77.0858 98.994,77.0858 101.5,74.5 Z"/></g>
<g><path style="opacity:0.82" fill="#8c7a6a" d="M 55.5,64.5 C 53.8777,68.0907 51.5443,71.0907 48.5,73.5C 50.1108,69.9485 52.4442,66.9485 55.5,64.5 Z"/></g>
<g><path style="opacity:1" fill="#d97321" d="M 151.5,58.5 C 153.027,58.427 154.027,59.0937 154.5,60.5C 156.132,61.832 157.799,63.1653 159.5,64.5C 156.013,65.5088 154.68,67.8422 155.5,71.5C 156.873,71.6567 158.207,71.49 159.5,71C 161.055,68.5346 163.055,68.0346 165.5,69.5C 168.515,73.3584 170.682,77.6917 172,82.5C 176.406,85.4825 178.239,89.6492 177.5,95C 177.333,97.1667 177.167,99.3333 177,101.5C 175.117,102.653 174.284,104.319 174.5,106.5C 167.167,106.5 159.833,106.5 152.5,106.5C 155.701,102.025 156.868,97.0247 156,91.5C 155.77,87.5172 154.437,86.8506 152,89.5C 151.471,87.4153 151.971,85.582 153.5,84C 152.901,79.2977 150.901,75.4644 147.5,72.5C 148.289,72.2172 148.956,71.7172 149.5,71C 147.887,68.5788 146.553,66.0788 145.5,63.5C 143.571,63.7692 141.905,63.2692 140.5,62C 143.154,57.5873 146.821,56.4207 151.5,58.5 Z"/></g>
<g><path style="opacity:1" fill="#c4783b" d="M 154.5,60.5 C 155.833,60.8333 157.167,61.1667 158.5,61.5C 159.167,61.5 159.833,61.5 160.5,61.5C 160.5,62.1667 160.833,62.5 161.5,62.5C 169.305,69.439 175.138,77.7723 179,87.5C 181.435,93.8456 180.935,99.8456 177.5,105.5C 176.272,106.306 175.272,107.306 174.5,108.5C 139.996,108.832 105.663,108.498 71.5,107.5C 72.1667,107.5 72.8333,107.5 73.5,107.5C 95.0065,107.831 116.34,107.497 137.5,106.5C 142.5,106.5 147.5,106.5 152.5,106.5C 159.833,106.5 167.167,106.5 174.5,106.5C 174.284,104.319 175.117,102.653 177,101.5C 177.167,99.3333 177.333,97.1667 177.5,95C 178.239,89.6492 176.406,85.4825 172,82.5C 170.682,77.6917 168.515,73.3584 165.5,69.5C 163.055,68.0346 161.055,68.5346 159.5,71C 158.207,71.49 156.873,71.6567 155.5,71.5C 154.68,67.8422 156.013,65.5088 159.5,64.5C 157.799,63.1653 156.132,61.832 154.5,60.5 Z"/></g>
<g><path style="opacity:1" fill="#eb9841" d="M 121.5,81.5 C 123.833,81.5 126.167,81.5 128.5,81.5C 128.663,83.8568 128.497,86.1902 128,88.5C 121.598,90.2628 119.431,87.9295 121.5,81.5 Z"/></g>
<g><path style="opacity:1" fill="#f3ac50" d="M 89.5,103.5 C 89.0825,104.222 88.4158,104.722 87.5,105C 88.5,105.333 89.5,105.667 90.5,106C 106.163,106.5 121.83,106.667 137.5,106.5C 116.34,107.497 95.0065,107.831 73.5,107.5C 64.7903,106.232 55.957,105.232 47,104.5C 44.7062,96.2848 45.2062,88.2848 48.5,80.5C 49.5,80.5 50.5,80.5 51.5,80.5C 51.9926,78.1944 52.3259,75.861 52.5,73.5C 56.5766,70.4767 60.5766,67.4767 64.5,64.5C 66.5504,64.0388 68.5504,63.3721 70.5,62.5C 71.4287,63.6888 71.762,65.0222 71.5,66.5C 69.8561,66.2865 68.3561,66.6198 67,67.5C 66.2811,71.1454 65.7811,74.8121 65.5,78.5C 62.5995,78.2796 59.9329,78.9462 57.5,80.5C 54.081,86.4946 52.7476,92.8279 53.5,99.5C 54.8928,100.863 56.5595,101.696 58.5,102C 68.8295,102.648 79.1628,103.148 89.5,103.5 Z"/></g>
<g><path style="opacity:0.894" fill="#6b432a" d="M 161.5,62.5 C 163.5,63.1667 165.5,63.8333 167.5,64.5C 167.738,66.4044 168.738,67.7377 170.5,68.5C 179.883,77.589 183.883,88.589 182.5,101.5C 181.512,102.795 180.512,104.128 179.5,105.5C 178.833,105.5 178.167,105.5 177.5,105.5C 180.935,99.8456 181.435,93.8456 179,87.5C 175.138,77.7723 169.305,69.439 161.5,62.5 Z"/></g>
<g><path style="opacity:1" fill="#f39932" d="M 83.5,52.5 C 81.7096,53.7608 80.0429,55.2608 78.5,57C 80.087,57.8624 81.7536,58.5291 83.5,59C 84.3052,60.9717 85.6385,62.4717 87.5,63.5C 87.2907,64.086 86.9574,64.586 86.5,65C 84.5,65.3333 82.5,65.6667 80.5,66C 79.6634,67.0113 79.33,68.1779 79.5,69.5C 81.8568,69.6633 84.1902,69.4966 86.5,69C 88.8945,65.6862 90.2279,66.1862 90.5,70.5C 91.8221,70.33 92.9887,70.6634 94,71.5C 94.1158,66.9805 96.4491,64.6472 101,64.5C 102.236,65.3992 103.07,66.5659 103.5,68C 102.726,70.1542 102.059,72.3208 101.5,74.5C 98.994,77.0858 96.494,77.0858 94,74.5C 93.51,75.7932 93.3433,77.1266 93.5,78.5C 92.5,78.5 91.5,78.5 90.5,78.5C 90.5,76.1667 90.5,73.8333 90.5,71.5C 89.5,71.5 88.5,71.5 87.5,71.5C 87.6025,74.2186 87.2692,76.8853 86.5,79.5C 88.8333,81.5 91.1667,83.5 93.5,85.5C 93.2928,89.552 91.2928,91.052 87.5,90C 86.1054,85.6839 83.772,84.8505 80.5,87.5C 77.8664,85.8759 76.5331,83.5426 76.5,80.5C 73.8787,80.5228 72.5454,79.1895 72.5,76.5C 73.7646,73.691 75.7646,71.5243 78.5,70C 78.2664,68.2676 77.2664,67.4342 75.5,67.5C 73.7257,67.8868 72.059,68.5535 70.5,69.5C 69.7084,72.9728 68.7084,76.3062 67.5,79.5C 68.8221,79.33 69.9887,79.6634 71,80.5C 71.6667,82.8333 71.6667,85.1667 71,87.5C 69.5064,88.7472 68.0064,88.7472 66.5,87.5C 65.1667,85.1667 65.1667,82.8333 66.5,80.5C 65.277,79.3861 63.9437,79.2195 62.5,80C 57.8269,84.8369 55.9935,90.6702 57,97.5C 58.3988,98.2266 59.8988,98.7266 61.5,99C 66.5841,99.1471 71.5841,99.3138 76.5,99.5C 80.5856,98.2345 84.7523,97.2345 89,96.5C 93.4213,98.2633 93.2546,100.097 88.5,102C 89.056,102.383 89.3893,102.883 89.5,103.5C 79.1628,103.148 68.8295,102.648 58.5,102C 56.5595,101.696 54.8928,100.863 53.5,99.5C 52.7476,92.8279 54.081,86.4946 57.5,80.5C 59.9329,78.9462 62.5995,78.2796 65.5,78.5C 65.7811,74.8121 66.2811,71.1454 67,67.5C 68.3561,66.6198 69.8561,66.2865 71.5,66.5C 71.762,65.0222 71.4287,63.6888 70.5,62.5C 68.5504,63.3721 66.5504,64.0388 64.5,64.5C 69.6104,58.7664 75.9437,54.7664 83.5,52.5 Z"/></g>
<g><path style="opacity:1" fill="#614835" d="M 44.5,80.5 C 43.3404,86.2908 42.3404,92.1241 41.5,98C 41.6484,99.707 41.9818,101.374 42.5,103C 41.9444,104.011 41.2778,104.844 40.5,105.5C 40.1667,106.5 39.5,107.167 38.5,107.5C 38.5,105.167 38.5,102.833 38.5,100.5C 38.97,93.2672 40.97,86.6005 44.5,80.5 Z"/></g>
<g><path style="opacity:0.898" fill="#766e56" d="M 182.5,101.5 C 183.75,103.823 185.083,106.156 186.5,108.5C 185.833,108.167 185.167,107.833 184.5,107.5C 183.833,107.5 183.5,107.167 183.5,106.5C 182.432,105.566 181.099,105.232 179.5,105.5C 180.512,104.128 181.512,102.795 182.5,101.5 Z"/></g>
<g><path style="opacity:1" fill="#dba15f" d="M 52.5,73.5 C 52.3259,75.861 51.9926,78.1944 51.5,80.5C 50.5,80.5 49.5,80.5 48.5,80.5C 45.2062,88.2848 44.7062,96.2848 47,104.5C 55.957,105.232 64.7903,106.232 73.5,107.5C 72.8333,107.5 72.1667,107.5 71.5,107.5C 63.1302,107.623 54.7969,107.123 46.5,106C 45.6667,105.167 44.8333,104.333 44,103.5C 42.669,95.0876 43.8356,87.0876 47.5,79.5C 48.69,77.1307 50.3567,75.1307 52.5,73.5 Z"/></g>
<g><path style="opacity:1" fill="#5b340a" d="M 47.5,79.5 C 43.8356,87.0876 42.669,95.0876 44,103.5C 44.8333,104.333 45.6667,105.167 46.5,106C 54.7969,107.123 63.1302,107.623 71.5,107.5C 105.663,108.498 139.996,108.832 174.5,108.5C 134.669,109.665 94.6688,109.831 54.5,109C 50.2482,108.44 46.2482,107.273 42.5,105.5C 41.8333,105.5 41.1667,105.5 40.5,105.5C 41.2778,104.844 41.9444,104.011 42.5,103C 41.9818,101.374 41.6484,99.707 41.5,98C 42.3404,92.1241 43.3404,86.2908 44.5,80.5C 45.609,80.4431 46.609,80.1098 47.5,79.5 Z"/></g>
<g><path style="opacity:0.812" fill="#c3c9ad" d="M 38.5,100.5 C 38.5,102.833 38.5,105.167 38.5,107.5C 38.7373,108.791 38.404,109.791 37.5,110.5C 36.8333,111.833 36.1667,113.167 35.5,114.5C 35.8985,109.588 36.8985,104.921 38.5,100.5 Z"/></g>
<g><path style="opacity:1" fill="#493c0a" d="M 42.5,105.5 C 46.2482,107.273 50.2482,108.44 54.5,109C 94.6688,109.831 134.669,109.665 174.5,108.5C 175.272,107.306 176.272,106.306 177.5,105.5C 178.167,105.5 178.833,105.5 179.5,105.5C 181.099,105.232 182.432,105.566 183.5,106.5C 181.847,106.66 180.514,107.326 179.5,108.5C 178.244,108.461 177.244,108.961 176.5,110C 133.5,110.667 90.5,110.667 47.5,110C 46.4734,109.487 45.4734,108.987 44.5,108.5C 44.1667,108.5 43.8333,108.5 43.5,108.5C 43.4431,107.391 43.1098,106.391 42.5,105.5 Z"/></g>
<g><path style="opacity:1" fill="#868e4c" d="M 44.5,108.5 C 45.4734,108.987 46.4734,109.487 47.5,110C 90.5,110.667 133.5,110.667 176.5,110C 177.244,108.961 178.244,108.461 179.5,108.5C 179.047,109.458 178.381,110.292 177.5,111C 173.179,111.499 168.846,111.666 164.5,111.5C 125.5,111.5 86.5,111.5 47.5,111.5C 45.5,111.5 44.5,110.5 44.5,108.5 Z"/></g>
<g><path style="opacity:1" fill="#71a131" d="M 43.5,108.5 C 43.8333,108.5 44.1667,108.5 44.5,108.5C 44.5,110.5 45.5,111.5 47.5,111.5C 49.9686,112.317 52.6353,112.817 55.5,113C 51.1065,115.374 46.4398,116.041 41.5,115C 39.771,113.211 39.1043,111.044 39.5,108.5C 40.8333,108.5 42.1667,108.5 43.5,108.5 Z"/></g>
<g><path style="opacity:1" fill="#608622" d="M 40.5,105.5 C 41.1667,105.5 41.8333,105.5 42.5,105.5C 43.1098,106.391 43.4431,107.391 43.5,108.5C 42.1667,108.5 40.8333,108.5 39.5,108.5C 39.1043,111.044 39.771,113.211 41.5,115C 46.4398,116.041 51.1065,115.374 55.5,113C 52.6353,112.817 49.9686,112.317 47.5,111.5C 86.5,111.5 125.5,111.5 164.5,111.5C 162.112,114.538 159.112,116.871 155.5,118.5C 146.195,111.889 136.862,111.889 127.5,118.5C 128.34,119.735 129.34,120.735 130.5,121.5C 129.833,122.5 129.167,123.5 128.5,124.5C 126.735,125.461 124.735,125.795 122.5,125.5C 122.5,125.167 122.5,124.833 122.5,124.5C 124.103,124.688 125.437,124.188 126.5,123C 122.673,121.254 119.007,119.254 115.5,117C 114.663,115.989 114.33,114.822 114.5,113.5C 109.039,113.211 104.039,114.544 99.5,117.5C 96.1667,115.833 92.8333,114.167 89.5,112.5C 85.9463,114.484 82.2796,114.817 78.5,113.5C 75.4456,115.694 72.1122,117.361 68.5,118.5C 65.0985,115.64 62.0985,115.974 59.5,119.5C 58.3593,117.771 56.6926,116.771 54.5,116.5C 53.2739,116.52 52.2739,116.853 51.5,117.5C 51.1667,117.5 50.8333,117.5 50.5,117.5C 47.1501,117.665 43.8168,117.498 40.5,117C 39.086,115.007 38.086,112.84 37.5,110.5C 38.404,109.791 38.7373,108.791 38.5,107.5C 39.5,107.167 40.1667,106.5 40.5,105.5 Z"/></g>
<g><path style="opacity:1" fill="#5f5e37" d="M 37.5,110.5 C 38.086,112.84 39.086,115.007 40.5,117C 43.8168,117.498 47.1501,117.665 50.5,117.5C 50.5,118.167 50.5,118.833 50.5,119.5C 49.5,119.5 48.5,119.5 47.5,119.5C 44.0912,120.667 40.4246,120.667 36.5,119.5C 35.9969,114.5 35.6636,114.833 35.5,120.5C 34.1667,118.5 34.1667,116.5 35.5,114.5C 36.1667,113.167 36.8333,111.833 37.5,110.5 Z"/></g>
<g><path style="opacity:0.576" fill="#7a7661" d="M 186.5,108.5 C 188.298,112.219 188.798,116.219 188,120.5C 186.887,121.305 185.721,121.972 184.5,122.5C 182.942,121.629 181.275,120.629 179.5,119.5C 181.722,119.822 183.556,119.155 185,117.5C 186.289,114.649 186.789,111.649 186.5,108.5 Z"/></g>
<g><path style="opacity:1" fill="#80973d" d="M 183.5,106.5 C 183.5,107.167 183.833,107.5 184.5,107.5C 186.517,114.445 183.851,118.111 176.5,118.5C 174.865,117.954 173.199,117.62 171.5,117.5C 167.788,117.877 164.788,119.544 162.5,122.5C 162.167,122.5 161.833,122.5 161.5,122.5C 162.588,120.417 163.588,118.251 164.5,116C 170.491,115.501 176.491,115.334 182.5,115.5C 183.014,113.488 183.18,111.488 183,109.5C 181.989,108.663 180.822,108.33 179.5,108.5C 180.514,107.326 181.847,106.66 183.5,106.5 Z"/></g>
<g><path style="opacity:1" fill="#56530f" d="M 51.5,117.5 C 52.2739,116.853 53.2739,116.52 54.5,116.5C 56.6926,116.771 58.3593,117.771 59.5,119.5C 59.8333,120.167 60.1667,120.833 60.5,121.5C 60.1667,121.5 59.8333,121.5 59.5,121.5C 58.5,121.5 57.5,121.5 56.5,121.5C 56.5,120.5 56.5,119.5 56.5,118.5C 54.7839,118.371 53.1172,118.038 51.5,117.5 Z"/></g>
<g><path style="opacity:1" fill="#4d5103" d="M 96.5,123.5 C 93.4111,122.261 90.4111,120.761 87.5,119C 84.8078,118.57 82.1411,118.737 79.5,119.5C 86.1215,116.065 91.7882,117.398 96.5,123.5 Z"/></g>
<g><path style="opacity:1" fill="#474905" d="M 159.5,123.5 C 156.375,124.479 153.042,124.813 149.5,124.5C 147.002,121.514 143.836,119.514 140,118.5C 136.046,120.292 132.213,122.292 128.5,124.5C 129.167,123.5 129.833,122.5 130.5,121.5C 132.595,120.588 134.595,119.421 136.5,118C 139.167,117.333 141.833,117.333 144.5,118C 148.446,122.637 153.446,124.47 159.5,123.5 Z"/></g>
<g><path style="opacity:1" fill="#424814" d="M 184.5,107.5 C 185.167,107.833 185.833,108.167 186.5,108.5C 186.789,111.649 186.289,114.649 185,117.5C 183.556,119.155 181.722,119.822 179.5,119.5C 178.167,119.5 176.833,119.5 175.5,119.5C 173.847,119.34 172.514,118.674 171.5,117.5C 173.199,117.62 174.865,117.954 176.5,118.5C 183.851,118.111 186.517,114.445 184.5,107.5 Z"/></g>
<g><path style="opacity:1" fill="#c29b4e" d="M 50.5,117.5 C 50.8333,117.5 51.1667,117.5 51.5,117.5C 53.1172,118.038 54.7839,118.371 56.5,118.5C 56.5,119.5 56.5,120.5 56.5,121.5C 54.3024,121.125 52.3024,120.458 50.5,119.5C 50.5,118.833 50.5,118.167 50.5,117.5 Z"/></g>
<g><path style="opacity:1" fill="#78a935" d="M 122.5,124.5 C 118.882,122.443 115.048,120.777 111,119.5C 109.124,119.525 107.624,120.191 106.5,121.5C 103.5,122.167 100.5,122.833 97.5,123.5C 97.1667,123.5 96.8333,123.5 96.5,123.5C 91.7882,117.398 86.1215,116.065 79.5,119.5C 78.8333,119.5 78.5,119.833 78.5,120.5C 72.6049,122.486 66.6049,122.819 60.5,121.5C 60.1667,120.833 59.8333,120.167 59.5,119.5C 62.0985,115.974 65.0985,115.64 68.5,118.5C 72.1122,117.361 75.4456,115.694 78.5,113.5C 82.2796,114.817 85.9463,114.484 89.5,112.5C 92.8333,114.167 96.1667,115.833 99.5,117.5C 104.039,114.544 109.039,113.211 114.5,113.5C 114.33,114.822 114.663,115.989 115.5,117C 119.007,119.254 122.673,121.254 126.5,123C 125.437,124.188 124.103,124.688 122.5,124.5 Z"/></g>
<g><path style="opacity:1" fill="#b9854c" d="M 171.5,117.5 C 172.514,118.674 173.847,119.34 175.5,119.5C 175.5,119.833 175.5,120.167 175.5,120.5C 171.076,120.652 166.743,121.319 162.5,122.5C 164.788,119.544 167.788,117.877 171.5,117.5 Z"/></g>
<g><path style="opacity:1" fill="#4e5303" d="M 122.5,124.5 C 122.5,124.833 122.5,125.167 122.5,125.5C 118.392,124.531 114.559,122.864 111,120.5C 109.644,121.38 108.144,121.714 106.5,121.5C 107.624,120.191 109.124,119.525 111,119.5C 115.048,120.777 118.882,122.443 122.5,124.5 Z"/></g>
<g><path style="opacity:1" fill="#79a434" d="M 179.5,108.5 C 180.822,108.33 181.989,108.663 183,109.5C 183.18,111.488 183.014,113.488 182.5,115.5C 176.491,115.334 170.491,115.501 164.5,116C 163.588,118.251 162.588,120.417 161.5,122.5C 161.158,123.338 160.492,123.672 159.5,123.5C 153.446,124.47 148.446,122.637 144.5,118C 141.833,117.333 139.167,117.333 136.5,118C 134.595,119.421 132.595,120.588 130.5,121.5C 129.34,120.735 128.34,119.735 127.5,118.5C 136.862,111.889 146.195,111.889 155.5,118.5C 159.112,116.871 162.112,114.538 164.5,111.5C 168.846,111.666 173.179,111.499 177.5,111C 178.381,110.292 179.047,109.458 179.5,108.5 Z"/></g>
<g><path style="opacity:1" fill="#825532" d="M 47.5,120.5 C 47.5,120.167 47.5,119.833 47.5,119.5C 48.5,119.5 49.5,119.5 50.5,119.5C 52.3024,120.458 54.3024,121.125 56.5,121.5C 57.5,121.5 58.5,121.5 59.5,121.5C 59.9175,122.222 60.5842,122.722 61.5,123C 65.4862,123.499 69.4862,123.666 73.5,123.5C 73.5,124.167 73.5,124.833 73.5,125.5C 71.8333,125.5 70.1667,125.5 68.5,125.5C 61.7251,124.473 55.0584,122.806 48.5,120.5C 48.1667,120.5 47.8333,120.5 47.5,120.5 Z"/></g>
<g><path style="opacity:1" fill="#808d38" d="M 78.5,120.5 C 78.4431,121.609 78.1098,122.609 77.5,123.5C 76.1667,123.5 74.8333,123.5 73.5,123.5C 69.4862,123.666 65.4862,123.499 61.5,123C 60.5842,122.722 59.9175,122.222 59.5,121.5C 59.8333,121.5 60.1667,121.5 60.5,121.5C 66.6049,122.819 72.6049,122.486 78.5,120.5 Z"/></g>
<g><path style="opacity:1" fill="#545302" d="M 106.5,121.5 C 105.833,122.167 105.167,122.833 104.5,123.5C 101.995,124.417 99.6618,124.417 97.5,123.5C 100.5,122.833 103.5,122.167 106.5,121.5 Z"/></g>
<g><path style="opacity:1" fill="#73483e" d="M 175.5,119.5 C 176.833,119.5 178.167,119.5 179.5,119.5C 181.275,120.629 182.942,121.629 184.5,122.5C 185.331,128.427 185.331,134.427 184.5,140.5C 182.167,140.5 179.833,140.5 177.5,140.5C 175.025,140.253 175.025,139.587 177.5,138.5C 179.021,135.547 180.021,132.714 180.5,130C 180.138,128.775 179.638,127.609 179,126.5C 178.667,126.833 178.333,127.167 178,127.5C 176.587,125.348 175.754,123.014 175.5,120.5C 175.5,120.167 175.5,119.833 175.5,119.5 Z"/></g>
<g><path style="opacity:1" fill="#dbb443" d="M 96.5,123.5 C 96.8333,123.5 97.1667,123.5 97.5,123.5C 99.6618,124.417 101.995,124.417 104.5,123.5C 102.167,125.5 99.8333,127.5 97.5,129.5C 91.8039,128.412 86.4706,126.412 81.5,123.5C 80.2736,124.363 78.9403,124.363 77.5,123.5C 78.1098,122.609 78.4431,121.609 78.5,120.5C 78.5,119.833 78.8333,119.5 79.5,119.5C 82.1411,118.737 84.8078,118.57 87.5,119C 90.4111,120.761 93.4111,122.261 96.5,123.5 Z"/></g>
<g><path style="opacity:1" fill="#d3b34b" d="M 149.5,124.5 C 149.158,125.338 148.492,125.672 147.5,125.5C 146.688,124.007 145.355,123.34 143.5,123.5C 139.45,124.069 135.784,125.403 132.5,127.5C 128.948,128.276 125.614,129.609 122.5,131.5C 122.762,130.022 122.429,128.689 121.5,127.5C 116.319,123.653 110.652,122.319 104.5,123.5C 105.167,122.833 105.833,122.167 106.5,121.5C 108.144,121.714 109.644,121.38 111,120.5C 114.559,122.864 118.392,124.531 122.5,125.5C 124.735,125.795 126.735,125.461 128.5,124.5C 132.213,122.292 136.046,120.292 140,118.5C 143.836,119.514 147.002,121.514 149.5,124.5 Z"/></g>
<g><path style="opacity:1" fill="#982f2d" d="M 163.5,124.5 C 162.77,126.045 161.437,126.878 159.5,127C 160.5,127.333 161.5,127.667 162.5,128C 154.951,129.976 147.285,131.31 139.5,132C 138.944,132.383 138.611,132.883 138.5,133.5C 138.565,133.938 138.399,134.272 138,134.5C 137.583,133.244 136.75,132.577 135.5,132.5C 135.5,132.167 135.5,131.833 135.5,131.5C 144.758,128.843 154.091,126.51 163.5,124.5 Z"/></g>
<g><path style="opacity:1" fill="#76210c" d="M 68.5,125.5 C 70.1667,125.5 71.8333,125.5 73.5,125.5C 81.3318,127.882 88.6651,131.215 95.5,135.5C 91.9925,135.08 88.6592,134.08 85.5,132.5C 83.4809,131.067 81.3143,129.733 79,128.5C 75.3099,130.031 71.4765,130.531 67.5,130C 76.3159,128.974 76.6493,127.474 68.5,125.5 Z"/></g>
<g><path style="opacity:1" fill="#d28b38" d="M 73.5,123.5 C 74.8333,123.5 76.1667,123.5 77.5,123.5C 78.9403,124.363 80.2736,124.363 81.5,123.5C 86.4706,126.412 91.8039,128.412 97.5,129.5C 102.17,132.505 106.836,135.505 111.5,138.5C 112.894,138.379 114.228,138.046 115.5,137.5C 116.605,135.389 118.271,134.055 120.5,133.5C 124.818,132.008 128.818,130.008 132.5,127.5C 135.784,125.403 139.45,124.069 143.5,123.5C 145.355,123.34 146.688,124.007 147.5,125.5C 143.412,127.308 139.412,129.308 135.5,131.5C 131.638,132.428 127.971,133.928 124.5,136C 120.957,139.049 117.291,141.882 113.5,144.5C 112.527,143.209 111.527,143.209 110.5,144.5C 108.971,143.237 107.305,142.237 105.5,141.5C 102.839,138.498 99.5055,136.498 95.5,135.5C 88.6651,131.215 81.3318,127.882 73.5,125.5C 73.5,124.833 73.5,124.167 73.5,123.5 Z"/></g>
<g><path style="opacity:0.71" fill="#594336" d="M 47.5,119.5 C 47.5,119.833 47.5,120.167 47.5,120.5C 46.2905,120.932 45.2905,121.599 44.5,122.5C 41.2327,121.1 40.2327,122.1 41.5,125.5C 40.689,126.216 40.0223,127.05 39.5,128C 39.7322,133.623 41.7322,138.457 45.5,142.5C 45.1667,142.5 44.8333,142.5 44.5,142.5C 42.3792,142.325 40.3792,142.659 38.5,143.5C 39.1465,141.844 39.8131,140.177 40.5,138.5C 40.4573,137.584 40.1239,136.917 39.5,136.5C 38.3446,131.12 37.0113,125.786 35.5,120.5C 35.6636,114.833 35.9969,114.5 36.5,119.5C 40.4246,120.667 44.0912,120.667 47.5,119.5 Z"/></g>
<g><path style="opacity:1" fill="#af2a30" d="M 172.5,129.5 C 166.428,132.08 160.095,133.413 153.5,133.5C 148.5,133.5 143.5,133.5 138.5,133.5C 138.611,132.883 138.944,132.383 139.5,132C 147.285,131.31 154.951,129.976 162.5,128C 161.5,127.667 160.5,127.333 159.5,127C 161.437,126.878 162.77,126.045 163.5,124.5C 167.969,122.927 172.302,123.427 176.5,126C 175.295,127.376 173.962,128.542 172.5,129.5 Z"/></g>
<g><path style="opacity:1" fill="#ae3030" d="M 48.5,120.5 C 55.0584,122.806 61.7251,124.473 68.5,125.5C 76.6493,127.474 76.3159,128.974 67.5,130C 71.4765,130.531 75.3099,130.031 79,128.5C 81.3143,129.733 83.4809,131.067 85.5,132.5C 84.3915,133.29 83.0581,133.79 81.5,134C 81.8333,134.333 82.1667,134.667 82.5,135C 71.5758,135.973 61.2424,133.973 51.5,129C 50,127.5 48.5,126 47,124.5C 46.7003,122.934 47.2003,121.601 48.5,120.5 Z"/></g>
<g><path style="opacity:1" fill="#854b01" d="M 132.5,127.5 C 128.818,130.008 124.818,132.008 120.5,133.5C 120.833,132.5 121.5,131.833 122.5,131.5C 125.614,129.609 128.948,128.276 132.5,127.5 Z"/></g>
<g><path style="opacity:1" fill="#eec63d" d="M 122.5,131.5 C 121.5,131.833 120.833,132.5 120.5,133.5C 118.271,134.055 116.605,135.389 115.5,137.5C 114.228,138.046 112.894,138.379 111.5,138.5C 106.836,135.505 102.17,132.505 97.5,129.5C 99.8333,127.5 102.167,125.5 104.5,123.5C 110.652,122.319 116.319,123.653 121.5,127.5C 122.429,128.689 122.762,130.022 122.5,131.5 Z"/></g>
<g><path style="opacity:1" fill="#510d08" d="M 172.5,129.5 C 170.572,131.474 168.239,132.974 165.5,134C 161.534,134.828 157.534,135.328 153.5,135.5C 152.167,135.833 150.833,136.167 149.5,136.5C 145.154,136.666 140.821,136.499 136.5,136C 142.4,135.79 148.066,134.956 153.5,133.5C 160.095,133.413 166.428,132.08 172.5,129.5 Z"/></g>
<g><path style="opacity:1" fill="#79372b" d="M 135.5,131.5 C 135.5,131.833 135.5,132.167 135.5,132.5C 133.862,133.657 132.196,134.824 130.5,136C 131.449,136.617 132.282,136.451 133,135.5C 133.249,136.624 133.749,137.624 134.5,138.5C 139.632,137.879 144.632,137.213 149.5,136.5C 150.833,136.167 152.167,135.833 153.5,135.5C 153.5,136.833 153.5,138.167 153.5,139.5C 151.473,139.338 149.473,139.505 147.5,140C 148.888,140.889 148.722,141.389 147,141.5C 143.282,140.904 139.616,140.238 136,139.5C 135.517,140.448 135.351,141.448 135.5,142.5C 134.5,142.5 133.5,142.5 132.5,142.5C 130.533,142.739 128.699,142.406 127,141.5C 125.246,143.25 123.079,143.917 120.5,143.5C 120.265,142.903 119.765,142.57 119,142.5C 117.2,143.32 115.366,143.986 113.5,144.5C 117.291,141.882 120.957,139.049 124.5,136C 127.971,133.928 131.638,132.428 135.5,131.5 Z"/></g>
<g><path style="opacity:1" fill="#5f2217" d="M 47.5,120.5 C 47.8333,120.5 48.1667,120.5 48.5,120.5C 47.2003,121.601 46.7003,122.934 47,124.5C 48.5,126 50,127.5 51.5,129C 61.2424,133.973 71.5758,135.973 82.5,135C 82.1667,134.667 81.8333,134.333 81.5,134C 83.0581,133.79 84.3915,133.29 85.5,132.5C 88.6592,134.08 91.9925,135.08 95.5,135.5C 99.5055,136.498 102.839,138.498 105.5,141.5C 105.167,141.5 104.833,141.5 104.5,141.5C 101.975,140.319 99.4745,138.986 97,137.5C 95.7496,138.573 94.4162,138.573 93,137.5C 92.0497,138.022 91.2164,138.689 90.5,139.5C 80.2057,137.752 69.8724,135.919 59.5,134C 52.3661,132.844 47.3661,129.011 44.5,122.5C 45.2905,121.599 46.2905,120.932 47.5,120.5 Z"/></g>
<g><path style="opacity:1" fill="#9a544f" d="M 135.5,132.5 C 136.75,132.577 137.583,133.244 138,134.5C 138.399,134.272 138.565,133.938 138.5,133.5C 143.5,133.5 148.5,133.5 153.5,133.5C 148.066,134.956 142.4,135.79 136.5,136C 140.821,136.499 145.154,136.666 149.5,136.5C 144.632,137.213 139.632,137.879 134.5,138.5C 133.749,137.624 133.249,136.624 133,135.5C 132.282,136.451 131.449,136.617 130.5,136C 132.196,134.824 133.862,133.657 135.5,132.5 Z"/></g>
<g><path style="opacity:1" fill="#7b4237" d="M 44.5,122.5 C 47.3661,129.011 52.3661,132.844 59.5,134C 69.8724,135.919 80.2057,137.752 90.5,139.5C 91.2164,138.689 92.0497,138.022 93,137.5C 94.4162,138.573 95.7496,138.573 97,137.5C 99.4745,138.986 101.975,140.319 104.5,141.5C 104.5,141.833 104.5,142.167 104.5,142.5C 85.5447,144.778 66.5447,145.111 47.5,143.5C 47.1583,142.662 46.4916,142.328 45.5,142.5C 41.7322,138.457 39.7322,133.623 39.5,128C 40.0223,127.05 40.689,126.216 41.5,125.5C 40.2327,122.1 41.2327,121.1 44.5,122.5 Z"/></g>
<g><path style="opacity:1" fill="#824439" d="M 175.5,120.5 C 175.754,123.014 176.587,125.348 178,127.5C 178.333,127.167 178.667,126.833 179,126.5C 179.638,127.609 180.138,128.775 180.5,130C 180.021,132.714 179.021,135.547 177.5,138.5C 175.025,139.587 175.025,140.253 177.5,140.5C 176.22,141.931 174.553,142.598 172.5,142.5C 172.53,141.503 172.03,140.836 171,140.5C 160.081,142.132 149.081,143.132 138,143.5C 135.967,143.494 134.134,143.161 132.5,142.5C 133.5,142.5 134.5,142.5 135.5,142.5C 135.351,141.448 135.517,140.448 136,139.5C 139.616,140.238 143.282,140.904 147,141.5C 148.722,141.389 148.888,140.889 147.5,140C 149.473,139.505 151.473,139.338 153.5,139.5C 153.5,138.167 153.5,136.833 153.5,135.5C 157.534,135.328 161.534,134.828 165.5,134C 168.239,132.974 170.572,131.474 172.5,129.5C 173.962,128.542 175.295,127.376 176.5,126C 172.302,123.427 167.969,122.927 163.5,124.5C 154.091,126.51 144.758,128.843 135.5,131.5C 139.412,129.308 143.412,127.308 147.5,125.5C 148.492,125.672 149.158,125.338 149.5,124.5C 153.042,124.813 156.375,124.479 159.5,123.5C 160.492,123.672 161.158,123.338 161.5,122.5C 161.833,122.5 162.167,122.5 162.5,122.5C 166.743,121.319 171.076,120.652 175.5,120.5 Z"/></g>
<g><path style="opacity:1" fill="#785342" d="M 172.5,142.5 C 154.594,144.073 136.594,144.74 118.5,144.5C 118.842,143.662 119.508,143.328 120.5,143.5C 123.079,143.917 125.246,143.25 127,141.5C 128.699,142.406 130.533,142.739 132.5,142.5C 134.134,143.161 135.967,143.494 138,143.5C 149.081,143.132 160.081,142.132 171,140.5C 172.03,140.836 172.53,141.503 172.5,142.5 Z"/></g>
<g><path style="opacity:1" fill="#58370e" d="M 104.5,142.5 C 104.5,142.167 104.5,141.833 104.5,141.5C 104.833,141.5 105.167,141.5 105.5,141.5C 107.305,142.237 108.971,143.237 110.5,144.5C 111.527,143.209 112.527,143.209 113.5,144.5C 115.366,143.986 117.2,143.32 119,142.5C 119.765,142.57 120.265,142.903 120.5,143.5C 119.508,143.328 118.842,143.662 118.5,144.5C 117.833,144.5 117.5,144.833 117.5,145.5C 115.733,146.256 113.9,146.923 112,147.5C 109.953,146.391 107.787,145.724 105.5,145.5C 106.815,144.105 106.481,143.105 104.5,142.5 Z"/></g>
<g><path style="opacity:1" fill="#3a3012" d="M 184.5,140.5 C 184.768,142.099 184.434,143.432 183.5,144.5C 182.359,143.661 181.026,142.994 179.5,142.5C 177.615,143.609 175.615,144.443 173.5,145C 154.836,145.5 136.17,145.667 117.5,145.5C 117.5,144.833 117.833,144.5 118.5,144.5C 136.594,144.74 154.594,144.073 172.5,142.5C 174.553,142.598 176.22,141.931 177.5,140.5C 179.833,140.5 182.167,140.5 184.5,140.5 Z"/></g>
<g><path style="opacity:0.898" fill="#919f79" d="M 39.5,136.5 C 40.1239,136.917 40.4573,137.584 40.5,138.5C 39.8131,140.177 39.1465,141.844 38.5,143.5C 38.0653,146.838 38.7319,149.838 40.5,152.5C 40.8333,153.167 41.1667,153.833 41.5,154.5C 37.8791,153.372 35.8791,150.872 35.5,147C 36.7256,143.395 38.059,139.895 39.5,136.5 Z"/></g>
<g><path style="opacity:1" fill="#6f823d" d="M 44.5,142.5 C 44.8333,142.5 45.1667,142.5 45.5,142.5C 46.4916,142.328 47.1583,142.662 47.5,143.5C 48.2625,144.268 49.2625,144.768 50.5,145C 68.8303,145.5 87.1636,145.667 105.5,145.5C 107.787,145.724 109.953,146.391 112,147.5C 113.9,146.923 115.733,146.256 117.5,145.5C 136.17,145.667 154.836,145.5 173.5,145C 175.615,144.443 177.615,143.609 179.5,142.5C 181.026,142.994 182.359,143.661 183.5,144.5C 183.768,147.119 183.435,149.619 182.5,152C 178.514,152.499 174.514,152.666 170.5,152.5C 169.833,152.5 169.167,152.5 168.5,152.5C 167.833,152.5 167.167,152.5 166.5,152.5C 167.997,151.694 169.664,151.028 171.5,150.5C 174.438,151.575 177.438,151.741 180.5,151C 182.25,149.246 182.917,147.079 182.5,144.5C 180.25,144.181 178.25,144.681 176.5,146C 165.505,146.5 154.505,146.667 143.5,146.5C 139.766,146.323 136.099,146.656 132.5,147.5C 126.077,147.209 119.744,147.542 113.5,148.5C 112.5,148.5 111.5,148.5 110.5,148.5C 108.692,148.509 107.025,148.009 105.5,147C 89.1701,146.5 72.8367,146.333 56.5,146.5C 52.0293,147.089 48.0293,146.423 44.5,144.5C 44.5,143.833 44.5,143.167 44.5,142.5 Z"/></g>
<g><path style="opacity:1" fill="#32250c" d="M 104.5,142.5 C 106.481,143.105 106.815,144.105 105.5,145.5C 87.1636,145.667 68.8303,145.5 50.5,145C 49.2625,144.768 48.2625,144.268 47.5,143.5C 66.5447,145.111 85.5447,144.778 104.5,142.5 Z"/></g>
<g><path style="opacity:1" fill="#646f44" d="M 184.5,140.5 C 189,145.663 188.333,149.996 182.5,153.5C 180.821,153.285 179.821,153.952 179.5,155.5C 178.609,154.89 177.609,154.557 176.5,154.5C 174.302,154.125 172.302,153.458 170.5,152.5C 174.514,152.666 178.514,152.499 182.5,152C 183.435,149.619 183.768,147.119 183.5,144.5C 184.434,143.432 184.768,142.099 184.5,140.5 Z"/></g>
<g><path style="opacity:1" fill="#7e9946" d="M 44.5,142.5 C 44.5,143.167 44.5,143.833 44.5,144.5C 42.8333,144.5 41.1667,144.5 39.5,144.5C 39.1043,147.044 39.771,149.211 41.5,151C 45.4862,151.499 49.4862,151.666 53.5,151.5C 52.1667,152.167 50.8333,152.833 49.5,153.5C 49.1667,153.5 48.8333,153.5 48.5,153.5C 45.7628,153.599 43.0961,153.265 40.5,152.5C 38.7319,149.838 38.0653,146.838 38.5,143.5C 40.3792,142.659 42.3792,142.325 44.5,142.5 Z"/></g>
<g><path style="opacity:1" fill="#59520e" d="M 53.5,151.5 C 55.5,152.5 57.5,153.5 59.5,154.5C 60.1408,155.482 60.8075,156.482 61.5,157.5C 61.3764,158.107 61.0431,158.44 60.5,158.5C 57.9051,154.592 54.2384,152.925 49.5,153.5C 50.8333,152.833 52.1667,152.167 53.5,151.5 Z"/></g>
<g><path style="opacity:1" fill="#76a735" d="M 44.5,144.5 C 48.0293,146.423 52.0293,147.089 56.5,146.5C 60.4405,148.738 64.4405,151.071 68.5,153.5C 71.1732,152.499 73.5065,150.999 75.5,149C 79.9476,147.283 84.4476,147.117 89,148.5C 91.7706,151.099 94.9373,153.099 98.5,154.5C 102.592,152.454 106.592,150.454 110.5,148.5C 111.5,148.5 112.5,148.5 113.5,148.5C 116.802,149.608 120.135,150.941 123.5,152.5C 126.724,151.059 129.724,149.392 132.5,147.5C 136.099,146.656 139.766,146.323 143.5,146.5C 143.5,147.5 143.5,148.5 143.5,149.5C 147.4,150.87 151.233,152.537 155,154.5C 156.868,153.29 158.368,153.79 159.5,156C 158.584,156.278 157.918,156.778 157.5,157.5C 153.719,158.211 150.719,157.045 148.5,154C 142.994,151.915 137.327,151.249 131.5,152C 129.075,154.225 126.242,155.725 123,156.5C 118.206,153.734 113.039,152.9 107.5,154C 104.612,155.592 101.779,157.092 99,158.5C 96.813,158.212 94.6463,157.878 92.5,157.5C 90.246,156.876 88.5794,155.543 87.5,153.5C 81.5462,151.55 76.2129,152.717 71.5,157C 70.1667,157.167 68.8333,157.333 67.5,157.5C 64.6247,156.933 61.9581,155.933 59.5,154.5C 57.5,153.5 55.5,152.5 53.5,151.5C 49.4862,151.666 45.4862,151.499 41.5,151C 39.771,149.211 39.1043,147.044 39.5,144.5C 41.1667,144.5 42.8333,144.5 44.5,144.5 Z"/></g>
<g><path style="opacity:1" fill="#557e16" d="M 132.5,147.5 C 129.724,149.392 126.724,151.059 123.5,152.5C 120.135,150.941 116.802,149.608 113.5,148.5C 119.744,147.542 126.077,147.209 132.5,147.5 Z"/></g>
<g><path style="opacity:1" fill="#577d1c" d="M 56.5,146.5 C 72.8367,146.333 89.1701,146.5 105.5,147C 107.025,148.009 108.692,148.509 110.5,148.5C 106.592,150.454 102.592,152.454 98.5,154.5C 94.9373,153.099 91.7706,151.099 89,148.5C 84.4476,147.117 79.9476,147.283 75.5,149C 73.5065,150.999 71.1732,152.499 68.5,153.5C 64.4405,151.071 60.4405,148.738 56.5,146.5 Z"/></g>
<g><path style="opacity:1" fill="#6b972c" d="M 166.5,152.5 C 165.109,154.89 163.109,156.557 160.5,157.5C 159.5,157.5 158.5,157.5 157.5,157.5C 157.918,156.778 158.584,156.278 159.5,156C 158.368,153.79 156.868,153.29 155,154.5C 151.233,152.537 147.4,150.87 143.5,149.5C 143.5,148.5 143.5,147.5 143.5,146.5C 154.505,146.667 165.505,146.5 176.5,146C 178.25,144.681 180.25,144.181 182.5,144.5C 182.917,147.079 182.25,149.246 180.5,151C 177.438,151.741 174.438,151.575 171.5,150.5C 169.664,151.028 167.997,151.694 166.5,152.5 Z"/></g>
<g><path style="opacity:1" fill="#859a3b" d="M 157.5,157.5 C 158.5,157.5 159.5,157.5 160.5,157.5C 158.22,159.223 155.553,159.889 152.5,159.5C 150.833,159.5 149.167,159.5 147.5,159.5C 147.167,158.833 146.833,158.167 146.5,157.5C 146.938,157.565 147.272,157.399 147.5,157C 142.977,153.827 137.977,152.827 132.5,154C 129.894,154.792 127.894,156.292 126.5,158.5C 124.262,159.537 121.929,159.703 119.5,159C 117.398,156.865 114.898,155.365 112,154.5C 108.945,155.611 106.112,157.111 103.5,159C 99.7789,159.678 96.1122,159.511 92.5,158.5C 92.5,158.167 92.5,157.833 92.5,157.5C 94.6463,157.878 96.813,158.212 99,158.5C 101.779,157.092 104.612,155.592 107.5,154C 113.039,152.9 118.206,153.734 123,156.5C 126.242,155.725 129.075,154.225 131.5,152C 137.327,151.249 142.994,151.915 148.5,154C 150.719,157.045 153.719,158.211 157.5,157.5 Z"/></g>
<g><path style="opacity:1" fill="#4d4404" d="M 146.5,157.5 C 143.582,155.806 140.415,154.806 137,154.5C 133.175,155.204 129.675,156.537 126.5,158.5C 127.894,156.292 129.894,154.792 132.5,154C 137.977,152.827 142.977,153.827 147.5,157C 147.272,157.399 146.938,157.565 146.5,157.5 Z"/></g>
<g><path style="opacity:1" fill="#4e4402" d="M 87.5,153.5 C 88.5794,155.543 90.246,156.876 92.5,157.5C 92.5,157.833 92.5,158.167 92.5,158.5C 89.91,157.872 87.5766,156.705 85.5,155C 83.6131,154.22 81.9464,154.387 80.5,155.5C 78.5,156.167 76.5,156.833 74.5,157.5C 75.3602,155.386 77.0268,154.22 79.5,154C 82.146,153.503 84.8127,153.336 87.5,153.5 Z"/></g>
<g><path style="opacity:0.016" fill="#e3e6d9" d="M 41.5,154.5 C 43.1765,155.183 43.8432,156.517 43.5,158.5C 42.6554,157.329 41.9887,155.995 41.5,154.5 Z"/></g>
<g><path style="opacity:1" fill="#86993d" d="M 87.5,153.5 C 84.8127,153.336 82.146,153.503 79.5,154C 77.0268,154.22 75.3602,155.386 74.5,157.5C 74.0269,158.906 73.0269,159.573 71.5,159.5C 67.8333,159.5 64.1667,159.5 60.5,159.5C 60.5,159.167 60.5,158.833 60.5,158.5C 61.0431,158.44 61.3764,158.107 61.5,157.5C 60.8075,156.482 60.1408,155.482 59.5,154.5C 61.9581,155.933 64.6247,156.933 67.5,157.5C 68.8333,157.333 70.1667,157.167 71.5,157C 76.2129,152.717 81.5462,151.55 87.5,153.5 Z"/></g>
<g><path style="opacity:1" fill="#544405" d="M 166.5,152.5 C 167.167,152.5 167.833,152.5 168.5,152.5C 167.167,154.167 165.833,155.833 164.5,157.5C 162.745,158.072 161.078,158.906 159.5,160C 156.961,160.796 154.628,160.629 152.5,159.5C 155.553,159.889 158.22,159.223 160.5,157.5C 163.109,156.557 165.109,154.89 166.5,152.5 Z"/></g>
<g><path style="opacity:0.333" fill="#a6a092" d="M 182.5,153.5 C 181.021,155.765 179.687,158.099 178.5,160.5C 178.366,158.708 178.699,157.042 179.5,155.5C 179.821,153.952 180.821,153.285 182.5,153.5 Z"/></g>
<g><path style="opacity:0.545" fill="#6c5a47" d="M 176.5,154.5 C 177.609,154.557 178.609,154.89 179.5,155.5C 178.699,157.042 178.366,158.708 178.5,160.5C 178.206,163.754 176.873,166.421 174.5,168.5C 172.5,169.833 170.833,171.5 169.5,173.5C 166.765,176.201 163.431,177.868 159.5,178.5C 161.041,177.333 162.375,176 163.5,174.5C 171.827,170.493 176.16,163.827 176.5,154.5 Z"/></g>
<g><path style="opacity:1" fill="#ab772e" d="M 80.5,155.5 C 81.9464,154.387 83.6131,154.22 85.5,155C 87.5766,156.705 89.91,157.872 92.5,158.5C 96.1122,159.511 99.7789,159.678 103.5,159C 106.112,157.111 108.945,155.611 112,154.5C 114.898,155.365 117.398,156.865 119.5,159C 121.929,159.703 124.262,159.537 126.5,158.5C 129.675,156.537 133.175,155.204 137,154.5C 140.415,154.806 143.582,155.806 146.5,157.5C 146.833,158.167 147.167,158.833 147.5,159.5C 143.803,159.036 140.303,158.036 137,156.5C 128.839,161.216 120.506,161.55 112,157.5C 102.596,164.482 93.429,163.982 84.5,156C 83.2068,155.51 81.8734,155.343 80.5,155.5 Z"/></g>
<g><path style="opacity:1" fill="#5c3a18" d="M 40.5,152.5 C 43.0961,153.265 45.7628,153.599 48.5,153.5C 46.685,155.468 46.185,157.802 47,160.5C 49.6258,165.941 53.1258,170.607 57.5,174.5C 56.1667,174.167 54.8333,173.833 53.5,173.5C 52.7377,171.738 51.4044,170.738 49.5,170.5C 49.655,166.565 47.9884,163.898 44.5,162.5C 43.5655,161.432 43.2322,160.099 43.5,158.5C 43.8432,156.517 43.1765,155.183 41.5,154.5C 41.1667,153.833 40.8333,153.167 40.5,152.5 Z"/></g>
<g><path style="opacity:1" fill="#d77722" d="M 60.5,159.5 C 63.2036,162.303 66.5369,163.137 70.5,162C 71.2524,161.329 71.5858,160.496 71.5,159.5C 73.0269,159.573 74.0269,158.906 74.5,157.5C 76.5,156.833 78.5,156.167 80.5,155.5C 81.8734,155.343 83.2068,155.51 84.5,156C 93.429,163.982 102.596,164.482 112,157.5C 120.506,161.55 128.839,161.216 137,156.5C 140.303,158.036 143.803,159.036 147.5,159.5C 149.167,159.5 150.833,159.5 152.5,159.5C 154.628,160.629 156.961,160.796 159.5,160C 161.078,158.906 162.745,158.072 164.5,157.5C 167.552,155.822 170.885,155.155 174.5,155.5C 175.021,158.636 174.021,160.97 171.5,162.5C 166.453,161.69 162.786,163.523 160.5,168C 154.942,169.693 149.609,169.027 144.5,166C 143.663,164.989 143.33,163.822 143.5,162.5C 140.813,162.336 138.146,162.503 135.5,163C 127.778,168.778 119.945,168.945 112,163.5C 107.833,168.889 102.333,170.723 95.5,169C 91.6415,167.24 87.9748,165.24 84.5,163C 82.5273,162.505 80.5273,162.338 78.5,162.5C 78.6399,164.124 77.9733,165.29 76.5,166C 72.8677,166.991 69.2011,167.825 65.5,168.5C 61.2366,167.416 57.5699,165.249 54.5,162C 52.9343,161.235 51.6009,161.402 50.5,162.5C 49.0069,161.688 48.3402,160.355 48.5,158.5C 48.7983,154.774 50.7983,153.607 54.5,155C 56.3509,156.752 58.3509,158.252 60.5,159.5 Z"/></g>
<g><path style="opacity:1" fill="#ad7831" d="M 60.5,159.5 C 64.1667,159.5 67.8333,159.5 71.5,159.5C 71.5858,160.496 71.2524,161.329 70.5,162C 66.5369,163.137 63.2036,162.303 60.5,159.5 Z"/></g>
<g><path style="opacity:0.824" fill="#816756" d="M 44.5,162.5 C 47.9884,163.898 49.655,166.565 49.5,170.5C 47.0499,168.371 45.3833,165.704 44.5,162.5 Z"/></g>
<g><path style="opacity:1" fill="#c78645" d="M 48.5,153.5 C 48.8333,153.5 49.1667,153.5 49.5,153.5C 54.2384,152.925 57.9051,154.592 60.5,158.5C 60.5,158.833 60.5,159.167 60.5,159.5C 58.3509,158.252 56.3509,156.752 54.5,155C 50.7983,153.607 48.7983,154.774 48.5,158.5C 48.3402,160.355 49.0069,161.688 50.5,162.5C 51.7497,166.408 54.083,169.408 57.5,171.5C 59.1667,172.833 60.8333,174.167 62.5,175.5C 61.8333,175.5 61.1667,175.5 60.5,175.5C 59.791,174.596 58.791,174.263 57.5,174.5C 53.1258,170.607 49.6258,165.941 47,160.5C 46.185,157.802 46.685,155.468 48.5,153.5 Z"/></g>
<g><path style="opacity:0.412" fill="#aca08e" d="M 49.5,170.5 C 51.4044,170.738 52.7377,171.738 53.5,173.5C 51.5956,173.262 50.2623,172.262 49.5,170.5 Z"/></g>
<g><path style="opacity:0.035" fill="#dededb" d="M 174.5,168.5 C 173.833,171.167 172.167,172.833 169.5,173.5C 170.833,171.5 172.5,169.833 174.5,168.5 Z"/></g>
<g><path style="opacity:1" fill="#f3952f" d="M 171.5,162.5 C 171.731,165.785 170.397,168.285 167.5,170C 163.479,171.051 159.812,172.551 156.5,174.5C 126.165,174.667 95.8315,174.5 65.5,174C 63.1382,172.269 60.4715,171.435 57.5,171.5C 54.083,169.408 51.7497,166.408 50.5,162.5C 51.6009,161.402 52.9343,161.235 54.5,162C 57.5699,165.249 61.2366,167.416 65.5,168.5C 69.2011,167.825 72.8677,166.991 76.5,166C 77.9733,165.29 78.6399,164.124 78.5,162.5C 80.5273,162.338 82.5273,162.505 84.5,163C 87.9748,165.24 91.6415,167.24 95.5,169C 102.333,170.723 107.833,168.889 112,163.5C 119.945,168.945 127.778,168.778 135.5,163C 138.146,162.503 140.813,162.336 143.5,162.5C 143.33,163.822 143.663,164.989 144.5,166C 149.609,169.027 154.942,169.693 160.5,168C 162.786,163.523 166.453,161.69 171.5,162.5 Z"/></g>
<g><path style="opacity:0.761" fill="#9d7e68" d="M 53.5,173.5 C 54.8333,173.833 56.1667,174.167 57.5,174.5C 58.791,174.263 59.791,174.596 60.5,175.5C 60.0618,175.435 59.7284,175.601 59.5,176C 60.4158,176.278 61.0825,176.778 61.5,177.5C 58.2459,177.206 55.5792,175.873 53.5,173.5 Z"/></g>
<g><path style="opacity:1" fill="#e9973b" d="M 57.5,171.5 C 60.4715,171.435 63.1382,172.269 65.5,174C 95.8315,174.5 126.165,174.667 156.5,174.5C 125.671,175.498 94.6712,175.831 63.5,175.5C 63.1667,175.5 62.8333,175.5 62.5,175.5C 60.8333,174.167 59.1667,172.833 57.5,171.5 Z"/></g>
<g><path style="opacity:1" fill="#d5954d" d="M 168.5,152.5 C 169.167,152.5 169.833,152.5 170.5,152.5C 172.302,153.458 174.302,154.125 176.5,154.5C 176.16,163.827 171.827,170.493 163.5,174.5C 160.994,175.75 158.327,176.416 155.5,176.5C 124.662,176.831 93.9955,176.498 63.5,175.5C 94.6712,175.831 125.671,175.498 156.5,174.5C 159.812,172.551 163.479,171.051 167.5,170C 170.397,168.285 171.731,165.785 171.5,162.5C 174.021,160.97 175.021,158.636 174.5,155.5C 170.885,155.155 167.552,155.822 164.5,157.5C 165.833,155.833 167.167,154.167 168.5,152.5 Z"/></g>
<g><path style="opacity:1" fill="#8c5b28" d="M 60.5,175.5 C 61.1667,175.5 61.8333,175.5 62.5,175.5C 62.8333,175.5 63.1667,175.5 63.5,175.5C 93.9955,176.498 124.662,176.831 155.5,176.5C 150.36,177.488 145.026,177.821 139.5,177.5C 113.5,177.5 87.5,177.5 61.5,177.5C 61.0825,176.778 60.4158,176.278 59.5,176C 59.7284,175.601 60.0618,175.435 60.5,175.5 Z"/></g>
<g><path style="opacity:0.963" fill="#85664d" d="M 61.5,177.5 C 87.5,177.5 113.5,177.5 139.5,177.5C 115.167,178.167 90.8333,178.833 66.5,179.5C 64.597,179.204 62.9303,178.537 61.5,177.5 Z"/></g>
<g><path style="opacity:0.533" fill="#706255" d="M 163.5,174.5 C 162.375,176 161.041,177.333 159.5,178.5C 142.433,180.055 125.267,180.721 108,180.5C 94.136,180.474 80.3027,180.141 66.5,179.5C 90.8333,178.833 115.167,178.167 139.5,177.5C 145.026,177.821 150.36,177.488 155.5,176.5C 158.327,176.416 160.994,175.75 163.5,174.5 Z"/></g>
</svg>
