<?xml version="1.0" encoding="UTF-8"?>
<!DOCTYPE svg PUBLIC "-//W3C//DTD SVG 1.1//EN" "http://www.w3.org/Graphics/SVG/1.1/DTD/svg11.dtd">
<svg xmlns="http://www.w3.org/2000/svg" version="1.1" width="475px" height="475px" style="shape-rendering:geometricPrecision; text-rendering:geometricPrecision; image-rendering:optimizeQuality; fill-rule:evenodd; clip-rule:evenodd" xmlns:xlink="http://www.w3.org/1999/xlink">
<g><path style="opacity:0.282" fill="#dbd1c9" d="M 301.5,88.5 C 301.167,88.5 300.833,88.5 300.5,88.5C 298.035,88.233 295.701,87.5664 293.5,86.5C 286.413,82.1562 278.58,80.1562 270,80.5C 267.967,80.5056 266.134,80.8389 264.5,81.5C 264.167,81.5 263.833,81.5 263.5,81.5C 259.958,81.1872 256.625,81.5206 253.5,82.5C 253.5,82.8333 253.5,83.1667 253.5,83.5C 249.785,86.5172 245.451,87.8505 240.5,87.5C 244.795,86.1807 248.795,84.014 252.5,81C 270.019,76.4793 286.352,78.9793 301.5,88.5 Z"/></g>
<g><path style="opacity:0.997" fill="#bea898" d="M 253.5,82.5 C 256.625,81.5206 259.958,81.1872 263.5,81.5C 263.5,82.5 263.5,83.5 263.5,84.5C 262.848,85.7251 261.681,86.3917 260,86.5C 258.615,86.4857 257.449,86.1524 256.5,85.5C 257.567,83.1205 256.567,82.1205 253.5,82.5 Z"/></g>
<g><path style="opacity:1" fill="#472918" d="M 263.5,81.5 C 263.833,81.5 264.167,81.5 264.5,81.5C 271.491,82.3314 278.491,83.1647 285.5,84C 286.416,84.2784 287.082,84.7784 287.5,85.5C 283.215,84.7051 278.881,84.3718 274.5,84.5C 270.817,83.3252 267.15,83.3252 263.5,84.5C 263.5,83.5 263.5,82.5 263.5,81.5 Z"/></g>
<g><path style="opacity:1" fill="#806b5d" d="M 264.5,81.5 C 266.134,80.8389 267.967,80.5056 270,80.5C 278.58,80.1562 286.413,82.1562 293.5,86.5C 291.435,86.4828 289.435,86.1495 287.5,85.5C 287.082,84.7784 286.416,84.2784 285.5,84C 278.491,83.1647 271.491,82.3314 264.5,81.5 Z"/></g>
<g><path style="opacity:1" fill="#6f492f" d="M 274.5,84.5 C 278.881,84.3718 283.215,84.7051 287.5,85.5C 287.5,85.8333 287.5,86.1667 287.5,86.5C 285.167,86.5 282.833,86.5 280.5,86.5C 278.5,85.8333 276.5,85.1667 274.5,84.5 Z"/></g>
<g><path style="opacity:0.98" fill="#8a7363" d="M 253.5,83.5 C 253.489,85.0174 252.823,86.1841 251.5,87C 247.94,88.2367 244.273,88.7367 240.5,88.5C 240.5,88.1667 240.5,87.8333 240.5,87.5C 245.451,87.8505 249.785,86.5172 253.5,83.5 Z"/></g>
<g><path style="opacity:1" fill="#b57d4a" d="M 280.5,86.5 C 282.833,86.5 285.167,86.5 287.5,86.5C 288.167,87.1667 288.833,87.8333 289.5,88.5C 293.407,91.0606 297.074,94.0606 300.5,97.5C 300.5,98.8333 300.5,100.167 300.5,101.5C 294.295,98.231 287.962,95.231 281.5,92.5C 281.423,91.2502 280.756,90.4169 279.5,90C 275.442,89.2334 271.442,89.4001 267.5,90.5C 266.614,91.325 266.281,92.325 266.5,93.5C 268.553,93.4021 270.22,94.0687 271.5,95.5C 273.199,95.3398 274.866,95.5065 276.5,96C 273.301,98.2768 269.635,99.1102 265.5,98.5C 265.167,98.5 264.833,98.5 264.5,98.5C 265.29,97.2058 266.29,96.0391 267.5,95C 266.167,94.3333 264.833,94.3333 263.5,95C 261.746,96.8897 260.08,98.7231 258.5,100.5C 260.395,96.8398 259.395,94.5064 255.5,93.5C 247.76,93.6048 240.76,95.7715 234.5,100C 232.1,100.186 229.766,100.686 227.5,101.5C 226.873,102.417 226.539,103.417 226.5,104.5C 225.833,104.5 225.5,104.833 225.5,105.5C 222.155,106.07 220.322,108.07 220,111.5C 217.629,114.206 214.963,116.539 212,118.5C 211.505,120.473 211.338,122.473 211.5,124.5C 214.788,124.984 217.455,123.984 219.5,121.5C 219.5,122.5 219.5,123.5 219.5,124.5C 218.207,126.296 216.707,127.963 215,129.5C 214.802,131.382 214.302,133.048 213.5,134.5C 212.5,134.167 211.833,133.5 211.5,132.5C 210.805,128.484 208.472,126.984 204.5,128C 203,129.5 201.5,131 200,132.5C 198.997,135.84 197.497,138.84 195.5,141.5C 196.372,137.007 197.706,132.674 199.5,128.5C 201.628,126.597 203.961,124.931 206.5,123.5C 208.079,120.006 209.913,116.673 212,113.5C 217.839,110.624 221.672,106.124 223.5,100C 226.036,99.6608 228.536,99.1608 231,98.5C 235.478,97.0207 239.312,94.6874 242.5,91.5C 247.206,91.5286 251.54,90.362 255.5,88C 263.797,86.8773 272.13,86.3773 280.5,86.5 Z"/></g>
<g><path style="opacity:1" fill="#a87d5b" d="M 274.5,84.5 C 276.5,85.1667 278.5,85.8333 280.5,86.5C 272.13,86.3773 263.797,86.8773 255.5,88C 251.54,90.362 247.206,91.5286 242.5,91.5C 245.149,89.8906 248.149,89.0572 251.5,89C 253.047,87.6134 254.713,86.4467 256.5,85.5C 257.449,86.1524 258.615,86.4857 260,86.5C 261.681,86.3917 262.848,85.7251 263.5,84.5C 267.15,83.3252 270.817,83.3252 274.5,84.5 Z"/></g>
<g><path style="opacity:1" fill="#bb773a" d="M 281.5,92.5 C 282.084,97.0921 280.084,99.9254 275.5,101C 272.183,101.498 268.85,101.665 265.5,101.5C 265.5,100.5 265.5,99.5 265.5,98.5C 269.635,99.1102 273.301,98.2768 276.5,96C 274.866,95.5065 273.199,95.3398 271.5,95.5C 270.22,94.0687 268.553,93.4021 266.5,93.5C 266.281,92.325 266.614,91.325 267.5,90.5C 271.442,89.4001 275.442,89.2334 279.5,90C 280.756,90.4169 281.423,91.2502 281.5,92.5 Z"/></g>
<g><path style="opacity:1" fill="#885e41" d="M 289.5,88.5 C 293.598,90.0477 297.598,91.8811 301.5,94C 302.861,95.5843 303.528,97.4176 303.5,99.5C 302.5,98.8333 301.5,98.1667 300.5,97.5C 297.074,94.0606 293.407,91.0606 289.5,88.5 Z"/></g>
<g><path style="opacity:1" fill="#755641" d="M 253.5,82.5 C 256.567,82.1205 257.567,83.1205 256.5,85.5C 254.713,86.4467 253.047,87.6134 251.5,89C 248.149,89.0572 245.149,89.8906 242.5,91.5C 239.312,94.6874 235.478,97.0207 231,98.5C 228.536,99.1608 226.036,99.6608 223.5,100C 221.672,106.124 217.839,110.624 212,113.5C 209.913,116.673 208.079,120.006 206.5,123.5C 203.961,124.931 201.628,126.597 199.5,128.5C 205.223,121.109 210.556,113.443 215.5,105.5C 217.578,103.61 218.911,101.276 219.5,98.5C 221.434,97.8897 223.101,96.8897 224.5,95.5C 230.72,95.0968 236.053,92.7635 240.5,88.5C 244.273,88.7367 247.94,88.2367 251.5,87C 252.823,86.1841 253.489,85.0174 253.5,83.5C 253.5,83.1667 253.5,82.8333 253.5,82.5 Z"/></g>
<g><path style="opacity:1" fill="#76380d" d="M 264.5,98.5 C 262.637,100.705 260.303,102.039 257.5,102.5C 257.833,101.833 258.167,101.167 258.5,100.5C 260.08,98.7231 261.746,96.8897 263.5,95C 264.833,94.3333 266.167,94.3333 267.5,95C 266.29,96.0391 265.29,97.2058 264.5,98.5 Z"/></g>
<g><path style="opacity:0.239" fill="#d7cdc5" d="M 240.5,87.5 C 240.5,87.8333 240.5,88.1667 240.5,88.5C 236.053,92.7635 230.72,95.0968 224.5,95.5C 222.067,95.2729 220.401,96.2729 219.5,98.5C 218.911,101.276 217.578,103.61 215.5,105.5C 212.473,107.86 209.806,110.527 207.5,113.5C 208.045,111.407 208.878,109.407 210,107.5C 213.5,103.333 217,99.1667 220.5,95C 227.391,92.9825 234.057,90.4825 240.5,87.5 Z"/></g>
<g><path style="opacity:0.933" fill="#b6aba3" d="M 300.5,88.5 C 300.833,88.5 301.167,88.5 301.5,88.5C 303.017,88.5106 304.184,89.1772 305,90.5C 306.928,94.0323 309.095,97.3656 311.5,100.5C 310.5,100.5 309.5,100.5 308.5,100.5C 306.013,96.3602 303.347,92.3602 300.5,88.5 Z"/></g>
<g><path style="opacity:0.933" fill="#9d8c82" d="M 224.5,95.5 C 223.101,96.8897 221.434,97.8897 219.5,98.5C 220.401,96.2729 222.067,95.2729 224.5,95.5 Z"/></g>
<g><path style="opacity:1" fill="#c5833e" d="M 258.5,100.5 C 254.623,99.8168 250.79,98.8168 247,97.5C 241.532,98.6553 237.699,101.822 235.5,107C 234.167,107.667 232.833,107.667 231.5,107C 230.347,105.117 228.681,104.284 226.5,104.5C 226.539,103.417 226.873,102.417 227.5,101.5C 229.766,100.686 232.1,100.186 234.5,100C 240.76,95.7715 247.76,93.6048 255.5,93.5C 259.395,94.5064 260.395,96.8398 258.5,100.5 Z"/></g>
<g><path style="opacity:1" fill="#7f3e10" d="M 271.5,95.5 C 272.263,96.2679 273.263,96.7679 274.5,97C 272.365,97.6347 270.365,97.3014 268.5,96C 269.448,95.5172 270.448,95.3505 271.5,95.5 Z"/></g>
<g><path style="opacity:1" fill="#422518" d="M 287.5,86.5 C 287.5,86.1667 287.5,85.8333 287.5,85.5C 289.435,86.1495 291.435,86.4828 293.5,86.5C 295.701,87.5664 298.035,88.233 300.5,88.5C 303.347,92.3602 306.013,96.3602 308.5,100.5C 308.5,101.167 308.5,101.833 308.5,102.5C 306.716,102.107 305.05,101.441 303.5,100.5C 303.5,100.167 303.5,99.8333 303.5,99.5C 303.528,97.4176 302.861,95.5843 301.5,94C 297.598,91.8811 293.598,90.0477 289.5,88.5C 288.833,87.8333 288.167,87.1667 287.5,86.5 Z"/></g>
<g><path style="opacity:1" fill="#cb8139" d="M 281.5,92.5 C 287.962,95.231 294.295,98.231 300.5,101.5C 301.038,103.117 301.371,104.784 301.5,106.5C 300.488,104.036 298.655,102.369 296,101.5C 295.667,102.167 295.333,102.833 295,103.5C 292.684,102.504 290.35,101.504 288,100.5C 282.283,102.203 276.449,103.203 270.5,103.5C 269.586,107.798 269.586,111.965 270.5,116C 270.095,116.945 269.428,117.612 268.5,118C 266.527,118.495 264.527,118.662 262.5,118.5C 268.78,117.744 270.114,114.577 266.5,109C 268.155,107.556 268.822,105.722 268.5,103.5C 266.508,103.672 264.842,103.005 263.5,101.5C 262.12,102.976 260.453,103.976 258.5,104.5C 257.702,104.043 257.369,103.376 257.5,102.5C 260.303,102.039 262.637,100.705 264.5,98.5C 264.833,98.5 265.167,98.5 265.5,98.5C 265.5,99.5 265.5,100.5 265.5,101.5C 268.85,101.665 272.183,101.498 275.5,101C 280.084,99.9254 282.084,97.0921 281.5,92.5 Z"/></g>
<g><path style="opacity:1" fill="#c97727" d="M 301.5,106.5 C 300.869,126.16 300.535,145.827 300.5,165.5C 293.214,166.185 286.214,167.185 279.5,168.5C 274.636,175.325 273.302,182.825 275.5,191C 274.373,192.057 273.873,193.223 274,194.5C 278.881,195.296 283.714,196.463 288.5,198C 289.333,199.5 290.5,200.667 292,201.5C 292.494,203.134 292.66,204.801 292.5,206.5C 288.826,205.018 285.493,202.852 282.5,200C 277.656,198.977 275.489,200.811 276,205.5C 278.572,208.403 280.739,211.569 282.5,215C 281.468,219.2 278.801,221.367 274.5,221.5C 274.435,219.304 273.768,217.304 272.5,215.5C 271.28,214.289 270.113,214.289 269,215.5C 268.87,219.111 268.703,222.611 268.5,226C 271.793,230.374 270.793,233.208 265.5,234.5C 263.682,239.578 260.349,241.078 255.5,239C 251.688,233.924 246.688,231.924 240.5,233C 238.013,236.245 238.18,239.412 241,242.5C 241.667,244.167 241.667,245.833 241,247.5C 238.586,249.291 236.086,250.957 233.5,252.5C 231.511,257.494 229.511,262.494 227.5,267.5C 224.679,268.971 222.179,268.637 220,266.5C 216.168,267.161 212.335,267.494 208.5,267.5C 207.5,266.833 206.5,266.167 205.5,265.5C 204.009,259.579 202.842,253.579 202,247.5C 201.586,247.043 201.086,246.709 200.5,246.5C 197.465,250.586 195.632,255.253 195,260.5C 194.828,254.319 194.328,248.319 193.5,242.5C 191.372,236.748 190.039,230.748 189.5,224.5C 191.396,223.534 193.396,223.201 195.5,223.5C 196.5,223.5 197.5,223.5 198.5,223.5C 198.634,221.708 198.301,220.042 197.5,218.5C 199.533,217.102 200.533,215.102 200.5,212.5C 198.903,197.218 198.07,181.885 198,166.5C 195.313,164.433 192.646,164.766 190,167.5C 189.292,175.584 188.126,183.584 186.5,191.5C 185.575,192.641 184.741,192.641 184,191.5C 183.119,182.438 183.452,173.438 185,164.5C 186.955,163.547 188.622,162.213 190,160.5C 190.107,156.579 190.94,152.913 192.5,149.5C 194.01,148.272 195.51,148.272 197,149.5C 197.173,153.541 197.673,157.541 198.5,161.5C 200.071,160.691 201.738,160.357 203.5,160.5C 203.5,155.5 203.5,150.5 203.5,145.5C 204.822,145.33 205.989,145.663 207,146.5C 207.167,155.83 207.001,165.164 206.5,174.5C 206.068,177.877 206.735,180.877 208.5,183.5C 208.976,187.622 210.976,190.622 214.5,192.5C 217.806,191.837 221.139,191.337 224.5,191C 227,189.833 228.833,188 230,185.5C 233.477,174.629 232.643,163.962 227.5,153.5C 230.138,148.871 233.138,144.538 236.5,140.5C 235.837,138.51 235.837,136.677 236.5,135C 234.188,132.86 232.521,130.36 231.5,127.5C 231.397,124.781 231.731,122.115 232.5,119.5C 231.063,117.423 230.396,115.09 230.5,112.5C 233.943,112.35 235.943,114.017 236.5,117.5C 237.833,116.5 239.167,115.5 240.5,114.5C 243.403,114.694 246.237,114.694 249,114.5C 251.206,115.352 253.373,116.352 255.5,117.5C 256.442,117.392 257.275,117.059 258,116.5C 259.33,117.582 260.83,118.249 262.5,118.5C 264.527,118.662 266.527,118.495 268.5,118C 269.428,117.612 270.095,116.945 270.5,116C 269.586,111.965 269.586,107.798 270.5,103.5C 276.449,103.203 282.283,102.203 288,100.5C 290.35,101.504 292.684,102.504 295,103.5C 295.333,102.833 295.667,102.167 296,101.5C 298.655,102.369 300.488,104.036 301.5,106.5 Z"/></g>
<g><path style="opacity:0.075" fill="#dfdad7" d="M 311.5,100.5 C 314.188,101.024 315.688,102.691 316,105.5C 318.335,107.4 320.502,109.4 322.5,111.5C 321.305,111.322 320.138,110.989 319,110.5C 317.649,108.982 316.149,107.649 314.5,106.5C 314.025,104.216 313.025,102.216 311.5,100.5 Z"/></g>
<g><path style="opacity:1" fill="#a48f82" d="M 308.5,100.5 C 309.5,100.5 310.5,100.5 311.5,100.5C 313.025,102.216 314.025,104.216 314.5,106.5C 313.542,106.047 312.708,105.381 312,104.5C 311.982,106.797 312.149,109.131 312.5,111.5C 309.874,109.236 308.541,106.236 308.5,102.5C 308.5,101.833 308.5,101.167 308.5,100.5 Z"/></g>
<g><path style="opacity:1" fill="#c67a2e" d="M 258.5,100.5 C 258.167,101.167 257.833,101.833 257.5,102.5C 257.369,103.376 257.702,104.043 258.5,104.5C 260.453,103.976 262.12,102.976 263.5,101.5C 264.842,103.005 266.508,103.672 268.5,103.5C 268.822,105.722 268.155,107.556 266.5,109C 270.114,114.577 268.78,117.744 262.5,118.5C 260.83,118.249 259.33,117.582 258,116.5C 257.275,117.059 256.442,117.392 255.5,117.5C 253.373,116.352 251.206,115.352 249,114.5C 246.237,114.694 243.403,114.694 240.5,114.5C 239.167,115.5 237.833,116.5 236.5,117.5C 235.943,114.017 233.943,112.35 230.5,112.5C 230.396,115.09 231.063,117.423 232.5,119.5C 231.731,122.115 231.397,124.781 231.5,127.5C 230.224,124.97 230.224,122.303 231.5,119.5C 229.488,115.812 227.655,112.478 226,109.5C 225.51,108.207 225.343,106.873 225.5,105.5C 225.5,104.833 225.833,104.5 226.5,104.5C 228.681,104.284 230.347,105.117 231.5,107C 232.833,107.667 234.167,107.667 235.5,107C 237.699,101.822 241.532,98.6553 247,97.5C 250.79,98.8168 254.623,99.8168 258.5,100.5 Z"/></g>
<g><path style="opacity:1" fill="#402d24" d="M 314.5,106.5 C 314.709,107.922 315.209,109.255 316,110.5C 322.521,112.871 325.521,117.538 325,124.5C 326.047,127.859 327.547,130.859 329.5,133.5C 330.968,141.717 331.635,150.05 331.5,158.5C 330.662,158.842 330.328,159.508 330.5,160.5C 329.671,167.321 329.171,174.321 329,181.5C 327.051,185.629 325.884,189.963 325.5,194.5C 324.221,193.032 322.554,192.365 320.5,192.5C 321.363,190.579 322.029,188.579 322.5,186.5C 323.793,185.158 324.626,183.491 325,181.5C 325.981,171.178 326.814,160.845 327.5,150.5C 326.345,147.31 325.678,143.977 325.5,140.5C 325.678,139.305 326.011,138.138 326.5,137C 324.295,130.678 322.795,124.178 322,117.5C 319.682,114.926 316.849,113.259 313.5,112.5C 312.833,112.5 312.5,112.167 312.5,111.5C 312.149,109.131 311.982,106.797 312,104.5C 312.708,105.381 313.542,106.047 314.5,106.5 Z"/></g>
<g><path style="opacity:0.173" fill="#ded3cf" d="M 207.5,113.5 C 206.928,115.255 206.094,116.922 205,118.5C 201.306,121.029 198.14,124.029 195.5,127.5C 195.608,125.217 196.441,123.217 198,121.5C 201.333,118.998 204.499,116.332 207.5,113.5 Z"/></g>
<g><path style="opacity:1" fill="#9c6a46" d="M 303.5,100.5 C 305.05,101.441 306.716,102.107 308.5,102.5C 308.541,106.236 309.874,109.236 312.5,111.5C 312.5,112.167 312.833,112.5 313.5,112.5C 315.5,114.933 317.667,117.266 320,119.5C 321.404,126.538 322.904,133.538 324.5,140.5C 324.767,148.222 324.434,155.889 323.5,163.5C 323.167,163.5 322.833,163.5 322.5,163.5C 322.832,153.81 322.498,144.144 321.5,134.5C 320.914,134.291 320.414,133.957 320,133.5C 319.539,124.754 316.039,117.588 309.5,112C 307.695,108.038 305.695,104.205 303.5,100.5 Z"/></g>
<g><path style="opacity:0.882" fill="#b3a8a0" d="M 314.5,106.5 C 316.149,107.649 317.649,108.982 319,110.5C 320.138,110.989 321.305,111.322 322.5,111.5C 324.955,113.14 326.455,115.473 327,118.5C 327.289,123.614 328.123,128.614 329.5,133.5C 327.547,130.859 326.047,127.859 325,124.5C 325.521,117.538 322.521,112.871 316,110.5C 315.209,109.255 314.709,107.922 314.5,106.5 Z"/></g>
<g><path style="opacity:1" fill="#824c25" d="M 228.5,123.5 C 226.5,123.5 224.5,123.5 222.5,123.5C 222.768,125.099 222.434,126.432 221.5,127.5C 221.66,125.801 221.494,124.134 221,122.5C 220.722,123.416 220.222,124.082 219.5,124.5C 219.5,123.5 219.5,122.5 219.5,121.5C 220.399,120.528 221.566,119.862 223,119.5C 224.825,119.943 226.658,120.277 228.5,120.5C 228.5,121.5 228.5,122.5 228.5,123.5 Z"/></g>
<g><path style="opacity:1" fill="#5b3b2a" d="M 313.5,112.5 C 316.849,113.259 319.682,114.926 322,117.5C 322.795,124.178 324.295,130.678 326.5,137C 326.011,138.138 325.678,139.305 325.5,140.5C 325.167,140.5 324.833,140.5 324.5,140.5C 322.904,133.538 321.404,126.538 320,119.5C 317.667,117.266 315.5,114.933 313.5,112.5 Z"/></g>
<g><path style="opacity:1" fill="#ad672f" d="M 300.5,101.5 C 301.458,101.953 302.292,102.619 303,103.5C 303.762,109.35 306.762,113.683 312,116.5C 313.368,119.186 314.701,121.853 316,124.5C 319.642,137.785 321.142,151.118 320.5,164.5C 320.5,161.833 320.5,159.167 320.5,156.5C 316.019,157.189 313.352,159.855 312.5,164.5C 310.484,165.694 308.484,165.694 306.5,164.5C 305.596,163.791 305.263,162.791 305.5,161.5C 306.492,161.328 307.158,161.662 307.5,162.5C 308.255,164.466 309.421,164.8 311,163.5C 315.149,155.295 316.483,146.628 315,137.5C 313.853,135.181 312.019,133.848 309.5,133.5C 309.265,132.903 308.765,132.57 308,132.5C 306.989,133.056 306.156,133.722 305.5,134.5C 305.011,133.005 304.345,131.671 303.5,130.5C 303.703,128.956 304.37,127.622 305.5,126.5C 304.06,119.763 302.727,113.097 301.5,106.5C 301.371,104.784 301.038,103.117 300.5,101.5 Z"/></g>
<g><path style="opacity:1" fill="#c37d38" d="M 225.5,105.5 C 225.343,106.873 225.51,108.207 226,109.5C 227.655,112.478 229.488,115.812 231.5,119.5C 230.224,122.303 230.224,124.97 231.5,127.5C 231.083,130.079 231.75,132.246 233.5,134C 232.207,134.49 230.873,134.657 229.5,134.5C 229.657,133.127 229.49,131.793 229,130.5C 228.282,129.549 227.449,129.383 226.5,130C 220.964,135.538 215.13,140.705 209,145.5C 208.667,141.5 208.333,137.5 208,133.5C 206.172,132.248 204.339,132.248 202.5,133.5C 202.818,131.182 204.152,129.848 206.5,129.5C 208.423,130.092 210.089,131.092 211.5,132.5C 211.833,133.5 212.5,134.167 213.5,134.5C 213.842,135.338 214.508,135.672 215.5,135.5C 216.209,136.404 217.209,136.737 218.5,136.5C 218.491,134.692 218.991,133.025 220,131.5C 223.333,129.333 226.166,126.666 228.5,123.5C 228.5,122.5 228.5,121.5 228.5,120.5C 226.658,120.277 224.825,119.943 223,119.5C 221.566,119.862 220.399,120.528 219.5,121.5C 217.455,123.984 214.788,124.984 211.5,124.5C 211.338,122.473 211.505,120.473 212,118.5C 214.963,116.539 217.629,114.206 220,111.5C 220.322,108.07 222.155,106.07 225.5,105.5 Z"/></g>
<g><path style="opacity:1" fill="#66300e" d="M 221.5,127.5 C 218.309,129.347 216.309,132.013 215.5,135.5C 214.508,135.672 213.842,135.338 213.5,134.5C 214.302,133.048 214.802,131.382 215,129.5C 216.707,127.963 218.207,126.296 219.5,124.5C 220.222,124.082 220.722,123.416 221,122.5C 221.494,124.134 221.66,125.801 221.5,127.5 Z"/></g>
<g><path style="opacity:1" fill="#c77b31" d="M 231.5,127.5 C 232.521,130.36 234.188,132.86 236.5,135C 235.837,136.677 235.837,138.51 236.5,140.5C 233.138,144.538 230.138,148.871 227.5,153.5C 232.643,163.962 233.477,174.629 230,185.5C 228.833,188 227,189.833 224.5,191C 221.139,191.337 217.806,191.837 214.5,192.5C 210.976,190.622 208.976,187.622 208.5,183.5C 208.369,182.761 208.536,182.094 209,181.5C 212.887,185.686 217.72,187.186 223.5,186C 224.207,183.457 225.54,181.291 227.5,179.5C 227.755,181.343 227.922,183.343 228,185.5C 230.869,176.602 231.202,167.602 229,158.5C 226.842,157.511 225.675,155.844 225.5,153.5C 225.5,152.167 224.833,151.5 223.5,151.5C 220.187,152.045 216.854,152.545 213.5,153C 212.789,154.255 211.956,155.421 211,156.5C 210.333,153.167 209.667,149.833 209,146.5C 208.79,156.04 207.957,165.373 206.5,174.5C 207.001,165.164 207.167,155.83 207,146.5C 205.989,145.663 204.822,145.33 203.5,145.5C 203.5,150.5 203.5,155.5 203.5,160.5C 201.738,160.357 200.071,160.691 198.5,161.5C 197.673,157.541 197.173,153.541 197,149.5C 195.51,148.272 194.01,148.272 192.5,149.5C 193.856,147.73 195.689,146.397 198,145.5C 198.451,140.99 199.951,136.99 202.5,133.5C 204.339,132.248 206.172,132.248 208,133.5C 208.333,137.5 208.667,141.5 209,145.5C 215.13,140.705 220.964,135.538 226.5,130C 227.449,129.383 228.282,129.549 229,130.5C 229.49,131.793 229.657,133.127 229.5,134.5C 230.873,134.657 232.207,134.49 233.5,134C 231.75,132.246 231.083,130.079 231.5,127.5 Z"/></g>
<g><path style="opacity:1" fill="#b47a4c" d="M 228.5,123.5 C 226.166,126.666 223.333,129.333 220,131.5C 218.991,133.025 218.491,134.692 218.5,136.5C 217.209,136.737 216.209,136.404 215.5,135.5C 216.309,132.013 218.309,129.347 221.5,127.5C 222.434,126.432 222.768,125.099 222.5,123.5C 224.5,123.5 226.5,123.5 228.5,123.5 Z"/></g>
<g><path style="opacity:0.259" fill="#cac5c1" d="M 329.5,133.5 C 331.189,139.617 332.523,145.951 333.5,152.5C 332.915,161.657 332.248,170.657 331.5,179.5C 331.5,172.5 331.5,165.5 331.5,158.5C 331.635,150.05 330.968,141.717 329.5,133.5 Z"/></g>
<g><path style="opacity:1" fill="#6d5644" d="M 215.5,105.5 C 210.556,113.443 205.223,121.109 199.5,128.5C 197.706,132.674 196.372,137.007 195.5,141.5C 186.89,148.468 181.557,157.468 179.5,168.5C 178.833,171.833 178.167,175.167 177.5,178.5C 177.5,173.5 177.5,168.5 177.5,163.5C 177.338,161.473 177.505,159.473 178,157.5C 182.033,154.823 184.366,151.156 185,146.5C 187.317,142.854 189.984,139.52 193,136.5C 194.43,133.647 195.263,130.647 195.5,127.5C 198.14,124.029 201.306,121.029 205,118.5C 206.094,116.922 206.928,115.255 207.5,113.5C 209.806,110.527 212.473,107.86 215.5,105.5 Z"/></g>
<g><path style="opacity:1" fill="#703e1e" d="M 309.5,133.5 C 310.631,136.267 311.631,139.1 312.5,142C 312.472,143.07 312.139,143.903 311.5,144.5C 311.762,143.022 311.429,141.689 310.5,140.5C 309.186,139.687 308.019,138.687 307,137.5C 306.601,137.728 306.435,138.062 306.5,138.5C 305.596,137.791 305.263,136.791 305.5,135.5C 305.5,135.167 305.5,134.833 305.5,134.5C 306.156,133.722 306.989,133.056 308,132.5C 308.765,132.57 309.265,132.903 309.5,133.5 Z"/></g>
<g><path style="opacity:1" fill="#a9734d" d="M 305.5,135.5 C 305.263,136.791 305.596,137.791 306.5,138.5C 306.433,139.959 306.766,141.292 307.5,142.5C 307.698,147.75 307.031,152.75 305.5,157.5C 305.092,149.98 305.092,142.647 305.5,135.5 Z"/></g>
<g><path style="opacity:1" fill="#51220c" d="M 311.5,144.5 C 311.007,146.806 310.674,149.139 310.5,151.5C 310.217,152.289 309.717,152.956 309,153.5C 308.297,150.287 308.464,147.121 309.5,144C 309.164,142.97 308.497,142.47 307.5,142.5C 306.766,141.292 306.433,139.959 306.5,138.5C 306.435,138.062 306.601,137.728 307,137.5C 308.019,138.687 309.186,139.687 310.5,140.5C 311.429,141.689 311.762,143.022 311.5,144.5 Z"/></g>
<g><path style="opacity:1" fill="#a0673a" d="M 309.5,133.5 C 312.019,133.848 313.853,135.181 315,137.5C 316.483,146.628 315.149,155.295 311,163.5C 309.421,164.8 308.255,164.466 307.5,162.5C 308.002,159.915 309.169,157.582 311,155.5C 311.765,153.934 311.598,152.601 310.5,151.5C 310.674,149.139 311.007,146.806 311.5,144.5C 312.139,143.903 312.472,143.07 312.5,142C 311.631,139.1 310.631,136.267 309.5,133.5 Z"/></g>
<g><path style="opacity:1" fill="#784224" d="M 307.5,142.5 C 308.497,142.47 309.164,142.97 309.5,144C 308.464,147.121 308.297,150.287 309,153.5C 309.717,152.956 310.217,152.289 310.5,151.5C 311.598,152.601 311.765,153.934 311,155.5C 309.169,157.582 308.002,159.915 307.5,162.5C 307.158,161.662 306.492,161.328 305.5,161.5C 305.5,160.167 305.5,158.833 305.5,157.5C 307.031,152.75 307.698,147.75 307.5,142.5 Z"/></g>
<g><path style="opacity:1" fill="#73513a" d="M 324.5,140.5 C 324.833,140.5 325.167,140.5 325.5,140.5C 325.678,143.977 326.345,147.31 327.5,150.5C 326.814,160.845 325.981,171.178 325,181.5C 324.626,183.491 323.793,185.158 322.5,186.5C 323.313,178.862 323.646,171.196 323.5,163.5C 324.434,155.889 324.767,148.222 324.5,140.5 Z"/></g>
<g><path style="opacity:1" fill="#be7634" d="M 223.5,151.5 C 224.833,151.5 225.5,152.167 225.5,153.5C 224.636,154.688 223.636,155.855 222.5,157C 223.574,157.739 224.241,158.739 224.5,160C 223.804,162.407 223.471,164.74 223.5,167C 225.05,168.996 226.384,171.162 227.5,173.5C 225.154,176.692 223.487,180.192 222.5,184C 214.953,186.115 211.12,183.281 211,175.5C 210.333,170.167 210.333,164.833 211,159.5C 212.292,157.751 213.458,155.918 214.5,154C 217.851,153.943 220.851,153.109 223.5,151.5 Z"/></g>
<g><path style="opacity:1" fill="#c17e45" d="M 303.5,130.5 C 304.345,131.671 305.011,133.005 305.5,134.5C 305.5,134.833 305.5,135.167 305.5,135.5C 305.092,142.647 305.092,149.98 305.5,157.5C 305.5,158.833 305.5,160.167 305.5,161.5C 305.263,162.791 305.596,163.791 306.5,164.5C 306.5,165.5 306.5,166.5 306.5,167.5C 308.199,167.34 309.866,167.506 311.5,168C 308.937,168.918 306.77,168.418 305,166.5C 304.722,167.416 304.222,168.082 303.5,168.5C 302.216,155.693 302.216,143.026 303.5,130.5 Z"/></g>
<g><path style="opacity:0.2" fill="#d7cec6" d="M 195.5,127.5 C 195.263,130.647 194.43,133.647 193,136.5C 189.984,139.52 187.317,142.854 185,146.5C 184.366,151.156 182.033,154.823 178,157.5C 177.505,159.473 177.338,161.473 177.5,163.5C 176.257,167.786 175.257,172.119 174.5,176.5C 174.5,173.833 174.5,171.167 174.5,168.5C 174.066,160.701 176.9,154.368 183,149.5C 183.333,148.167 183.667,146.833 184,145.5C 188.619,139.911 192.452,133.911 195.5,127.5 Z"/></g>
<g><path style="opacity:0.714" fill="#bbb2ac" d="M 331.5,158.5 C 331.5,165.5 331.5,172.5 331.5,179.5C 331.84,184.133 330.506,188.133 327.5,191.5C 330.261,181.414 331.261,171.08 330.5,160.5C 330.328,159.508 330.662,158.842 331.5,158.5 Z"/></g>
<g><path style="opacity:1" fill="#b36526" d="M 320.5,164.5 C 320.611,165.117 320.944,165.617 321.5,166C 318.983,170.891 317.149,176.058 316,181.5C 314.667,182.833 313.333,184.167 312,185.5C 310.885,189.729 309.219,193.729 307,197.5C 306.667,203.5 306.333,209.5 306,215.5C 304.155,218.184 302.988,217.851 302.5,214.5C 303.375,210.213 303.708,205.879 303.5,201.5C 302.127,201.343 300.793,201.51 299.5,202C 298.897,204.071 297.564,205.238 295.5,205.5C 294.971,203.417 293.971,201.583 292.5,200C 293.354,198.978 294.354,198.145 295.5,197.5C 296.37,191.848 297.037,186.181 297.5,180.5C 299.39,180.703 300.89,180.037 302,178.5C 302.339,175.12 302.839,171.787 303.5,168.5C 304.222,168.082 304.722,167.416 305,166.5C 306.77,168.418 308.937,168.918 311.5,168C 309.866,167.506 308.199,167.34 306.5,167.5C 306.5,166.5 306.5,165.5 306.5,164.5C 308.484,165.694 310.484,165.694 312.5,164.5C 313.352,159.855 316.019,157.189 320.5,156.5C 320.5,159.167 320.5,161.833 320.5,164.5 Z"/></g>
<g><path style="opacity:1" fill="#cb823c" d="M 223.5,151.5 C 220.851,153.109 217.851,153.943 214.5,154C 213.458,155.918 212.292,157.751 211,159.5C 210.333,164.833 210.333,170.167 211,175.5C 211.12,183.281 214.953,186.115 222.5,184C 223.487,180.192 225.154,176.692 227.5,173.5C 226.384,171.162 225.05,168.996 223.5,167C 223.471,164.74 223.804,162.407 224.5,160C 224.241,158.739 223.574,157.739 222.5,157C 223.636,155.855 224.636,154.688 225.5,153.5C 225.675,155.844 226.842,157.511 229,158.5C 231.202,167.602 230.869,176.602 228,185.5C 227.922,183.343 227.755,181.343 227.5,179.5C 225.54,181.291 224.207,183.457 223.5,186C 217.72,187.186 212.887,185.686 209,181.5C 208.536,182.094 208.369,182.761 208.5,183.5C 206.735,180.877 206.068,177.877 206.5,174.5C 207.957,165.373 208.79,156.04 209,146.5C 209.667,149.833 210.333,153.167 211,156.5C 211.956,155.421 212.789,154.255 213.5,153C 216.854,152.545 220.187,152.045 223.5,151.5 Z"/></g>
<g><path style="opacity:1" fill="#87400c" d="M 217.5,160.5 C 218.693,160.97 219.36,161.97 219.5,163.5C 218.998,168.521 218.332,173.521 217.5,178.5C 214.966,172.502 214.966,166.502 217.5,160.5 Z"/></g>
<g><path style="opacity:0.996" fill="#968b83" d="M 330.5,160.5 C 331.261,171.08 330.261,181.414 327.5,191.5C 327.204,193.403 326.537,195.07 325.5,196.5C 325.5,195.833 325.5,195.167 325.5,194.5C 325.884,189.963 327.051,185.629 329,181.5C 329.171,174.321 329.671,167.321 330.5,160.5 Z"/></g>
<g><path style="opacity:1" fill="#987351" d="M 179.5,168.5 C 179.417,183.179 179.75,197.846 180.5,212.5C 179.833,208.833 179.167,205.167 178.5,201.5C 178.5,199.167 178.5,196.833 178.5,194.5C 177.551,189.26 177.218,183.927 177.5,178.5C 178.167,175.167 178.833,171.833 179.5,168.5 Z"/></g>
<g><path style="opacity:0.082" fill="#f2eee8" d="M 174.5,168.5 C 174.5,171.167 174.5,173.833 174.5,176.5C 172.667,181.8 172.334,187.133 173.5,192.5C 175.242,199.684 175.909,207.017 175.5,214.5C 174.873,205.512 173.54,196.512 171.5,187.5C 172.404,181.01 173.404,174.677 174.5,168.5 Z"/></g>
<g><path style="opacity:1" fill="#84705f" d="M 177.5,163.5 C 177.5,168.5 177.5,173.5 177.5,178.5C 177.218,183.927 177.551,189.26 178.5,194.5C 176.823,191.908 175.657,188.908 175,185.5C 174.503,187.81 174.337,190.143 174.5,192.5C 174.167,192.5 173.833,192.5 173.5,192.5C 172.334,187.133 172.667,181.8 174.5,176.5C 175.257,172.119 176.257,167.786 177.5,163.5 Z"/></g>
<g><path style="opacity:1" fill="#936a4b" d="M 322.5,163.5 C 322.833,163.5 323.167,163.5 323.5,163.5C 323.646,171.196 323.313,178.862 322.5,186.5C 322.029,188.579 321.363,190.579 320.5,192.5C 320.66,194.199 320.494,195.866 320,197.5C 319.667,196.5 319.333,195.5 319,194.5C 318.618,198.268 316.951,201.268 314,203.5C 312.734,207.395 312.234,211.395 312.5,215.5C 312.66,217.199 312.494,218.866 312,220.5C 308.2,224.453 305.033,228.786 302.5,233.5C 301.533,234.806 300.199,235.473 298.5,235.5C 299.551,234.778 300.218,233.778 300.5,232.5C 302.658,228.15 305.492,224.15 309,220.5C 310.215,215.209 311.215,209.876 312,204.5C 314.793,200.577 316.793,196.244 318,191.5C 319.771,182.118 321.271,172.785 322.5,163.5 Z"/></g>
<g><path style="opacity:1" fill="#4f3828" d="M 178.5,194.5 C 178.5,196.833 178.5,199.167 178.5,201.5C 178.167,201.5 177.833,201.5 177.5,201.5C 177.768,199.901 177.434,198.568 176.5,197.5C 175.463,196.07 174.796,194.403 174.5,192.5C 174.337,190.143 174.503,187.81 175,185.5C 175.657,188.908 176.823,191.908 178.5,194.5 Z"/></g>
<g><path style="opacity:1" fill="#c17f3f" d="M 211.5,132.5 C 210.089,131.092 208.423,130.092 206.5,129.5C 204.152,129.848 202.818,131.182 202.5,133.5C 199.951,136.99 198.451,140.99 198,145.5C 195.689,146.397 193.856,147.73 192.5,149.5C 190.94,152.913 190.107,156.579 190,160.5C 188.622,162.213 186.955,163.547 185,164.5C 183.452,173.438 183.119,182.438 184,191.5C 184.741,192.641 185.575,192.641 186.5,191.5C 188.126,183.584 189.292,175.584 190,167.5C 192.646,164.766 195.313,164.433 198,166.5C 198.07,181.885 198.903,197.218 200.5,212.5C 200.533,215.102 199.533,217.102 197.5,218.5C 197.737,217.209 197.404,216.209 196.5,215.5C 196.821,209.974 196.488,204.64 195.5,199.5C 195.5,197.5 195.5,195.5 195.5,193.5C 194.5,193.5 193.5,193.5 192.5,193.5C 191.322,196.523 191.322,199.523 192.5,202.5C 191.791,203.404 190.791,203.737 189.5,203.5C 188.664,208.594 189.998,212.927 193.5,216.5C 193.394,219.079 194.061,221.412 195.5,223.5C 193.396,223.201 191.396,223.534 189.5,224.5C 190.039,230.748 191.372,236.748 193.5,242.5C 193.5,248.833 193.5,255.167 193.5,261.5C 194.5,261.5 195.5,261.5 196.5,261.5C 196.325,263.621 196.659,265.621 197.5,267.5C 196.833,267.5 196.167,267.5 195.5,267.5C 195.5,266.167 195.5,264.833 195.5,263.5C 194.167,263.5 192.833,263.5 191.5,263.5C 191.825,256.313 191.491,249.313 190.5,242.5C 189.748,239.253 189.248,235.919 189,232.5C 188.768,233.737 188.268,234.737 187.5,235.5C 187.5,235.167 187.5,234.833 187.5,234.5C 185.809,225.852 183.976,217.185 182,208.5C 180.564,195.529 180.231,182.529 181,169.5C 181.485,165.514 183.152,162.181 186,159.5C 187.637,156.283 188.97,152.95 190,149.5C 192.08,146.935 193.913,144.268 195.5,141.5C 197.497,138.84 198.997,135.84 200,132.5C 201.5,131 203,129.5 204.5,128C 208.472,126.984 210.805,128.484 211.5,132.5 Z"/></g>
<g><path style="opacity:1" fill="#8f5926" d="M 195.5,199.5 C 195.737,200.791 195.404,201.791 194.5,202.5C 194.631,201.761 194.464,201.094 194,200.5C 193.722,201.416 193.222,202.082 192.5,202.5C 191.322,199.523 191.322,196.523 192.5,193.5C 193.5,193.5 194.5,193.5 195.5,193.5C 195.5,195.5 195.5,197.5 195.5,199.5 Z"/></g>
<g><path style="opacity:0.173" fill="#bdb8b4" d="M 325.5,196.5 C 324.164,200.504 322.831,204.504 321.5,208.5C 320.5,209.833 319.5,211.167 318.5,212.5C 318.994,207.492 320.661,202.826 323.5,198.5C 324.167,197.833 324.833,197.167 325.5,196.5 Z"/></g>
<g><path style="opacity:1" fill="#c77c37" d="M 301.5,106.5 C 302.727,113.097 304.06,119.763 305.5,126.5C 304.37,127.622 303.703,128.956 303.5,130.5C 302.216,143.026 302.216,155.693 303.5,168.5C 302.839,171.787 302.339,175.12 302,178.5C 300.89,180.037 299.39,180.703 297.5,180.5C 297.037,186.181 296.37,191.848 295.5,197.5C 294.354,198.145 293.354,198.978 292.5,200C 293.971,201.583 294.971,203.417 295.5,205.5C 294.566,206.568 294.232,207.901 294.5,209.5C 291.694,209.822 289.194,210.822 287,212.5C 285.904,217.318 284.071,221.652 281.5,225.5C 279.759,227.395 278.759,229.728 278.5,232.5C 277.596,233.209 277.263,234.209 277.5,235.5C 276.778,235.082 276.278,234.416 276,233.5C 275.227,238.311 272.394,240.977 267.5,241.5C 267.167,242.167 266.833,242.833 266.5,243.5C 261.836,244.723 257.169,244.723 252.5,243.5C 251.287,243.747 250.62,244.414 250.5,245.5C 246.319,248.843 241.986,252.01 237.5,255C 235.505,257.157 234.172,259.657 233.5,262.5C 230.848,271.631 224.681,275.964 215,275.5C 210.464,274.994 205.964,274.327 201.5,273.5C 201.653,270.465 200.32,268.465 197.5,267.5C 196.659,265.621 196.325,263.621 196.5,261.5C 195.5,261.5 194.5,261.5 193.5,261.5C 193.5,255.167 193.5,248.833 193.5,242.5C 194.328,248.319 194.828,254.319 195,260.5C 195.632,255.253 197.465,250.586 200.5,246.5C 201.086,246.709 201.586,247.043 202,247.5C 202.842,253.579 204.009,259.579 205.5,265.5C 206.5,266.167 207.5,266.833 208.5,267.5C 212.335,267.494 216.168,267.161 220,266.5C 222.179,268.637 224.679,268.971 227.5,267.5C 229.511,262.494 231.511,257.494 233.5,252.5C 236.086,250.957 238.586,249.291 241,247.5C 241.667,245.833 241.667,244.167 241,242.5C 238.18,239.412 238.013,236.245 240.5,233C 246.688,231.924 251.688,233.924 255.5,239C 260.349,241.078 263.682,239.578 265.5,234.5C 270.793,233.208 271.793,230.374 268.5,226C 268.703,222.611 268.87,219.111 269,215.5C 270.113,214.289 271.28,214.289 272.5,215.5C 273.768,217.304 274.435,219.304 274.5,221.5C 278.801,221.367 281.468,219.2 282.5,215C 280.739,211.569 278.572,208.403 276,205.5C 275.489,200.811 277.656,198.977 282.5,200C 285.493,202.852 288.826,205.018 292.5,206.5C 292.66,204.801 292.494,203.134 292,201.5C 290.5,200.667 289.333,199.5 288.5,198C 283.714,196.463 278.881,195.296 274,194.5C 273.873,193.223 274.373,192.057 275.5,191C 273.302,182.825 274.636,175.325 279.5,168.5C 286.214,167.185 293.214,166.185 300.5,165.5C 300.535,145.827 300.869,126.16 301.5,106.5 Z"/></g>
<g><path style="opacity:1" fill="#a96631" d="M 290.5,172.5 C 291.993,173.312 292.66,174.645 292.5,176.5C 293.894,187.435 289.227,192.435 278.5,191.5C 278.622,188.708 279.956,186.708 282.5,185.5C 282.343,186.873 282.51,188.207 283,189.5C 287.989,185.065 290.489,179.398 290.5,172.5 Z"/></g>
<g><path style="opacity:1" fill="#733308" d="M 290.5,172.5 C 290.489,179.398 287.989,185.065 283,189.5C 282.51,188.207 282.343,186.873 282.5,185.5C 283.569,183.031 284.902,180.698 286.5,178.5C 287.167,175.833 287.833,173.167 288.5,170.5C 289.522,170.855 290.189,171.522 290.5,172.5 Z"/></g>
<g><path style="opacity:1" fill="#362213" d="M 177.5,201.5 C 177.833,201.5 178.167,201.5 178.5,201.5C 179.167,205.167 179.833,208.833 180.5,212.5C 180.5,212.833 180.5,213.167 180.5,213.5C 181.335,217.34 181.335,221.006 180.5,224.5C 179.976,222.694 179.309,221.028 178.5,219.5C 177.693,213.536 177.36,207.536 177.5,201.5 Z"/></g>
<g><path style="opacity:1" fill="#a97b4e" d="M 195.5,141.5 C 193.913,144.268 192.08,146.935 190,149.5C 188.97,152.95 187.637,156.283 186,159.5C 183.152,162.181 181.485,165.514 181,169.5C 180.231,182.529 180.564,195.529 182,208.5C 183.976,217.185 185.809,225.852 187.5,234.5C 186.833,234.167 186.167,233.833 185.5,233.5C 185.5,233.167 185.5,232.833 185.5,232.5C 183.556,226.158 181.889,219.824 180.5,213.5C 180.5,213.167 180.5,212.833 180.5,212.5C 179.75,197.846 179.417,183.179 179.5,168.5C 181.557,157.468 186.89,148.468 195.5,141.5 Z"/></g>
<g><path style="opacity:0.366" fill="#c2b8b0" d="M 173.5,192.5 C 173.833,192.5 174.167,192.5 174.5,192.5C 174.796,194.403 175.463,196.07 176.5,197.5C 176.334,204.175 176.5,210.842 177,217.5C 177.278,218.416 177.778,219.082 178.5,219.5C 179.309,221.028 179.976,222.694 180.5,224.5C 182.104,231.028 182.938,237.695 183,244.5C 183.383,245.056 183.883,245.389 184.5,245.5C 184.5,246.167 184.5,246.833 184.5,247.5C 184.828,259.012 184.495,270.346 183.5,281.5C 183.622,270.802 183.456,259.802 183,248.5C 182.734,238.655 180.401,229.322 176,220.5C 175.505,218.527 175.338,216.527 175.5,214.5C 175.909,207.017 175.242,199.684 173.5,192.5 Z"/></g>
<g><path style="opacity:1" fill="#533c2f" d="M 320.5,192.5 C 322.554,192.365 324.221,193.032 325.5,194.5C 325.5,195.167 325.5,195.833 325.5,196.5C 324.833,197.167 324.167,197.833 323.5,198.5C 323.785,196.712 323.452,195.045 322.5,193.5C 322.259,197.983 320.425,201.649 317,204.5C 316.333,209.167 315.667,213.833 315,218.5C 314.617,219.056 314.117,219.389 313.5,219.5C 313.768,217.901 313.434,216.568 312.5,215.5C 312.234,211.395 312.734,207.395 314,203.5C 316.951,201.268 318.618,198.268 319,194.5C 319.333,195.5 319.667,196.5 320,197.5C 320.494,195.866 320.66,194.199 320.5,192.5 Z"/></g>
<g><path style="opacity:1" fill="#ac6c3d" d="M 300.5,97.5 C 301.5,98.1667 302.5,98.8333 303.5,99.5C 303.5,99.8333 303.5,100.167 303.5,100.5C 305.695,104.205 307.695,108.038 309.5,112C 316.039,117.588 319.539,124.754 320,133.5C 320.414,133.957 320.914,134.291 321.5,134.5C 322.498,144.144 322.832,153.81 322.5,163.5C 321.271,172.785 319.771,182.118 318,191.5C 316.793,196.244 314.793,200.577 312,204.5C 311.215,209.876 310.215,215.209 309,220.5C 305.492,224.15 302.658,228.15 300.5,232.5C 298.983,232.511 297.816,233.177 297,234.5C 295.175,233.897 293.341,233.23 291.5,232.5C 292.711,231.28 292.711,230.113 291.5,229C 293.886,227.113 295.053,224.613 295,221.5C 300.59,216.873 300.924,211.873 296,206.5C 295.51,207.793 295.343,209.127 295.5,210.5C 294.833,210.5 294.5,210.167 294.5,209.5C 294.232,207.901 294.566,206.568 295.5,205.5C 297.564,205.238 298.897,204.071 299.5,202C 300.793,201.51 302.127,201.343 303.5,201.5C 303.708,205.879 303.375,210.213 302.5,214.5C 302.988,217.851 304.155,218.184 306,215.5C 306.333,209.5 306.667,203.5 307,197.5C 309.219,193.729 310.885,189.729 312,185.5C 313.333,184.167 314.667,182.833 316,181.5C 317.149,176.058 318.983,170.891 321.5,166C 320.944,165.617 320.611,165.117 320.5,164.5C 321.142,151.118 319.642,137.785 316,124.5C 314.701,121.853 313.368,119.186 312,116.5C 306.762,113.683 303.762,109.35 303,103.5C 302.292,102.619 301.458,101.953 300.5,101.5C 300.5,100.167 300.5,98.8333 300.5,97.5 Z"/></g>
<g><path style="opacity:1" fill="#b18356" d="M 195.5,199.5 C 196.488,204.64 196.821,209.974 196.5,215.5C 196.167,215.5 195.833,215.5 195.5,215.5C 194.129,213.741 193.129,211.741 192.5,209.5C 193.577,207.271 194.244,204.937 194.5,202.5C 195.404,201.791 195.737,200.791 195.5,199.5 Z"/></g>
<g><path style="opacity:0.792" fill="#796d61" d="M 176.5,197.5 C 177.434,198.568 177.768,199.901 177.5,201.5C 177.36,207.536 177.693,213.536 178.5,219.5C 177.778,219.082 177.278,218.416 177,217.5C 176.5,210.842 176.334,204.175 176.5,197.5 Z"/></g>
<g><path style="opacity:1" fill="#6b3b15" d="M 194.5,202.5 C 194.244,204.937 193.577,207.271 192.5,209.5C 193.129,211.741 194.129,213.741 195.5,215.5C 195.158,216.338 194.492,216.672 193.5,216.5C 189.998,212.927 188.664,208.594 189.5,203.5C 190.791,203.737 191.791,203.404 192.5,202.5C 193.222,202.082 193.722,201.416 194,200.5C 194.464,201.094 194.631,201.761 194.5,202.5 Z"/></g>
<g><path style="opacity:1" fill="#683b22" d="M 295.5,212.5 C 297.811,213.961 297.811,215.794 295.5,218C 294.552,218.483 293.552,218.649 292.5,218.5C 296.786,216.19 296.452,215.19 291.5,215.5C 293.076,214.857 294.41,213.857 295.5,212.5 Z"/></g>
<g><path style="opacity:1" fill="#b67e50" d="M 294.5,209.5 C 294.5,210.167 294.833,210.5 295.5,210.5C 295.5,211.167 295.5,211.833 295.5,212.5C 294.41,213.857 293.076,214.857 291.5,215.5C 290.542,215.953 289.708,216.619 289,217.5C 288.591,222.212 286.091,224.878 281.5,225.5C 284.071,221.652 285.904,217.318 287,212.5C 289.194,210.822 291.694,209.822 294.5,209.5 Z"/></g>
<g><path style="opacity:0.106" fill="#e7e6e5" d="M 321.5,208.5 C 320.195,213.743 319.361,219.076 319,224.5C 318.578,226.426 317.411,227.426 315.5,227.5C 318.227,222.965 319.227,217.965 318.5,212.5C 319.5,211.167 320.5,209.833 321.5,208.5 Z"/></g>
<g><path style="opacity:1" fill="#a15c1f" d="M 195.5,215.5 C 195.833,215.5 196.167,215.5 196.5,215.5C 197.404,216.209 197.737,217.209 197.5,218.5C 198.301,220.042 198.634,221.708 198.5,223.5C 197.5,223.5 196.5,223.5 195.5,223.5C 194.061,221.412 193.394,219.079 193.5,216.5C 194.492,216.672 195.158,216.338 195.5,215.5 Z"/></g>
<g><path style="opacity:1" fill="#5a2c14" d="M 291.5,215.5 C 296.452,215.19 296.786,216.19 292.5,218.5C 291.145,221.43 290.645,224.43 291,227.5C 288.328,228.867 285.495,229.867 282.5,230.5C 281.974,232.23 280.974,233.564 279.5,234.5C 278.702,234.043 278.369,233.376 278.5,232.5C 278.759,229.728 279.759,227.395 281.5,225.5C 286.091,224.878 288.591,222.212 289,217.5C 289.708,216.619 290.542,215.953 291.5,215.5 Z"/></g>
<g><path style="opacity:1" fill="#412415" d="M 312.5,215.5 C 313.434,216.568 313.768,217.901 313.5,219.5C 313.392,221.783 312.559,223.783 311,225.5C 307.888,228.125 305.221,231.125 303,234.5C 302.601,234.272 302.435,233.938 302.5,233.5C 305.033,228.786 308.2,224.453 312,220.5C 312.494,218.866 312.66,217.199 312.5,215.5 Z"/></g>
<g><path style="opacity:1" fill="#664b38" d="M 180.5,213.5 C 181.889,219.824 183.556,226.158 185.5,232.5C 184.883,232.389 184.383,232.056 184,231.5C 183.667,236.174 183.833,240.84 184.5,245.5C 183.883,245.389 183.383,245.056 183,244.5C 182.938,237.695 182.104,231.028 180.5,224.5C 181.335,221.006 181.335,217.34 180.5,213.5 Z"/></g>
<g><path style="opacity:1" fill="#9b653f" d="M 300.5,232.5 C 300.218,233.778 299.551,234.778 298.5,235.5C 296.436,235.687 294.436,236.187 292.5,237C 289.032,240.131 285.532,243.297 282,246.5C 280.505,251.162 277.339,253.828 272.5,254.5C 278.081,249.486 283.081,243.986 287.5,238C 287.095,237.055 286.428,236.388 285.5,236C 282.854,235.503 280.187,235.336 277.5,235.5C 277.263,234.209 277.596,233.209 278.5,232.5C 278.369,233.376 278.702,234.043 279.5,234.5C 280.974,233.564 281.974,232.23 282.5,230.5C 285.495,229.867 288.328,228.867 291,227.5C 290.645,224.43 291.145,221.43 292.5,218.5C 293.552,218.649 294.552,218.483 295.5,218C 297.811,215.794 297.811,213.961 295.5,212.5C 295.5,211.833 295.5,211.167 295.5,210.5C 295.343,209.127 295.51,207.793 296,206.5C 300.924,211.873 300.59,216.873 295,221.5C 295.053,224.613 293.886,227.113 291.5,229C 292.711,230.113 292.711,231.28 291.5,232.5C 293.341,233.23 295.175,233.897 297,234.5C 297.816,233.177 298.983,232.511 300.5,232.5 Z"/></g>
<g><path style="opacity:1" fill="#44352e" d="M 323.5,198.5 C 320.661,202.826 318.994,207.492 318.5,212.5C 319.227,217.965 318.227,222.965 315.5,227.5C 310.511,228.325 307.678,231.325 307,236.5C 305.237,237.944 303.237,238.944 301,239.5C 300.517,240.448 300.351,241.448 300.5,242.5C 298.784,242.629 297.117,242.962 295.5,243.5C 295.062,243.565 294.728,243.399 294.5,243C 295.582,241.67 296.249,240.17 296.5,238.5C 297.167,237.5 297.833,236.5 298.5,235.5C 300.199,235.473 301.533,234.806 302.5,233.5C 302.435,233.938 302.601,234.272 303,234.5C 305.221,231.125 307.888,228.125 311,225.5C 312.559,223.783 313.392,221.783 313.5,219.5C 314.117,219.389 314.617,219.056 315,218.5C 315.667,213.833 316.333,209.167 317,204.5C 320.425,201.649 322.259,197.983 322.5,193.5C 323.452,195.045 323.785,196.712 323.5,198.5 Z"/></g>
<g><path style="opacity:1" fill="#af662e" d="M 277.5,235.5 C 279.631,236.314 281.964,236.814 284.5,237C 284.957,237.414 285.291,237.914 285.5,238.5C 279.847,243.984 274.014,249.317 268,254.5C 266.263,255.62 264.429,256.62 262.5,257.5C 258.838,255.997 257.838,253.497 259.5,250C 258.584,249.722 257.918,249.222 257.5,248.5C 257.938,248.565 258.272,248.399 258.5,248C 256.231,245.977 253.564,245.144 250.5,245.5C 250.62,244.414 251.287,243.747 252.5,243.5C 257.169,244.723 261.836,244.723 266.5,243.5C 266.833,242.833 267.167,242.167 267.5,241.5C 272.394,240.977 275.227,238.311 276,233.5C 276.278,234.416 276.778,235.082 277.5,235.5 Z"/></g>
<g><path style="opacity:1" fill="#3c261a" d="M 185.5,232.5 C 185.5,232.833 185.5,233.167 185.5,233.5C 185.978,240.512 186.644,247.512 187.5,254.5C 187.46,258.74 186.794,262.74 185.5,266.5C 185.823,259.978 185.49,253.645 184.5,247.5C 184.5,246.833 184.5,246.167 184.5,245.5C 183.833,240.84 183.667,236.174 184,231.5C 184.383,232.056 184.883,232.389 185.5,232.5 Z"/></g>
<g><path style="opacity:1" fill="#744021" d="M 253.5,246.5 C 253.247,251.094 251.247,254.761 247.5,257.5C 248.292,256.033 248.292,254.7 247.5,253.5C 246.995,255.769 245.662,257.103 243.5,257.5C 244.73,255.703 245.396,253.703 245.5,251.5C 249.2,251.464 251.867,249.797 253.5,246.5 Z"/></g>
<g><path style="opacity:1" fill="#aa6a3b" d="M 277.5,235.5 C 280.187,235.336 282.854,235.503 285.5,236C 286.428,236.388 287.095,237.055 287.5,238C 283.081,243.986 278.081,249.486 272.5,254.5C 269.976,255.927 267.31,257.094 264.5,258C 261.152,263.009 256.485,266.009 250.5,267C 248.645,270.335 246.645,273.502 244.5,276.5C 237.534,281.303 231.034,286.636 225,292.5C 221.564,298.044 219.23,304.044 218,310.5C 212.854,317.182 206.354,319.182 198.5,316.5C 205.105,317.416 210.438,315.416 214.5,310.5C 216.424,303.978 218.924,297.645 222,291.5C 228.276,286.227 234.276,280.56 240,274.5C 240.787,270.278 239.287,267.111 235.5,265C 235.728,264.601 236.062,264.435 236.5,264.5C 237.873,264.657 239.207,264.49 240.5,264C 242.618,261.579 244.952,259.412 247.5,257.5C 251.247,254.761 253.247,251.094 253.5,246.5C 254.29,247.609 254.79,248.942 255,250.5C 255.075,248.065 255.908,247.398 257.5,248.5C 257.918,249.222 258.584,249.722 259.5,250C 257.838,253.497 258.838,255.997 262.5,257.5C 264.429,256.62 266.263,255.62 268,254.5C 274.014,249.317 279.847,243.984 285.5,238.5C 285.291,237.914 284.957,237.414 284.5,237C 281.964,236.814 279.631,236.314 277.5,235.5 Z"/></g>
<g><path style="opacity:1" fill="#ba804f" d="M 250.5,245.5 C 253.564,245.144 256.231,245.977 258.5,248C 258.272,248.399 257.938,248.565 257.5,248.5C 255.908,247.398 255.075,248.065 255,250.5C 254.79,248.942 254.29,247.609 253.5,246.5C 251.867,249.797 249.2,251.464 245.5,251.5C 243.313,254.708 240.48,257.375 237,259.5C 236.517,260.448 236.351,261.448 236.5,262.5C 235.5,262.5 234.5,262.5 233.5,262.5C 234.172,259.657 235.505,257.157 237.5,255C 241.986,252.01 246.319,248.843 250.5,245.5 Z"/></g>
<g><path style="opacity:1" fill="#9d6b46" d="M 245.5,251.5 C 245.396,253.703 244.73,255.703 243.5,257.5C 241.343,259.412 239.009,261.079 236.5,262.5C 236.351,261.448 236.517,260.448 237,259.5C 240.48,257.375 243.313,254.708 245.5,251.5 Z"/></g>
<g><path style="opacity:1" fill="#54220b" d="M 247.5,257.5 C 244.952,259.412 242.618,261.579 240.5,264C 239.207,264.49 237.873,264.657 236.5,264.5C 236.5,263.833 236.5,263.167 236.5,262.5C 239.009,261.079 241.343,259.412 243.5,257.5C 245.662,257.103 246.995,255.769 247.5,253.5C 248.292,254.7 248.292,256.033 247.5,257.5 Z"/></g>
<g><path style="opacity:1" fill="#4b2c1a" d="M 296.5,238.5 C 296.249,240.17 295.582,241.67 294.5,243C 294.728,243.399 295.062,243.565 295.5,243.5C 294.833,244.833 293.833,245.833 292.5,246.5C 291.305,246.322 290.138,245.989 289,245.5C 287.806,247.024 286.306,248.19 284.5,249C 285.727,250.587 285.394,251.921 283.5,253C 276.299,256.098 269.965,260.431 264.5,266C 261.625,267.302 258.625,268.135 255.5,268.5C 262.584,262.112 270.584,256.945 279.5,253C 283.813,246.516 289.48,241.682 296.5,238.5 Z"/></g>
<g><path style="opacity:1" fill="#593b2a" d="M 185.5,233.5 C 186.167,233.833 186.833,234.167 187.5,234.5C 187.5,234.833 187.5,235.167 187.5,235.5C 188.515,252.15 189.015,268.817 189,285.5C 185.617,289.147 184.117,293.48 184.5,298.5C 183.213,299.871 182.547,301.705 182.5,304C 182.667,305.833 182.833,307.667 183,309.5C 185.127,311.114 186.627,313.114 187.5,315.5C 186.761,315.369 186.094,315.536 185.5,316C 186.416,316.278 187.082,316.778 187.5,317.5C 185.4,317.523 183.567,316.856 182,315.5C 181.098,315.743 180.265,316.077 179.5,316.5C 179.616,305.974 180.949,295.641 183.5,285.5C 184.268,284.737 184.768,283.737 185,282.5C 185.499,277.177 185.666,271.844 185.5,266.5C 186.794,262.74 187.46,258.74 187.5,254.5C 186.644,247.512 185.978,240.512 185.5,233.5 Z"/></g>
<g><path style="opacity:0.329" fill="#c3bdb9" d="M 315.5,227.5 C 311.81,231.703 308.477,236.203 305.5,241C 302.167,243 298.833,245 295.5,247C 291.2,252.301 286.534,257.301 281.5,262C 275.377,263.97 270.044,267.137 265.5,271.5C 268.915,264.624 274.582,260.457 282.5,259C 286.047,254.959 289.38,250.792 292.5,246.5C 293.833,245.833 294.833,244.833 295.5,243.5C 297.117,242.962 298.784,242.629 300.5,242.5C 300.351,241.448 300.517,240.448 301,239.5C 303.237,238.944 305.237,237.944 307,236.5C 307.678,231.325 310.511,228.325 315.5,227.5 Z"/></g>
<g><path style="opacity:1" fill="#976645" d="M 298.5,235.5 C 297.833,236.5 297.167,237.5 296.5,238.5C 289.48,241.682 283.813,246.516 279.5,253C 270.584,256.945 262.584,262.112 255.5,268.5C 253.91,268.628 252.577,269.295 251.5,270.5C 248.639,274.227 246.305,278.227 244.5,282.5C 241.894,284.074 239.227,285.741 236.5,287.5C 235.614,288.325 235.281,289.325 235.5,290.5C 234.833,290.5 234.167,290.5 233.5,290.5C 233.351,289.448 233.517,288.448 234,287.5C 236.446,284.226 239.612,281.892 243.5,280.5C 244.246,279.264 244.579,277.93 244.5,276.5C 246.645,273.502 248.645,270.335 250.5,267C 256.485,266.009 261.152,263.009 264.5,258C 267.31,257.094 269.976,255.927 272.5,254.5C 277.339,253.828 280.505,251.162 282,246.5C 285.532,243.297 289.032,240.131 292.5,237C 294.436,236.187 296.436,235.687 298.5,235.5 Z"/></g>
<g><path style="opacity:1" fill="#b36224" d="M 233.5,262.5 C 234.5,262.5 235.5,262.5 236.5,262.5C 236.5,263.167 236.5,263.833 236.5,264.5C 236.062,264.435 235.728,264.601 235.5,265C 239.287,267.111 240.787,270.278 240,274.5C 234.276,280.56 228.276,286.227 222,291.5C 218.924,297.645 216.424,303.978 214.5,310.5C 208.011,310.716 206.011,308.05 208.5,302.5C 207.91,301.201 206.91,300.368 205.5,300C 202.118,299.176 198.784,299.343 195.5,300.5C 195.5,302.167 195.5,303.833 195.5,305.5C 190.383,307.552 188.55,305.885 190,300.5C 190.728,296.643 192.228,293.143 194.5,290C 193.394,286.722 194.061,283.722 196.5,281C 195.126,276.525 194.792,272.025 195.5,267.5C 196.167,267.5 196.833,267.5 197.5,267.5C 200.32,268.465 201.653,270.465 201.5,273.5C 205.964,274.327 210.464,274.994 215,275.5C 224.681,275.964 230.848,271.631 233.5,262.5 Z"/></g>
<g><path style="opacity:1" fill="#42342d" d="M 292.5,246.5 C 289.38,250.792 286.047,254.959 282.5,259C 274.582,260.457 268.915,264.624 265.5,271.5C 265.158,272.338 264.492,272.672 263.5,272.5C 260.654,272.552 258.32,273.552 256.5,275.5C 253.885,276.45 251.885,278.117 250.5,280.5C 250.602,275.556 252.935,272.056 257.5,270C 256.584,269.722 255.918,269.222 255.5,268.5C 258.625,268.135 261.625,267.302 264.5,266C 269.965,260.431 276.299,256.098 283.5,253C 285.394,251.921 285.727,250.587 284.5,249C 286.306,248.19 287.806,247.024 289,245.5C 290.138,245.989 291.305,246.322 292.5,246.5 Z"/></g>
<g><path style="opacity:1" fill="#ac7043" d="M 190.5,242.5 C 191.491,249.313 191.825,256.313 191.5,263.5C 194.08,276.924 192.746,289.924 187.5,302.5C 186.839,296.827 187.672,291.494 190,286.5C 190.167,284 190.333,281.5 190.5,279C 189.523,266.84 189.523,254.673 190.5,242.5 Z"/></g>
<g><path style="opacity:0.92" fill="#705f57" d="M 184.5,247.5 C 185.49,253.645 185.823,259.978 185.5,266.5C 185.666,271.844 185.499,277.177 185,282.5C 184.768,283.737 184.268,284.737 183.5,285.5C 183.5,284.5 183.5,283.5 183.5,282.5C 183.5,282.167 183.5,281.833 183.5,281.5C 184.495,270.346 184.828,259.012 184.5,247.5 Z"/></g>
<g><path style="opacity:1" fill="#391d12" d="M 255.5,268.5 C 255.918,269.222 256.584,269.722 257.5,270C 252.935,272.056 250.602,275.556 250.5,280.5C 249.883,280.389 249.383,280.056 249,279.5C 248.092,281.439 246.592,282.439 244.5,282.5C 246.305,278.227 248.639,274.227 251.5,270.5C 252.577,269.295 253.91,268.628 255.5,268.5 Z"/></g>
<g><path style="opacity:0.769" fill="#a89c98" d="M 256.5,275.5 C 254.748,277.246 253.415,279.246 252.5,281.5C 251.5,282.167 250.5,282.833 249.5,283.5C 249.557,282.391 249.89,281.391 250.5,280.5C 251.885,278.117 253.885,276.45 256.5,275.5 Z"/></g>
<g><path style="opacity:0.031" fill="#dcd6d3" d="M 263.5,272.5 C 259.59,275.064 255.923,278.064 252.5,281.5C 253.415,279.246 254.748,277.246 256.5,275.5C 258.32,273.552 260.654,272.552 263.5,272.5 Z"/></g>
<g><path style="opacity:0.208" fill="#e7e2dd" d="M 183.5,282.5 C 183.5,283.5 183.5,284.5 183.5,285.5C 182.833,285.833 182.167,286.167 181.5,286.5C 181.66,284.847 182.326,283.514 183.5,282.5 Z"/></g>
<g><path style="opacity:0.478" fill="#cdc5c2" d="M 252.5,281.5 C 251.588,283.595 250.421,285.595 249,287.5C 243,293.572 237.5,299.905 232.5,306.5C 232.629,304.784 232.962,303.117 233.5,301.5C 235.984,299.88 237.484,297.547 238,294.5C 242.706,291.597 246.539,287.93 249.5,283.5C 250.5,282.833 251.5,282.167 252.5,281.5 Z"/></g>
<g><path style="opacity:1" fill="#9d8e87" d="M 183.5,285.5 C 180.949,295.641 179.616,305.974 179.5,316.5C 179.167,316.5 178.833,316.5 178.5,316.5C 178.5,313.5 178.5,310.5 178.5,307.5C 178.179,302.305 178.513,297.305 179.5,292.5C 181.074,290.898 181.741,288.898 181.5,286.5C 182.167,286.167 182.833,285.833 183.5,285.5 Z"/></g>
<g><path style="opacity:0.42" fill="#d0c6c2" d="M 181.5,286.5 C 181.741,288.898 181.074,290.898 179.5,292.5C 179.259,290.102 179.926,288.102 181.5,286.5 Z"/></g>
<g><path style="opacity:1" fill="#47312a" d="M 250.5,280.5 C 249.89,281.391 249.557,282.391 249.5,283.5C 246.539,287.93 242.706,291.597 238,294.5C 237.484,297.547 235.984,299.88 233.5,301.5C 232.903,301.265 232.57,300.765 232.5,300C 234.007,296.979 235.007,293.812 235.5,290.5C 235.281,289.325 235.614,288.325 236.5,287.5C 239.227,285.741 241.894,284.074 244.5,282.5C 246.592,282.439 248.092,281.439 249,279.5C 249.383,280.056 249.883,280.389 250.5,280.5 Z"/></g>
<g><path style="opacity:1" fill="#8c6248" d="M 232.5,292.5 C 230.329,298.328 227.329,303.662 223.5,308.5C 222.431,310.969 221.098,313.302 219.5,315.5C 217.255,317.541 214.588,319.041 211.5,320C 207.21,320.923 202.877,321.423 198.5,321.5C 197.508,321.672 196.842,321.338 196.5,320.5C 205.334,320.816 213.001,318.149 219.5,312.5C 221.128,307.246 223.295,302.246 226,297.5C 227.758,295.235 229.925,293.568 232.5,292.5 Z"/></g>
<g><path style="opacity:1" fill="#63483c" d="M 233.5,290.5 C 234.167,290.5 234.833,290.5 235.5,290.5C 235.007,293.812 234.007,296.979 232.5,300C 232.57,300.765 232.903,301.265 233.5,301.5C 232.962,303.117 232.629,304.784 232.5,306.5C 231.833,306.833 231.167,307.167 230.5,307.5C 230.631,306.624 230.298,305.957 229.5,305.5C 227.757,307.038 225.757,308.038 223.5,308.5C 227.329,303.662 230.329,298.328 232.5,292.5C 233.338,292.158 233.672,291.492 233.5,290.5 Z"/></g>
<g><path style="opacity:1" fill="#b16630" d="M 191.5,263.5 C 192.833,263.5 194.167,263.5 195.5,263.5C 195.5,264.833 195.5,266.167 195.5,267.5C 194.792,272.025 195.126,276.525 196.5,281C 194.061,283.722 193.394,286.722 194.5,290C 192.228,293.143 190.728,296.643 190,300.5C 188.55,305.885 190.383,307.552 195.5,305.5C 195.5,303.833 195.5,302.167 195.5,300.5C 198.784,299.343 202.118,299.176 205.5,300C 206.91,300.368 207.91,301.201 208.5,302.5C 206.011,308.05 208.011,310.716 214.5,310.5C 210.438,315.416 205.105,317.416 198.5,316.5C 195.827,313.161 192.827,310.161 189.5,307.5C 188.544,305.925 187.877,304.258 187.5,302.5C 192.746,289.924 194.08,276.924 191.5,263.5 Z"/></g>
<g><path style="opacity:1" fill="#3d2d23" d="M 230.5,307.5 C 224.254,313.756 218.254,320.423 212.5,327.5C 211.427,326.749 211.26,325.749 212,324.5C 215.088,321.919 217.588,318.919 219.5,315.5C 221.098,313.302 222.431,310.969 223.5,308.5C 225.757,308.038 227.757,307.038 229.5,305.5C 230.298,305.957 230.631,306.624 230.5,307.5 Z"/></g>
<g><path style="opacity:1" fill="#a6714c" d="M 190.5,242.5 C 189.523,254.673 189.523,266.84 190.5,279C 190.333,281.5 190.167,284 190,286.5C 187.672,291.494 186.839,296.827 187.5,302.5C 187.877,304.258 188.544,305.925 189.5,307.5C 192.827,310.161 195.827,313.161 198.5,316.5C 206.354,319.182 212.854,317.182 218,310.5C 219.23,304.044 221.564,298.044 225,292.5C 231.034,286.636 237.534,281.303 244.5,276.5C 244.579,277.93 244.246,279.264 243.5,280.5C 239.612,281.892 236.446,284.226 234,287.5C 233.517,288.448 233.351,289.448 233.5,290.5C 233.672,291.492 233.338,292.158 232.5,292.5C 229.925,293.568 227.758,295.235 226,297.5C 223.295,302.246 221.128,307.246 219.5,312.5C 213.001,318.149 205.334,320.816 196.5,320.5C 196.586,319.504 196.252,318.671 195.5,318C 189.807,315.643 186.307,311.477 185,305.5C 184.503,303.19 184.337,300.857 184.5,298.5C 184.117,293.48 185.617,289.147 189,285.5C 189.015,268.817 188.515,252.15 187.5,235.5C 188.268,234.737 188.768,233.737 189,232.5C 189.248,235.919 189.748,239.253 190.5,242.5 Z"/></g>
<g><path style="opacity:0.706" fill="#d1c8be" d="M 178.5,307.5 C 178.5,310.5 178.5,313.5 178.5,316.5C 178.5,316.833 178.5,317.167 178.5,317.5C 175.057,322.993 172.057,328.66 169.5,334.5C 172.263,325.334 175.263,316.334 178.5,307.5 Z"/></g>
<g><path style="opacity:1" fill="#885e48" d="M 184.5,298.5 C 184.337,300.857 184.503,303.19 185,305.5C 186.307,311.477 189.807,315.643 195.5,318C 196.252,318.671 196.586,319.504 196.5,320.5C 193.738,318.404 190.738,316.738 187.5,315.5C 186.627,313.114 185.127,311.114 183,309.5C 182.833,307.667 182.667,305.833 182.5,304C 182.547,301.705 183.213,299.871 184.5,298.5 Z"/></g>
<g><path style="opacity:1" fill="#4f2511" d="M 187.5,315.5 C 190.738,316.738 193.738,318.404 196.5,320.5C 196.842,321.338 197.508,321.672 198.5,321.5C 198.027,322.906 197.027,323.573 195.5,323.5C 193.116,321.115 190.45,319.115 187.5,317.5C 187.082,316.778 186.416,316.278 185.5,316C 186.094,315.536 186.761,315.369 187.5,315.5 Z"/></g>
<g><path style="opacity:0.031" fill="#f1efed" d="M 227.5,313.5 C 225.57,317.1 222.903,320.1 219.5,322.5C 221.43,318.9 224.097,315.9 227.5,313.5 Z"/></g>
<g><path style="opacity:1" fill="#e3b576" d="M 201.5,345.5 C 201.279,348.067 200.612,350.401 199.5,352.5C 200.439,346.335 200.439,340.335 199.5,334.5C 199.158,333.662 198.492,333.328 197.5,333.5C 197.5,332.5 197.5,331.5 197.5,330.5C 196.448,330.649 195.448,330.483 194.5,330C 192.845,327.347 190.845,325.014 188.5,323C 184.418,321.707 181.251,322.874 179,326.5C 176.798,333.993 174.298,341.326 171.5,348.5C 171.957,343.799 172.624,339.132 173.5,334.5C 174.675,330.817 176.341,327.484 178.5,324.5C 180.145,323.521 181.479,322.188 182.5,320.5C 184.421,319.359 186.421,319.192 188.5,320C 191.522,324.351 195.522,327.518 200.5,329.5C 202.013,331.535 202.679,333.869 202.5,336.5C 202.232,339.517 201.898,342.517 201.5,345.5 Z"/></g>
<g><path style="opacity:1" fill="#8a6f57" d="M 204.5,336.5 C 205.649,333.578 206.649,330.578 207.5,327.5C 204.023,326.833 200.689,326.166 197.5,325.5C 201.704,324.09 206.037,323.423 210.5,323.5C 209.306,328.582 207.806,333.582 206,338.5C 205.722,337.584 205.222,336.918 204.5,336.5 Z"/></g>
<g><path style="opacity:1" fill="#caa276" d="M 187.5,317.5 C 190.45,319.115 193.116,321.115 195.5,323.5C 195.833,324.5 196.5,325.167 197.5,325.5C 200.689,326.166 204.023,326.833 207.5,327.5C 206.649,330.578 205.649,333.578 204.5,336.5C 204.072,339.785 203.072,342.785 201.5,345.5C 201.898,342.517 202.232,339.517 202.5,336.5C 202.679,333.869 202.013,331.535 200.5,329.5C 195.522,327.518 191.522,324.351 188.5,320C 186.421,319.192 184.421,319.359 182.5,320.5C 181.479,322.188 180.145,323.521 178.5,324.5C 179.103,321.959 179.103,319.626 178.5,317.5C 178.5,317.167 178.5,316.833 178.5,316.5C 178.833,316.5 179.167,316.5 179.5,316.5C 180.265,316.077 181.098,315.743 182,315.5C 183.567,316.856 185.4,317.523 187.5,317.5 Z"/></g>
<g><path style="opacity:0.851" fill="#b7afa9" d="M 232.5,306.5 C 232.385,309.947 230.719,312.28 227.5,313.5C 224.097,315.9 221.43,318.9 219.5,322.5C 212.4,330.137 208.4,339.137 207.5,349.5C 206.833,351.167 206.167,352.833 205.5,354.5C 205.69,344.863 208.023,335.863 212.5,327.5C 218.254,320.423 224.254,313.756 230.5,307.5C 231.167,307.167 231.833,306.833 232.5,306.5 Z"/></g>
<g><path style="opacity:1" fill="#6b523a" d="M 178.5,317.5 C 179.103,319.626 179.103,321.959 178.5,324.5C 176.341,327.484 174.675,330.817 173.5,334.5C 170.791,339.591 168.291,344.925 166,350.5C 161.906,354.756 158.406,359.422 155.5,364.5C 154.833,365.167 154.167,365.833 153.5,366.5C 152.167,367.5 150.833,368.5 149.5,369.5C 150.203,367.284 151.536,365.451 153.5,364C 151.811,364.134 150.144,364.634 148.5,365.5C 152.13,361.369 155.963,357.369 160,353.5C 161.37,350.009 162.87,346.675 164.5,343.5C 167.472,341.222 169.139,338.222 169.5,334.5C 172.057,328.66 175.057,322.993 178.5,317.5 Z"/></g>
<g><path style="opacity:1" fill="#664f3f" d="M 219.5,315.5 C 217.588,318.919 215.088,321.919 212,324.5C 211.26,325.749 211.427,326.749 212.5,327.5C 208.023,335.863 205.69,344.863 205.5,354.5C 205.5,355.167 205.5,355.833 205.5,356.5C 205.167,356.5 204.833,356.5 204.5,356.5C 204.085,352.909 203.918,349.242 204,345.5C 202.39,350.884 201.557,356.384 201.5,362C 202.332,369.49 202.999,376.99 203.5,384.5C 202.686,382.369 202.186,380.036 202,377.5C 201.617,376.944 201.117,376.611 200.5,376.5C 199.533,368.586 199.199,360.586 199.5,352.5C 200.612,350.401 201.279,348.067 201.5,345.5C 203.072,342.785 204.072,339.785 204.5,336.5C 205.222,336.918 205.722,337.584 206,338.5C 207.806,333.582 209.306,328.582 210.5,323.5C 206.037,323.423 201.704,324.09 197.5,325.5C 196.5,325.167 195.833,324.5 195.5,323.5C 197.027,323.573 198.027,322.906 198.5,321.5C 202.877,321.423 207.21,320.923 211.5,320C 214.588,319.041 217.255,317.541 219.5,315.5 Z"/></g>
<g><path style="opacity:0.278" fill="#cec2b9" d="M 169.5,334.5 C 169.139,338.222 167.472,341.222 164.5,343.5C 165.931,340.299 167.597,337.299 169.5,334.5 Z"/></g>
<g><path style="opacity:1" fill="#f7b658" d="M 197.5,333.5 C 198.492,333.328 199.158,333.662 199.5,334.5C 197.576,340.441 195.743,346.441 194,352.5C 193.503,354.81 193.337,357.143 193.5,359.5C 192.679,362.641 192.179,365.975 192,369.5C 190.701,369.966 189.201,369.966 187.5,369.5C 187.5,370.833 187.5,372.167 187.5,373.5C 187.167,373.5 186.833,373.5 186.5,373.5C 181.48,372.968 180.48,370.801 183.5,367C 182.152,365.445 181.486,363.611 181.5,361.5C 182.548,354.856 182.714,348.19 182,341.5C 181.626,340.584 181.126,339.75 180.5,339C 182.272,337.513 184.272,337.18 186.5,338C 187.834,340.66 188.668,343.494 189,346.5C 190,346.833 191,347.167 192,347.5C 193.297,342.91 195.13,338.577 197.5,334.5C 197.5,334.167 197.5,333.833 197.5,333.5 Z"/></g>
<g><path style="opacity:0.021" fill="#f5f4f0" d="M 207.5,349.5 C 207.656,353.764 206.989,357.764 205.5,361.5C 205.5,359.833 205.5,358.167 205.5,356.5C 205.5,355.833 205.5,355.167 205.5,354.5C 206.167,352.833 206.833,351.167 207.5,349.5 Z"/></g>
<g><path style="opacity:1" fill="#f3ba61" d="M 172.5,354.5 C 172.728,358.39 172.394,362.224 171.5,366C 172.258,368.576 173.591,370.743 175.5,372.5C 174.811,374.353 173.478,375.519 171.5,376C 167.467,377.04 163.801,376.374 160.5,374C 161.26,372.559 161.926,371.059 162.5,369.5C 159.001,368.248 156.335,369.248 154.5,372.5C 155.052,367.069 158.052,364.069 163.5,363.5C 165.849,359.757 168.849,356.757 172.5,354.5 Z"/></g>
<g><path style="opacity:1" fill="#cda773" d="M 173.5,334.5 C 172.624,339.132 171.957,343.799 171.5,348.5C 169.554,350.707 167.388,352.707 165,354.5C 163.032,358.968 159.866,362.301 155.5,364.5C 158.406,359.422 161.906,354.756 166,350.5C 168.291,344.925 170.791,339.591 173.5,334.5 Z"/></g>
<g><path style="opacity:0.11" fill="#d7cdc4" d="M 164.5,343.5 C 162.87,346.675 161.37,350.009 160,353.5C 155.963,357.369 152.13,361.369 148.5,365.5C 146.873,367.63 145.04,369.63 143,371.5C 142.833,373.167 142.667,374.833 142.5,376.5C 143.613,380.726 145.279,384.726 147.5,388.5C 140.601,383.846 138.768,377.512 142,369.5C 150.112,361.231 157.612,352.565 164.5,343.5 Z"/></g>
<g><path style="opacity:1" fill="#f5bb56" d="M 197.5,334.5 C 195.13,338.577 193.297,342.91 192,347.5C 191,347.167 190,346.833 189,346.5C 188.668,343.494 187.834,340.66 186.5,338C 184.272,337.18 182.272,337.513 180.5,339C 181.126,339.75 181.626,340.584 182,341.5C 182.714,348.19 182.548,354.856 181.5,361.5C 181.486,363.611 182.152,365.445 183.5,367C 180.48,370.801 181.48,372.968 186.5,373.5C 187.333,375.752 187.333,377.919 186.5,380C 176.791,382.121 167.124,381.788 157.5,379C 155.162,377.492 154.162,375.325 154.5,372.5C 156.335,369.248 159.001,368.248 162.5,369.5C 161.926,371.059 161.26,372.559 160.5,374C 163.801,376.374 167.467,377.04 171.5,376C 173.478,375.519 174.811,374.353 175.5,372.5C 173.591,370.743 172.258,368.576 171.5,366C 172.394,362.224 172.728,358.39 172.5,354.5C 173.049,349.02 174.882,344.02 178,339.5C 177.41,333.956 179.243,329.456 183.5,326C 186.112,325.259 187.778,326.259 188.5,329C 192.237,329.858 195.237,331.691 197.5,334.5 Z"/></g>
<g><path style="opacity:1" fill="#e6a64e" d="M 193.5,359.5 C 193.718,364.211 193.385,368.878 192.5,373.5C 192.795,376.432 194.295,378.432 197,379.5C 198.122,384.102 198.622,388.768 198.5,393.5C 194.304,394.965 189.97,395.965 185.5,396.5C 180.765,395.918 176.431,394.585 172.5,392.5C 172.5,391.5 172.5,390.5 172.5,389.5C 173.167,389.5 173.833,389.5 174.5,389.5C 175.497,390.713 176.497,390.546 177.5,389C 181.486,388.501 185.486,388.334 189.5,388.5C 189.985,383.271 189.318,378.271 187.5,373.5C 187.5,372.167 187.5,370.833 187.5,369.5C 189.201,369.966 190.701,369.966 192,369.5C 192.179,365.975 192.679,362.641 193.5,359.5 Z"/></g>
<g><path style="opacity:1" fill="#8f7351" d="M 149.5,369.5 C 147.78,372.889 147.113,376.556 147.5,380.5C 146.883,380.389 146.383,380.056 146,379.5C 144.581,375.128 145.748,371.794 149.5,369.5 Z"/></g>
<g><path style="opacity:1" fill="#deb574" d="M 153.5,368.5 C 151.742,371.977 151.242,375.643 152,379.5C 155.514,382.5 159.347,384.833 163.5,386.5C 162.167,386.5 160.833,386.5 159.5,386.5C 156.162,385.319 152.995,383.653 150,381.5C 147.319,376.055 148.485,371.722 153.5,368.5 Z"/></g>
<g><path style="opacity:0.999" fill="#50433a" d="M 204.5,356.5 C 203.452,366.326 204.952,375.659 209,384.5C 209.667,388.5 209.667,392.5 209,396.5C 206.31,398.027 204.143,400.027 202.5,402.5C 202.649,401.448 202.483,400.448 202,399.5C 199.457,400.207 197.291,401.54 195.5,403.5C 194.893,403.376 194.56,403.043 194.5,402.5C 194.5,402.167 194.5,401.833 194.5,401.5C 196.662,400.872 198.328,399.539 199.5,397.5C 200.833,396.833 201.833,395.833 202.5,394.5C 204.439,393.986 205.439,392.653 205.5,390.5C 204.349,388.675 203.682,386.675 203.5,384.5C 202.999,376.99 202.332,369.49 201.5,362C 201.557,356.384 202.39,350.884 204,345.5C 203.918,349.242 204.085,352.909 204.5,356.5 Z"/></g>
<g><path style="opacity:1" fill="#f3ba61" d="M 154.5,372.5 C 154.162,375.325 155.162,377.492 157.5,379C 167.124,381.788 176.791,382.121 186.5,380C 187.333,377.919 187.333,375.752 186.5,373.5C 186.833,373.5 187.167,373.5 187.5,373.5C 189.318,378.271 189.985,383.271 189.5,388.5C 185.486,388.334 181.486,388.501 177.5,389C 176.497,390.546 175.497,390.713 174.5,389.5C 173.797,387.284 172.464,385.451 170.5,384C 166.886,383.055 163.219,382.388 159.5,382C 157.243,380.55 154.91,379.383 152.5,378.5C 152.054,375.99 152.72,373.99 154.5,372.5 Z"/></g>
<g><path style="opacity:1" fill="#efba68" d="M 197.5,333.5 C 197.5,333.833 197.5,334.167 197.5,334.5C 195.237,331.691 192.237,329.858 188.5,329C 187.778,326.259 186.112,325.259 183.5,326C 179.243,329.456 177.41,333.956 178,339.5C 174.882,344.02 173.049,349.02 172.5,354.5C 168.849,356.757 165.849,359.757 163.5,363.5C 158.052,364.069 155.052,367.069 154.5,372.5C 152.72,373.99 152.054,375.99 152.5,378.5C 154.91,379.383 157.243,380.55 159.5,382C 163.219,382.388 166.886,383.055 170.5,384C 172.464,385.451 173.797,387.284 174.5,389.5C 173.833,389.5 173.167,389.5 172.5,389.5C 172.672,388.508 172.338,387.842 171.5,387.5C 168.615,387.806 165.948,387.473 163.5,386.5C 159.347,384.833 155.514,382.5 152,379.5C 151.242,375.643 151.742,371.977 153.5,368.5C 153.5,367.833 153.5,367.167 153.5,366.5C 154.167,365.833 154.833,365.167 155.5,364.5C 159.866,362.301 163.032,358.968 165,354.5C 167.388,352.707 169.554,350.707 171.5,348.5C 174.298,341.326 176.798,333.993 179,326.5C 181.251,322.874 184.418,321.707 188.5,323C 190.845,325.014 192.845,327.347 194.5,330C 195.448,330.483 196.448,330.649 197.5,330.5C 197.5,331.5 197.5,332.5 197.5,333.5 Z"/></g>
<g><path style="opacity:1" fill="#c9a879" d="M 153.5,366.5 C 153.5,367.167 153.5,367.833 153.5,368.5C 148.485,371.722 147.319,376.055 150,381.5C 152.995,383.653 156.162,385.319 159.5,386.5C 156.053,386.186 152.72,385.352 149.5,384C 148.915,382.698 148.249,381.531 147.5,380.5C 147.113,376.556 147.78,372.889 149.5,369.5C 150.833,368.5 152.167,367.5 153.5,366.5 Z"/></g>
<g><path style="opacity:1" fill="#d2a772" d="M 199.5,352.5 C 199.199,360.586 199.533,368.586 200.5,376.5C 201.82,382.41 202.487,388.41 202.5,394.5C 201.833,395.833 200.833,396.833 199.5,397.5C 199.666,390.825 199.5,384.158 199,377.5C 197.437,376.275 196.27,374.775 195.5,373C 197.111,366.963 197.945,360.797 198,354.5C 198.278,353.584 198.778,352.918 199.5,352.5 Z"/></g>
<g><path style="opacity:1" fill="#8d6b40" d="M 159.5,386.5 C 160.833,386.5 162.167,386.5 163.5,386.5C 165.948,387.473 168.615,387.806 171.5,387.5C 170.067,389.558 169.4,391.892 169.5,394.5C 168.778,394.918 168.278,395.584 168,396.5C 166.097,394.559 165.264,392.226 165.5,389.5C 162.923,389.545 160.923,388.545 159.5,386.5 Z"/></g>
<g><path style="opacity:0.165" fill="#efebe6" d="M 152.5,391.5 C 157.989,391.329 161.989,393.663 164.5,398.5C 160.966,395.285 156.966,392.952 152.5,391.5 Z"/></g>
<g><path style="opacity:1" fill="#a58a6c" d="M 200.5,376.5 C 201.117,376.611 201.617,376.944 202,377.5C 202.186,380.036 202.686,382.369 203.5,384.5C 203.682,386.675 204.349,388.675 205.5,390.5C 205.439,392.653 204.439,393.986 202.5,394.5C 202.487,388.41 201.82,382.41 200.5,376.5 Z"/></g>
<g><path style="opacity:0.725" fill="#afa49d" d="M 147.5,388.5 C 155.717,389.068 162.55,392.402 168,398.5C 168.483,399.448 168.649,400.448 168.5,401.5C 167.167,400.5 165.833,399.5 164.5,398.5C 161.989,393.663 157.989,391.329 152.5,391.5C 150.566,390.89 148.899,389.89 147.5,388.5 Z"/></g>
<g><path style="opacity:1" fill="#e3ab61" d="M 199.5,334.5 C 200.439,340.335 200.439,346.335 199.5,352.5C 198.778,352.918 198.278,353.584 198,354.5C 197.945,360.797 197.111,366.963 195.5,373C 196.27,374.775 197.437,376.275 199,377.5C 199.5,384.158 199.666,390.825 199.5,397.5C 195.07,398.024 190.736,399.024 186.5,400.5C 180.491,399.276 174.824,397.276 169.5,394.5C 169.4,391.892 170.067,389.558 171.5,387.5C 172.338,387.842 172.672,388.508 172.5,389.5C 172.5,390.5 172.5,391.5 172.5,392.5C 176.431,394.585 180.765,395.918 185.5,396.5C 189.97,395.965 194.304,394.965 198.5,393.5C 198.622,388.768 198.122,384.102 197,379.5C 194.295,378.432 192.795,376.432 192.5,373.5C 193.385,368.878 193.718,364.211 193.5,359.5C 193.337,357.143 193.503,354.81 194,352.5C 195.743,346.441 197.576,340.441 199.5,334.5 Z"/></g>
<g><path style="opacity:0.967" fill="#49372a" d="M 149.5,369.5 C 145.748,371.794 144.581,375.128 146,379.5C 146.383,380.056 146.883,380.389 147.5,380.5C 148.249,381.531 148.915,382.698 149.5,384C 152.72,385.352 156.053,386.186 159.5,386.5C 160.923,388.545 162.923,389.545 165.5,389.5C 165.264,392.226 166.097,394.559 168,396.5C 168.278,395.584 168.778,394.918 169.5,394.5C 171.36,395.939 173.027,397.605 174.5,399.5C 174.369,400.376 174.702,401.043 175.5,401.5C 179.377,403.702 183.377,404.368 187.5,403.5C 187.918,404.222 188.584,404.722 189.5,405C 185.303,405.11 181.303,405.276 177.5,405.5C 176.833,405.5 176.167,405.5 175.5,405.5C 173.5,404.5 171.5,403.5 169.5,402.5C 168.833,402.5 168.5,402.167 168.5,401.5C 168.649,400.448 168.483,399.448 168,398.5C 162.55,392.402 155.717,389.068 147.5,388.5C 145.279,384.726 143.613,380.726 142.5,376.5C 142.667,374.833 142.833,373.167 143,371.5C 145.04,369.63 146.873,367.63 148.5,365.5C 150.144,364.634 151.811,364.134 153.5,364C 151.536,365.451 150.203,367.284 149.5,369.5 Z"/></g>
<g><path style="opacity:1" fill="#c1986b" d="M 169.5,394.5 C 174.824,397.276 180.491,399.276 186.5,400.5C 190.736,399.024 195.07,398.024 199.5,397.5C 198.328,399.539 196.662,400.872 194.5,401.5C 187.565,402.983 180.899,402.317 174.5,399.5C 173.027,397.605 171.36,395.939 169.5,394.5 Z"/></g>
<g><path style="opacity:0.431" fill="#cdc8c3" d="M 204.5,356.5 C 204.833,356.5 205.167,356.5 205.5,356.5C 205.5,358.167 205.5,359.833 205.5,361.5C 206.983,371.246 208.983,380.913 211.5,390.5C 210.843,398.823 206.51,404.157 198.5,406.5C 198.5,406.167 198.5,405.833 198.5,405.5C 199.833,404.5 201.167,403.5 202.5,402.5C 204.143,400.027 206.31,398.027 209,396.5C 209.667,392.5 209.667,388.5 209,384.5C 204.952,375.659 203.452,366.326 204.5,356.5 Z"/></g>
<g><path style="opacity:1" fill="#795b45" d="M 174.5,399.5 C 180.899,402.317 187.565,402.983 194.5,401.5C 194.5,401.833 194.5,402.167 194.5,402.5C 193.188,402.824 192.355,403.491 192,404.5C 190.56,403.852 189.06,403.519 187.5,403.5C 183.377,404.368 179.377,403.702 175.5,401.5C 174.702,401.043 174.369,400.376 174.5,399.5 Z"/></g>
<g><path style="opacity:0.345" fill="#cecbc8" d="M 169.5,402.5 C 171.5,403.5 173.5,404.5 175.5,405.5C 175.557,406.609 175.89,407.609 176.5,408.5C 173.253,407.588 170.92,405.588 169.5,402.5 Z"/></g>
<g><path style="opacity:1" fill="#352721" d="M 202.5,402.5 C 201.167,403.5 199.833,404.5 198.5,405.5C 191.52,406.165 184.52,406.498 177.5,406.5C 177.5,406.167 177.5,405.833 177.5,405.5C 181.303,405.276 185.303,405.11 189.5,405C 188.584,404.722 187.918,404.222 187.5,403.5C 189.06,403.519 190.56,403.852 192,404.5C 192.355,403.491 193.188,402.824 194.5,402.5C 194.56,403.043 194.893,403.376 195.5,403.5C 197.291,401.54 199.457,400.207 202,399.5C 202.483,400.448 202.649,401.448 202.5,402.5 Z"/></g>
<g><path style="opacity:0.986" fill="#5d534c" d="M 198.5,405.5 C 198.5,405.833 198.5,406.167 198.5,406.5C 196.097,406.448 193.764,406.781 191.5,407.5C 186.637,407.819 181.97,407.486 177.5,406.5C 184.52,406.498 191.52,406.165 198.5,405.5 Z"/></g>
<g><path style="opacity:0.947" fill="#9a928b" d="M 175.5,405.5 C 176.167,405.5 176.833,405.5 177.5,405.5C 177.5,405.833 177.5,406.167 177.5,406.5C 181.97,407.486 186.637,407.819 191.5,407.5C 191.5,407.833 191.5,408.167 191.5,408.5C 186.5,408.5 181.5,408.5 176.5,408.5C 175.89,407.609 175.557,406.609 175.5,405.5 Z"/></g>
<g><path style="opacity:0.004" fill="#d8d5d1" d="M 198.5,406.5 C 196.485,407.924 194.152,408.59 191.5,408.5C 191.5,408.167 191.5,407.833 191.5,407.5C 193.764,406.781 196.097,406.448 198.5,406.5 Z"/></g>
<g><path style="opacity:0.486" fill="#d3ccc9" d="M 176.5,408.5 C 181.5,408.5 186.5,408.5 191.5,408.5C 186.471,410.984 181.471,410.984 176.5,408.5 Z"/></g>
</svg>
