<?xml version="1.0" encoding="UTF-8"?>
<!DOCTYPE svg PUBLIC "-//W3C//DTD SVG 1.1//EN" "http://www.w3.org/Graphics/SVG/1.1/DTD/svg11.dtd">
<svg xmlns="http://www.w3.org/2000/svg" version="1.1" width="225px" height="225px" style="shape-rendering:geometricPrecision; text-rendering:geometricPrecision; image-rendering:optimizeQuality; fill-rule:evenodd; clip-rule:evenodd" xmlns:xlink="http://www.w3.org/1999/xlink">
<g><path style="opacity:0.227" fill="#feeeb1" d="M 111.5,65.5 C 111.672,66.4916 111.338,67.1583 110.5,67.5C 107.07,67.8935 103.904,67.2268 101,65.5C 100.667,61.5 100.333,57.5 100,53.5C 99.6174,52.944 99.1174,52.6107 98.5,52.5C 94.4338,52.693 90.4338,52.3597 86.5,51.5C 86.6646,48.4816 86.498,45.4816 86,42.5C 82.9433,41.5495 79.7766,41.2161 76.5,41.5C 75.8333,41.5 75.1667,41.5 74.5,41.5C 79.1405,38.683 83.6405,39.0163 88,42.5C 88.2178,45.4262 88.7178,48.2595 89.5,51C 92.76,50.5182 96.0934,50.5182 99.5,51C 100.893,52.1711 101.727,53.6711 102,55.5C 102.498,58.8168 102.665,62.1501 102.5,65.5C 105.646,65.8821 108.646,65.8821 111.5,65.5 Z"/></g>
<g><path style="opacity:0.118" fill="#fffbc4" d="M 73.5,44.5 C 73.8204,47.8984 73.487,51.2317 72.5,54.5C 68.4117,52.9004 64.5783,53.2337 61,55.5C 60.5006,60.8229 60.334,66.1563 60.5,71.5C 59.3483,66.0154 59.1816,60.3487 60,54.5C 63.4841,51.8374 67.3174,51.1708 71.5,52.5C 72.1676,49.6944 72.8343,47.0277 73.5,44.5 Z"/></g>
<g><path style="opacity:0.222" fill="#fff8b5" d="M 144.5,48.5 C 144.5,49.8333 144.5,51.1667 144.5,52.5C 143.549,53.9187 143.216,55.5853 143.5,57.5C 141.336,57.2785 139.67,56.2785 138.5,54.5C 139.833,54.5 141.167,54.5 142.5,54.5C 142.259,52.1016 142.926,50.1016 144.5,48.5 Z"/></g>
<g><path style="opacity:1" fill="#f0dc75" d="M 74.5,41.5 C 75.1667,41.5 75.8333,41.5 76.5,41.5C 76.2172,42.2891 75.7172,42.9558 75,43.5C 74.6667,47.5 74.3333,51.5 74,55.5C 73.6174,56.056 73.1174,56.3893 72.5,56.5C 71.609,55.8902 70.609,55.5569 69.5,55.5C 66.8569,54.0209 64.3569,54.3542 62,56.5C 61.5004,63.4921 61.3337,70.4921 61.5,77.5C 60.8333,77.5 60.5,77.1667 60.5,76.5C 60.5,74.8333 60.5,73.1667 60.5,71.5C 60.334,66.1563 60.5006,60.8229 61,55.5C 64.5783,53.2337 68.4117,52.9004 72.5,54.5C 73.487,51.2317 73.8204,47.8984 73.5,44.5C 73.5569,43.391 73.8902,42.391 74.5,41.5 Z"/></g>
<g><path style="opacity:0.627" fill="#fff9be" d="M 138.5,54.5 C 135.15,54.335 131.817,54.5017 128.5,55C 127.748,55.6708 127.414,56.5041 127.5,57.5C 127.5,57.8333 127.5,58.1667 127.5,58.5C 122.87,57.7705 118.203,57.4372 113.5,57.5C 117.369,56.2037 121.369,56.2037 125.5,57.5C 128.776,52.1187 133.11,51.1187 138.5,54.5 Z"/></g>
<g><path style="opacity:1" fill="#e5c14e" d="M 163.5,61.5 C 160.833,61.5 158.167,61.5 155.5,61.5C 154.659,59.6208 154.325,57.6208 154.5,55.5C 156.863,48.7471 154.529,46.2471 147.5,48C 145.963,49.1096 145.297,50.6096 145.5,52.5C 145.167,52.5 144.833,52.5 144.5,52.5C 144.5,51.1667 144.5,49.8333 144.5,48.5C 148.318,46.0286 152.318,45.8619 156.5,48C 157.424,52.0988 157.424,56.2654 156.5,60.5C 159.059,60.1984 161.393,60.5318 163.5,61.5 Z"/></g>
<g><path style="opacity:0.886" fill="#f6e079" d="M 113.5,57.5 C 118.203,57.4372 122.87,57.7705 127.5,58.5C 127.737,59.791 127.404,60.791 126.5,61.5C 125.486,60.3263 124.153,59.6596 122.5,59.5C 120.034,58.3659 117.367,58.1993 114.5,59C 113.428,62.2445 112.428,65.4112 111.5,68.5C 110.833,68.5 110.5,68.1667 110.5,67.5C 111.338,67.1583 111.672,66.4916 111.5,65.5C 111.283,62.5794 111.949,59.9128 113.5,57.5 Z"/></g>
<g><path style="opacity:1" fill="#fcd01d" d="M 76.5,41.5 C 79.7766,41.2161 82.9433,41.5495 86,42.5C 86.498,45.4816 86.6646,48.4816 86.5,51.5C 85.8826,51.3893 85.3826,51.056 85,50.5C 83.7364,62.2817 81.9031,73.9483 79.5,85.5C 78.5,85.5 77.5,85.5 76.5,85.5C 76.2671,83.9382 75.6005,82.6049 74.5,81.5C 74.9941,73.0121 74.3274,64.6787 72.5,56.5C 73.1174,56.3893 73.6174,56.056 74,55.5C 74.3333,51.5 74.6667,47.5 75,43.5C 75.7172,42.9558 76.2172,42.2891 76.5,41.5 Z"/></g>
<g><path style="opacity:0.357" fill="#fff9c2" d="M 168.5,67.5 C 169.024,63.6897 167.357,61.6897 163.5,61.5C 161.393,60.5318 159.059,60.1984 156.5,60.5C 157.424,56.2654 157.424,52.0988 156.5,48C 152.318,45.8619 148.318,46.0286 144.5,48.5C 145.108,46.0095 146.775,44.6762 149.5,44.5C 158.763,45.1993 161.43,49.6993 157.5,58C 160.936,58.692 164.27,59.692 167.5,61C 169.608,63.0164 169.942,65.1831 168.5,67.5 Z"/></g>
<g><path style="opacity:1" fill="#fcce1d" d="M 69.5,55.5 C 71.0496,63.7398 71.7163,72.0731 71.5,80.5C 68.6401,79.9958 65.9734,78.9958 63.5,77.5C 62.8165,77.8627 62.1499,78.1961 61.5,78.5C 61.5,78.1667 61.5,77.8333 61.5,77.5C 61.3337,70.4921 61.5004,63.4921 62,56.5C 64.3569,54.3542 66.8569,54.0209 69.5,55.5 Z"/></g>
<g><path style="opacity:1" fill="#fcd017" d="M 154.5,55.5 C 150.468,65.7512 146.135,75.9179 141.5,86C 139.421,87.6398 137.088,88.8064 134.5,89.5C 135.529,82.679 136.862,75.679 138.5,68.5C 138.693,64.551 139.193,64.551 140,68.5C 143.638,63.8487 145.471,58.5154 145.5,52.5C 145.297,50.6096 145.963,49.1096 147.5,48C 154.529,46.2471 156.863,48.7471 154.5,55.5 Z"/></g>
<g><path style="opacity:1" fill="#fdcf13" d="M 122.5,59.5 C 122.083,71.5843 119.75,83.2509 115.5,94.5C 113.5,94.5 111.5,94.5 109.5,94.5C 109.653,85.7898 110.32,77.1231 111.5,68.5C 112.428,65.4112 113.428,62.2445 114.5,59C 117.367,58.1993 120.034,58.3659 122.5,59.5 Z"/></g>
<g><path style="opacity:1" fill="#f3cb3b" d="M 144.5,52.5 C 144.833,52.5 145.167,52.5 145.5,52.5C 145.471,58.5154 143.638,63.8487 140,68.5C 139.193,64.551 138.693,64.551 138.5,68.5C 137.527,66.0521 137.194,63.3854 137.5,60.5C 137.714,58.8561 137.38,57.3561 136.5,56C 133.177,55.068 130.177,55.568 127.5,57.5C 127.414,56.5041 127.748,55.6708 128.5,55C 131.817,54.5017 135.15,54.335 138.5,54.5C 139.67,56.2785 141.336,57.2785 143.5,57.5C 143.216,55.5853 143.549,53.9187 144.5,52.5 Z"/></g>
<g><path style="opacity:1" fill="#edb21e" d="M 69.5,55.5 C 70.609,55.5569 71.609,55.8902 72.5,56.5C 74.3274,64.6787 74.9941,73.0121 74.5,81.5C 73.609,80.8902 72.609,80.5569 71.5,80.5C 71.7163,72.0731 71.0496,63.7398 69.5,55.5 Z"/></g>
<g><path style="opacity:1" fill="#f2ab19" d="M 86.5,51.5 C 87.0523,54.1159 87.3856,56.7825 87.5,59.5C 86.0037,69.4609 85.5037,79.4609 86,89.5C 88.8981,91.0718 91.0648,90.4052 92.5,87.5C 93.8221,87.33 94.9887,87.6634 96,88.5C 96.7264,91.143 97.8931,93.4764 99.5,95.5C 95.1028,94.6992 90.7694,93.6992 86.5,92.5C 82.8168,90.6591 79.4835,88.3258 76.5,85.5C 77.5,85.5 78.5,85.5 79.5,85.5C 81.9031,73.9483 83.7364,62.2817 85,50.5C 85.3826,51.056 85.8826,51.3893 86.5,51.5 Z"/></g>
<g><path style="opacity:1" fill="#fccf12" d="M 155.5,61.5 C 158.167,61.5 160.833,61.5 163.5,61.5C 164.897,62.8194 165.563,64.4861 165.5,66.5C 164.196,69.4839 162.863,72.4839 161.5,75.5C 160.127,75.3433 158.793,75.51 157.5,76C 155.2,79.7524 152.533,80.2524 149.5,77.5C 150.951,71.9361 152.951,66.6028 155.5,61.5 Z"/></g>
<g><path style="opacity:1" fill="#e7b044" d="M 163.5,61.5 C 167.357,61.6897 169.024,63.6897 168.5,67.5C 166.32,70.381 165.32,73.7144 165.5,77.5C 165.167,77.5 164.833,77.5 164.5,77.5C 163.167,77.5 161.833,77.5 160.5,77.5C 160.833,76.8333 161.167,76.1667 161.5,75.5C 162.863,72.4839 164.196,69.4839 165.5,66.5C 165.563,64.4861 164.897,62.8194 163.5,61.5 Z"/></g>
<g><path style="opacity:0.251" fill="#fff3bf" d="M 168.5,67.5 C 167.626,70.7893 166.959,74.1226 166.5,77.5C 166.167,77.5 165.833,77.5 165.5,77.5C 165.32,73.7144 166.32,70.381 168.5,67.5 Z"/></g>
<g><path style="opacity:1" fill="#fdcf17" d="M 86.5,51.5 C 90.4338,52.3597 94.4338,52.693 98.5,52.5C 98.0559,64.3929 96.0559,76.0596 92.5,87.5C 91.0648,90.4052 88.8981,91.0718 86,89.5C 85.5037,79.4609 86.0037,69.4609 87.5,59.5C 87.3856,56.7825 87.0523,54.1159 86.5,51.5 Z"/></g>
<g><path style="opacity:0.204" fill="#f8d3ce" d="M 60.5,76.5 C 60.5,77.1667 60.8333,77.5 61.5,77.5C 61.5,77.8333 61.5,78.1667 61.5,78.5C 60.1667,78.5 58.8333,78.5 57.5,78.5C 57.5,80.1667 57.5,81.8333 57.5,83.5C 56.5318,81.3926 56.1984,79.0593 56.5,76.5C 57.8333,76.5 59.1667,76.5 60.5,76.5 Z"/></g>
<g><path style="opacity:1" fill="#c03c3b" d="M 164.5,77.5 C 164.833,77.5 165.167,77.5 165.5,77.5C 165.833,77.5 166.167,77.5 166.5,77.5C 166.678,81.1224 166.011,84.4557 164.5,87.5C 164.5,84.1667 164.5,80.8333 164.5,77.5 Z"/></g>
<g><path style="opacity:1" fill="#fba93a" d="M 71.5,80.5 C 72.609,80.5569 73.609,80.8902 74.5,81.5C 75.6005,82.6049 76.2671,83.9382 76.5,85.5C 74.0634,85.114 72.0634,83.9473 70.5,82C 67.5682,80.8551 64.5682,80.0218 61.5,79.5C 61.5,79.1667 61.5,78.8333 61.5,78.5C 62.1499,78.1961 62.8165,77.8627 63.5,77.5C 65.9734,78.9958 68.6401,79.9958 71.5,80.5 Z"/></g>
<g><path style="opacity:1" fill="#fcce15" d="M 137.5,60.5 C 135.162,71.3424 131.495,81.8424 126.5,92C 124.866,92.4935 123.199,92.6602 121.5,92.5C 123.707,82.2594 125.373,71.9261 126.5,61.5C 127.404,60.791 127.737,59.791 127.5,58.5C 127.5,58.1667 127.5,57.8333 127.5,57.5C 130.177,55.568 133.177,55.068 136.5,56C 137.38,57.3561 137.714,58.8561 137.5,60.5 Z"/></g>
<g><path style="opacity:1" fill="#eeb31b" d="M 98.5,52.5 C 99.1174,52.6107 99.6174,52.944 100,53.5C 100.333,57.5 100.667,61.5 101,65.5C 103.904,67.2268 107.07,67.8935 110.5,67.5C 110.5,68.1667 110.833,68.5 111.5,68.5C 110.32,77.1231 109.653,85.7898 109.5,94.5C 111.5,94.5 113.5,94.5 115.5,94.5C 110.627,94.7072 105.627,95.0405 100.5,95.5C 100.167,95.5 99.8333,95.5 99.5,95.5C 97.8931,93.4764 96.7264,91.143 96,88.5C 94.9887,87.6634 93.8221,87.33 92.5,87.5C 96.0559,76.0596 98.0559,64.3929 98.5,52.5 Z"/></g>
<g><path style="opacity:1" fill="#fdce10" d="M 100.5,67.5 C 103.054,68.388 105.721,68.7214 108.5,68.5C 108.647,76.6596 107.647,84.6596 105.5,92.5C 100.883,94.5256 98.5495,93.0256 98.5,88C 99.2664,81.1694 99.9331,74.3361 100.5,67.5 Z"/></g>
<g><path style="opacity:1" fill="#e82527" d="M 160.5,77.5 C 161.833,77.5 163.167,77.5 164.5,77.5C 164.5,80.8333 164.5,84.1667 164.5,87.5C 163.21,88.0577 162.377,89.0577 162,90.5C 159.755,99.5174 157.922,108.517 156.5,117.5C 155.685,118.429 154.852,119.429 154,120.5C 148.499,135.501 138.666,148.168 124.5,158.5C 118.609,161.784 112.609,165.118 106.5,168.5C 104.902,167.515 103.235,167.349 101.5,168C 102.5,168.333 103.5,168.667 104.5,169C 96.1895,170.402 87.8561,171.568 79.5,172.5C 80.9516,171.698 82.6183,171.198 84.5,171C 83.5,170.667 82.5,170.333 81.5,170C 86.4432,169.461 91.1099,168.128 95.5,166C 100.728,165.477 105.728,164.977 110.5,164.5C 108.615,163.803 108.282,162.803 109.5,161.5C 112.54,160.625 115.54,159.625 118.5,158.5C 119.95,157.15 120.617,155.484 120.5,153.5C 122.467,153.261 124.301,153.594 126,154.5C 128.032,149.649 131.199,145.982 135.5,143.5C 136.066,138.928 138.4,136.595 142.5,136.5C 143.393,133.916 143.726,131.249 143.5,128.5C 142.448,128.649 141.448,128.483 140.5,128C 140.593,126.187 140.927,124.354 141.5,122.5C 139.16,114.341 137.493,114.508 136.5,123C 136.645,124.226 136.978,125.393 137.5,126.5C 136.833,126.833 136.167,127.167 135.5,127.5C 132.136,126.165 128.802,125.165 125.5,124.5C 127.781,124.923 129.448,124.256 130.5,122.5C 134.134,122.843 135.801,121.177 135.5,117.5C 135.563,112.728 133.396,109.394 129,107.5C 126.865,109.278 124.365,109.945 121.5,109.5C 121.5,110.833 121.5,112.167 121.5,113.5C 120.527,115.948 120.194,118.615 120.5,121.5C 115.074,121.487 109.74,120.82 104.5,119.5C 103.833,119.833 103.167,120.167 102.5,120.5C 101.713,117.152 100.879,113.818 100,110.5C 95.3989,108.996 95.5655,107.662 100.5,106.5C 99.2114,106.168 97.5447,105.834 95.5,105.5C 98.1497,104.753 100.816,103.753 103.5,102.5C 102.271,101.719 100.938,101.219 99.5,101C 99.8333,100.667 100.167,100.333 100.5,100C 103.981,99.8605 107.481,100.027 111,100.5C 114.81,100.312 118.477,99.6456 122,98.5C 125.398,98.3686 128.398,99.3686 131,101.5C 133.763,100.907 135.263,99.2399 135.5,96.5C 138.841,97.1571 140.841,95.8237 141.5,92.5C 142.446,92.9867 143.446,93.3201 144.5,93.5C 146.731,92.353 149.065,91.353 151.5,90.5C 150.174,89.3578 149.174,88.0245 148.5,86.5C 150.342,84.9484 152.009,83.2818 153.5,81.5C 155.635,79.9291 157.968,78.5957 160.5,77.5 Z"/></g>
<g><path style="opacity:0.914" fill="#c03d3f" d="M 61.5,78.5 C 61.5,78.8333 61.5,79.1667 61.5,79.5C 61.5,79.8333 61.5,80.1667 61.5,80.5C 60.3065,80.9704 59.6399,81.9704 59.5,83.5C 61.4671,92.7376 62.8005,102.071 63.5,111.5C 61.3715,102.191 59.3715,92.8573 57.5,83.5C 57.5,81.8333 57.5,80.1667 57.5,78.5C 58.8333,78.5 60.1667,78.5 61.5,78.5 Z"/></g>
<g><path style="opacity:1" fill="#f3b01b" d="M 154.5,55.5 C 154.325,57.6208 154.659,59.6208 155.5,61.5C 152.951,66.6028 150.951,71.9361 149.5,77.5C 152.533,80.2524 155.2,79.7524 157.5,76C 158.793,75.51 160.127,75.3433 161.5,75.5C 161.167,76.1667 160.833,76.8333 160.5,77.5C 157.968,78.5957 155.635,79.9291 153.5,81.5C 146.829,84.8356 140.162,88.1689 133.5,91.5C 133.265,90.9033 132.765,90.5699 132,90.5C 127.042,93.8893 121.542,95.2226 115.5,94.5C 119.75,83.2509 122.083,71.5843 122.5,59.5C 124.153,59.6596 125.486,60.3263 126.5,61.5C 125.373,71.9261 123.707,82.2594 121.5,92.5C 123.199,92.6602 124.866,92.4935 126.5,92C 131.495,81.8424 135.162,71.3424 137.5,60.5C 137.194,63.3854 137.527,66.0521 138.5,68.5C 136.862,75.679 135.529,82.679 134.5,89.5C 137.088,88.8064 139.421,87.6398 141.5,86C 146.135,75.9179 150.468,65.7512 154.5,55.5 Z"/></g>
<g><path style="opacity:0.129" fill="#f9cac4" d="M 166.5,77.5 C 167.334,84.3524 166.334,91.0191 163.5,97.5C 163.833,94.1667 164.167,90.8333 164.5,87.5C 166.011,84.4557 166.678,81.1224 166.5,77.5 Z"/></g>
<g><path style="opacity:1" fill="#dd292c" d="M 61.5,80.5 C 61.335,83.8499 61.5017,87.1832 62,90.5C 65.5565,90.2613 69.0565,91.0946 72.5,93C 70.2932,96.1651 67.7932,96.3317 65,93.5C 64.5,93.8333 64,94.1667 63.5,94.5C 65.7107,97.0403 66.044,99.8736 64.5,103C 64.9508,105.568 65.9508,107.902 67.5,110C 66.9032,111.062 66.5698,112.228 66.5,113.5C 68.0877,119.695 68.921,126.029 69,132.5C 71.4686,139.598 72.9686,146.931 73.5,154.5C 72.4702,151.05 71.1369,147.717 69.5,144.5C 68.6745,140.864 68.0078,137.197 67.5,133.5C 67.2991,130.492 66.9657,127.492 66.5,124.5C 66.4146,122.667 65.7479,121.334 64.5,120.5C 64.0371,117.518 63.7038,114.518 63.5,111.5C 62.8005,102.071 61.4671,92.7376 59.5,83.5C 59.6399,81.9704 60.3065,80.9704 61.5,80.5 Z"/></g>
<g><path style="opacity:1" fill="#ca3636" d="M 164.5,87.5 C 164.167,90.8333 163.833,94.1667 163.5,97.5C 163.5,97.8333 163.5,98.1667 163.5,98.5C 161.432,101.763 160.432,105.43 160.5,109.5C 159.167,113.5 157.833,117.5 156.5,121.5C 156.5,120.167 156.5,118.833 156.5,117.5C 157.922,108.517 159.755,99.5174 162,90.5C 162.377,89.0577 163.21,88.0577 164.5,87.5 Z"/></g>
<g><path style="opacity:1" fill="#d53b13" d="M 153.5,81.5 C 152.009,83.2818 150.342,84.9484 148.5,86.5C 142.799,88.7146 137.466,91.5479 132.5,95C 120.647,98.5436 108.647,99.2103 96.5,97C 92.9391,95.7679 89.6057,94.2679 86.5,92.5C 90.7694,93.6992 95.1028,94.6992 99.5,95.5C 99.8333,95.5 100.167,95.5 100.5,95.5C 103.483,96.3875 106.65,97.0542 110,97.5C 115.485,96.5736 120.985,95.7402 126.5,95C 129.069,94.1016 131.402,92.935 133.5,91.5C 140.162,88.1689 146.829,84.8356 153.5,81.5 Z"/></g>
<g><path style="opacity:0.094" fill="#facdcd" d="M 57.5,83.5 C 59.3715,92.8573 61.3715,102.191 63.5,111.5C 63.7038,114.518 64.0371,117.518 64.5,120.5C 65.2653,123.096 65.5987,125.763 65.5,128.5C 64.209,128.737 63.209,128.404 62.5,127.5C 63.5862,127.38 64.2528,126.713 64.5,125.5C 61.3894,111.616 59.0561,97.6159 57.5,83.5 Z"/></g>
<g><path style="opacity:0.282" fill="#f4b8b6" d="M 163.5,98.5 C 162.945,102.397 161.945,106.063 160.5,109.5C 160.432,105.43 161.432,101.763 163.5,98.5 Z"/></g>
<g><path style="opacity:1" fill="#c92b2d" d="M 130.5,122.5 C 129.448,124.256 127.781,124.923 125.5,124.5C 124.685,123.163 123.518,122.163 122,121.5C 121.503,118.854 121.336,116.187 121.5,113.5C 121.5,112.167 121.5,110.833 121.5,109.5C 124.365,109.945 126.865,109.278 129,107.5C 133.396,109.394 135.563,112.728 135.5,117.5C 135.801,121.177 134.134,122.843 130.5,122.5 Z"/></g>
<g><path style="opacity:0.063" fill="#f8d1d3" d="M 160.5,109.5 C 159.89,114.768 158.89,119.934 157.5,125C 158.094,125.464 158.761,125.631 159.5,125.5C 159.5,125.833 159.5,126.167 159.5,126.5C 159.5,126.833 159.5,127.167 159.5,127.5C 158.5,127.5 157.5,127.5 156.5,127.5C 156.5,125.5 156.5,123.5 156.5,121.5C 157.833,117.5 159.167,113.5 160.5,109.5 Z"/></g>
<g><path style="opacity:1" fill="#781114" d="M 130.5,112.5 C 128.533,112.261 126.699,112.594 125,113.5C 124.503,115.81 124.337,118.143 124.5,120.5C 123.275,119.848 122.608,118.681 122.5,117C 123.093,111.741 125.76,110.241 130.5,112.5 Z"/></g>
<g><path style="opacity:1" fill="#e92325" d="M 61.5,79.5 C 64.5682,80.0218 67.5682,80.8551 70.5,82C 72.0634,83.9473 74.0634,85.114 76.5,85.5C 79.4835,88.3258 82.8168,90.6591 86.5,92.5C 89.6057,94.2679 92.9391,95.7679 96.5,97C 108.647,99.2103 120.647,98.5436 132.5,95C 137.466,91.5479 142.799,88.7146 148.5,86.5C 149.174,88.0245 150.174,89.3578 151.5,90.5C 149.065,91.353 146.731,92.353 144.5,93.5C 143.446,93.3201 142.446,92.9867 141.5,92.5C 140.841,95.8237 138.841,97.1571 135.5,96.5C 135.263,99.2399 133.763,100.907 131,101.5C 128.398,99.3686 125.398,98.3686 122,98.5C 118.477,99.6456 114.81,100.312 111,100.5C 107.481,100.027 103.981,99.8605 100.5,100C 100.167,100.333 99.8333,100.667 99.5,101C 100.938,101.219 102.271,101.719 103.5,102.5C 100.816,103.753 98.1497,104.753 95.5,105.5C 89.6491,105.02 86.6491,107.686 86.5,113.5C 86.5,115.833 86.5,118.167 86.5,120.5C 88.4236,123.566 91.257,125.566 95,126.5C 97.2201,124.807 99.7201,123.807 102.5,123.5C 102.421,124.93 102.754,126.264 103.5,127.5C 108.526,128.419 113.526,129.419 118.5,130.5C 120.283,128.977 120.949,126.977 120.5,124.5C 122.167,124.5 123.833,124.5 125.5,124.5C 128.802,125.165 132.136,126.165 135.5,127.5C 136.167,127.167 136.833,126.833 137.5,126.5C 136.978,125.393 136.645,124.226 136.5,123C 137.493,114.508 139.16,114.341 141.5,122.5C 140.927,124.354 140.593,126.187 140.5,128C 141.448,128.483 142.448,128.649 143.5,128.5C 143.726,131.249 143.393,133.916 142.5,136.5C 138.4,136.595 136.066,138.928 135.5,143.5C 131.199,145.982 128.032,149.649 126,154.5C 124.301,153.594 122.467,153.261 120.5,153.5C 120.617,155.484 119.95,157.15 118.5,158.5C 115.54,159.625 112.54,160.625 109.5,161.5C 108.282,162.803 108.615,163.803 110.5,164.5C 105.728,164.977 100.728,165.477 95.5,166C 91.1099,168.128 86.4432,169.461 81.5,170C 82.5,170.333 83.5,170.667 84.5,171C 82.6183,171.198 80.9516,171.698 79.5,172.5C 78.2311,170.916 77.2311,169.083 76.5,167C 75.9687,162.591 74.9687,158.425 73.5,154.5C 72.9686,146.931 71.4686,139.598 69,132.5C 68.921,126.029 68.0877,119.695 66.5,113.5C 66.5698,112.228 66.9032,111.062 67.5,110C 65.9508,107.902 64.9508,105.568 64.5,103C 66.044,99.8736 65.7107,97.0403 63.5,94.5C 64,94.1667 64.5,93.8333 65,93.5C 67.7932,96.3317 70.2932,96.1651 72.5,93C 69.0565,91.0946 65.5565,90.2613 62,90.5C 61.5017,87.1832 61.335,83.8499 61.5,80.5C 61.5,80.1667 61.5,79.8333 61.5,79.5 Z"/></g>
<g><path style="opacity:1" fill="#fc9237" d="M 133.5,91.5 C 131.402,92.935 129.069,94.1016 126.5,95C 120.985,95.7402 115.485,96.5736 110,97.5C 106.65,97.0542 103.483,96.3875 100.5,95.5C 105.627,95.0405 110.627,94.7072 115.5,94.5C 121.542,95.2226 127.042,93.8893 132,90.5C 132.765,90.5699 133.265,90.9033 133.5,91.5 Z"/></g>
<g><path style="opacity:1" fill="#a72426" d="M 94.5,111.5 C 87.9074,113.272 86.9074,116.772 91.5,122C 92.7932,122.49 94.1266,122.657 95.5,122.5C 94.0536,123.613 92.3869,123.78 90.5,123C 89.3066,121.905 87.9733,121.072 86.5,120.5C 86.5,118.167 86.5,115.833 86.5,113.5C 88.3257,112.562 90.159,111.562 92,110.5C 93.0698,110.528 93.9032,110.861 94.5,111.5 Z"/></g>
<g><path style="opacity:0.329" fill="#c2c2c2" d="M 175.5,119.5 C 174.556,114.226 173.556,114.226 172.5,119.5C 171.833,119.833 171.167,120.167 170.5,120.5C 171.566,118.148 172.733,115.814 174,113.5C 175.659,114.817 176.826,116.483 177.5,118.5C 177.043,119.298 176.376,119.631 175.5,119.5 Z"/></g>
<g><path style="opacity:0.557" fill="#bec0c0" d="M 50.5,118.5 C 49.5595,115.875 48.3928,115.875 47,118.5C 46.7003,120.066 47.2003,121.399 48.5,122.5C 46.6159,122.288 45.2826,121.288 44.5,119.5C 45.8149,117.684 47.3149,116.017 49,114.5C 50.1882,115.563 50.6882,116.897 50.5,118.5 Z"/></g>
<g><path style="opacity:1" fill="#340a08" d="M 94.5,111.5 C 95.391,112.11 96.391,112.443 97.5,112.5C 97.5,113.167 97.5,113.833 97.5,114.5C 96.5,114.5 95.5,114.5 94.5,114.5C 93.4583,113.209 92.2917,113.209 91,114.5C 89.4914,119.493 91.3248,121.493 96.5,120.5C 96.1667,121.167 95.8333,121.833 95.5,122.5C 94.1266,122.657 92.7932,122.49 91.5,122C 86.9074,116.772 87.9074,113.272 94.5,111.5 Z"/></g>
<g><path style="opacity:1" fill="#8c7d7b" d="M 94.5,114.5 C 95.5,114.5 96.5,114.5 97.5,114.5C 97.5,115.5 97.5,116.5 97.5,117.5C 96.5,117.5 95.5,117.5 94.5,117.5C 94.5,116.5 94.5,115.5 94.5,114.5 Z"/></g>
<g><path style="opacity:1" fill="#330503" d="M 130.5,112.5 C 133.332,114.407 134.166,117.073 133,120.5C 132.005,121.066 131.172,121.733 130.5,122.5C 127.99,122.946 125.99,122.28 124.5,120.5C 124.337,118.143 124.503,115.81 125,113.5C 126.699,112.594 128.533,112.261 130.5,112.5 Z"/></g>
<g><path style="opacity:1" fill="#c7b9b5" d="M 129.5,114.5 C 130.833,114.5 131.5,115.167 131.5,116.5C 131.5,115.167 130.833,114.5 129.5,114.5 Z"/></g>
<g><path style="opacity:0.929" fill="#292728" d="M 175.5,119.5 C 175.167,119.5 174.833,119.5 174.5,119.5C 173.833,119.5 173.167,119.5 172.5,119.5C 173.556,114.226 174.556,114.226 175.5,119.5 Z"/></g>
<g><path style="opacity:1" fill="#140708" d="M 94.5,114.5 C 94.5,115.5 94.5,116.5 94.5,117.5C 95.5,117.5 96.5,117.5 97.5,117.5C 97.7373,118.791 97.404,119.791 96.5,120.5C 91.3248,121.493 89.4914,119.493 91,114.5C 92.2917,113.209 93.4583,113.209 94.5,114.5 Z"/></g>
<g><path style="opacity:1" fill="#13070b" d="M 129.5,114.5 C 129.5,115.833 130.167,116.5 131.5,116.5C 132.653,117.313 132.653,118.313 131.5,119.5C 126.167,121.5 124.5,119.834 126.5,114.5C 127.425,113.438 128.425,113.438 129.5,114.5 Z"/></g>
<g><path style="opacity:0.804" fill="#313232" d="M 50.5,118.5 C 50.5,118.833 50.5,119.167 50.5,119.5C 50.4142,120.496 50.7476,121.329 51.5,122C 50.9056,122.464 50.2389,122.631 49.5,122.5C 49.1667,122.5 48.8333,122.5 48.5,122.5C 47.2003,121.399 46.7003,120.066 47,118.5C 48.3928,115.875 49.5595,115.875 50.5,118.5 Z"/></g>
<g><path style="opacity:0.984" fill="#c04a4b" d="M 64.5,120.5 C 65.7479,121.334 66.4146,122.667 66.5,124.5C 66.9657,127.492 67.2991,130.492 67.5,133.5C 66.8333,132.5 66.1667,131.5 65.5,130.5C 65.5,129.833 65.5,129.167 65.5,128.5C 65.5987,125.763 65.2653,123.096 64.5,120.5 Z"/></g>
<g><path style="opacity:1" fill="#7e151a" d="M 97.5,112.5 C 98.1174,112.611 98.6174,112.944 99,113.5C 99.6667,115.833 99.6667,118.167 99,120.5C 98.1841,121.823 97.0174,122.489 95.5,122.5C 95.8333,121.833 96.1667,121.167 96.5,120.5C 97.404,119.791 97.7373,118.791 97.5,117.5C 97.5,116.5 97.5,115.5 97.5,114.5C 97.5,113.833 97.5,113.167 97.5,112.5 Z"/></g>
<g><path style="opacity:1" fill="#de282b" d="M 95.5,105.5 C 97.5447,105.834 99.2114,106.168 100.5,106.5C 95.5655,107.662 95.3989,108.996 100,110.5C 100.879,113.818 101.713,117.152 102.5,120.5C 103.167,120.167 103.833,119.833 104.5,119.5C 109.74,120.82 115.074,121.487 120.5,121.5C 120.194,118.615 120.527,115.948 121.5,113.5C 121.336,116.187 121.503,118.854 122,121.5C 123.518,122.163 124.685,123.163 125.5,124.5C 123.833,124.5 122.167,124.5 120.5,124.5C 120.949,126.977 120.283,128.977 118.5,130.5C 113.526,129.419 108.526,128.419 103.5,127.5C 102.754,126.264 102.421,124.93 102.5,123.5C 99.7201,123.807 97.2201,124.807 95,126.5C 91.257,125.566 88.4236,123.566 86.5,120.5C 87.9733,121.072 89.3066,121.905 90.5,123C 92.3869,123.78 94.0536,123.613 95.5,122.5C 97.0174,122.489 98.1841,121.823 99,120.5C 99.6667,118.167 99.6667,115.833 99,113.5C 98.6174,112.944 98.1174,112.611 97.5,112.5C 96.391,112.443 95.391,112.11 94.5,111.5C 93.9032,110.861 93.0698,110.528 92,110.5C 90.159,111.562 88.3257,112.562 86.5,113.5C 86.6491,107.686 89.6491,105.02 95.5,105.5 Z"/></g>
<g><path style="opacity:0.047" fill="#e3e3e3" d="M 164.5,124.5 C 164.158,125.338 163.492,125.672 162.5,125.5C 162.409,123.302 163.075,122.969 164.5,124.5 Z"/></g>
<g><path style="opacity:1" fill="#850203" d="M 104.5,122.5 C 109.167,122.5 113.833,122.5 118.5,122.5C 118.868,125.056 118.034,127.056 116,128.5C 113.047,126.37 109.88,126.037 106.5,127.5C 105.05,126.15 104.383,124.484 104.5,122.5 Z"/></g>
<g><path style="opacity:0.831" fill="#984245" d="M 155.5,121.5 C 155.833,121.5 156.167,121.5 156.5,121.5C 156.5,123.5 156.5,125.5 156.5,127.5C 157.5,127.5 158.5,127.5 159.5,127.5C 159.5,127.833 159.5,128.167 159.5,128.5C 159.167,128.5 158.833,128.5 158.5,128.5C 157.5,128.5 156.5,128.5 155.5,128.5C 155.5,126.167 155.5,123.833 155.5,121.5 Z"/></g>
<g><path style="opacity:0.502" fill="#8a8586" d="M 50.5,119.5 C 54.517,122.98 58.517,125.647 62.5,127.5C 63.209,128.404 64.209,128.737 65.5,128.5C 65.5,129.167 65.5,129.833 65.5,130.5C 64.1667,130.167 62.8333,129.833 61.5,129.5C 56.9758,127.957 52.9758,125.623 49.5,122.5C 50.2389,122.631 50.9056,122.464 51.5,122C 50.7476,121.329 50.4142,120.496 50.5,119.5 Z"/></g>
<g><path style="opacity:0.706" fill="#909090" d="M 172.5,119.5 C 173.167,119.5 173.833,119.5 174.5,119.5C 171.167,122.664 167.667,125.664 164,128.5C 162.395,128.438 160.895,128.438 159.5,128.5C 159.5,128.167 159.5,127.833 159.5,127.5C 159.5,127.167 159.5,126.833 159.5,126.5C 160.833,126.167 160.833,125.833 159.5,125.5C 160.348,124.375 161.348,124.375 162.5,125.5C 163.492,125.672 164.158,125.338 164.5,124.5C 166.118,122.684 168.118,121.351 170.5,120.5C 171.167,120.167 171.833,119.833 172.5,119.5 Z"/></g>
<g><path style="opacity:0.075" fill="#f9d0d0" d="M 61.5,129.5 C 62.8333,129.833 64.1667,130.167 65.5,130.5C 66.1667,131.5 66.8333,132.5 67.5,133.5C 68.0078,137.197 68.6745,140.864 69.5,144.5C 69.5,145.5 69.5,146.5 69.5,147.5C 67.8023,142.372 66.469,137.039 65.5,131.5C 63.6203,131.771 62.287,131.104 61.5,129.5 Z"/></g>
<g><path style="opacity:0.831" fill="#d57d7c" d="M 155.5,128.5 C 156.5,128.5 157.5,128.5 158.5,128.5C 155.372,135.361 152.706,142.361 150.5,149.5C 150.5,148.167 150.5,146.833 150.5,145.5C 151.91,139.701 153.577,134.035 155.5,128.5 Z"/></g>
<g><path style="opacity:0.847" fill="#c85151" d="M 69.5,144.5 C 71.1369,147.717 72.4702,151.05 73.5,154.5C 73.9435,160.606 74.9435,166.606 76.5,172.5C 75.8333,172.5 75.1667,172.5 74.5,172.5C 73.5489,171.081 73.2155,169.415 73.5,167.5C 73.0414,160.54 71.7081,153.873 69.5,147.5C 69.5,146.5 69.5,145.5 69.5,144.5 Z"/></g>
<g><path style="opacity:1" fill="#d82027" d="M 156.5,117.5 C 156.5,118.833 156.5,120.167 156.5,121.5C 156.167,121.5 155.833,121.5 155.5,121.5C 154.442,122.6 153.608,123.934 153,125.5C 152.427,131.466 150.593,136.966 147.5,142C 149.084,144.825 148.418,146.992 145.5,148.5C 145.833,149.167 146.167,149.833 146.5,150.5C 144.785,156.315 143.618,162.315 143,168.5C 140.259,170.067 139.092,172.401 139.5,175.5C 138.596,176.209 138.263,177.209 138.5,178.5C 133.859,177.873 129.193,177.54 124.5,177.5C 124.167,177.5 123.833,177.5 123.5,177.5C 114.009,176.342 104.342,176.175 94.5,177C 92.6854,177.757 91.0188,178.59 89.5,179.5C 87.0799,179.292 84.7466,179.626 82.5,180.5C 81.3777,179.37 80.0443,178.703 78.5,178.5C 77.3702,176.685 76.7036,174.685 76.5,172.5C 74.9435,166.606 73.9435,160.606 73.5,154.5C 74.9687,158.425 75.9687,162.591 76.5,167C 77.2311,169.083 78.2311,170.916 79.5,172.5C 87.8561,171.568 96.1895,170.402 104.5,169C 103.5,168.667 102.5,168.333 101.5,168C 103.235,167.349 104.902,167.515 106.5,168.5C 112.609,165.118 118.609,161.784 124.5,158.5C 138.666,148.168 148.499,135.501 154,120.5C 154.852,119.429 155.685,118.429 156.5,117.5 Z"/></g>
<g><path style="opacity:0.753" fill="#b34243" d="M 150.5,145.5 C 150.5,146.833 150.5,148.167 150.5,149.5C 150.5,150.167 150.5,150.833 150.5,151.5C 149.203,153.371 148.203,155.371 147.5,157.5C 147.308,153.098 148.308,149.098 150.5,145.5 Z"/></g>
<g><path style="opacity:1" fill="#cd252d" d="M 155.5,121.5 C 155.5,123.833 155.5,126.167 155.5,128.5C 153.577,134.035 151.91,139.701 150.5,145.5C 148.308,149.098 147.308,153.098 147.5,157.5C 147.149,160.903 146.482,164.237 145.5,167.5C 144.031,170.607 142.031,173.273 139.5,175.5C 139.092,172.401 140.259,170.067 143,168.5C 143.618,162.315 144.785,156.315 146.5,150.5C 146.167,149.833 145.833,149.167 145.5,148.5C 148.418,146.992 149.084,144.825 147.5,142C 150.593,136.966 152.427,131.466 153,125.5C 153.608,123.934 154.442,122.6 155.5,121.5 Z"/></g>
<g><path style="opacity:0.235" fill="#f1bbba" d="M 150.5,151.5 C 149.278,158.061 147.611,164.394 145.5,170.5C 145.5,169.5 145.5,168.5 145.5,167.5C 146.482,164.237 147.149,160.903 147.5,157.5C 148.203,155.371 149.203,153.371 150.5,151.5 Z"/></g>
<g><path style="opacity:0.11" fill="#fccece" d="M 69.5,147.5 C 71.7081,153.873 73.0414,160.54 73.5,167.5C 71.5375,161.082 70.2042,154.415 69.5,147.5 Z"/></g>
<g><path style="opacity:0.412" fill="#e8a3a5" d="M 74.5,172.5 C 75.1667,172.5 75.8333,172.5 76.5,172.5C 76.7036,174.685 77.3702,176.685 78.5,178.5C 76.1782,177.198 74.8449,175.198 74.5,172.5 Z"/></g>
<g><path style="opacity:0.933" fill="#c95c5b" d="M 123.5,177.5 C 115.316,177.174 107.316,177.508 99.5,178.5C 97.7354,179.461 95.7354,179.795 93.5,179.5C 92.1667,179.5 90.8333,179.5 89.5,179.5C 91.0188,178.59 92.6854,177.757 94.5,177C 104.342,176.175 114.009,176.342 123.5,177.5 Z"/></g>
<g><path style="opacity:0.021" fill="#fde7e8" d="M 99.5,178.5 C 107.316,177.508 115.316,177.174 123.5,177.5C 123.833,177.5 124.167,177.5 124.5,177.5C 125.833,178.167 127.167,178.833 128.5,179.5C 118.861,178.64 109.194,178.307 99.5,178.5 Z"/></g>
<g><path style="opacity:1" fill="#c5595a" d="M 145.5,167.5 C 145.5,168.5 145.5,169.5 145.5,170.5C 143.356,179.954 137.689,182.954 128.5,179.5C 127.167,178.833 125.833,178.167 124.5,177.5C 129.193,177.54 133.859,177.873 138.5,178.5C 138.263,177.209 138.596,176.209 139.5,175.5C 142.031,173.273 144.031,170.607 145.5,167.5 Z"/></g>
<g><path style="opacity:1" fill="#dc8a8a" d="M 78.5,178.5 C 80.0443,178.703 81.3777,179.37 82.5,180.5C 84.7466,179.626 87.0799,179.292 89.5,179.5C 90.8333,179.5 92.1667,179.5 93.5,179.5C 90.3767,180.787 87.0434,181.787 83.5,182.5C 81.2385,181.905 79.5719,180.571 78.5,178.5 Z"/></g>
</svg>
