<?xml version="1.0" encoding="UTF-8"?>
<!DOCTYPE svg PUBLIC "-//W3C//DTD SVG 1.1//EN" "http://www.w3.org/Graphics/SVG/1.1/DTD/svg11.dtd">
<svg xmlns="http://www.w3.org/2000/svg" version="1.1" width="475px" height="475px" style="shape-rendering:geometricPrecision; text-rendering:geometricPrecision; image-rendering:optimizeQuality; fill-rule:evenodd; clip-rule:evenodd" xmlns:xlink="http://www.w3.org/1999/xlink">
<g><path style="opacity:0.999" fill="#dce5e8" d="M 290.5,123.5 C 287.193,122.536 283.859,122.036 280.5,122C 281.337,123.011 281.67,124.178 281.5,125.5C 280.5,125.5 279.5,125.5 278.5,125.5C 279.095,120.48 277.095,118.814 272.5,120.5C 271.614,121.325 271.281,122.325 271.5,123.5C 274.438,124.628 277.438,125.795 280.5,127C 279.333,129.833 280.167,130.667 283,129.5C 283.374,130.416 283.874,131.25 284.5,132C 282.144,132.155 279.811,132.155 277.5,132C 273.499,139.586 267.666,141.419 260,137.5C 259.167,137.833 258.333,138.167 257.5,138.5C 260.495,139.133 263.328,140.133 266,141.5C 269.017,141.219 272.183,141.219 275.5,141.5C 275.5,141.833 275.5,142.167 275.5,142.5C 269.5,143.833 263.5,143.833 257.5,142.5C 254.916,140.528 251.916,139.528 248.5,139.5C 245.806,137.473 243.473,135.139 241.5,132.5C 240.533,133.806 239.199,134.473 237.5,134.5C 240.437,123.413 247.77,116.913 259.5,115C 271.202,113.365 281.535,116.198 290.5,123.5 Z"/></g>
<g><path style="opacity:1" fill="#93a473" d="M 264.5,124.5 C 264.5,125.167 264.5,125.833 264.5,126.5C 263.833,126.833 263.167,127.167 262.5,127.5C 260.326,127.75 258.659,128.75 257.5,130.5C 256.015,124.325 258.348,122.325 264.5,124.5 Z"/></g>
<g><path style="opacity:1" fill="#e6b38e" d="M 264.5,124.5 C 268.954,123.617 272.454,124.95 275,128.5C 273.072,135.133 268.572,137.3 261.5,135C 259.816,133.791 258.483,132.291 257.5,130.5C 258.659,128.75 260.326,127.75 262.5,127.5C 259.435,133.392 261.435,135.726 268.5,134.5C 268.318,132.409 268.652,130.409 269.5,128.5C 268.332,126.783 266.665,126.116 264.5,126.5C 264.5,125.833 264.5,125.167 264.5,124.5 Z"/></g>
<g><path style="opacity:1" fill="#f0a16d" d="M 264.5,126.5 C 266.665,126.116 268.332,126.783 269.5,128.5C 268.652,130.409 268.318,132.409 268.5,134.5C 261.435,135.726 259.435,133.392 262.5,127.5C 263.167,127.167 263.833,126.833 264.5,126.5 Z"/></g>
<g><path style="opacity:1" fill="#dbe7eb" d="M 290.5,123.5 C 292.975,124.687 293.975,126.687 293.5,129.5C 291.031,130.607 290.031,132.607 290.5,135.5C 291.5,135.5 292.5,135.5 293.5,135.5C 293.5,134.5 293.5,133.5 293.5,132.5C 302.235,132.124 310.902,132.624 319.5,134C 326.925,135.266 331.592,139.433 333.5,146.5C 331.386,145.64 330.22,143.973 330,141.5C 329.581,143.68 329.748,145.846 330.5,148C 330.375,149.627 329.875,151.127 329,152.5C 326.747,149.809 323.914,148.142 320.5,147.5C 321.833,150.167 321.833,152.833 320.5,155.5C 318.011,155.298 315.677,155.798 313.5,157C 313.833,157.333 314.167,157.667 314.5,158C 311.167,158.667 307.833,158.667 304.5,158C 305.167,157.667 305.833,157.333 306.5,157C 304.608,156.027 302.608,155.36 300.5,155C 298.51,151.51 295.843,148.677 292.5,146.5C 290.082,147.338 287.416,147.338 284.5,146.5C 287.156,143.627 286.99,140.961 284,138.5C 282.27,139.649 280.604,139.649 279,138.5C 277.961,139.244 277.461,140.244 277.5,141.5C 276.833,141.5 276.167,141.5 275.5,141.5C 272.183,141.219 269.017,141.219 266,141.5C 263.328,140.133 260.495,139.133 257.5,138.5C 258.333,138.167 259.167,137.833 260,137.5C 267.666,141.419 273.499,139.586 277.5,132C 279.811,132.155 282.144,132.155 284.5,132C 283.874,131.25 283.374,130.416 283,129.5C 280.167,130.667 279.333,129.833 280.5,127C 277.438,125.795 274.438,124.628 271.5,123.5C 271.281,122.325 271.614,121.325 272.5,120.5C 277.095,118.814 279.095,120.48 278.5,125.5C 279.5,125.5 280.5,125.5 281.5,125.5C 281.67,124.178 281.337,123.011 280.5,122C 283.859,122.036 287.193,122.536 290.5,123.5 Z"/></g>
<g><path style="opacity:0.702" fill="#a6aeb1" d="M 293.5,129.5 C 293.5,130.5 293.5,131.5 293.5,132.5C 293.5,133.5 293.5,134.5 293.5,135.5C 292.5,135.5 291.5,135.5 290.5,135.5C 290.031,132.607 291.031,130.607 293.5,129.5 Z"/></g>
<g><path style="opacity:0.29" fill="#f7e4cf" d="M 237.5,134.5 C 235.833,135.833 234.167,137.167 232.5,138.5C 230.833,138.5 229.167,138.5 227.5,138.5C 223.143,138.586 218.81,138.92 214.5,139.5C 214.167,139.5 213.833,139.5 213.5,139.5C 213.5,139.167 213.5,138.833 213.5,138.5C 221.699,138.215 229.699,136.882 237.5,134.5 Z"/></g>
<g><path style="opacity:1" fill="#b58a5e" d="M 241.5,132.5 C 241.5,136.5 241.5,140.5 241.5,144.5C 240.833,143.167 240.167,141.833 239.5,140.5C 237.562,138.837 235.228,138.171 232.5,138.5C 234.167,137.167 235.833,135.833 237.5,134.5C 239.199,134.473 240.533,133.806 241.5,132.5 Z"/></g>
<g><path style="opacity:1" fill="#8a9193" d="M 248.5,139.5 C 251.916,139.528 254.916,140.528 257.5,142.5C 254.145,142.31 251.145,141.31 248.5,139.5 Z"/></g>
<g><path style="opacity:0.329" fill="#f7e1ce" d="M 197.5,142.5 C 197.5,142.833 197.5,143.167 197.5,143.5C 195.5,143.167 193.5,142.833 191.5,142.5C 188.713,141.523 185.713,141.19 182.5,141.5C 183.134,140.053 184.301,139.387 186,139.5C 189.93,140.274 193.763,141.274 197.5,142.5 Z"/></g>
<g><path style="opacity:0.392" fill="#b7b7b3" d="M 213.5,138.5 C 213.5,138.833 213.5,139.167 213.5,139.5C 210.482,139.335 207.482,139.502 204.5,140C 202.68,140.2 201.347,141.034 200.5,142.5C 199.391,142.557 198.391,142.89 197.5,143.5C 197.5,143.167 197.5,142.833 197.5,142.5C 202.104,138.349 207.438,137.016 213.5,138.5 Z"/></g>
<g><path style="opacity:1" fill="#29261f" d="M 213.5,139.5 C 213.833,139.5 214.167,139.5 214.5,139.5C 215.735,142.301 217.235,144.968 219,147.5C 222.356,154.573 220.523,159.739 213.5,163C 210.846,163.941 208.179,164.774 205.5,165.5C 203.051,158.034 201.384,150.367 200.5,142.5C 201.347,141.034 202.68,140.2 204.5,140C 207.482,139.502 210.482,139.335 213.5,139.5 Z"/></g>
<g><path style="opacity:1" fill="#171411" d="M 241.5,132.5 C 243.473,135.139 245.806,137.473 248.5,139.5C 251.145,141.31 254.145,142.31 257.5,142.5C 263.5,143.833 269.5,143.833 275.5,142.5C 277.735,142.205 279.735,142.539 281.5,143.5C 281.337,145.857 281.503,148.19 282,150.5C 285.342,155.359 289.842,158.359 295.5,159.5C 298.902,159.972 301.902,161.472 304.5,164C 304.167,164.333 303.833,164.667 303.5,165C 306.002,166.337 308.002,168.171 309.5,170.5C 310.5,170.167 311.167,169.5 311.5,168.5C 309.774,166.772 308.441,164.772 307.5,162.5C 311.38,162.412 315.38,162.246 319.5,162C 320.305,160.887 320.972,159.721 321.5,158.5C 322.251,157.427 323.251,157.26 324.5,158C 322.974,162.48 323.641,166.647 326.5,170.5C 324.515,170.859 323.849,171.692 324.5,173C 323.552,173.483 322.552,173.649 321.5,173.5C 321.993,175.806 322.326,178.139 322.5,180.5C 317.02,175.76 310.687,172.593 303.5,171C 300.112,170.341 296.779,170.508 293.5,171.5C 292.292,170.766 290.959,170.433 289.5,170.5C 288.136,168.809 286.803,167.142 285.5,165.5C 284.5,163.833 283.167,162.5 281.5,161.5C 279.109,158.083 275.775,156.75 271.5,157.5C 270.942,156.21 269.942,155.377 268.5,155C 263.863,154.171 259.196,153.671 254.5,153.5C 252.303,153.56 249.969,153.227 247.5,152.5C 245.885,149.55 243.885,146.884 241.5,144.5C 241.5,140.5 241.5,136.5 241.5,132.5 Z"/></g>
<g><path style="opacity:1" fill="#6b7174" d="M 281.5,143.5 C 279.735,142.539 277.735,142.205 275.5,142.5C 275.5,142.167 275.5,141.833 275.5,141.5C 276.167,141.5 276.833,141.5 277.5,141.5C 279.262,141.643 280.929,141.309 282.5,140.5C 283.665,141.86 283.332,142.86 281.5,143.5 Z"/></g>
<g><path style="opacity:1" fill="#f59961" d="M 227.5,138.5 C 229.167,138.5 230.833,138.5 232.5,138.5C 235.228,138.171 237.562,138.837 239.5,140.5C 239.34,142.199 239.506,143.866 240,145.5C 241.236,146.399 242.07,147.566 242.5,149C 240.791,151.043 238.791,152.877 236.5,154.5C 236.013,155.446 235.68,156.446 235.5,157.5C 236.167,161.833 236.833,166.167 237.5,170.5C 235.142,175.195 233.975,180.195 234,185.5C 233.307,195.189 233.473,204.856 234.5,214.5C 232.616,209.372 230.949,209.372 229.5,214.5C 229.5,209.833 229.5,205.167 229.5,200.5C 228.167,200.5 226.833,200.5 225.5,200.5C 225.167,201.167 224.833,201.833 224.5,202.5C 223.5,202.833 222.833,203.5 222.5,204.5C 220.068,205.75 217.734,207.25 215.5,209C 214.177,209.816 213.511,210.983 213.5,212.5C 212.833,213.167 212.167,213.833 211.5,214.5C 211.779,209.673 211.113,205.007 209.5,200.5C 211.463,193.576 212.13,186.243 211.5,178.5C 213.092,174.722 213.926,170.722 214,166.5C 216.039,164.126 218.372,162.126 221,160.5C 222.073,156.916 222.74,153.25 223,149.5C 225.989,146.922 227.489,143.922 227.5,140.5C 224.555,142.143 221.555,143.476 218.5,144.5C 218.5,143.167 218.5,141.833 218.5,140.5C 221.689,140.142 224.689,139.475 227.5,138.5 Z"/></g>
<g><path style="opacity:1" fill="#9dad7e" d="M 304.5,142.5 C 301.081,143.042 299.414,145.042 299.5,148.5C 296.045,147.872 294.878,145.872 296,142.5C 297.849,141.439 299.849,140.773 302,140.5C 303.376,140.684 304.209,141.351 304.5,142.5 Z"/></g>
<g><path style="opacity:1" fill="#f99e65" d="M 194.5,171.5 C 193.549,170.081 193.216,168.415 193.5,166.5C 190.908,166.454 188.741,165.454 187,163.5C 186.228,163.645 185.561,163.978 185,164.5C 183.616,171.411 183.116,178.411 183.5,185.5C 183.158,186.338 182.492,186.672 181.5,186.5C 179.449,179.089 178.116,171.422 177.5,163.5C 177.747,162.287 178.414,161.62 179.5,161.5C 179.177,165.226 179.511,168.893 180.5,172.5C 181.086,172.291 181.586,171.957 182,171.5C 182.785,162.689 184.952,154.355 188.5,146.5C 189.404,145.791 189.737,144.791 189.5,143.5C 194.613,143.132 197.446,145.466 198,150.5C 198.667,152.833 198.667,155.167 198,157.5C 195.056,161.678 193.89,166.345 194.5,171.5 Z"/></g>
<g><path style="opacity:1" fill="#f69b63" d="M 179.5,161.5 C 179.5,160.5 179.5,159.5 179.5,158.5C 177.173,158.665 175.007,159.331 173,160.5C 172.83,169.343 172.33,178.01 171.5,186.5C 171.5,179.167 171.5,171.833 171.5,164.5C 171.342,158.624 172.342,152.957 174.5,147.5C 177.491,146.004 180.491,144.504 183.5,143C 184.635,142.251 185.635,142.417 186.5,143.5C 184.153,149.55 181.819,155.55 179.5,161.5 Z"/></g>
<g><path style="opacity:1" fill="#f89b61" d="M 168.5,177.5 C 167.686,175.369 167.186,173.036 167,170.5C 166.586,170.043 166.086,169.709 165.5,169.5C 164.666,171.834 163.333,173.834 161.5,175.5C 160.716,180.54 160.382,185.54 160.5,190.5C 159.522,190.023 158.689,189.357 158,188.5C 157.86,185.957 157.194,183.623 156,181.5C 155.502,178.183 155.335,174.85 155.5,171.5C 156.165,173.369 156.831,175.369 157.5,177.5C 158.086,177.291 158.586,176.957 159,176.5C 159.333,170.167 159.667,163.833 160,157.5C 161.798,155.028 164.132,153.361 167,152.5C 167.481,160.84 167.981,169.173 168.5,177.5 Z"/></g>
<g><path style="opacity:0.998" fill="#e0e8ea" d="M 380.5,170.5 C 379.167,170.5 377.833,170.5 376.5,170.5C 376.664,167.813 376.497,165.146 376,162.5C 374.961,163.244 374.461,164.244 374.5,165.5C 373.557,168.109 371.89,170.109 369.5,171.5C 362.329,172.81 355.329,173.81 348.5,174.5C 347.833,174.167 347.167,173.833 346.5,173.5C 349.546,172.625 352.546,171.625 355.5,170.5C 355.167,170.167 354.833,169.833 354.5,169.5C 349.134,172.616 344.3,171.949 340,167.5C 339.51,166.207 339.343,164.873 339.5,163.5C 340.391,164.261 341.058,165.261 341.5,166.5C 342.325,167.386 343.325,167.719 344.5,167.5C 350.38,170.808 355.214,169.475 359,163.5C 359.667,162.167 359.667,160.833 359,159.5C 356.619,158.565 354.119,158.232 351.5,158.5C 350.167,158.5 348.833,158.5 347.5,158.5C 347.5,157.833 347.5,157.167 347.5,156.5C 350.271,156.579 352.937,156.079 355.5,155C 353.579,154.64 351.912,153.806 350.5,152.5C 351.025,151.808 351.692,151.308 352.5,151C 350.285,150.31 348.118,149.476 346,148.5C 342.208,149.31 338.375,149.644 334.5,149.5C 340.581,147.588 346.914,147.088 353.5,148C 359.553,149.462 365.553,151.129 371.5,153C 373.286,153.785 374.786,154.951 376,156.5C 377.29,160.73 377.79,165.064 377.5,169.5C 378.791,169.263 379.791,169.596 380.5,170.5 Z"/></g>
<g><path style="opacity:1" fill="#d6e3e7" d="M 333.5,146.5 C 333.263,147.791 333.596,148.791 334.5,149.5C 338.375,149.644 342.208,149.31 346,148.5C 348.118,149.476 350.285,150.31 352.5,151C 351.692,151.308 351.025,151.808 350.5,152.5C 351.912,153.806 353.579,154.64 355.5,155C 352.937,156.079 350.271,156.579 347.5,156.5C 344.393,156.351 341.393,156.851 338.5,158C 337.199,159.616 337.199,161.116 338.5,162.5C 338.5,163.167 338.833,163.5 339.5,163.5C 339.343,164.873 339.51,166.207 340,167.5C 344.3,171.949 349.134,172.616 354.5,169.5C 354.833,169.833 355.167,170.167 355.5,170.5C 352.546,171.625 349.546,172.625 346.5,173.5C 347.167,173.833 347.833,174.167 348.5,174.5C 355.329,173.81 362.329,172.81 369.5,171.5C 368.5,172.167 367.5,172.833 366.5,173.5C 364.847,173.66 363.514,174.326 362.5,175.5C 354.869,176.564 347.202,176.731 339.5,176C 334.665,175.226 330.332,173.392 326.5,170.5C 323.641,166.647 322.974,162.48 324.5,158C 323.251,157.26 322.251,157.427 321.5,158.5C 312.862,159.34 304.195,159.673 295.5,159.5C 289.842,158.359 285.342,155.359 282,150.5C 281.503,148.19 281.337,145.857 281.5,143.5C 283.332,142.86 283.665,141.86 282.5,140.5C 280.929,141.309 279.262,141.643 277.5,141.5C 277.461,140.244 277.961,139.244 279,138.5C 280.604,139.649 282.27,139.649 284,138.5C 286.99,140.961 287.156,143.627 284.5,146.5C 287.416,147.338 290.082,147.338 292.5,146.5C 295.843,148.677 298.51,151.51 300.5,155C 302.608,155.36 304.608,156.027 306.5,157C 305.833,157.333 305.167,157.667 304.5,158C 307.833,158.667 311.167,158.667 314.5,158C 314.167,157.667 313.833,157.333 313.5,157C 315.677,155.798 318.011,155.298 320.5,155.5C 321.833,152.833 321.833,150.167 320.5,147.5C 323.914,148.142 326.747,149.809 329,152.5C 329.875,151.127 330.375,149.627 330.5,148C 329.748,145.846 329.581,143.68 330,141.5C 330.22,143.973 331.386,145.64 333.5,146.5 Z"/></g>
<g><path style="opacity:1" fill="#e6b38f" d="M 304.5,142.5 C 307.522,142.804 310.522,143.304 313.5,144C 315.007,144.837 315.507,146.004 315,147.5C 310.918,152.584 305.752,153.918 299.5,151.5C 299.5,150.5 299.5,149.5 299.5,148.5C 299.414,145.042 301.081,143.042 304.5,142.5 Z"/></g>
<g><path style="opacity:1" fill="#f4a06b" d="M 302.5,144.5 C 306.064,144.151 309.398,144.817 312.5,146.5C 309.802,149.566 306.469,150.732 302.5,150C 301.464,148.224 301.464,146.391 302.5,144.5 Z"/></g>
<g><path style="opacity:0.478" fill="#f9e3cc" d="M 163.5,151.5 C 161.833,153.5 160.167,155.5 158.5,157.5C 155.792,159.353 152.792,160.353 149.5,160.5C 154.678,158.327 159.345,155.327 163.5,151.5 Z"/></g>
<g><path style="opacity:1" fill="#29251f" d="M 247.5,152.5 C 249.969,153.227 252.303,153.56 254.5,153.5C 254.343,154.873 254.51,156.207 255,157.5C 257.321,159.82 258.821,162.486 259.5,165.5C 260.465,170.683 259.132,175.016 255.5,178.5C 251.828,179.835 248.162,181.168 244.5,182.5C 242.844,174.229 241.51,165.895 240.5,157.5C 243.4,156.557 245.733,154.89 247.5,152.5 Z"/></g>
<g><path style="opacity:1" fill="#fbc69c" d="M 182.5,141.5 C 185.713,141.19 188.713,141.523 191.5,142.5C 190.5,142.5 189.5,142.5 188.5,142.5C 188.5,143.833 188.5,145.167 188.5,146.5C 184.952,154.355 182.785,162.689 182,171.5C 181.586,171.957 181.086,172.291 180.5,172.5C 179.511,168.893 179.177,165.226 179.5,161.5C 181.819,155.55 184.153,149.55 186.5,143.5C 185.635,142.417 184.635,142.251 183.5,143C 180.491,144.504 177.491,146.004 174.5,147.5C 172.342,152.957 171.342,158.624 171.5,164.5C 169.729,169.954 168.729,169.621 168.5,163.5C 168.736,159.415 169.403,155.415 170.5,151.5C 169.311,150.571 167.978,150.238 166.5,150.5C 171.47,147.011 176.803,144.011 182.5,141.5 Z"/></g>
<g><path style="opacity:1" fill="#efad81" d="M 227.5,138.5 C 224.689,139.475 221.689,140.142 218.5,140.5C 218.5,141.833 218.5,143.167 218.5,144.5C 221.555,143.476 224.555,142.143 227.5,140.5C 227.489,143.922 225.989,146.922 223,149.5C 222.74,153.25 222.073,156.916 221,160.5C 218.372,162.126 216.039,164.126 214,166.5C 213.926,170.722 213.092,174.722 211.5,178.5C 210.876,180.834 210.043,183.167 209,185.5C 208.502,182.183 208.335,178.85 208.5,175.5C 208.813,172.753 208.48,170.086 207.5,167.5C 202.995,169.676 200.328,168.343 199.5,163.5C 198.914,163.709 198.414,164.043 198,164.5C 197.899,168.075 198.399,171.575 199.5,175C 197.659,201.878 195.992,201.711 194.5,174.5C 194.5,173.5 194.5,172.5 194.5,171.5C 193.89,166.345 195.056,161.678 198,157.5C 198.667,155.167 198.667,152.833 198,150.5C 197.446,145.466 194.613,143.132 189.5,143.5C 189.737,144.791 189.404,145.791 188.5,146.5C 188.5,145.167 188.5,143.833 188.5,142.5C 189.5,142.5 190.5,142.5 191.5,142.5C 193.5,142.833 195.5,143.167 197.5,143.5C 199.994,150.924 201.327,158.591 201.5,166.5C 202.959,166.567 204.292,166.234 205.5,165.5C 208.179,164.774 210.846,163.941 213.5,163C 220.523,159.739 222.356,154.573 219,147.5C 217.235,144.968 215.735,142.301 214.5,139.5C 218.81,138.92 223.143,138.586 227.5,138.5 Z"/></g>
<g><path style="opacity:1" fill="#665343" d="M 200.5,142.5 C 201.384,150.367 203.051,158.034 205.5,165.5C 204.292,166.234 202.959,166.567 201.5,166.5C 201.327,158.591 199.994,150.924 197.5,143.5C 198.391,142.89 199.391,142.557 200.5,142.5 Z"/></g>
<g><path style="opacity:1" fill="#65503f" d="M 240.5,157.5 C 241.51,165.895 242.844,174.229 244.5,182.5C 243.85,182.804 243.183,183.137 242.5,183.5C 241.832,181.031 241.165,178.698 240.5,176.5C 240.5,176.167 240.5,175.833 240.5,175.5C 240.37,170.483 239.37,165.649 237.5,161C 237.278,158.725 238.278,157.559 240.5,157.5 Z"/></g>
<g><path style="opacity:1" fill="#e9ae84" d="M 254.5,153.5 C 259.196,153.671 263.863,154.171 268.5,155C 269.942,155.377 270.942,156.21 271.5,157.5C 263.112,159.422 259.612,164.755 261,173.5C 260.817,170.635 260.317,167.969 259.5,165.5C 258.821,162.486 257.321,159.82 255,157.5C 254.51,156.207 254.343,154.873 254.5,153.5 Z"/></g>
<g><path style="opacity:1" fill="#fa9657" d="M 281.5,161.5 C 281.539,162.583 281.873,163.583 282.5,164.5C 280.147,166.523 277.814,168.523 275.5,170.5C 271.583,172.523 267.417,173.856 263,174.5C 260.997,167.894 262.83,162.728 268.5,159C 270.833,158.333 273.167,158.333 275.5,159C 277.407,160.122 279.407,160.955 281.5,161.5 Z"/></g>
<g><path style="opacity:1" fill="#8da375" d="M 347.5,156.5 C 347.5,157.167 347.5,157.833 347.5,158.5C 347.167,158.5 346.833,158.5 346.5,158.5C 343.833,159.833 341.167,161.167 338.5,162.5C 337.199,161.116 337.199,159.616 338.5,158C 341.393,156.851 344.393,156.351 347.5,156.5 Z"/></g>
<g><path style="opacity:1" fill="#eea472" d="M 346.5,158.5 C 346.833,158.5 347.167,158.5 347.5,158.5C 348.833,158.5 350.167,158.5 351.5,158.5C 353.265,159.461 355.265,159.795 357.5,159.5C 357.657,160.873 357.49,162.207 357,163.5C 354.667,164.413 352.834,165.913 351.5,168C 349.115,168.556 346.782,168.39 344.5,167.5C 343.524,166.185 342.524,164.852 341.5,163.5C 344.182,162.818 345.848,161.152 346.5,158.5 Z"/></g>
<g><path style="opacity:1" fill="#414341" d="M 321.5,158.5 C 320.972,159.721 320.305,160.887 319.5,162C 315.38,162.246 311.38,162.412 307.5,162.5C 308.441,164.772 309.774,166.772 311.5,168.5C 311.167,169.5 310.5,170.167 309.5,170.5C 308.002,168.171 306.002,166.337 303.5,165C 303.833,164.667 304.167,164.333 304.5,164C 301.902,161.472 298.902,159.972 295.5,159.5C 304.195,159.673 312.862,159.34 321.5,158.5 Z"/></g>
<g><path style="opacity:1" fill="#f5c8a0" d="M 158.5,157.5 C 158.867,161.967 158.367,166.3 157,170.5C 156.809,168.292 156.309,166.292 155.5,164.5C 155.657,163.127 155.49,161.793 155,160.5C 147.049,161.982 139.216,163.982 131.5,166.5C 137.085,163.527 143.085,161.527 149.5,160.5C 152.792,160.353 155.792,159.353 158.5,157.5 Z"/></g>
<g><path style="opacity:1" fill="#fec394" d="M 226.5,157.5 C 227.497,157.47 228.164,157.97 228.5,159C 225.829,166.358 223.662,173.858 222,181.5C 222.309,173.316 223.809,165.316 226.5,157.5 Z"/></g>
<g><path style="opacity:1" fill="#f68a50" d="M 194.5,171.5 C 194.5,172.5 194.5,173.5 194.5,174.5C 194.26,182.875 194.593,191.208 195.5,199.5C 194.85,199.196 194.183,198.863 193.5,198.5C 192.507,203.12 192.173,207.786 192.5,212.5C 191.074,210.321 190.408,207.821 190.5,205C 191.267,199.19 191.601,193.357 191.5,187.5C 191.5,186.167 191.5,184.833 191.5,183.5C 188.67,183.694 186.004,184.361 183.5,185.5C 183.116,178.411 183.616,171.411 185,164.5C 185.561,163.978 186.228,163.645 187,163.5C 188.741,165.454 190.908,166.454 193.5,166.5C 193.216,168.415 193.549,170.081 194.5,171.5 Z"/></g>
<g><path style="opacity:1" fill="#d8b794" d="M 346.5,158.5 C 345.848,161.152 344.182,162.818 341.5,163.5C 342.524,164.852 343.524,166.185 344.5,167.5C 343.325,167.719 342.325,167.386 341.5,166.5C 341.058,165.261 340.391,164.261 339.5,163.5C 338.833,163.5 338.5,163.167 338.5,162.5C 341.167,161.167 343.833,159.833 346.5,158.5 Z"/></g>
<g><path style="opacity:1" fill="#f5af82" d="M 281.5,161.5 C 283.167,162.5 284.5,163.833 285.5,165.5C 285.586,166.496 285.252,167.329 284.5,168C 285.672,168.419 286.672,169.085 287.5,170C 284.247,171.036 280.914,171.703 277.5,172C 276.748,172.671 276.414,173.504 276.5,174.5C 275.153,175.028 273.819,175.195 272.5,175C 273.883,173.729 274.883,172.229 275.5,170.5C 277.814,168.523 280.147,166.523 282.5,164.5C 281.873,163.583 281.539,162.583 281.5,161.5 Z"/></g>
<g><path style="opacity:1" fill="#b68766" d="M 285.5,165.5 C 286.803,167.142 288.136,168.809 289.5,170.5C 289.5,171.167 289.5,171.833 289.5,172.5C 286.022,172.184 282.688,172.684 279.5,174C 277.582,176.109 277.249,178.275 278.5,180.5C 278.5,182.167 278.5,183.833 278.5,185.5C 277.833,184.833 277.167,184.167 276.5,183.5C 276.5,180.5 276.5,177.5 276.5,174.5C 276.414,173.504 276.748,172.671 277.5,172C 280.914,171.703 284.247,171.036 287.5,170C 286.672,169.085 285.672,168.419 284.5,168C 285.252,167.329 285.586,166.496 285.5,165.5 Z"/></g>
<g><path style="opacity:1" fill="#dfa061" d="M 155.5,164.5 C 154.883,164.389 154.383,164.056 154,163.5C 152.514,166.85 151.347,170.184 150.5,173.5C 145.347,170.853 139.847,168.853 134,167.5C 129.271,168.945 124.438,169.612 119.5,169.5C 123.2,167.719 127.2,166.719 131.5,166.5C 139.216,163.982 147.049,161.982 155,160.5C 155.49,161.793 155.657,163.127 155.5,164.5 Z"/></g>
<g><path style="opacity:1" fill="#f8ad7b" d="M 166.5,150.5 C 167.978,150.238 169.311,150.571 170.5,151.5C 169.403,155.415 168.736,159.415 168.5,163.5C 168.729,169.621 169.729,169.954 171.5,164.5C 171.5,171.833 171.5,179.167 171.5,186.5C 170.542,186.047 169.708,185.381 169,184.5C 168.503,182.19 168.337,179.857 168.5,177.5C 167.981,169.173 167.481,160.84 167,152.5C 164.132,153.361 161.798,155.028 160,157.5C 159.667,163.833 159.333,170.167 159,176.5C 158.586,176.957 158.086,177.291 157.5,177.5C 156.831,175.369 156.165,173.369 155.5,171.5C 155.5,169.167 155.5,166.833 155.5,164.5C 156.309,166.292 156.809,168.292 157,170.5C 158.367,166.3 158.867,161.967 158.5,157.5C 160.167,155.5 161.833,153.5 163.5,151.5C 164.391,150.89 165.391,150.557 166.5,150.5 Z"/></g>
<g><path style="opacity:1" fill="#e3b99c" d="M 351.5,158.5 C 354.119,158.232 356.619,158.565 359,159.5C 359.667,160.833 359.667,162.167 359,163.5C 355.214,169.475 350.38,170.808 344.5,167.5C 346.782,168.39 349.115,168.556 351.5,168C 352.834,165.913 354.667,164.413 357,163.5C 357.49,162.207 357.657,160.873 357.5,159.5C 355.265,159.795 353.265,159.461 351.5,158.5 Z"/></g>
<g><path style="opacity:1" fill="#525049" d="M 374.5,165.5 C 375.66,177.326 375.826,189.326 375,201.5C 373.945,204.056 372.112,205.723 369.5,206.5C 369.485,198.804 368.985,191.138 368,183.5C 367.667,191.5 367.333,199.5 367,207.5C 366.757,195.985 366.591,184.651 366.5,173.5C 367.5,172.833 368.5,172.167 369.5,171.5C 371.89,170.109 373.557,168.109 374.5,165.5 Z"/></g>
<g><path style="opacity:0.282" fill="#faedd4" d="M 380.5,171.5 C 380.5,171.167 380.5,170.833 380.5,170.5C 388.396,171.797 395.729,174.463 402.5,178.5C 395.123,176.151 387.79,173.818 380.5,171.5 Z"/></g>
<g><path style="opacity:1" fill="#cd8a4a" d="M 150.5,173.5 C 150.057,176.812 149.724,180.145 149.5,183.5C 149.874,187.9 150.541,192.233 151.5,196.5C 133.783,191.133 116.116,184.466 98.5,176.5C 103.447,174.348 108.447,172.348 113.5,170.5C 115.435,169.85 117.435,169.517 119.5,169.5C 124.438,169.612 129.271,168.945 134,167.5C 139.847,168.853 145.347,170.853 150.5,173.5 Z"/></g>
<g><path style="opacity:1" fill="#f7975d" d="M 208.5,175.5 C 207.521,178.625 207.187,181.958 207.5,185.5C 206.883,185.389 206.383,185.056 206,184.5C 204,187.167 202,189.833 200,192.5C 200.393,197.132 200.393,201.799 200,206.5C 198.956,203.855 197.456,201.522 195.5,199.5C 194.593,191.208 194.26,182.875 194.5,174.5C 195.992,201.711 197.659,201.878 199.5,175C 198.399,171.575 197.899,168.075 198,164.5C 198.414,164.043 198.914,163.709 199.5,163.5C 200.328,168.343 202.995,169.676 207.5,167.5C 208.48,170.086 208.813,172.753 208.5,175.5 Z"/></g>
<g><path style="opacity:1" fill="#12100d" d="M 326.5,170.5 C 330.332,173.392 334.665,175.226 339.5,176C 347.202,176.731 354.869,176.564 362.5,175.5C 363.302,176.952 363.802,178.618 364,180.5C 364.5,190.161 364.666,199.828 364.5,209.5C 364.167,209.5 363.833,209.5 363.5,209.5C 357.522,210.409 351.522,210.575 345.5,210C 343.939,209.682 342.772,208.849 342,207.5C 341.692,208.308 341.192,208.975 340.5,209.5C 340.944,204.469 340.111,199.469 338,194.5C 334.295,191.62 330.795,188.62 327.5,185.5C 325.605,184.027 323.939,182.36 322.5,180.5C 322.326,178.139 321.993,175.806 321.5,173.5C 322.552,173.649 323.552,173.483 324.5,173C 323.849,171.692 324.515,170.859 326.5,170.5 Z"/></g>
<g><path style="opacity:1" fill="#2a2720" d="M 289.5,172.5 C 288.015,175.586 287.015,178.919 286.5,182.5C 284.253,181.626 281.92,181.292 279.5,181.5C 279.378,177.162 279.045,176.828 278.5,180.5C 277.249,178.275 277.582,176.109 279.5,174C 282.688,172.684 286.022,172.184 289.5,172.5 Z"/></g>
<g><path style="opacity:1" fill="#f7975c" d="M 320.5,181.5 C 314.533,187.637 308.699,193.97 303,200.5C 301.986,196.759 301.153,193.093 300.5,189.5C 300.74,177.41 306.406,173.576 317.5,178C 318.71,179.039 319.71,180.206 320.5,181.5 Z"/></g>
<g><path style="opacity:0.612" fill="#f4dfc1" d="M 113.5,170.5 C 108.447,172.348 103.447,174.348 98.5,176.5C 93.7875,177.176 89.7875,179.176 86.5,182.5C 85.8333,182.833 85.1667,183.167 84.5,183.5C 87.0791,179.439 90.7457,176.606 95.5,175C 101.387,172.981 107.387,171.481 113.5,170.5 Z"/></g>
<g><path style="opacity:1" fill="#ae906d" d="M 376.5,170.5 C 376.5,179.5 376.5,188.5 376.5,197.5C 376.851,203.468 374.185,207.135 368.5,208.5C 368.833,207.833 369.167,207.167 369.5,206.5C 372.112,205.723 373.945,204.056 375,201.5C 375.826,189.326 375.66,177.326 374.5,165.5C 374.461,164.244 374.961,163.244 376,162.5C 376.497,165.146 376.664,167.813 376.5,170.5 Z"/></g>
<g><path style="opacity:1" fill="#f1a06c" d="M 271.5,157.5 C 275.775,156.75 279.109,158.083 281.5,161.5C 279.407,160.955 277.407,160.122 275.5,159C 273.167,158.333 270.833,158.333 268.5,159C 262.83,162.728 260.997,167.894 263,174.5C 267.417,173.856 271.583,172.523 275.5,170.5C 274.883,172.229 273.883,173.729 272.5,175C 273.819,175.195 275.153,175.028 276.5,174.5C 276.5,177.5 276.5,180.5 276.5,183.5C 276.662,185.527 276.495,187.527 276,189.5C 275.617,190.056 275.117,190.389 274.5,190.5C 274.808,188.076 274.474,185.743 273.5,183.5C 272.614,184.325 272.281,185.325 272.5,186.5C 270.076,186.192 267.743,186.526 265.5,187.5C 264.197,191.032 264.197,194.532 265.5,198C 264.011,199.468 262.677,200.968 261.5,202.5C 261.334,206.514 261.501,210.514 262,214.5C 262.388,215.428 263.055,216.095 264,216.5C 265.138,216.011 266.305,215.678 267.5,215.5C 265.058,217.126 262.391,218.459 259.5,219.5C 258.298,215.286 257.631,210.952 257.5,206.5C 258.656,197.879 259.489,189.212 260,180.5C 261.365,179.407 261.699,178.074 261,176.5C 259.556,178.155 257.722,178.822 255.5,178.5C 259.132,175.016 260.465,170.683 259.5,165.5C 260.317,167.969 260.817,170.635 261,173.5C 259.612,164.755 263.112,159.422 271.5,157.5 Z"/></g>
<g><path style="opacity:1" fill="#fed0a8" d="M 265.5,175.5 C 266.043,175.56 266.376,175.893 266.5,176.5C 265.456,181.684 263.956,186.684 262,191.5C 260.622,185.53 261.789,180.196 265.5,175.5 Z"/></g>
<g><path style="opacity:0.263" fill="#f6e4c6" d="M 402.5,178.5 C 407.883,179.734 412.883,181.734 417.5,184.5C 412.659,183.632 407.992,182.298 403.5,180.5C 403.167,179.833 402.833,179.167 402.5,178.5 Z"/></g>
<g><path style="opacity:1" fill="#dca077" d="M 322.5,180.5 C 323.939,182.36 325.605,184.027 327.5,185.5C 328.11,186.391 328.443,187.391 328.5,188.5C 327.038,187.542 325.705,186.376 324.5,185C 323.207,184.51 321.873,184.343 320.5,184.5C 320.5,183.5 320.5,182.5 320.5,181.5C 319.71,180.206 318.71,179.039 317.5,178C 306.406,173.576 300.74,177.41 300.5,189.5C 300.5,192.167 300.5,194.833 300.5,197.5C 299.663,192.804 298.663,188.137 297.5,183.5C 297.263,179.398 295.597,176.065 292.5,173.5C 292.863,172.817 293.196,172.15 293.5,171.5C 296.779,170.508 300.112,170.341 303.5,171C 310.687,172.593 317.02,175.76 322.5,180.5 Z"/></g>
<g><path style="opacity:1" fill="#f88449" d="M 225.5,200.5 C 224.188,198.257 223.522,195.59 223.5,192.5C 221.612,184.722 224.612,181.389 232.5,182.5C 232.75,187.58 232.25,192.58 231,197.5C 228.942,198.229 227.109,199.229 225.5,200.5 Z"/></g>
<g><path style="opacity:1" fill="#f69960" d="M 240.5,175.5 C 240.5,175.833 240.5,176.167 240.5,176.5C 240.5,179.5 240.5,182.5 240.5,185.5C 242.806,185.007 245.139,184.674 247.5,184.5C 247.5,185.5 247.5,186.5 247.5,187.5C 246.893,191.951 246.559,196.451 246.5,201C 246.362,205.344 246.862,209.511 248,213.5C 248.958,203.128 250.124,192.795 251.5,182.5C 253.341,181.598 254.674,180.264 255.5,178.5C 257.722,178.822 259.556,178.155 261,176.5C 261.699,178.074 261.365,179.407 260,180.5C 259.489,189.212 258.656,197.879 257.5,206.5C 256.835,204.631 256.169,202.631 255.5,200.5C 253.958,199.253 252.458,199.253 251,200.5C 250.001,209.346 250.834,218.013 253.5,226.5C 254.622,225.37 255.956,224.703 257.5,224.5C 255.909,226.633 253.909,228.299 251.5,229.5C 248.38,221.512 246.047,213.345 244.5,205C 241.883,205.26 240.05,206.76 239,209.5C 238.503,212.146 238.336,214.813 238.5,217.5C 237.775,207.486 237.108,197.32 236.5,187C 236.782,182.683 238.115,178.85 240.5,175.5 Z"/></g>
<g><path style="opacity:1" fill="#d6976e" d="M 240.5,176.5 C 241.165,178.698 241.832,181.031 242.5,183.5C 243.183,183.137 243.85,182.804 244.5,182.5C 248.162,181.168 251.828,179.835 255.5,178.5C 254.674,180.264 253.341,181.598 251.5,182.5C 251.565,182.062 251.399,181.728 251,181.5C 249.933,182.191 248.766,182.691 247.5,183C 248.801,184.616 248.801,186.116 247.5,187.5C 247.5,186.5 247.5,185.5 247.5,184.5C 245.139,184.674 242.806,185.007 240.5,185.5C 240.5,182.5 240.5,179.5 240.5,176.5 Z"/></g>
<g><path style="opacity:1" fill="#f78448" d="M 179.5,161.5 C 178.414,161.62 177.747,162.287 177.5,163.5C 178.116,171.422 179.449,179.089 181.5,186.5C 181.649,187.552 181.483,188.552 181,189.5C 175.855,191.975 172.689,195.975 171.5,201.5C 169.72,202.99 169.054,204.99 169.5,207.5C 169.5,207.833 169.5,208.167 169.5,208.5C 161.059,207.96 155.059,203.96 151.5,196.5C 150.541,192.233 149.874,187.9 149.5,183.5C 149.724,180.145 150.057,176.812 150.5,173.5C 151.347,170.184 152.514,166.85 154,163.5C 154.383,164.056 154.883,164.389 155.5,164.5C 155.5,166.833 155.5,169.167 155.5,171.5C 155.335,174.85 155.502,178.183 156,181.5C 157.194,183.623 157.86,185.957 158,188.5C 158.689,189.357 159.522,190.023 160.5,190.5C 160.382,185.54 160.716,180.54 161.5,175.5C 163.333,173.834 164.666,171.834 165.5,169.5C 166.086,169.709 166.586,170.043 167,170.5C 167.186,173.036 167.686,175.369 168.5,177.5C 168.337,179.857 168.503,182.19 169,184.5C 169.708,185.381 170.542,186.047 171.5,186.5C 172.33,178.01 172.83,169.343 173,160.5C 175.007,159.331 177.173,158.665 179.5,158.5C 179.5,159.5 179.5,160.5 179.5,161.5 Z"/></g>
<g><path style="opacity:1" fill="#e4a45e" d="M 98.5,176.5 C 116.116,184.466 133.783,191.133 151.5,196.5C 155.059,203.96 161.059,207.96 169.5,208.5C 173.833,211.833 178.167,215.167 182.5,218.5C 172.645,216.077 163.311,212.243 154.5,207C 147.167,204.667 139.833,202.333 132.5,200C 122.462,193.98 112.128,188.48 101.5,183.5C 101.675,180.671 100.342,179.004 97.5,178.5C 97.8627,177.817 98.1961,177.15 98.5,176.5 Z"/></g>
<g><path style="opacity:1" fill="#fdbc90" d="M 251.5,182.5 C 250.124,192.795 248.958,203.128 248,213.5C 246.862,209.511 246.362,205.344 246.5,201C 246.559,196.451 246.893,191.951 247.5,187.5C 248.801,186.116 248.801,184.616 247.5,183C 248.766,182.691 249.933,182.191 251,181.5C 251.399,181.728 251.565,182.062 251.5,182.5 Z"/></g>
<g><path style="opacity:1" fill="#3c3b37" d="M 366.5,173.5 C 366.591,184.651 366.757,195.985 367,207.5C 367.333,199.5 367.667,191.5 368,183.5C 368.985,191.138 369.485,198.804 369.5,206.5C 369.167,207.167 368.833,207.833 368.5,208.5C 367.167,208.833 365.833,209.167 364.5,209.5C 364.666,199.828 364.5,190.161 364,180.5C 363.802,178.618 363.302,176.952 362.5,175.5C 363.514,174.326 364.847,173.66 366.5,173.5 Z"/></g>
<g><path style="opacity:1" fill="#e7aa65" d="M 380.5,171.5 C 387.79,173.818 395.123,176.151 402.5,178.5C 402.833,179.167 403.167,179.833 403.5,180.5C 403.62,181.586 404.287,182.253 405.5,182.5C 414.745,184.935 423.745,187.935 432.5,191.5C 433.833,191.833 435.167,192.167 436.5,192.5C 437.641,194.088 439.141,195.421 441,196.5C 441.667,197.833 441.667,199.167 441,200.5C 438.528,201.601 436.028,202.601 433.5,203.5C 416.514,196.516 399.514,189.183 382.5,181.5C 381.689,179.609 380.356,178.276 378.5,177.5C 377.534,175.604 377.201,173.604 377.5,171.5C 378.5,171.5 379.5,171.5 380.5,171.5 Z"/></g>
<g><path style="opacity:1" fill="#ce8c41" d="M 385.5,177.5 C 399.074,181.97 412.407,187.137 425.5,193C 424.167,193.667 422.833,193.667 421.5,193C 409.873,188.402 398.206,183.902 386.5,179.5C 385.702,179.043 385.369,178.376 385.5,177.5 Z"/></g>
<g><path style="opacity:1" fill="#b0a5a3" d="M 189.5,189.5 C 189.167,189.5 188.833,189.5 188.5,189.5C 186.712,189.215 185.045,189.548 183.5,190.5C 180.792,193.209 177.792,195.542 174.5,197.5C 177.432,194.346 180.432,191.179 183.5,188C 185.421,187.64 187.088,186.806 188.5,185.5C 189.429,186.689 189.762,188.022 189.5,189.5 Z"/></g>
<g><path style="opacity:1" fill="#fdaa77" d="M 208.5,175.5 C 208.335,178.85 208.502,182.183 209,185.5C 210.043,183.167 210.876,180.834 211.5,178.5C 212.13,186.243 211.463,193.576 209.5,200.5C 208.752,195.515 208.085,190.515 207.5,185.5C 207.187,181.958 207.521,178.625 208.5,175.5 Z"/></g>
<g><path style="opacity:1" fill="#f8975d" d="M 274.5,190.5 C 272.333,198.005 271.333,205.672 271.5,213.5C 270.713,215.104 269.38,215.771 267.5,215.5C 271.741,210.837 271.408,206.337 266.5,202C 264.735,201.36 263.068,201.527 261.5,202.5C 262.677,200.968 264.011,199.468 265.5,198C 264.197,194.532 264.197,191.032 265.5,187.5C 267.743,186.526 270.076,186.192 272.5,186.5C 272.281,185.325 272.614,184.325 273.5,183.5C 274.474,185.743 274.808,188.076 274.5,190.5 Z"/></g>
<g><path style="opacity:1" fill="#e8ab66" d="M 98.5,176.5 C 98.1961,177.15 97.8627,177.817 97.5,178.5C 100.342,179.004 101.675,180.671 101.5,183.5C 99.4194,182.377 97.2527,181.377 95,180.5C 93.9701,180.836 93.4701,181.503 93.5,182.5C 92.448,182.351 91.448,182.517 90.5,183C 96.8333,187.333 103.167,191.667 109.5,196C 122.125,200.882 134.459,206.549 146.5,213C 147.701,213.903 148.535,215.069 149,216.5C 149.483,215.552 149.649,214.552 149.5,213.5C 153.458,215.133 153.458,216.8 149.5,218.5C 149.709,219.086 150.043,219.586 150.5,220C 152.81,220.497 155.143,220.663 157.5,220.5C 157.5,221.5 157.5,222.5 157.5,223.5C 167.944,227.095 178.278,231.095 188.5,235.5C 194.282,238.314 199.948,241.314 205.5,244.5C 206.183,244.137 206.85,243.804 207.5,243.5C 209.117,244.038 210.784,244.371 212.5,244.5C 222.741,248.62 232.741,253.287 242.5,258.5C 234.688,258.616 227.688,256.449 221.5,252C 206.151,245.657 190.818,239.324 175.5,233C 146.541,219.864 117.208,207.197 87.5,195C 85.3874,194.128 84.0541,192.628 83.5,190.5C 84.8885,188.004 85.8885,185.337 86.5,182.5C 89.7875,179.176 93.7875,177.176 98.5,176.5 Z"/></g>
<g><path style="opacity:1" fill="#f88244" d="M 207.5,185.5 C 208.085,190.515 208.752,195.515 209.5,200.5C 211.113,205.007 211.779,209.673 211.5,214.5C 210.659,216.379 210.325,218.379 210.5,220.5C 209.683,222.478 208.183,223.478 206,223.5C 199.224,222.552 194.724,218.885 192.5,212.5C 192.173,207.786 192.507,203.12 193.5,198.5C 194.183,198.863 194.85,199.196 195.5,199.5C 197.456,201.522 198.956,203.855 200,206.5C 200.393,201.799 200.393,197.132 200,192.5C 202,189.833 204,187.167 206,184.5C 206.383,185.056 206.883,185.389 207.5,185.5 Z"/></g>
<g><path style="opacity:1" fill="#f98547" d="M 213.5,177.5 C 214.451,178.919 214.784,180.585 214.5,182.5C 215.833,182.5 217.167,182.5 218.5,182.5C 218.65,188.387 219.317,194.221 220.5,200C 219.838,202.676 218.338,204.843 216,206.5C 214.26,205.284 213.26,203.618 213,201.5C 212.2,193.421 212.367,185.421 213.5,177.5 Z"/></g>
<g><path style="opacity:1" fill="#f5ad7f" d="M 239.5,140.5 C 240.167,141.833 240.833,143.167 241.5,144.5C 243.885,146.884 245.885,149.55 247.5,152.5C 245.733,154.89 243.4,156.557 240.5,157.5C 238.278,157.559 237.278,158.725 237.5,161C 239.37,165.649 240.37,170.483 240.5,175.5C 238.115,178.85 236.782,182.683 236.5,187C 237.108,197.32 237.775,207.486 238.5,217.5C 238.66,219.199 238.494,220.866 238,222.5C 236.533,219.921 235.366,217.254 234.5,214.5C 233.473,204.856 233.307,195.189 234,185.5C 233.975,180.195 235.142,175.195 237.5,170.5C 236.833,166.167 236.167,161.833 235.5,157.5C 235.68,156.446 236.013,155.446 236.5,154.5C 238.791,152.877 240.791,151.043 242.5,149C 242.07,147.566 241.236,146.399 240,145.5C 239.506,143.866 239.34,142.199 239.5,140.5 Z"/></g>
<g><path style="opacity:1" fill="#262620" d="M 297.5,183.5 C 298.663,188.137 299.663,192.804 300.5,197.5C 300.5,199.167 300.5,200.833 300.5,202.5C 300.698,210.534 300.365,218.534 299.5,226.5C 296.411,232.711 291.411,235.211 284.5,234C 283.944,233.617 283.611,233.117 283.5,232.5C 283.772,220.462 283.438,208.462 282.5,196.5C 283.675,196.719 284.675,196.386 285.5,195.5C 282.229,192.554 280.895,188.887 281.5,184.5C 282.873,184.343 284.207,184.51 285.5,185C 287.017,186.685 288.684,188.185 290.5,189.5C 292.836,188.406 292.836,187.073 290.5,185.5C 292.843,184.725 295.177,184.058 297.5,183.5 Z"/></g>
<g><path style="opacity:1" fill="#e3ba86" d="M 403.5,180.5 C 407.992,182.298 412.659,183.632 417.5,184.5C 421.127,185.321 424.46,186.654 427.5,188.5C 429.072,189.687 430.739,190.687 432.5,191.5C 423.745,187.935 414.745,184.935 405.5,182.5C 404.287,182.253 403.62,181.586 403.5,180.5 Z"/></g>
<g><path style="opacity:0.098" fill="#f9ebd3" d="M 427.5,188.5 C 431.673,189.044 435.673,190.21 439.5,192C 441.426,192.422 442.426,193.589 442.5,195.5C 440.784,193.975 438.784,192.975 436.5,192.5C 435.167,192.167 433.833,191.833 432.5,191.5C 430.739,190.687 429.072,189.687 427.5,188.5 Z"/></g>
<g><path style="opacity:1" fill="#da9c8a" d="M 191.5,187.5 C 190.833,189.833 190.167,192.167 189.5,194.5C 189.5,192.833 189.5,191.167 189.5,189.5C 189.762,188.022 189.429,186.689 188.5,185.5C 187.088,186.806 185.421,187.64 183.5,188C 180.432,191.179 177.432,194.346 174.5,197.5C 174.34,199.153 173.674,200.486 172.5,201.5C 172.167,201.5 171.833,201.5 171.5,201.5C 172.689,195.975 175.855,191.975 181,189.5C 181.483,188.552 181.649,187.552 181.5,186.5C 182.492,186.672 183.158,186.338 183.5,185.5C 186.004,184.361 188.67,183.694 191.5,183.5C 191.5,184.833 191.5,186.167 191.5,187.5 Z"/></g>
<g><path style="opacity:1" fill="#22140b" d="M 327.5,185.5 C 330.795,188.62 334.295,191.62 338,194.5C 340.111,199.469 340.944,204.469 340.5,209.5C 341.192,208.975 341.692,208.308 342,207.5C 342.772,208.849 343.939,209.682 345.5,210C 351.522,210.575 357.522,210.409 363.5,209.5C 362.486,210.674 361.153,211.34 359.5,211.5C 351.408,213.043 343.408,212.71 335.5,210.5C 340.125,204.974 339.458,200.307 333.5,196.5C 331.828,193.787 330.162,191.12 328.5,188.5C 328.443,187.391 328.11,186.391 327.5,185.5 Z"/></g>
<g><path style="opacity:1" fill="#e9ab63" d="M 101.5,183.5 C 112.128,188.48 122.462,193.98 132.5,200C 139.833,202.333 147.167,204.667 154.5,207C 163.311,212.243 172.645,216.077 182.5,218.5C 189.56,222.362 196.894,225.696 204.5,228.5C 203.895,231.127 203.395,233.793 203,236.5C 200.575,232.866 197.408,230.032 193.5,228C 180.466,224.212 167.799,219.879 155.5,215C 158.167,216.667 160.833,218.333 163.5,220C 174.287,223.362 184.954,227.029 195.5,231C 199.03,235.695 203.03,239.862 207.5,243.5C 206.85,243.804 206.183,244.137 205.5,244.5C 199.948,241.314 194.282,238.314 188.5,235.5C 178.278,231.095 167.944,227.095 157.5,223.5C 157.5,222.5 157.5,221.5 157.5,220.5C 155.143,220.663 152.81,220.497 150.5,220C 150.043,219.586 149.709,219.086 149.5,218.5C 153.458,216.8 153.458,215.133 149.5,213.5C 137.568,206.035 124.902,199.869 111.5,195C 105.259,191.057 99.2592,186.891 93.5,182.5C 93.4701,181.503 93.9701,180.836 95,180.5C 97.2527,181.377 99.4194,182.377 101.5,183.5 Z"/></g>
<g><path style="opacity:1" fill="#ccd9df" d="M 188.5,189.5 C 187.833,193.833 187.167,198.167 186.5,202.5C 181.883,203.487 177.216,204.154 172.5,204.5C 172.5,203.5 172.5,202.5 172.5,201.5C 173.674,200.486 174.34,199.153 174.5,197.5C 177.792,195.542 180.792,193.209 183.5,190.5C 185.045,189.548 186.712,189.215 188.5,189.5 Z"/></g>
<g><path style="opacity:1" fill="#ce8c4b" d="M 376.5,170.5 C 377.833,170.5 379.167,170.5 380.5,170.5C 380.5,170.833 380.5,171.167 380.5,171.5C 379.5,171.5 378.5,171.5 377.5,171.5C 377.201,173.604 377.534,175.604 378.5,177.5C 380.356,178.276 381.689,179.609 382.5,181.5C 399.514,189.183 416.514,196.516 433.5,203.5C 425.393,206.61 417.06,208.944 408.5,210.5C 398.218,205.401 387.552,201.068 376.5,197.5C 376.5,188.5 376.5,179.5 376.5,170.5 Z"/></g>
<g><path style="opacity:0.106" fill="#f7ecd7" d="M 84.5,183.5 C 82.2604,187.095 80.927,191.095 80.5,195.5C 79.5111,200.975 79.1778,206.642 79.5,212.5C 77.878,204.166 78.378,195.833 81,187.5C 82.4048,186.269 83.5714,184.936 84.5,183.5 Z"/></g>
<g><path style="opacity:1" fill="#cc8d46" d="M 93.5,182.5 C 99.2592,186.891 105.259,191.057 111.5,195C 124.902,199.869 137.568,206.035 149.5,213.5C 149.649,214.552 149.483,215.552 149,216.5C 148.535,215.069 147.701,213.903 146.5,213C 134.459,206.549 122.125,200.882 109.5,196C 103.167,191.667 96.8333,187.333 90.5,183C 91.448,182.517 92.448,182.351 93.5,182.5 Z"/></g>
<g><path style="opacity:1" fill="#4f4a43" d="M 289.5,170.5 C 290.959,170.433 292.292,170.766 293.5,171.5C 293.196,172.15 292.863,172.817 292.5,173.5C 295.597,176.065 297.263,179.398 297.5,183.5C 295.177,184.058 292.843,184.725 290.5,185.5C 292.836,187.073 292.836,188.406 290.5,189.5C 288.684,188.185 287.017,186.685 285.5,185C 284.207,184.51 282.873,184.343 281.5,184.5C 280.895,188.887 282.229,192.554 285.5,195.5C 284.675,196.386 283.675,196.719 282.5,196.5C 283.438,208.462 283.772,220.462 283.5,232.5C 282.833,232.5 282.167,232.5 281.5,232.5C 281.5,227.833 281.5,223.167 281.5,218.5C 281.702,216.05 281.369,213.717 280.5,211.5C 280.5,210.833 280.5,210.167 280.5,209.5C 280.492,201.424 279.825,193.424 278.5,185.5C 278.5,183.833 278.5,182.167 278.5,180.5C 279.045,176.828 279.378,177.162 279.5,181.5C 281.92,181.292 284.253,181.626 286.5,182.5C 287.015,178.919 288.015,175.586 289.5,172.5C 289.5,171.833 289.5,171.167 289.5,170.5 Z"/></g>
<g><path style="opacity:1" fill="#f59f6e" d="M 320.5,181.5 C 320.5,182.5 320.5,183.5 320.5,184.5C 321.873,184.343 323.207,184.51 324.5,185C 325.705,186.376 327.038,187.542 328.5,188.5C 330.162,191.12 331.828,193.787 333.5,196.5C 326.389,197.258 320.722,200.591 316.5,206.5C 311.42,204.527 306.086,203.193 300.5,202.5C 300.5,200.833 300.5,199.167 300.5,197.5C 300.5,194.833 300.5,192.167 300.5,189.5C 301.153,193.093 301.986,196.759 303,200.5C 308.699,193.97 314.533,187.637 320.5,181.5 Z"/></g>
<g><path style="opacity:1" fill="#f88b4d" d="M 318.5,186.5 C 325.026,185.69 327.693,188.357 326.5,194.5C 320.945,199.114 314.612,201.78 307.5,202.5C 307.421,201.07 307.754,199.736 308.5,198.5C 311.562,194.119 314.896,190.119 318.5,186.5 Z"/></g>
<g><path style="opacity:1" fill="#f2aa7f" d="M 276.5,183.5 C 277.167,184.167 277.833,184.833 278.5,185.5C 279.825,193.424 280.492,201.424 280.5,209.5C 280.167,209.5 279.833,209.5 279.5,209.5C 279.808,207.076 279.474,204.743 278.5,202.5C 274.906,203.888 273.573,206.555 274.5,210.5C 273.728,211.694 272.728,212.694 271.5,213.5C 271.333,205.672 272.333,198.005 274.5,190.5C 275.117,190.389 275.617,190.056 276,189.5C 276.495,187.527 276.662,185.527 276.5,183.5 Z"/></g>
<g><path style="opacity:1" fill="#ebe4d9" d="M 188.5,189.5 C 188.833,189.5 189.167,189.5 189.5,189.5C 189.5,191.167 189.5,192.833 189.5,194.5C 189.5,195.5 189.5,196.5 189.5,197.5C 188.835,199.369 188.169,201.369 187.5,203.5C 182.239,204.921 176.906,205.921 171.5,206.5C 171.5,204.833 171.5,203.167 171.5,201.5C 171.833,201.5 172.167,201.5 172.5,201.5C 172.5,202.5 172.5,203.5 172.5,204.5C 177.216,204.154 181.883,203.487 186.5,202.5C 187.167,198.167 187.833,193.833 188.5,189.5 Z"/></g>
<g><path style="opacity:1" fill="#f8844a" d="M 267.5,215.5 C 266.305,215.678 265.138,216.011 264,216.5C 263.055,216.095 262.388,215.428 262,214.5C 261.501,210.514 261.334,206.514 261.5,202.5C 263.068,201.527 264.735,201.36 266.5,202C 271.408,206.337 271.741,210.837 267.5,215.5 Z"/></g>
<g><path style="opacity:1" fill="#cc8e47" d="M 100.5,197.5 C 100.735,196.903 101.235,196.57 102,196.5C 117.073,201.364 131.573,207.697 145.5,215.5C 144.635,216.583 143.635,216.749 142.5,216C 131.458,208.816 119.458,203.816 106.5,201C 104.636,199.569 102.636,198.403 100.5,197.5 Z"/></g>
<g><path style="opacity:1" fill="#ea7e57" d="M 279.5,209.5 C 277.958,210.301 276.292,210.634 274.5,210.5C 273.573,206.555 274.906,203.888 278.5,202.5C 279.474,204.743 279.808,207.076 279.5,209.5 Z"/></g>
<g><path style="opacity:1" fill="#f6c085" d="M 86.5,182.5 C 85.8885,185.337 84.8885,188.004 83.5,190.5C 84.0541,192.628 85.3874,194.128 87.5,195C 117.208,207.197 146.541,219.864 175.5,233C 190.818,239.324 206.151,245.657 221.5,252C 227.688,256.449 234.688,258.616 242.5,258.5C 243.416,258.982 244.416,259.315 245.5,259.5C 249.844,258.265 254.011,256.599 258,254.5C 261.064,255.784 263.898,255.451 266.5,253.5C 267.239,253.369 267.906,253.536 268.5,254C 267.402,254.77 267.402,255.603 268.5,256.5C 263.082,258.04 257.749,259.873 252.5,262C 246.5,262.667 240.5,262.667 234.5,262C 229.393,259.464 224.06,257.631 218.5,256.5C 202.468,247.819 185.801,240.486 168.5,234.5C 163.693,231.1 158.36,228.766 152.5,227.5C 150.605,225.759 148.272,224.759 145.5,224.5C 124.99,214.989 104.323,205.656 83.5,196.5C 82.791,195.596 81.791,195.263 80.5,195.5C 80.927,191.095 82.2604,187.095 84.5,183.5C 85.1667,183.167 85.8333,182.833 86.5,182.5 Z"/></g>
<g><path style="opacity:1" fill="#b7855c" d="M 189.5,197.5 C 189.98,200.685 189.314,203.519 187.5,206C 181.552,208.164 175.552,208.664 169.5,207.5C 169.054,204.99 169.72,202.99 171.5,201.5C 171.5,203.167 171.5,204.833 171.5,206.5C 176.906,205.921 182.239,204.921 187.5,203.5C 188.169,201.369 188.835,199.369 189.5,197.5 Z"/></g>
<g><path style="opacity:1" fill="#d1998d" d="M 222.5,204.5 C 220.105,207.861 217.105,210.528 213.5,212.5C 213.511,210.983 214.177,209.816 215.5,209C 217.734,207.25 220.068,205.75 222.5,204.5 Z"/></g>
<g><path style="opacity:1" fill="#f57e46" d="M 333.5,196.5 C 333.685,198.196 334.519,199.529 336,200.5C 336.667,202.5 336.667,204.5 336,206.5C 333.791,208.373 331.958,210.54 330.5,213C 328.421,213.808 326.421,213.641 324.5,212.5C 322.103,210.098 319.436,208.098 316.5,206.5C 320.722,200.591 326.389,197.258 333.5,196.5 Z"/></g>
<g><path style="opacity:1" fill="#e7a962" d="M 376.5,197.5 C 387.552,201.068 398.218,205.401 408.5,210.5C 398.358,214.98 387.692,217.98 376.5,219.5C 369.947,218.871 363.947,216.871 358.5,213.5C 358.833,212.833 359.167,212.167 359.5,211.5C 361.153,211.34 362.486,210.674 363.5,209.5C 363.833,209.5 364.167,209.5 364.5,209.5C 365.833,209.167 367.167,208.833 368.5,208.5C 374.185,207.135 376.851,203.468 376.5,197.5 Z"/></g>
<g><path style="opacity:1" fill="#c6c7cb" d="M 228.5,208.5 C 227.801,210.556 226.801,212.556 225.5,214.5C 223.5,213.5 221.5,212.5 219.5,211.5C 218.534,213.396 218.201,215.396 218.5,217.5C 215.519,217.182 213.185,218.182 211.5,220.5C 211.167,220.5 210.833,220.5 210.5,220.5C 210.325,218.379 210.659,216.379 211.5,214.5C 212.167,213.833 212.833,213.167 213.5,212.5C 217.105,210.528 220.105,207.861 222.5,204.5C 222.833,203.5 223.5,202.833 224.5,202.5C 225.583,202.461 226.583,202.127 227.5,201.5C 228.474,203.743 228.808,206.076 228.5,208.5 Z"/></g>
<g><path style="opacity:1" fill="#f78347" d="M 257.5,206.5 C 257.631,210.952 258.298,215.286 259.5,219.5C 258.833,221.167 258.167,222.833 257.5,224.5C 255.956,224.703 254.622,225.37 253.5,226.5C 250.834,218.013 250.001,209.346 251,200.5C 252.458,199.253 253.958,199.253 255.5,200.5C 256.169,202.631 256.835,204.631 257.5,206.5 Z"/></g>
<g><path style="opacity:1" fill="#f3bf86" d="M 436.5,192.5 C 438.784,192.975 440.784,193.975 442.5,195.5C 442.575,198.206 442.908,200.873 443.5,203.5C 440.495,205.002 437.495,206.502 434.5,208C 405.71,214.986 377.377,223.486 349.5,233.5C 335.405,236.312 321.738,240.312 308.5,245.5C 300.733,247.553 293.066,249.886 285.5,252.5C 279.756,253.541 274.09,254.874 268.5,256.5C 267.402,255.603 267.402,254.77 268.5,254C 267.906,253.536 267.239,253.369 266.5,253.5C 266.5,252.833 266.833,252.5 267.5,252.5C 269.527,252.662 271.527,252.495 273.5,252C 286.292,247.386 299.292,243.553 312.5,240.5C 315.956,239.272 319.29,237.772 322.5,236C 330.583,235.984 337.916,233.817 344.5,229.5C 355.693,227.545 366.36,224.212 376.5,219.5C 387.692,217.98 398.358,214.98 408.5,210.5C 417.06,208.944 425.393,206.61 433.5,203.5C 436.028,202.601 438.528,201.601 441,200.5C 441.667,199.167 441.667,197.833 441,196.5C 439.141,195.421 437.641,194.088 436.5,192.5 Z"/></g>
<g><path style="opacity:0.306" fill="#efdec3" d="M 442.5,195.5 C 443.997,199.223 444.663,203.223 444.5,207.5C 444.497,210.355 444.164,213.022 443.5,215.5C 443.5,211.5 443.5,207.5 443.5,203.5C 442.908,200.873 442.575,198.206 442.5,195.5 Z"/></g>
<g><path style="opacity:1" fill="#b06e37" d="M 333.5,196.5 C 339.458,200.307 340.125,204.974 335.5,210.5C 335.5,211.5 335.5,212.5 335.5,213.5C 340.141,214.127 344.807,214.46 349.5,214.5C 349.714,216.144 349.38,217.644 348.5,219C 343.382,220.395 338.715,222.562 334.5,225.5C 332.297,225.604 330.297,226.27 328.5,227.5C 323.747,229.223 319.08,230.89 314.5,232.5C 310.96,232.753 307.627,233.419 304.5,234.5C 290.481,237.394 277.148,242.061 264.5,248.5C 265.665,249.584 266.998,250.417 268.5,251C 268.272,251.399 267.938,251.565 267.5,251.5C 261.429,248.897 255.095,247.064 248.5,246C 245.688,244.672 243.022,243.172 240.5,241.5C 242.321,240.883 244.321,240.716 246.5,241C 247.381,240.292 248.047,239.458 248.5,238.5C 251.391,239.403 254.391,239.736 257.5,239.5C 263.861,238.567 270.194,237.4 276.5,236C 282.167,235.667 287.833,235.333 293.5,235C 296.5,233.333 298.833,231 300.5,228C 308.232,226.073 315.565,223.239 322.5,219.5C 323.797,217.027 323.797,214.693 322.5,212.5C 321.508,212.672 320.842,212.338 320.5,211.5C 319.167,209.833 317.833,208.167 316.5,206.5C 319.436,208.098 322.103,210.098 324.5,212.5C 326.421,213.641 328.421,213.808 330.5,213C 331.958,210.54 333.791,208.373 336,206.5C 336.667,204.5 336.667,202.5 336,200.5C 334.519,199.529 333.685,198.196 333.5,196.5 Z"/></g>
<g><path style="opacity:1" fill="#a5774e" d="M 335.5,210.5 C 343.408,212.71 351.408,213.043 359.5,211.5C 359.167,212.167 358.833,212.833 358.5,213.5C 355.287,213.19 352.287,213.523 349.5,214.5C 344.807,214.46 340.141,214.127 335.5,213.5C 335.5,212.5 335.5,211.5 335.5,210.5 Z"/></g>
<g><path style="opacity:1" fill="#c09e96" d="M 279.5,209.5 C 279.833,209.5 280.167,209.5 280.5,209.5C 280.5,210.167 280.5,210.833 280.5,211.5C 278.436,211.687 276.436,212.187 274.5,213C 271.038,215.415 267.705,217.915 264.5,220.5C 260.46,224.542 256.127,228.209 251.5,231.5C 251.5,230.833 251.5,230.167 251.5,229.5C 253.909,228.299 255.909,226.633 257.5,224.5C 258.167,222.833 258.833,221.167 259.5,219.5C 262.391,218.459 265.058,217.126 267.5,215.5C 269.38,215.771 270.713,215.104 271.5,213.5C 272.728,212.694 273.728,211.694 274.5,210.5C 276.292,210.634 277.958,210.301 279.5,209.5 Z"/></g>
<g><path style="opacity:1" fill="#dce4e7" d="M 320.5,211.5 C 320.842,212.338 321.508,212.672 322.5,212.5C 322.714,214.144 322.38,215.644 321.5,217C 315.755,220.191 309.755,222.691 303.5,224.5C 301.547,218.926 300.88,212.926 301.5,206.5C 307.916,207.847 314.25,209.514 320.5,211.5 Z"/></g>
<g><path style="opacity:1" fill="#e4e6e3" d="M 228.5,208.5 C 228.5,212.167 228.5,215.833 228.5,219.5C 226.585,219.216 224.919,219.549 223.5,220.5C 219.342,221.539 215.342,221.539 211.5,220.5C 213.185,218.182 215.519,217.182 218.5,217.5C 218.201,215.396 218.534,213.396 219.5,211.5C 221.5,212.5 223.5,213.5 225.5,214.5C 226.801,212.556 227.801,210.556 228.5,208.5 Z"/></g>
<g><path style="opacity:1" fill="#dba07d" d="M 225.5,200.5 C 226.833,200.5 228.167,200.5 229.5,200.5C 229.5,205.167 229.5,209.833 229.5,214.5C 229.384,217.86 229.051,221.193 228.5,224.5C 227.566,223.432 227.232,222.099 227.5,220.5C 226.167,220.5 224.833,220.5 223.5,220.5C 224.919,219.549 226.585,219.216 228.5,219.5C 228.5,215.833 228.5,212.167 228.5,208.5C 228.808,206.076 228.474,203.743 227.5,201.5C 226.583,202.127 225.583,202.461 224.5,202.5C 224.833,201.833 225.167,201.167 225.5,200.5 Z"/></g>
<g><path style="opacity:1" fill="#9fa4a8" d="M 280.5,211.5 C 281.369,213.717 281.702,216.05 281.5,218.5C 278.744,216.788 275.744,216.288 272.5,217C 270.963,218.11 270.297,219.61 270.5,221.5C 268.379,221.675 266.379,221.341 264.5,220.5C 267.705,217.915 271.038,215.415 274.5,213C 276.436,212.187 278.436,211.687 280.5,211.5 Z"/></g>
<g><path style="opacity:1" fill="#cc8a48" d="M 358.5,213.5 C 363.947,216.871 369.947,218.871 376.5,219.5C 366.36,224.212 355.693,227.545 344.5,229.5C 341.47,227.597 338.137,226.263 334.5,225.5C 338.715,222.562 343.382,220.395 348.5,219C 349.38,217.644 349.714,216.144 349.5,214.5C 352.287,213.523 355.287,213.19 358.5,213.5 Z"/></g>
<g><path style="opacity:1" fill="#9c5f2b" d="M 443.5,203.5 C 443.5,207.5 443.5,211.5 443.5,215.5C 442.167,215.5 441.5,216.167 441.5,217.5C 437.272,217.744 433.272,218.744 429.5,220.5C 429.756,218.208 429.423,216.041 428.5,214C 423.105,212.869 418.105,213.702 413.5,216.5C 417.167,217.167 420.833,217.833 424.5,218.5C 421.441,221.409 417.774,222.743 413.5,222.5C 413.5,223.833 413.5,225.167 413.5,226.5C 414.873,226.343 416.207,226.51 417.5,227C 414.307,228.026 412.974,230.192 413.5,233.5C 403.331,237.222 392.998,240.556 382.5,243.5C 381.614,242.675 381.281,241.675 381.5,240.5C 385.56,240.515 389.56,240.015 393.5,239C 398.855,235.882 404.522,233.549 410.5,232C 411.38,230.644 411.714,229.144 411.5,227.5C 402.746,229.522 394.079,231.855 385.5,234.5C 385.5,234.167 385.5,233.833 385.5,233.5C 387.308,232.093 389.308,230.926 391.5,230C 397.9,228.587 404.234,226.92 410.5,225C 412.155,223.556 412.822,221.722 412.5,219.5C 402.242,222.197 392.075,225.197 382,228.5C 381.617,227.944 381.117,227.611 380.5,227.5C 380.565,227.062 380.399,226.728 380,226.5C 369.692,231.736 359.525,237.069 349.5,242.5C 349.5,239.5 349.5,236.5 349.5,233.5C 377.377,223.486 405.71,214.986 434.5,208C 437.495,206.502 440.495,205.002 443.5,203.5 Z"/></g>
<g><path style="opacity:1" fill="#c2803b" d="M 83.5,196.5 C 104.323,205.656 124.99,214.989 145.5,224.5C 138.433,223.763 131.1,222.596 123.5,221C 121.238,219.953 119.071,218.787 117,217.5C 115.856,217.911 114.689,218.244 113.5,218.5C 103.094,214.133 92.7604,209.466 82.5,204.5C 82.1667,203.167 81.8333,201.833 81.5,200.5C 81.5854,198.667 82.2521,197.334 83.5,196.5 Z"/></g>
<g><path style="opacity:0.314" fill="#e2c8a9" d="M 80.5,195.5 C 78.3987,207.532 81.0653,218.199 88.5,227.5C 84.8848,225.979 82.3848,223.313 81,219.5C 80.023,217.26 79.523,214.927 79.5,212.5C 79.1778,206.642 79.5111,200.975 80.5,195.5 Z"/></g>
<g><path style="opacity:1" fill="#b5733a" d="M 191.5,187.5 C 191.601,193.357 191.267,199.19 190.5,205C 190.408,207.821 191.074,210.321 192.5,212.5C 194.724,218.885 199.224,222.552 206,223.5C 208.183,223.478 209.683,222.478 210.5,220.5C 210.833,220.5 211.167,220.5 211.5,220.5C 215.342,221.539 219.342,221.539 223.5,220.5C 224.833,220.5 226.167,220.5 227.5,220.5C 227.232,222.099 227.566,223.432 228.5,224.5C 229.791,228.646 231.791,232.479 234.5,236C 233.906,236.464 233.239,236.631 232.5,236.5C 224.939,234.091 217.273,232.091 209.5,230.5C 208.22,229.069 206.553,228.402 204.5,228.5C 196.894,225.696 189.56,222.362 182.5,218.5C 178.167,215.167 173.833,211.833 169.5,208.5C 169.5,208.167 169.5,207.833 169.5,207.5C 175.552,208.664 181.552,208.164 187.5,206C 189.314,203.519 189.98,200.685 189.5,197.5C 189.5,196.5 189.5,195.5 189.5,194.5C 190.167,192.167 190.833,189.833 191.5,187.5 Z"/></g>
<g><path style="opacity:0.78" fill="#b99577" d="M 443.5,215.5 C 444.164,221.189 442.83,226.189 439.5,230.5C 440.167,226.167 440.833,221.833 441.5,217.5C 441.5,216.167 442.167,215.5 443.5,215.5 Z"/></g>
<g><path style="opacity:1" fill="#b6afaa" d="M 300.5,202.5 C 306.086,203.193 311.42,204.527 316.5,206.5C 317.833,208.167 319.167,209.833 320.5,211.5C 314.25,209.514 307.916,207.847 301.5,206.5C 300.88,212.926 301.547,218.926 303.5,224.5C 302.486,225.674 301.153,226.34 299.5,226.5C 300.365,218.534 300.698,210.534 300.5,202.5 Z"/></g>
<g><path style="opacity:1" fill="#b27334" d="M 80.5,195.5 C 81.791,195.263 82.791,195.596 83.5,196.5C 82.2521,197.334 81.5854,198.667 81.5,200.5C 81.8333,201.833 82.1667,203.167 82.5,204.5C 92.7604,209.466 103.094,214.133 113.5,218.5C 114.689,218.244 115.856,217.911 117,217.5C 119.071,218.787 121.238,219.953 123.5,221C 131.1,222.596 138.433,223.763 145.5,224.5C 148.272,224.759 150.605,225.759 152.5,227.5C 143.896,227.302 135.563,225.635 127.5,222.5C 126.479,223.002 126.312,223.668 127,224.5C 129.833,226.667 132.667,228.833 135.5,231C 141.701,233.033 148.034,234.699 154.5,236C 148.464,235.996 142.464,235.329 136.5,234C 133.113,230.947 129.447,228.28 125.5,226C 110.899,219.69 96.3991,213.19 82,206.5C 81.2563,209.871 81.7563,213.037 83.5,216C 101.468,222.154 118.801,229.654 135.5,238.5C 137.014,241.692 138.68,244.859 140.5,248C 139.906,248.464 139.239,248.631 138.5,248.5C 137.791,247.596 136.791,247.263 135.5,247.5C 136.091,246.849 136.757,246.182 137.5,245.5C 136.552,243.056 135.052,241.056 133,239.5C 121.318,234.409 109.818,228.909 98.5,223C 94.1066,220.456 89.4399,219.123 84.5,219C 85.1258,219.75 85.6258,220.584 86,221.5C 95.927,224.299 104.427,229.299 111.5,236.5C 110.167,236.5 108.833,236.5 107.5,236.5C 105.824,234.166 103.491,233.166 100.5,233.5C 98.3765,231.203 95.7099,229.87 92.5,229.5C 90.847,229.34 89.5137,228.674 88.5,227.5C 81.0653,218.199 78.3987,207.532 80.5,195.5 Z"/></g>
<g><path style="opacity:1" fill="#af7138" d="M 385.5,233.5 C 383.883,234.038 382.216,234.371 380.5,234.5C 380.5,232.167 380.5,229.833 380.5,227.5C 381.117,227.611 381.617,227.944 382,228.5C 392.075,225.197 402.242,222.197 412.5,219.5C 412.822,221.722 412.155,223.556 410.5,225C 404.234,226.92 397.9,228.587 391.5,230C 389.308,230.926 387.308,232.093 385.5,233.5 Z"/></g>
<g><path style="opacity:1" fill="#c8d6de" d="M 281.5,218.5 C 281.5,223.167 281.5,227.833 281.5,232.5C 280.791,233.404 279.791,233.737 278.5,233.5C 280.273,230.512 280.94,227.179 280.5,223.5C 279.448,223.351 278.448,223.517 277.5,224C 276.48,225.556 275.147,226.722 273.5,227.5C 270.061,228.142 266.728,229.142 263.5,230.5C 261.519,230.563 259.852,229.896 258.5,228.5C 256.914,230.173 256.247,232.173 256.5,234.5C 254.856,234.286 253.356,234.62 252,235.5C 251.536,234.906 251.369,234.239 251.5,233.5C 251.5,232.833 251.5,232.167 251.5,231.5C 256.127,228.209 260.46,224.542 264.5,220.5C 266.379,221.341 268.379,221.675 270.5,221.5C 270.297,219.61 270.963,218.11 272.5,217C 275.744,216.288 278.744,216.788 281.5,218.5 Z"/></g>
<g><path style="opacity:1" fill="#955826" d="M 441.5,217.5 C 440.833,221.833 440.167,226.167 439.5,230.5C 439.262,232.404 438.262,233.738 436.5,234.5C 431.274,238.648 425.274,240.981 418.5,241.5C 416.143,241.337 413.81,241.503 411.5,242C 403.61,245.518 395.443,248.351 387,250.5C 385.124,250.475 383.624,249.809 382.5,248.5C 391.959,245.07 401.626,241.903 411.5,239C 413.192,237.599 413.859,235.766 413.5,233.5C 412.974,230.192 414.307,228.026 417.5,227C 416.207,226.51 414.873,226.343 413.5,226.5C 413.5,225.167 413.5,223.833 413.5,222.5C 417.774,222.743 421.441,221.409 424.5,218.5C 420.833,217.833 417.167,217.167 413.5,216.5C 418.105,213.702 423.105,212.869 428.5,214C 429.423,216.041 429.756,218.208 429.5,220.5C 433.272,218.744 437.272,217.744 441.5,217.5 Z"/></g>
<g><path style="opacity:1" fill="#f68042" d="M 251.5,229.5 C 251.5,230.167 251.5,230.833 251.5,231.5C 248.908,233.036 247.908,235.369 248.5,238.5C 248.047,239.458 247.381,240.292 246.5,241C 244.321,240.716 242.321,240.883 240.5,241.5C 238.293,238.933 235.627,237.267 232.5,236.5C 233.239,236.631 233.906,236.464 234.5,236C 231.791,232.479 229.791,228.646 228.5,224.5C 229.051,221.193 229.384,217.86 229.5,214.5C 230.949,209.372 232.616,209.372 234.5,214.5C 235.366,217.254 236.533,219.921 238,222.5C 238.494,220.866 238.66,219.199 238.5,217.5C 238.336,214.813 238.503,212.146 239,209.5C 240.05,206.76 241.883,205.26 244.5,205C 246.047,213.345 248.38,221.512 251.5,229.5 Z"/></g>
<g><path style="opacity:1" fill="#925424" d="M 380.5,227.5 C 380.5,229.833 380.5,232.167 380.5,234.5C 382.216,234.371 383.883,234.038 385.5,233.5C 385.5,233.833 385.5,234.167 385.5,234.5C 384.152,235.601 382.652,236.601 381,237.5C 380.501,241.821 380.334,246.154 380.5,250.5C 371.954,250.236 363.954,252.236 356.5,256.5C 355.614,255.675 355.281,254.675 355.5,253.5C 353.5,253.5 351.5,253.5 349.5,253.5C 349.162,251.146 348.662,248.813 348,246.5C 345.345,248.053 342.512,249.22 339.5,250C 331.727,250.13 324.061,250.964 316.5,252.5C 313.824,253.008 311.157,253.175 308.5,253C 311.202,252.16 313.868,251.327 316.5,250.5C 324.764,249.007 333.098,247.84 341.5,247C 344.356,245.741 347.023,244.241 349.5,242.5C 359.525,237.069 369.692,231.736 380,226.5C 380.399,226.728 380.565,227.062 380.5,227.5 Z"/></g>
<g><path style="opacity:1" fill="#c48139" d="M 135.5,247.5 C 134.833,247.5 134.167,247.5 133.5,247.5C 132.391,247.443 131.391,247.11 130.5,246.5C 128.786,245.262 126.786,244.595 124.5,244.5C 120.334,241.583 116.001,238.916 111.5,236.5C 104.427,229.299 95.927,224.299 86,221.5C 85.6258,220.584 85.1258,219.75 84.5,219C 89.4399,219.123 94.1066,220.456 98.5,223C 109.818,228.909 121.318,234.409 133,239.5C 135.052,241.056 136.552,243.056 137.5,245.5C 136.757,246.182 136.091,246.849 135.5,247.5 Z"/></g>
<g><path style="opacity:1" fill="#dde7eb" d="M 278.5,233.5 C 271.445,235.014 264.445,236.681 257.5,238.5C 255.167,238.5 252.833,238.5 250.5,238.5C 250.216,236.585 250.549,234.919 251.5,233.5C 251.369,234.239 251.536,234.906 252,235.5C 253.356,234.62 254.856,234.286 256.5,234.5C 256.247,232.173 256.914,230.173 258.5,228.5C 259.852,229.896 261.519,230.563 263.5,230.5C 266.728,229.142 270.061,228.142 273.5,227.5C 275.147,226.722 276.48,225.556 277.5,224C 278.448,223.517 279.448,223.351 280.5,223.5C 280.94,227.179 280.273,230.512 278.5,233.5 Z"/></g>
<g><path style="opacity:1" fill="#cc8b44" d="M 328.5,227.5 C 329.96,229.463 331.627,231.296 333.5,233C 331.256,233.906 328.923,234.406 326.5,234.5C 322.618,233.231 318.618,232.565 314.5,232.5C 319.08,230.89 323.747,229.223 328.5,227.5 Z"/></g>
<g><path style="opacity:0.796" fill="#cdac8a" d="M 92.5,229.5 C 95.7099,229.87 98.3765,231.203 100.5,233.5C 97.279,233.104 94.6123,231.771 92.5,229.5 Z"/></g>
<g><path style="opacity:0.82" fill="#cfb18d" d="M 100.5,233.5 C 103.491,233.166 105.824,234.166 107.5,236.5C 104.843,236.065 102.509,235.065 100.5,233.5 Z"/></g>
<g><path style="opacity:1" fill="#e7a964" d="M 334.5,225.5 C 338.137,226.263 341.47,227.597 344.5,229.5C 337.916,233.817 330.583,235.984 322.5,236C 319.29,237.772 315.956,239.272 312.5,240.5C 310.143,238.151 307.477,236.151 304.5,234.5C 307.627,233.419 310.96,232.753 314.5,232.5C 318.618,232.565 322.618,233.231 326.5,234.5C 328.923,234.406 331.256,233.906 333.5,233C 331.627,231.296 329.96,229.463 328.5,227.5C 330.297,226.27 332.297,225.604 334.5,225.5 Z"/></g>
<g><path style="opacity:1" fill="#a77950" d="M 322.5,212.5 C 323.797,214.693 323.797,217.027 322.5,219.5C 315.565,223.239 308.232,226.073 300.5,228C 298.833,231 296.5,233.333 293.5,235C 287.833,235.333 282.167,235.667 276.5,236C 270.194,237.4 263.861,238.567 257.5,239.5C 257.5,239.167 257.5,238.833 257.5,238.5C 264.445,236.681 271.445,235.014 278.5,233.5C 279.791,233.737 280.791,233.404 281.5,232.5C 282.167,232.5 282.833,232.5 283.5,232.5C 283.611,233.117 283.944,233.617 284.5,234C 291.411,235.211 296.411,232.711 299.5,226.5C 301.153,226.34 302.486,225.674 303.5,224.5C 309.755,222.691 315.755,220.191 321.5,217C 322.38,215.644 322.714,214.144 322.5,212.5 Z"/></g>
<g><path style="opacity:0.824" fill="#e7cfb2" d="M 107.5,236.5 C 108.833,236.5 110.167,236.5 111.5,236.5C 116.001,238.916 120.334,241.583 124.5,244.5C 118.413,242.622 112.746,239.955 107.5,236.5 Z"/></g>
<g><path style="opacity:1" fill="#c27f38" d="M 152.5,227.5 C 158.36,228.766 163.693,231.1 168.5,234.5C 163.087,233.213 157.921,231.213 153,228.5C 151.189,229.078 149.355,229.578 147.5,230C 153.388,233.478 159.721,236.311 166.5,238.5C 169.015,240.969 172.015,242.802 175.5,244C 176.696,244.654 176.696,245.154 175.5,245.5C 171.167,243.667 166.833,241.833 162.5,240C 160.888,239.28 159.388,239.446 158,240.5C 150.682,238.143 143.182,236.476 135.5,235.5C 135.5,236.5 135.5,237.5 135.5,238.5C 118.801,229.654 101.468,222.154 83.5,216C 81.7563,213.037 81.2563,209.871 82,206.5C 96.3991,213.19 110.899,219.69 125.5,226C 129.447,228.28 133.113,230.947 136.5,234C 142.464,235.329 148.464,235.996 154.5,236C 148.034,234.699 141.701,233.033 135.5,231C 132.667,228.833 129.833,226.667 127,224.5C 126.312,223.668 126.479,223.002 127.5,222.5C 135.563,225.635 143.896,227.302 152.5,227.5 Z"/></g>
<g><path style="opacity:1" fill="#dcb5a3" d="M 251.5,231.5 C 251.5,232.167 251.5,232.833 251.5,233.5C 250.549,234.919 250.216,236.585 250.5,238.5C 252.833,238.5 255.167,238.5 257.5,238.5C 257.5,238.833 257.5,239.167 257.5,239.5C 254.391,239.736 251.391,239.403 248.5,238.5C 247.908,235.369 248.908,233.036 251.5,231.5 Z"/></g>
<g><path style="opacity:1" fill="#cb8c45" d="M 204.5,228.5 C 206.553,228.402 208.22,229.069 209.5,230.5C 205.775,230.78 204.608,232.78 206,236.5C 206.5,237 207,237.5 207.5,238C 212.5,238.333 217.5,238.667 222.5,239C 232.948,243.057 243.282,247.391 253.5,252C 242.721,248.958 232.054,245.292 221.5,241C 217.129,240.172 212.795,240.339 208.5,241.5C 209.901,242.521 211.235,243.521 212.5,244.5C 210.784,244.371 209.117,244.038 207.5,243.5C 203.03,239.862 199.03,235.695 195.5,231C 184.954,227.029 174.287,223.362 163.5,220C 160.833,218.333 158.167,216.667 155.5,215C 167.799,219.879 180.466,224.212 193.5,228C 197.408,230.032 200.575,232.866 203,236.5C 203.395,233.793 203.895,231.127 204.5,228.5 Z"/></g>
<g><path style="opacity:1" fill="#cd8d4e" d="M 304.5,234.5 C 307.477,236.151 310.143,238.151 312.5,240.5C 299.292,243.553 286.292,247.386 273.5,252C 271.527,252.495 269.527,252.662 267.5,252.5C 267.5,252.167 267.5,251.833 267.5,251.5C 267.938,251.565 268.272,251.399 268.5,251C 266.998,250.417 265.665,249.584 264.5,248.5C 277.148,242.061 290.481,237.394 304.5,234.5 Z"/></g>
<g><path style="opacity:1" fill="#ad7037" d="M 413.5,233.5 C 413.859,235.766 413.192,237.599 411.5,239C 401.626,241.903 391.959,245.07 382.5,248.5C 381.833,249.833 381.167,251.167 380.5,252.5C 377.482,252.665 374.482,252.498 371.5,252C 374.695,251.819 377.695,251.319 380.5,250.5C 380.334,246.154 380.501,241.821 381,237.5C 382.652,236.601 384.152,235.601 385.5,234.5C 394.079,231.855 402.746,229.522 411.5,227.5C 411.714,229.144 411.38,230.644 410.5,232C 404.522,233.549 398.855,235.882 393.5,239C 389.56,240.015 385.56,240.515 381.5,240.5C 381.281,241.675 381.614,242.675 382.5,243.5C 392.998,240.556 403.331,237.222 413.5,233.5 Z"/></g>
<g><path style="opacity:0.11" fill="#eadcc9" d="M 436.5,234.5 C 435.26,236.988 433.26,238.821 430.5,240C 422.902,242.478 415.236,244.645 407.5,246.5C 411.083,244.64 414.749,242.973 418.5,241.5C 425.274,240.981 431.274,238.648 436.5,234.5 Z"/></g>
<g><path style="opacity:1" fill="#af6f30" d="M 349.5,233.5 C 349.5,236.5 349.5,239.5 349.5,242.5C 347.023,244.241 344.356,245.741 341.5,247C 333.098,247.84 324.764,249.007 316.5,250.5C 316.5,248.5 316.5,246.5 316.5,244.5C 313.873,245.092 311.206,245.425 308.5,245.5C 321.738,240.312 335.405,236.312 349.5,233.5 Z"/></g>
<g><path style="opacity:0.01" fill="#faf0e3" d="M 124.5,244.5 C 126.786,244.595 128.786,245.262 130.5,246.5C 128.102,246.741 126.102,246.074 124.5,244.5 Z"/></g>
<g><path style="opacity:1" fill="#e7a862" d="M 209.5,230.5 C 217.273,232.091 224.939,234.091 232.5,236.5C 235.627,237.267 238.293,238.933 240.5,241.5C 243.022,243.172 245.688,244.672 248.5,246C 255.095,247.064 261.429,248.897 267.5,251.5C 267.5,251.833 267.5,252.167 267.5,252.5C 266.833,252.5 266.5,252.833 266.5,253.5C 263.898,255.451 261.064,255.784 258,254.5C 254.011,256.599 249.844,258.265 245.5,259.5C 244.416,259.315 243.416,258.982 242.5,258.5C 232.741,253.287 222.741,248.62 212.5,244.5C 211.235,243.521 209.901,242.521 208.5,241.5C 212.795,240.339 217.129,240.172 221.5,241C 232.054,245.292 242.721,248.958 253.5,252C 243.282,247.391 232.948,243.057 222.5,239C 217.5,238.667 212.5,238.333 207.5,238C 207,237.5 206.5,237 206,236.5C 204.608,232.78 205.775,230.78 209.5,230.5 Z"/></g>
<g><path style="opacity:0.933" fill="#dab897" d="M 133.5,247.5 C 134.167,247.5 134.833,247.5 135.5,247.5C 136.791,247.263 137.791,247.596 138.5,248.5C 138.833,249.167 139.167,249.833 139.5,250.5C 137.181,250.008 135.181,249.008 133.5,247.5 Z"/></g>
<g><path style="opacity:1" fill="#a67a56" d="M 418.5,241.5 C 414.749,242.973 411.083,244.64 407.5,246.5C 399.218,249.039 390.884,251.372 382.5,253.5C 381.833,253.5 381.167,253.5 380.5,253.5C 380.5,253.167 380.5,252.833 380.5,252.5C 381.167,251.167 381.833,249.833 382.5,248.5C 383.624,249.809 385.124,250.475 387,250.5C 395.443,248.351 403.61,245.518 411.5,242C 413.81,241.503 416.143,241.337 418.5,241.5 Z"/></g>
<g><path style="opacity:0.835" fill="#e8d0b1" d="M 144.5,252.5 C 154.775,256.307 164.775,260.64 174.5,265.5C 163.924,262.315 153.924,257.981 144.5,252.5 Z"/></g>
<g><path style="opacity:1" fill="#c38039" d="M 168.5,234.5 C 185.801,240.486 202.468,247.819 218.5,256.5C 215.824,255.992 213.157,255.825 210.5,256C 220.865,260.186 231.199,264.353 241.5,268.5C 241.5,268.833 241.5,269.167 241.5,269.5C 241.688,271.103 241.188,272.437 240,273.5C 227.946,267.058 215.446,261.558 202.5,257C 200.5,256.333 198.5,256.333 196.5,257C 202.253,258.385 207.586,260.551 212.5,263.5C 206.658,262.003 200.824,260.337 195,258.5C 193.128,259.068 191.295,259.735 189.5,260.5C 188.893,260.376 188.56,260.043 188.5,259.5C 188.918,258.778 189.584,258.278 190.5,258C 189.167,257.833 187.833,257.667 186.5,257.5C 181.517,258.423 176.517,258.59 171.5,258C 165.167,255.667 158.833,253.333 152.5,251C 150.651,249.907 148.984,248.574 147.5,247C 151.572,246.342 155.572,246.675 159.5,248C 163.178,251.033 167.178,252.533 171.5,252.5C 165.669,248.585 159.335,245.752 152.5,244C 144.935,243.072 143.601,245.572 148.5,251.5C 145.482,251.296 142.482,250.963 139.5,250.5C 139.167,249.833 138.833,249.167 138.5,248.5C 139.239,248.631 139.906,248.464 140.5,248C 138.68,244.859 137.014,241.692 135.5,238.5C 135.5,237.5 135.5,236.5 135.5,235.5C 143.182,236.476 150.682,238.143 158,240.5C 159.388,239.446 160.888,239.28 162.5,240C 166.833,241.833 171.167,243.667 175.5,245.5C 176.696,245.154 176.696,244.654 175.5,244C 172.015,242.802 169.015,240.969 166.5,238.5C 159.721,236.311 153.388,233.478 147.5,230C 149.355,229.578 151.189,229.078 153,228.5C 157.921,231.213 163.087,233.213 168.5,234.5 Z"/></g>
<g><path style="opacity:1" fill="#996133" d="M 380.5,250.5 C 377.695,251.319 374.695,251.819 371.5,252C 374.482,252.498 377.482,252.665 380.5,252.5C 380.5,252.833 380.5,253.167 380.5,253.5C 376.617,254.459 372.95,255.792 369.5,257.5C 362.094,258.851 354.761,260.518 347.5,262.5C 349.242,259.855 349.909,256.855 349.5,253.5C 351.5,253.5 353.5,253.5 355.5,253.5C 355.281,254.675 355.614,255.675 356.5,256.5C 363.954,252.236 371.954,250.236 380.5,250.5 Z"/></g>
<g><path style="opacity:1" fill="#995c2a" d="M 316.5,250.5 C 313.868,251.327 311.202,252.16 308.5,253C 311.157,253.175 313.824,253.008 316.5,252.5C 316.5,254.833 316.5,257.167 316.5,259.5C 321.201,257.991 325.868,256.158 330.5,254C 339.172,251.187 342.506,254.02 340.5,262.5C 342.045,263.452 343.712,263.785 345.5,263.5C 343.833,264.167 342.167,264.833 340.5,265.5C 338.786,266.738 336.786,267.405 334.5,267.5C 328.139,268.334 321.806,269.501 315.5,271C 313.456,271.498 312.122,272.665 311.5,274.5C 309.302,274.12 307.635,274.787 306.5,276.5C 296.981,278.797 287.648,281.464 278.5,284.5C 271.252,286.812 263.919,288.812 256.5,290.5C 251.338,291.124 246.171,291.791 241,292.5C 239.615,292.486 238.449,292.152 237.5,291.5C 238.5,291.5 239.5,291.5 240.5,291.5C 240.5,290.5 240.5,289.5 240.5,288.5C 251.938,287.501 262.938,284.335 273.5,279C 277.204,278.196 280.704,278.696 284,280.5C 285.415,277.042 285.915,273.375 285.5,269.5C 283.345,269.372 281.345,269.872 279.5,271C 270.977,279.712 260.643,283.045 248.5,281C 246.156,280.163 244.156,278.829 242.5,277C 245.678,277.917 249.012,278.751 252.5,279.5C 262.933,280.062 271.6,276.562 278.5,269C 280.65,267.589 282.984,266.755 285.5,266.5C 285.5,264.5 285.5,262.5 285.5,260.5C 276.084,262.038 267.418,265.538 259.5,271C 253.29,272.021 247.29,271.521 241.5,269.5C 241.5,269.167 241.5,268.833 241.5,268.5C 246.071,269.977 250.738,270.477 255.5,270C 261.745,267.405 267.745,264.405 273.5,261C 277.378,259.53 281.378,258.697 285.5,258.5C 285.5,256.5 285.5,254.5 285.5,252.5C 293.066,249.886 300.733,247.553 308.5,245.5C 311.206,245.425 313.873,245.092 316.5,244.5C 316.5,246.5 316.5,248.5 316.5,250.5 Z"/></g>
<g><path style="opacity:1" fill="#c0874c" d="M 139.5,250.5 C 142.482,250.963 145.482,251.296 148.5,251.5C 154.193,252.786 159.526,254.953 164.5,258C 167.168,258.567 169.834,259.067 172.5,259.5C 172.628,261.09 173.295,262.423 174.5,263.5C 179.684,265.594 184.684,267.927 189.5,270.5C 188.167,270.5 186.833,270.5 185.5,270.5C 181.407,269.618 177.74,267.951 174.5,265.5C 164.775,260.64 154.775,256.307 144.5,252.5C 142.597,252.204 140.93,251.537 139.5,250.5 Z"/></g>
<g><path style="opacity:0.298" fill="#ddc8b4" d="M 380.5,253.5 C 381.167,253.5 381.833,253.5 382.5,253.5C 378.498,255.61 374.165,256.943 369.5,257.5C 372.95,255.792 376.617,254.459 380.5,253.5 Z"/></g>
<g><path style="opacity:1" fill="#ae7139" d="M 349.5,253.5 C 349.909,256.855 349.242,259.855 347.5,262.5C 346.833,262.833 346.167,263.167 345.5,263.5C 343.712,263.785 342.045,263.452 340.5,262.5C 342.506,254.02 339.172,251.187 330.5,254C 325.868,256.158 321.201,257.991 316.5,259.5C 316.5,257.167 316.5,254.833 316.5,252.5C 324.061,250.964 331.727,250.13 339.5,250C 342.512,249.22 345.345,248.053 348,246.5C 348.662,248.813 349.162,251.146 349.5,253.5 Z"/></g>
<g><path style="opacity:1" fill="#ac6a2b" d="M 330.5,256.5 C 333.167,256.5 335.833,256.5 338.5,256.5C 338.822,258.722 338.155,260.556 336.5,262C 330.91,263.191 325.91,265.524 321.5,269C 320.207,269.49 318.873,269.657 317.5,269.5C 317.496,264.971 319.496,261.471 323.5,259C 326.104,258.61 328.438,257.776 330.5,256.5 Z"/></g>
<g><path style="opacity:1" fill="#b06f2c" d="M 188.5,259.5 C 185.656,260.058 182.822,260.725 180,261.5C 177.403,261.06 174.903,260.393 172.5,259.5C 169.834,259.067 167.168,258.567 164.5,258C 159.526,254.953 154.193,252.786 148.5,251.5C 143.601,245.572 144.935,243.072 152.5,244C 159.335,245.752 165.669,248.585 171.5,252.5C 167.178,252.533 163.178,251.033 159.5,248C 155.572,246.675 151.572,246.342 147.5,247C 148.984,248.574 150.651,249.907 152.5,251C 158.833,253.333 165.167,255.667 171.5,258C 176.517,258.59 181.517,258.423 186.5,257.5C 187.833,257.667 189.167,257.833 190.5,258C 189.584,258.278 188.918,258.778 188.5,259.5 Z"/></g>
<g><path style="opacity:1" fill="#c47e35" d="M 212.5,263.5 C 221.857,268.013 231.523,271.679 241.5,274.5C 241.693,278.013 241.026,281.346 239.5,284.5C 234.319,280.315 228.653,276.981 222.5,274.5C 218.055,271.303 213.055,269.803 207.5,270C 209.833,271 212.167,272 214.5,273C 210.779,273.672 207.445,274.839 204.5,276.5C 202.412,275.061 200.079,274.394 197.5,274.5C 194.515,273.674 191.849,272.341 189.5,270.5C 184.684,267.927 179.684,265.594 174.5,263.5C 173.295,262.423 172.628,261.09 172.5,259.5C 174.903,260.393 177.403,261.06 180,261.5C 182.822,260.725 185.656,260.058 188.5,259.5C 188.56,260.043 188.893,260.376 189.5,260.5C 191.295,259.735 193.128,259.068 195,258.5C 200.824,260.337 206.658,262.003 212.5,263.5 Z"/></g>
<g><path style="opacity:0.231" fill="#e4d0bb" d="M 369.5,257.5 C 360.238,261.361 350.571,264.028 340.5,265.5C 342.167,264.833 343.833,264.167 345.5,263.5C 346.167,263.167 346.833,262.833 347.5,262.5C 354.761,260.518 362.094,258.851 369.5,257.5 Z"/></g>
<g><path style="opacity:1" fill="#b17133" d="M 285.5,252.5 C 285.5,254.5 285.5,256.5 285.5,258.5C 281.378,258.697 277.378,259.53 273.5,261C 267.745,264.405 261.745,267.405 255.5,270C 250.738,270.477 246.071,269.977 241.5,268.5C 231.199,264.353 220.865,260.186 210.5,256C 213.157,255.825 215.824,255.992 218.5,256.5C 224.06,257.631 229.393,259.464 234.5,262C 240.5,262.667 246.5,262.667 252.5,262C 257.749,259.873 263.082,258.04 268.5,256.5C 274.09,254.874 279.756,253.541 285.5,252.5 Z"/></g>
<g><path style="opacity:0.906" fill="#dfc09b" d="M 185.5,270.5 C 186.833,270.5 188.167,270.5 189.5,270.5C 191.849,272.341 194.515,273.674 197.5,274.5C 198.694,275.272 199.694,276.272 200.5,277.5C 195.07,275.95 190.07,273.616 185.5,270.5 Z"/></g>
<g><path style="opacity:1" fill="#b08665" d="M 334.5,267.5 C 327.784,270.405 320.784,272.739 313.5,274.5C 312.833,274.5 312.167,274.5 311.5,274.5C 312.122,272.665 313.456,271.498 315.5,271C 321.806,269.501 328.139,268.334 334.5,267.5 Z"/></g>
<g><path style="opacity:0.333" fill="#dcc7b4" d="M 311.5,274.5 C 312.167,274.5 312.833,274.5 313.5,274.5C 311.485,275.924 309.152,276.59 306.5,276.5C 307.635,274.787 309.302,274.12 311.5,274.5 Z"/></g>
<g><path style="opacity:1" fill="#c5945f" d="M 197.5,274.5 C 200.079,274.394 202.412,275.061 204.5,276.5C 208.677,278.466 213.01,280.466 217.5,282.5C 218.298,282.957 218.631,283.624 218.5,284.5C 216.901,284.768 215.568,284.434 214.5,283.5C 211.912,281.375 208.912,280.042 205.5,279.5C 203.447,279.598 201.78,278.931 200.5,277.5C 199.694,276.272 198.694,275.272 197.5,274.5 Z"/></g>
<g><path style="opacity:1" fill="#b07031" d="M 241.5,269.5 C 247.29,271.521 253.29,272.021 259.5,271C 267.418,265.538 276.084,262.038 285.5,260.5C 285.5,262.5 285.5,264.5 285.5,266.5C 282.984,266.755 280.65,267.589 278.5,269C 271.6,276.562 262.933,280.062 252.5,279.5C 249.012,278.751 245.678,277.917 242.5,277C 244.156,278.829 246.156,280.163 248.5,281C 260.643,283.045 270.977,279.712 279.5,271C 281.345,269.872 283.345,269.372 285.5,269.5C 285.915,273.375 285.415,277.042 284,280.5C 280.704,278.696 277.204,278.196 273.5,279C 262.938,284.335 251.938,287.501 240.5,288.5C 234.461,283.822 228.461,279.155 222.5,274.5C 228.653,276.981 234.319,280.315 239.5,284.5C 241.026,281.346 241.693,278.013 241.5,274.5C 231.523,271.679 221.857,268.013 212.5,263.5C 207.586,260.551 202.253,258.385 196.5,257C 198.5,256.333 200.5,256.333 202.5,257C 215.446,261.558 227.946,267.058 240,273.5C 241.188,272.437 241.688,271.103 241.5,269.5 Z"/></g>
<g><path style="opacity:1" fill="#c0803e" d="M 222.5,274.5 C 228.461,279.155 234.461,283.822 240.5,288.5C 240.5,289.5 240.5,290.5 240.5,291.5C 239.5,291.5 238.5,291.5 237.5,291.5C 236.167,291.5 234.833,291.5 233.5,291.5C 231.967,289.755 229.967,288.755 227.5,288.5C 224.088,287.925 221.088,286.592 218.5,284.5C 218.631,283.624 218.298,282.957 217.5,282.5C 213.01,280.466 208.677,278.466 204.5,276.5C 207.445,274.839 210.779,273.672 214.5,273C 212.167,272 209.833,271 207.5,270C 213.055,269.803 218.055,271.303 222.5,274.5 Z"/></g>
<g><path style="opacity:0.149" fill="#f8ebd0" d="M 205.5,279.5 C 208.912,280.042 211.912,281.375 214.5,283.5C 211.088,282.958 208.088,281.625 205.5,279.5 Z"/></g>
<g><path style="opacity:0.133" fill="#e9d9c2" d="M 306.5,276.5 C 297.609,280.392 288.276,283.059 278.5,284.5C 287.648,281.464 296.981,278.797 306.5,276.5 Z"/></g>
<g><path style="opacity:0.392" fill="#e3cdb1" d="M 227.5,288.5 C 229.967,288.755 231.967,289.755 233.5,291.5C 231.033,291.245 229.033,290.245 227.5,288.5 Z"/></g>
<g><path style="opacity:0.459" fill="#cfb69a" d="M 256.5,290.5 C 252.376,292.653 247.876,293.653 243,293.5C 239.523,293.672 236.356,293.006 233.5,291.5C 234.833,291.5 236.167,291.5 237.5,291.5C 238.449,292.152 239.615,292.486 241,292.5C 246.171,291.791 251.338,291.124 256.5,290.5 Z"/></g>
</svg>
