<?xml version="1.0" encoding="UTF-8"?>
<!DOCTYPE svg PUBLIC "-//W3C//DTD SVG 1.1//EN" "http://www.w3.org/Graphics/SVG/1.1/DTD/svg11.dtd">
<svg xmlns="http://www.w3.org/2000/svg" version="1.1" width="253px" height="179px" style="shape-rendering:geometricPrecision; text-rendering:geometricPrecision; image-rendering:optimizeQuality; fill-rule:evenodd; clip-rule:evenodd" xmlns:xlink="http://www.w3.org/1999/xlink">
<g><path style="opacity:1" fill="#e0a979" d="M 153.5,35.5 C 153.5,35.8333 153.5,36.1667 153.5,36.5C 150.375,36.1353 147.375,35.302 144.5,34C 140.179,33.501 135.846,33.3343 131.5,33.5C 131.5,33.1667 131.5,32.8333 131.5,32.5C 139.168,30.752 146.501,31.752 153.5,35.5 Z"/></g>
<g><path style="opacity:1" fill="#f19c3d" d="M 143.5,35.5 C 149.035,38.3862 154.368,41.3862 159.5,44.5C 159.539,45.5832 159.873,46.5832 160.5,47.5C 159.758,48.2868 158.925,48.9535 158,49.5C 157.092,47.5614 155.592,46.5614 153.5,46.5C 152.653,45.0337 151.32,44.2004 149.5,44C 147.567,43.7489 145.734,43.2489 144,42.5C 143.667,42.8333 143.333,43.1667 143,43.5C 142.316,42.2161 142.483,41.0495 143.5,40C 141.782,39.654 140.115,39.154 138.5,38.5C 135.31,41.0226 133.977,40.0226 134.5,35.5C 137.5,35.5 140.5,35.5 143.5,35.5 Z"/></g>
<g><path style="opacity:1" fill="#d98237" d="M 131.5,33.5 C 135.846,33.3343 140.179,33.501 144.5,34C 147.375,35.302 150.375,36.1353 153.5,36.5C 158.527,39.2121 163.527,41.8787 168.5,44.5C 169.777,47.5517 172.11,48.8851 175.5,48.5C 176.167,48.5 176.833,48.5 177.5,48.5C 177.5,49.1667 177.5,49.8333 177.5,50.5C 175.236,49.7814 172.903,49.448 170.5,49.5C 166.684,48.0906 163.017,46.424 159.5,44.5C 154.368,41.3862 149.035,38.3862 143.5,35.5C 140.167,34.1667 136.833,34.1667 133.5,35.5C 131.708,35.366 130.042,35.6993 128.5,36.5C 128.81,34.8564 129.81,33.8564 131.5,33.5 Z"/></g>
<g><path style="opacity:0.471" fill="#efc9a8" d="M 131.5,32.5 C 131.5,32.8333 131.5,33.1667 131.5,33.5C 129.81,33.8564 128.81,34.8564 128.5,36.5C 126.461,37.6718 125.128,39.3384 124.5,41.5C 124.966,37.0353 127.3,34.0353 131.5,32.5 Z"/></g>
<g><path style="opacity:0.137" fill="#f7e1c6" d="M 153.5,36.5 C 153.5,36.1667 153.5,35.8333 153.5,35.5C 155.655,35.372 157.655,35.872 159.5,37C 162.571,39.5184 165.571,42.0184 168.5,44.5C 163.527,41.8787 158.527,39.2121 153.5,36.5 Z"/></g>
<g><path style="opacity:1" fill="#dd7d32" d="M 133.5,35.5 C 132.527,37.0683 132.36,38.735 133,40.5C 136.904,41.8666 140.404,43.8666 143.5,46.5C 140.053,45.1209 136.386,44.4542 132.5,44.5C 130.5,44.6667 128.5,44.8333 126.5,45C 125.944,45.3826 125.611,45.8826 125.5,46.5C 125.167,46.5 124.833,46.5 124.5,46.5C 124.5,44.8333 124.5,43.1667 124.5,41.5C 125.128,39.3384 126.461,37.6718 128.5,36.5C 130.042,35.6993 131.708,35.366 133.5,35.5 Z"/></g>
<g><path style="opacity:1" fill="#f0973b" d="M 143.5,35.5 C 140.5,35.5 137.5,35.5 134.5,35.5C 133.977,40.0226 135.31,41.0226 138.5,38.5C 140.115,39.154 141.782,39.654 143.5,40C 142.483,41.0495 142.316,42.2161 143,43.5C 143.333,43.1667 143.667,42.8333 144,42.5C 145.734,43.2489 147.567,43.7489 149.5,44C 151.32,44.2004 152.653,45.0337 153.5,46.5C 150.167,46.5 146.833,46.5 143.5,46.5C 140.404,43.8666 136.904,41.8666 133,40.5C 132.36,38.735 132.527,37.0683 133.5,35.5C 136.833,34.1667 140.167,34.1667 143.5,35.5 Z"/></g>
<g><path style="opacity:0.384" fill="#ebb5a2" d="M 124.5,41.5 C 124.5,43.1667 124.5,44.8333 124.5,46.5C 123.5,47.8333 122.5,49.1667 121.5,50.5C 120.833,50.5 120.167,50.5 119.5,50.5C 120.458,49.0384 121.624,47.7051 123,46.5C 123.198,44.6183 123.698,42.9516 124.5,41.5 Z"/></g>
<g><path style="opacity:0.024" fill="#f7e3bc" d="M 172.5,46.5 C 174.898,46.2594 176.898,46.9261 178.5,48.5C 178.167,48.5 177.833,48.5 177.5,48.5C 176.833,48.5 176.167,48.5 175.5,48.5C 174.5,47.8333 173.5,47.1667 172.5,46.5 Z"/></g>
<g><path style="opacity:1" fill="#e07d2d" d="M 143.5,46.5 C 146.833,46.5 150.167,46.5 153.5,46.5C 154.29,47.7942 155.29,48.9609 156.5,50C 165.678,55.3213 175.012,60.488 184.5,65.5C 187.02,67.2632 189.353,69.2632 191.5,71.5C 186.76,69.2943 182.093,66.7943 177.5,64C 176.207,63.51 174.873,63.3433 173.5,63.5C 171.716,63.1075 170.05,62.4408 168.5,61.5C 167.833,61.1667 167.167,60.8333 166.5,60.5C 166.5,60.1667 166.5,59.8333 166.5,59.5C 166.586,58.5041 166.252,57.6708 165.5,57C 157.935,53.7682 150.602,50.2682 143.5,46.5 Z"/></g>
<g><path style="opacity:1" fill="#dca06a" d="M 168.5,44.5 C 170.153,44.6596 171.486,45.3263 172.5,46.5C 173.5,47.1667 174.5,47.8333 175.5,48.5C 172.11,48.8851 169.777,47.5517 168.5,44.5 Z"/></g>
<g><path style="opacity:1" fill="#f1993c" d="M 159.5,44.5 C 163.017,46.424 166.684,48.0906 170.5,49.5C 170.5,50.5 170.5,51.5 170.5,52.5C 173.781,52.4203 176.781,53.087 179.5,54.5C 177.266,54.6199 175.099,54.2865 173,53.5C 171.831,54.0085 170.998,54.8419 170.5,56C 176.165,57.855 180.832,61.0216 184.5,65.5C 175.012,60.488 165.678,55.3213 156.5,50C 155.29,48.9609 154.29,47.7942 153.5,46.5C 155.592,46.5614 157.092,47.5614 158,49.5C 158.925,48.9535 159.758,48.2868 160.5,47.5C 159.873,46.5832 159.539,45.5832 159.5,44.5 Z"/></g>
<g><path style="opacity:0.976" fill="#dda879" d="M 177.5,48.5 C 177.833,48.5 178.167,48.5 178.5,48.5C 183,49.3736 187.333,50.7069 191.5,52.5C 191.5,52.8333 191.5,53.1667 191.5,53.5C 191.167,53.5 190.833,53.5 190.5,53.5C 186.341,51.8674 182.008,50.8674 177.5,50.5C 177.5,49.8333 177.5,49.1667 177.5,48.5 Z"/></g>
<g><path style="opacity:1" fill="#c82a1d" d="M 151.5,52.5 C 151.53,53.4972 151.03,54.1639 150,54.5C 142.426,52.43 134.926,52.0967 127.5,53.5C 123.662,53.0216 120.329,54.0216 117.5,56.5C 118.415,54.2459 119.748,52.2459 121.5,50.5C 122.5,49.1667 123.5,47.8333 124.5,46.5C 124.833,46.5 125.167,46.5 125.5,46.5C 128.779,45.5078 132.112,45.3412 135.5,46C 140.972,47.9056 146.306,50.0722 151.5,52.5 Z"/></g>
<g><path style="opacity:0.553" fill="#e6a59c" d="M 119.5,50.5 C 118.738,52.2624 117.404,53.2624 115.5,53.5C 116.262,51.7376 117.596,50.7376 119.5,50.5 Z"/></g>
<g><path style="opacity:1" fill="#de7f2d" d="M 170.5,49.5 C 172.903,49.448 175.236,49.7814 177.5,50.5C 182.008,50.8674 186.341,51.8674 190.5,53.5C 191.502,55.0109 192.169,56.6776 192.5,58.5C 188.334,56.7071 184,55.3738 179.5,54.5C 176.781,53.087 173.781,52.4203 170.5,52.5C 170.5,51.5 170.5,50.5 170.5,49.5 Z"/></g>
<g><path style="opacity:1" fill="#e6713a" d="M 143.5,46.5 C 150.602,50.2682 157.935,53.7682 165.5,57C 166.252,57.6708 166.586,58.5041 166.5,59.5C 161.375,57.4376 156.375,55.1043 151.5,52.5C 146.306,50.0722 140.972,47.9056 135.5,46C 132.112,45.3412 128.779,45.5078 125.5,46.5C 125.611,45.8826 125.944,45.3826 126.5,45C 128.5,44.8333 130.5,44.6667 132.5,44.5C 136.386,44.4542 140.053,45.1209 143.5,46.5 Z"/></g>
<g><path style="opacity:0.651" fill="#f4d9b8" d="M 191.5,52.5 C 195.383,53.7181 198.383,56.0515 200.5,59.5C 197.32,57.7451 194.32,55.7451 191.5,53.5C 191.5,53.1667 191.5,52.8333 191.5,52.5 Z"/></g>
<g><path style="opacity:1" fill="#f4eaad" d="M 131.5,56.5 C 134.433,57.3479 137.599,57.3479 141,56.5C 145.077,57.3538 145.244,58.0204 141.5,58.5C 141.5,59.8333 141.5,61.1667 141.5,62.5C 144.696,62.9642 144.696,64.4642 141.5,67C 140.5,67.3333 139.5,67.6667 138.5,68C 139.833,68.6667 139.833,69.3333 138.5,70C 141.833,70.3333 145.167,70.6667 148.5,71C 149.056,71.3826 149.389,71.8826 149.5,72.5C 144.156,72.666 138.823,72.4994 133.5,72C 132.589,69.5852 130.922,68.0852 128.5,67.5C 126.716,67.1075 125.05,66.4408 123.5,65.5C 122.833,65.1667 122.167,64.8333 121.5,64.5C 121.158,63.6618 120.492,63.3284 119.5,63.5C 119.5,63.1667 119.5,62.8333 119.5,62.5C 123.254,60.0966 127.254,58.0966 131.5,56.5 Z"/></g>
<g><path style="opacity:1" fill="#be3723" d="M 127.5,53.5 C 134.926,52.0967 142.426,52.43 150,54.5C 151.03,54.1639 151.53,53.4972 151.5,52.5C 156.375,55.1043 161.375,57.4376 166.5,59.5C 166.5,59.8333 166.5,60.1667 166.5,60.5C 164.833,60.5 163.167,60.5 161.5,60.5C 158.733,59.9493 156.4,58.6159 154.5,56.5C 153.479,57.0016 153.312,57.6683 154,58.5C 155.992,59.3281 157.492,60.6614 158.5,62.5C 156.972,62.5173 156.472,63.184 157,64.5C 161.236,64.9716 163.736,67.305 164.5,71.5C 164.167,71.5 163.833,71.5 163.5,71.5C 162.833,70.8333 162.167,70.1667 161.5,69.5C 160.089,67.461 158.089,66.461 155.5,66.5C 155,60.3308 151.667,56.6642 145.5,55.5C 139.762,53.7716 133.762,53.1049 127.5,53.5 Z"/></g>
<g><path style="opacity:1" fill="#f19b3d" d="M 179.5,54.5 C 184,55.3738 188.334,56.7071 192.5,58.5C 193.167,59.1667 193.833,59.8333 194.5,60.5C 194.433,61.9587 194.766,63.2921 195.5,64.5C 195.565,64.9382 195.399,65.2716 195,65.5C 192.266,62.7074 191.266,63.0407 192,66.5C 190.926,65.3816 189.76,64.3816 188.5,63.5C 189.506,62.6043 189.506,61.9377 188.5,61.5C 187.167,63.1667 187.167,64.8333 188.5,66.5C 189.874,67.7113 191.374,68.7113 193,69.5C 193.945,69.0946 194.612,68.428 195,67.5C 195.195,69.2072 195.195,70.8739 195,72.5C 196.356,73.3802 197.856,73.7135 199.5,73.5C 199.5,74.8333 199.5,76.1667 199.5,77.5C 198.078,77.2914 196.745,76.7914 195.5,76C 194.643,73.9812 193.309,72.4812 191.5,71.5C 189.353,69.2632 187.02,67.2632 184.5,65.5C 180.832,61.0216 176.165,57.855 170.5,56C 170.998,54.8419 171.831,54.0085 173,53.5C 175.099,54.2865 177.266,54.6199 179.5,54.5 Z"/></g>
<g><path style="opacity:1" fill="#e25944" d="M 127.5,53.5 C 124.5,55.8333 121.833,58.5 119.5,61.5C 116.013,62.4446 114.68,64.7779 115.5,68.5C 113.765,64.1313 114.431,60.1313 117.5,56.5C 120.329,54.0216 123.662,53.0216 127.5,53.5 Z"/></g>
<g><path style="opacity:1" fill="#facfa1" d="M 127.5,53.5 C 133.762,53.1049 139.762,53.7716 145.5,55.5C 140.637,55.1805 135.97,55.5139 131.5,56.5C 127.254,58.0966 123.254,60.0966 119.5,62.5C 119.5,62.1667 119.5,61.8333 119.5,61.5C 121.833,58.5 124.5,55.8333 127.5,53.5 Z"/></g>
<g><path style="opacity:1" fill="#f16f57" d="M 161.5,60.5 C 161.179,62.0481 160.179,62.7148 158.5,62.5C 157.492,60.6614 155.992,59.3281 154,58.5C 153.312,57.6683 153.479,57.0016 154.5,56.5C 156.4,58.6159 158.733,59.9493 161.5,60.5 Z"/></g>
<g><path style="opacity:1" fill="#f5e4ac" d="M 131.5,56.5 C 135.97,55.5139 140.637,55.1805 145.5,55.5C 151.667,56.6642 155,60.3308 155.5,66.5C 151.907,67.4298 150.241,69.7632 150.5,73.5C 150.167,73.5 149.833,73.5 149.5,73.5C 149.5,73.1667 149.5,72.8333 149.5,72.5C 149.389,71.8826 149.056,71.3826 148.5,71C 145.167,70.6667 141.833,70.3333 138.5,70C 139.833,69.3333 139.833,68.6667 138.5,68C 139.5,67.6667 140.5,67.3333 141.5,67C 144.696,64.4642 144.696,62.9642 141.5,62.5C 141.5,61.1667 141.5,59.8333 141.5,58.5C 145.244,58.0204 145.077,57.3538 141,56.5C 137.599,57.3479 134.433,57.3479 131.5,56.5 Z"/></g>
<g><path style="opacity:0.451" fill="#e7aaa4" d="M 115.5,53.5 C 112.861,55.4728 110.527,57.8061 108.5,60.5C 106.251,61.0798 104.585,62.4131 103.5,64.5C 101.5,65.5 99.5,66.5 97.5,67.5C 102.305,62.8656 107.305,58.3656 112.5,54C 113.448,53.5172 114.448,53.3505 115.5,53.5 Z"/></g>
<g><path style="opacity:0.29" fill="#f3daba" d="M 200.5,59.5 C 202.153,59.6596 203.486,60.3263 204.5,61.5C 202.62,61.7709 201.287,61.1042 200.5,59.5 Z"/></g>
<g><path style="opacity:0.341" fill="#f0d6b3" d="M 204.5,61.5 C 208.358,61.7701 211.691,63.1034 214.5,65.5C 213.167,65.1667 211.833,64.8333 210.5,64.5C 208.426,63.4861 206.426,62.4861 204.5,61.5 Z"/></g>
<g><path style="opacity:1" fill="#cb261c" d="M 103.5,64.5 C 104.585,62.4131 106.251,61.0798 108.5,60.5C 110.117,59.962 111.784,59.6287 113.5,59.5C 113.5,63.5 113.5,67.5 113.5,71.5C 109.466,71.4955 105.466,71.1621 101.5,70.5C 101.253,68.1417 101.919,66.1417 103.5,64.5 Z"/></g>
<g><path style="opacity:1" fill="#cb2920" d="M 161.5,60.5 C 163.167,60.5 164.833,60.5 166.5,60.5C 167.167,60.8333 167.833,61.1667 168.5,61.5C 168.245,63.7545 168.245,66.0878 168.5,68.5C 169.833,68.5 170.5,69.1667 170.5,70.5C 171.607,72.9311 173.607,73.9311 176.5,73.5C 178.384,73.2837 180.051,72.617 181.5,71.5C 183.565,72.8765 185.565,74.2099 187.5,75.5C 184.044,75.6458 180.378,75.8124 176.5,76C 172.767,77.2132 169.1,78.3799 165.5,79.5C 165.806,76.6146 165.473,73.9479 164.5,71.5C 163.736,67.305 161.236,64.9716 157,64.5C 156.472,63.184 156.972,62.5173 158.5,62.5C 160.179,62.7148 161.179,62.0481 161.5,60.5 Z"/></g>
<g><path style="opacity:1" fill="#c26e4a" d="M 119.5,61.5 C 119.5,61.8333 119.5,62.1667 119.5,62.5C 119.5,62.8333 119.5,63.1667 119.5,63.5C 118.508,63.3284 117.842,63.6618 117.5,64.5C 116.833,68.1667 116.167,71.8333 115.5,75.5C 113.597,75.2041 111.93,74.5375 110.5,73.5C 112.167,73.5 113.833,73.5 115.5,73.5C 115.5,71.8333 115.5,70.1667 115.5,68.5C 114.68,64.7779 116.013,62.4446 119.5,61.5 Z"/></g>
<g><path style="opacity:1" fill="#c6311e" d="M 168.5,61.5 C 170.05,62.4408 171.716,63.1075 173.5,63.5C 182.993,70.4135 192.659,77.0801 202.5,83.5C 202.167,83.5 201.833,83.5 201.5,83.5C 196.596,81.2658 191.929,78.5991 187.5,75.5C 185.565,74.2099 183.565,72.8765 181.5,71.5C 180.051,72.617 178.384,73.2837 176.5,73.5C 173.607,73.9311 171.607,72.9311 170.5,70.5C 173.259,72.2931 176.259,72.7931 179.5,72C 176.032,70.0302 172.699,67.8635 169.5,65.5C 168.614,66.325 168.281,67.325 168.5,68.5C 168.245,66.0878 168.245,63.7545 168.5,61.5 Z"/></g>
<g><path style="opacity:1" fill="#988b4f" d="M 117.5,64.5 C 117.5,68.5 117.5,72.5 117.5,76.5C 116.508,76.6716 115.842,76.3382 115.5,75.5C 116.167,71.8333 116.833,68.1667 117.5,64.5 Z"/></g>
<g><path style="opacity:1" fill="#da8134" d="M 190.5,53.5 C 190.833,53.5 191.167,53.5 191.5,53.5C 194.32,55.7451 197.32,57.7451 200.5,59.5C 201.287,61.1042 202.62,61.7709 204.5,61.5C 206.426,62.4861 208.426,63.4861 210.5,64.5C 215.356,67.1294 220.023,70.1294 224.5,73.5C 225.5,73.8333 226.167,74.5 226.5,75.5C 223.484,74.6569 220.817,73.1569 218.5,71C 217.207,70.51 215.873,70.3433 214.5,70.5C 207.141,68.4561 200.475,65.1228 194.5,60.5C 193.833,59.8333 193.167,59.1667 192.5,58.5C 192.169,56.6776 191.502,55.0109 190.5,53.5 Z"/></g>
<g><path style="opacity:0.886" fill="#dfac7e" d="M 210.5,64.5 C 211.833,64.8333 213.167,65.1667 214.5,65.5C 218.078,67.0751 221.411,69.0751 224.5,71.5C 224.5,72.1667 224.5,72.8333 224.5,73.5C 220.023,70.1294 215.356,67.1294 210.5,64.5 Z"/></g>
<g><path style="opacity:1" fill="#28ae3d" d="M 121.5,64.5 C 122.167,64.8333 122.833,65.1667 123.5,65.5C 124.382,67.3838 125.882,68.7171 128,69.5C 128.791,70.745 129.291,72.0783 129.5,73.5C 128.791,74.404 127.791,74.7373 126.5,74.5C 126.662,76.5273 126.495,78.5273 126,80.5C 124.644,81.3802 123.144,81.7135 121.5,81.5C 121.261,79.5328 121.594,77.6995 122.5,76C 121.131,74.2811 120.131,72.4478 119.5,70.5C 118.539,68.7354 118.205,66.7354 118.5,64.5C 119.5,64.5 120.5,64.5 121.5,64.5 Z"/></g>
<g><path style="opacity:1" fill="#752f21" d="M 155.5,66.5 C 158.089,66.461 160.089,67.461 161.5,69.5C 161.238,72.2516 161.238,75.2516 161.5,78.5C 158.996,77.4161 156.663,76.0828 154.5,74.5C 156.167,74.5 157.833,74.5 159.5,74.5C 160.158,70.3228 158.492,68.8228 154.5,70C 153.177,70.8159 152.511,71.9826 152.5,73.5C 151.833,73.5 151.167,73.5 150.5,73.5C 150.241,69.7632 151.907,67.4298 155.5,66.5 Z"/></g>
<g><path style="opacity:0.753" fill="#da8f8d" d="M 97.5,67.5 C 96.4154,69.5869 94.7488,70.9202 92.5,71.5C 93.5846,69.4131 95.2512,68.0798 97.5,67.5 Z"/></g>
<g><path style="opacity:1" fill="#fa7e65" d="M 170.5,70.5 C 170.5,69.1667 169.833,68.5 168.5,68.5C 168.281,67.325 168.614,66.325 169.5,65.5C 172.699,67.8635 176.032,70.0302 179.5,72C 176.259,72.7931 173.259,72.2931 170.5,70.5 Z"/></g>
<g><path style="opacity:1" fill="#f19a3e" d="M 194.5,60.5 C 200.475,65.1228 207.141,68.4561 214.5,70.5C 217.493,72.6369 220.66,74.6369 224,76.5C 223.97,80.9044 221.804,84.0711 217.5,86C 213.351,86.6692 209.351,86.1692 205.5,84.5C 204.833,84.5 204.5,84.1667 204.5,83.5C 203.833,82.5 203.167,81.5 202.5,80.5C 204.764,81.5813 206.931,82.9146 209,84.5C 209.383,83.944 209.883,83.6107 210.5,83.5C 216.358,85.108 220.358,83.108 222.5,77.5C 219.05,78.2436 217.384,76.9103 217.5,73.5C 216.07,73.5792 214.736,73.2458 213.5,72.5C 212.828,73.9492 212.161,75.2825 211.5,76.5C 210.576,72.6272 208.242,71.6272 204.5,73.5C 201.915,72.2456 199.248,71.0789 196.5,70C 198.715,69.8295 200.715,69.1628 202.5,68C 200.243,66.5502 197.91,65.3835 195.5,64.5C 194.766,63.2921 194.433,61.9587 194.5,60.5 Z"/></g>
<g><path style="opacity:1" fill="#c13026" d="M 119.5,50.5 C 120.167,50.5 120.833,50.5 121.5,50.5C 119.748,52.2459 118.415,54.2459 117.5,56.5C 114.431,60.1313 113.765,64.1313 115.5,68.5C 115.5,70.1667 115.5,71.8333 115.5,73.5C 113.833,73.5 112.167,73.5 110.5,73.5C 109.5,73.5 108.5,73.5 107.5,73.5C 103.744,71.5419 100.744,72.2085 98.5,75.5C 97.8333,75.5 97.1667,75.5 96.5,75.5C 96.5,74.5 96.5,73.5 96.5,72.5C 95.448,72.3505 94.448,72.5172 93.5,73C 90.6032,75.41 87.6032,77.5767 84.5,79.5C 86.8605,76.4728 89.5271,73.8062 92.5,71.5C 94.7488,70.9202 96.4154,69.5869 97.5,67.5C 99.5,66.5 101.5,65.5 103.5,64.5C 101.919,66.1417 101.253,68.1417 101.5,70.5C 105.466,71.1621 109.466,71.4955 113.5,71.5C 113.5,67.5 113.5,63.5 113.5,59.5C 111.784,59.6287 110.117,59.962 108.5,60.5C 110.527,57.8061 112.861,55.4728 115.5,53.5C 117.404,53.2624 118.738,52.2624 119.5,50.5 Z"/></g>
<g><path style="opacity:1" fill="#713b25" d="M 107.5,73.5 C 107.5,75.5 107.5,77.5 107.5,79.5C 106.833,79.5 106.5,79.1667 106.5,78.5C 105.744,74.8208 103.744,73.8208 100.5,75.5C 99.8333,75.8333 99.1667,76.1667 98.5,76.5C 98.5,76.1667 98.5,75.8333 98.5,75.5C 100.744,72.2085 103.744,71.5419 107.5,73.5 Z"/></g>
<g><path style="opacity:1" fill="#bde89f" d="M 128.5,67.5 C 130.922,68.0852 132.589,69.5852 133.5,72C 138.823,72.4994 144.156,72.666 149.5,72.5C 149.5,72.8333 149.5,73.1667 149.5,73.5C 149.167,73.5 148.833,73.5 148.5,73.5C 143.961,73.3218 139.461,73.6551 135,74.5C 132.393,72.6565 130.227,70.3232 128.5,67.5 Z"/></g>
<g><path style="opacity:1" fill="#3f0805" d="M 161.5,69.5 C 162.167,70.1667 162.833,70.8333 163.5,71.5C 163.599,74.2372 163.265,76.9039 162.5,79.5C 161.833,79.5 161.5,79.1667 161.5,78.5C 161.238,75.2516 161.238,72.2516 161.5,69.5 Z"/></g>
<g><path style="opacity:1" fill="#f19c3c" d="M 195.5,64.5 C 197.91,65.3835 200.243,66.5502 202.5,68C 200.715,69.1628 198.715,69.8295 196.5,70C 199.248,71.0789 201.915,72.2456 204.5,73.5C 208.242,71.6272 210.576,72.6272 211.5,76.5C 210.292,75.7659 208.959,75.4326 207.5,75.5C 207.5,77.5 207.5,79.5 207.5,81.5C 208.873,81.3433 210.207,81.51 211.5,82C 210.944,82.3826 210.611,82.8826 210.5,83.5C 209.883,83.6107 209.383,83.944 209,84.5C 206.931,82.9146 204.764,81.5813 202.5,80.5C 201.306,79.7281 200.306,78.7281 199.5,77.5C 199.5,76.1667 199.5,74.8333 199.5,73.5C 197.856,73.7135 196.356,73.3802 195,72.5C 195.195,70.8739 195.195,69.2072 195,67.5C 194.612,68.428 193.945,69.0946 193,69.5C 191.374,68.7113 189.874,67.7113 188.5,66.5C 187.167,64.8333 187.167,63.1667 188.5,61.5C 189.506,61.9377 189.506,62.6043 188.5,63.5C 189.76,64.3816 190.926,65.3816 192,66.5C 191.266,63.0407 192.266,62.7074 195,65.5C 195.399,65.2716 195.565,64.9382 195.5,64.5 Z"/></g>
<g><path style="opacity:1" fill="#9b2119" d="M 154.5,74.5 C 153.833,74.1667 153.167,73.8333 152.5,73.5C 152.511,71.9826 153.177,70.8159 154.5,70C 158.492,68.8228 160.158,70.3228 159.5,74.5C 157.833,74.5 156.167,74.5 154.5,74.5 Z"/></g>
<g><path style="opacity:1" fill="#e47737" d="M 173.5,63.5 C 174.873,63.3433 176.207,63.51 177.5,64C 182.093,66.7943 186.76,69.2943 191.5,71.5C 193.309,72.4812 194.643,73.9812 195.5,76C 196.745,76.7914 198.078,77.2914 199.5,77.5C 200.306,78.7281 201.306,79.7281 202.5,80.5C 203.167,81.5 203.833,82.5 204.5,83.5C 203.833,83.5 203.167,83.5 202.5,83.5C 192.659,77.0801 182.993,70.4135 173.5,63.5 Z"/></g>
<g><path style="opacity:1" fill="#a95346" d="M 163.5,71.5 C 163.833,71.5 164.167,71.5 164.5,71.5C 164.253,74.9387 164.586,78.272 165.5,81.5C 165.167,81.5 164.833,81.5 164.5,81.5C 164.167,81.5 163.833,81.5 163.5,81.5C 163.167,80.8333 162.833,80.1667 162.5,79.5C 163.265,76.9039 163.599,74.2372 163.5,71.5 Z"/></g>
<g><path style="opacity:1" fill="#eddbb1" d="M 106.5,78.5 C 104.621,79.3414 102.621,79.6747 100.5,79.5C 100.5,78.1667 100.5,76.8333 100.5,75.5C 103.744,73.8208 105.744,74.8208 106.5,78.5 Z"/></g>
<g><path style="opacity:1" fill="#1da53f" d="M 123.5,65.5 C 125.05,66.4408 126.716,67.1075 128.5,67.5C 130.227,70.3232 132.393,72.6565 135,74.5C 139.461,73.6551 143.961,73.3218 148.5,73.5C 148.5,73.8333 148.5,74.1667 148.5,74.5C 146.912,76.5273 146.412,78.8606 147,81.5C 149.563,82.741 152.063,84.0744 154.5,85.5C 155.417,84.8728 156.417,84.5394 157.5,84.5C 157.167,85.1667 156.833,85.8333 156.5,86.5C 155.5,86.8333 154.833,87.5 154.5,88.5C 151.008,90.2205 147.341,91.5538 143.5,92.5C 143.306,90.0882 141.973,89.0882 139.5,89.5C 139.884,87.3352 139.217,85.6685 137.5,84.5C 134.865,85.4735 132.865,87.1402 131.5,89.5C 129.127,86.1012 126.794,86.4345 124.5,90.5C 121.571,88.5348 120.071,85.8681 120,82.5C 121.789,84.229 123.956,84.8957 126.5,84.5C 127.31,77.7602 128.977,77.2602 131.5,83C 132.793,83.49 134.127,83.6567 135.5,83.5C 135.662,81.4727 135.495,79.4727 135,77.5C 133.286,76.0745 131.953,76.4078 131,78.5C 129.934,76.8478 129.434,75.1812 129.5,73.5C 129.291,72.0783 128.791,70.745 128,69.5C 125.882,68.7171 124.382,67.3838 123.5,65.5 Z"/></g>
<g><path style="opacity:1" fill="#bd211c" d="M 164.5,71.5 C 165.473,73.9479 165.806,76.6146 165.5,79.5C 169.1,78.3799 172.767,77.2132 176.5,76C 180.378,75.8124 184.044,75.6458 187.5,75.5C 191.929,78.5991 196.596,81.2658 201.5,83.5C 202.417,86.0048 202.417,88.3382 201.5,90.5C 201.279,88.3364 200.279,86.6697 198.5,85.5C 196.012,83.6122 193.012,82.9455 189.5,83.5C 184.925,79.1499 179.592,78.3166 173.5,81C 172.944,81.3826 172.611,81.8826 172.5,82.5C 172.167,82.5 171.833,82.5 171.5,82.5C 169.565,81.8505 167.565,81.5172 165.5,81.5C 164.586,78.272 164.253,74.9387 164.5,71.5 Z"/></g>
<g><path style="opacity:1" fill="#f29c3d" d="M 210.5,83.5 C 210.611,82.8826 210.944,82.3826 211.5,82C 210.207,81.51 208.873,81.3433 207.5,81.5C 207.5,79.5 207.5,77.5 207.5,75.5C 208.959,75.4326 210.292,75.7659 211.5,76.5C 212.161,75.2825 212.828,73.9492 213.5,72.5C 214.736,73.2458 216.07,73.5792 217.5,73.5C 217.384,76.9103 219.05,78.2436 222.5,77.5C 220.358,83.108 216.358,85.108 210.5,83.5 Z"/></g>
<g><path style="opacity:0.549" fill="#e4a5a0" d="M 92.5,71.5 C 89.5271,73.8062 86.8605,76.4728 84.5,79.5C 77.2049,84.7944 70.2049,90.4611 63.5,96.5C 59.1667,99.8333 54.8333,103.167 50.5,106.5C 53.6293,102.869 56.9626,99.3691 60.5,96C 69.7902,89.0452 78.7902,81.7118 87.5,74C 89.0779,72.9055 90.7446,72.0722 92.5,71.5 Z"/></g>
<g><path style="opacity:1" fill="#f2dca8" d="M 107.5,73.5 C 108.5,73.5 109.5,73.5 110.5,73.5C 111.93,74.5375 113.597,75.2041 115.5,75.5C 115.842,76.3382 116.508,76.6716 117.5,76.5C 114.578,78.2281 111.245,79.2281 107.5,79.5C 107.5,77.5 107.5,75.5 107.5,73.5 Z"/></g>
<g><path style="opacity:1" fill="#50b644" d="M 148.5,74.5 C 152.46,76.7735 156.627,78.7735 161,80.5C 161.847,83.4904 160.68,84.8238 157.5,84.5C 156.417,84.5394 155.417,84.8728 154.5,85.5C 152.063,84.0744 149.563,82.741 147,81.5C 146.412,78.8606 146.912,76.5273 148.5,74.5 Z"/></g>
<g><path style="opacity:0.169" fill="#f6ddbd" d="M 224.5,71.5 C 229.163,74.1572 231.83,78.1572 232.5,83.5C 232.167,83.5 231.833,83.5 231.5,83.5C 230.617,80.2957 228.95,77.6291 226.5,75.5C 226.167,74.5 225.5,73.8333 224.5,73.5C 224.5,72.8333 224.5,72.1667 224.5,71.5 Z"/></g>
<g><path style="opacity:1" fill="#f0e4aa" d="M 98.5,78.5 C 100.03,81.0209 102.364,82.0209 105.5,81.5C 103.83,84.0016 101.664,86.0016 99,87.5C 97.878,89.4068 97.0447,91.4068 96.5,93.5C 91.6767,91.0149 90.1767,87.0149 92,81.5C 93.8425,79.8288 96.0092,78.8288 98.5,78.5 Z"/></g>
<g><path style="opacity:1" fill="#cee8a3" d="M 117.5,76.5 C 118.404,77.209 118.737,78.209 118.5,79.5C 114.3,79.1901 110.3,79.8568 106.5,81.5C 106.833,80.8333 107.167,80.1667 107.5,79.5C 111.245,79.2281 114.578,78.2281 117.5,76.5 Z"/></g>
<g><path style="opacity:1" fill="#2daf45" d="M 119.5,70.5 C 120.131,72.4478 121.131,74.2811 122.5,76C 121.594,77.6995 121.261,79.5328 121.5,81.5C 123.144,81.7135 124.644,81.3802 126,80.5C 126.495,78.5273 126.662,76.5273 126.5,74.5C 127.791,74.7373 128.791,74.404 129.5,73.5C 129.434,75.1812 129.934,76.8478 131,78.5C 131.953,76.4078 133.286,76.0745 135,77.5C 135.495,79.4727 135.662,81.4727 135.5,83.5C 134.127,83.6567 132.793,83.49 131.5,83C 128.977,77.2602 127.31,77.7602 126.5,84.5C 123.956,84.8957 121.789,84.229 120,82.5C 120.071,85.8681 121.571,88.5348 124.5,90.5C 126.794,86.4345 129.127,86.1012 131.5,89.5C 132.865,87.1402 134.865,85.4735 137.5,84.5C 139.217,85.6685 139.884,87.3352 139.5,89.5C 141.973,89.0882 143.306,90.0882 143.5,92.5C 143.371,94.2161 143.038,95.8828 142.5,97.5C 141.833,99.5 141.167,101.5 140.5,103.5C 140.665,99.8183 140.499,96.1516 140,92.5C 139,91.1667 138,91.1667 137,92.5C 135.086,91.324 135.252,90.324 137.5,89.5C 137,89.1667 136.5,88.8333 136,88.5C 133.719,90.5291 131.219,90.8624 128.5,89.5C 127.056,91.6079 126.39,93.9412 126.5,96.5C 127.833,96.5 129.167,96.5 130.5,96.5C 130.5,97.5 130.5,98.5 130.5,99.5C 129.395,98.3995 128.062,97.7329 126.5,97.5C 124.265,97.2053 122.265,97.5386 120.5,98.5C 116.629,98.815 112.962,98.4816 109.5,97.5C 111.942,97.6463 112.609,96.813 111.5,95C 115.401,95.3539 119.234,95.1873 123,94.5C 123.667,93.5 123.667,92.5 123,91.5C 120.884,89.2083 118.718,87.2083 116.5,85.5C 116.5,84.1667 116.5,82.8333 116.5,81.5C 117.496,81.5858 118.329,81.2524 119,80.5C 119.498,77.1832 119.665,73.8499 119.5,70.5 Z"/></g>
<g><path style="opacity:1" fill="#a4996e" d="M 100.5,75.5 C 100.5,76.8333 100.5,78.1667 100.5,79.5C 102.621,79.6747 104.621,79.3414 106.5,78.5C 106.5,79.1667 106.833,79.5 107.5,79.5C 107.167,80.1667 106.833,80.8333 106.5,81.5C 106.167,81.5 105.833,81.5 105.5,81.5C 102.364,82.0209 100.03,81.0209 98.5,78.5C 98.5,77.8333 98.5,77.1667 98.5,76.5C 99.1667,76.1667 99.8333,75.8333 100.5,75.5 Z"/></g>
<g><path style="opacity:1" fill="#5aad50" d="M 119.5,63.5 C 120.492,63.3284 121.158,63.6618 121.5,64.5C 120.5,64.5 119.5,64.5 118.5,64.5C 118.205,66.7354 118.539,68.7354 119.5,70.5C 119.665,73.8499 119.498,77.1832 119,80.5C 118.329,81.2524 117.496,81.5858 116.5,81.5C 109.972,80.4364 105.305,82.7697 102.5,88.5C 99.6213,89.8026 98.9546,91.8026 100.5,94.5C 99.8333,94.5 99.1667,94.5 98.5,94.5C 97.8333,94.5 97.1667,94.5 96.5,94.5C 96.5,94.1667 96.5,93.8333 96.5,93.5C 97.0447,91.4068 97.878,89.4068 99,87.5C 101.664,86.0016 103.83,84.0016 105.5,81.5C 105.833,81.5 106.167,81.5 106.5,81.5C 110.3,79.8568 114.3,79.1901 118.5,79.5C 118.737,78.209 118.404,77.209 117.5,76.5C 117.5,72.5 117.5,68.5 117.5,64.5C 117.842,63.6618 118.508,63.3284 119.5,63.5 Z"/></g>
<g><path style="opacity:1" fill="#e64e42" d="M 189.5,83.5 C 188.4,84.6049 187.733,85.9382 187.5,87.5C 186.305,87.6775 185.138,88.0109 184,88.5C 182.606,87.3867 181.439,86.0534 180.5,84.5C 177.658,85.1102 174.991,84.4436 172.5,82.5C 172.611,81.8826 172.944,81.3826 173.5,81C 179.592,78.3166 184.925,79.1499 189.5,83.5 Z"/></g>
<g><path style="opacity:1" fill="#facea1" d="M 96.5,75.5 C 97.1667,75.5 97.8333,75.5 98.5,75.5C 98.5,75.8333 98.5,76.1667 98.5,76.5C 98.5,77.1667 98.5,77.8333 98.5,78.5C 96.0092,78.8288 93.8425,79.8288 92,81.5C 90.1767,87.0149 91.6767,91.0149 96.5,93.5C 96.5,93.8333 96.5,94.1667 96.5,94.5C 94.2972,94.3964 92.2972,93.7298 90.5,92.5C 90.5,92.1667 90.5,91.8333 90.5,91.5C 89.612,88.9455 89.2786,86.2788 89.5,83.5C 89.5569,82.391 89.8902,81.391 90.5,80.5C 92.5398,78.823 94.5398,77.1563 96.5,75.5 Z"/></g>
<g><path style="opacity:1" fill="#27ae3d" d="M 116.5,81.5 C 116.5,82.8333 116.5,84.1667 116.5,85.5C 112.369,86.6553 112.036,87.822 115.5,89C 114.167,89.6667 114.167,90.3333 115.5,91C 114.833,91.1667 114.167,91.3333 113.5,91.5C 110.892,90.3974 108.392,89.0641 106,87.5C 104.989,88.3366 103.822,88.67 102.5,88.5C 105.305,82.7697 109.972,80.4364 116.5,81.5 Z"/></g>
<g><path style="opacity:1" fill="#6d9847" d="M 148.5,74.5 C 148.5,74.1667 148.5,73.8333 148.5,73.5C 148.833,73.5 149.167,73.5 149.5,73.5C 149.833,73.5 150.167,73.5 150.5,73.5C 151.167,73.5 151.833,73.5 152.5,73.5C 153.167,73.8333 153.833,74.1667 154.5,74.5C 156.663,76.0828 158.996,77.4161 161.5,78.5C 161.5,79.1667 161.833,79.5 162.5,79.5C 162.833,80.1667 163.167,80.8333 163.5,81.5C 163.714,83.1439 163.38,84.6439 162.5,86C 160.527,86.4955 158.527,86.6621 156.5,86.5C 156.833,85.8333 157.167,85.1667 157.5,84.5C 160.68,84.8238 161.847,83.4904 161,80.5C 156.627,78.7735 152.46,76.7735 148.5,74.5 Z"/></g>
<g><path style="opacity:1" fill="#771b17" d="M 189.5,83.5 C 193.012,82.9455 196.012,83.6122 198.5,85.5C 200.007,94.6777 196.673,97.3444 188.5,93.5C 187.85,91.5648 187.517,89.5648 187.5,87.5C 187.733,85.9382 188.4,84.6049 189.5,83.5 Z"/></g>
<g><path style="opacity:1" fill="#25af3c" d="M 116.5,85.5 C 118.718,87.2083 120.884,89.2083 123,91.5C 123.667,92.5 123.667,93.5 123,94.5C 119.234,95.1873 115.401,95.3539 111.5,95C 112.609,96.813 111.942,97.6463 109.5,97.5C 106.257,97.0857 103.257,96.0857 100.5,94.5C 98.9546,91.8026 99.6213,89.8026 102.5,88.5C 103.822,88.67 104.989,88.3366 106,87.5C 108.392,89.0641 110.892,90.3974 113.5,91.5C 114.167,91.3333 114.833,91.1667 115.5,91C 114.167,90.3333 114.167,89.6667 115.5,89C 112.036,87.822 112.369,86.6553 116.5,85.5 Z"/></g>
<g><path style="opacity:1" fill="#ef725f" d="M 171.5,82.5 C 171.833,82.5 172.167,82.5 172.5,82.5C 174.991,84.4436 177.658,85.1102 180.5,84.5C 181.439,86.0534 182.606,87.3867 184,88.5C 185.138,88.0109 186.305,87.6775 187.5,87.5C 187.517,89.5648 187.85,91.5648 188.5,93.5C 188.5,93.8333 188.5,94.1667 188.5,94.5C 187.5,94.5 186.5,94.5 185.5,94.5C 185.33,95.8221 185.663,96.9887 186.5,98C 185.975,98.6924 185.308,99.1924 184.5,99.5C 183.369,98.2485 182.036,97.2485 180.5,96.5C 178.823,97.1869 177.156,97.8535 175.5,98.5C 176.58,95.2569 176.747,91.9236 176,88.5C 174.248,86.6491 172.748,84.6491 171.5,82.5 Z"/></g>
<g><path style="opacity:1" fill="#ca261d" d="M 96.5,75.5 C 94.5398,77.1563 92.5398,78.823 90.5,80.5C 85.6086,82.2211 82.1086,85.5545 80,90.5C 79.289,92.8991 79.4557,95.2324 80.5,97.5C 78.0312,98.1681 75.6979,98.8347 73.5,99.5C 68.9357,100.924 64.269,102.257 59.5,103.5C 58.479,102.998 58.3123,102.332 59,101.5C 60.7073,99.9625 62.2073,98.2959 63.5,96.5C 66.0923,94.4321 69.0923,93.0987 72.5,92.5C 73.9295,88.7363 76.5961,86.403 80.5,85.5C 81.4584,83.216 82.7917,81.216 84.5,79.5C 87.6032,77.5767 90.6032,75.41 93.5,73C 94.448,72.5172 95.448,72.3505 96.5,72.5C 96.5,73.5 96.5,74.5 96.5,75.5 Z"/></g>
<g><path style="opacity:1" fill="#dd7f30" d="M 214.5,70.5 C 215.873,70.3433 217.207,70.51 218.5,71C 220.817,73.1569 223.484,74.6569 226.5,75.5C 228.95,77.6291 230.617,80.2957 231.5,83.5C 231.51,94.161 226.176,100.161 215.5,101.5C 215.833,100.833 216.167,100.167 216.5,99.5C 219.957,98.6062 222.957,96.9395 225.5,94.5C 228.917,92.1644 230.251,88.8311 229.5,84.5C 226.68,84.2475 224.014,84.7475 221.5,86C 217.98,89.353 214.646,92.853 211.5,96.5C 211.66,94.8008 211.494,93.1341 211,91.5C 209.334,89.0043 207.5,86.671 205.5,84.5C 209.351,86.1692 213.351,86.6692 217.5,86C 221.804,84.0711 223.97,80.9044 224,76.5C 220.66,74.6369 217.493,72.6369 214.5,70.5 Z"/></g>
<g><path style="opacity:1" fill="#fbd5a6" d="M 164.5,82.5 C 164.5,82.1667 164.5,81.8333 164.5,81.5C 164.833,81.5 165.167,81.5 165.5,81.5C 167.565,81.5172 169.565,81.8505 171.5,82.5C 172.748,84.6491 174.248,86.6491 176,88.5C 176.747,91.9236 176.58,95.2569 175.5,98.5C 174.167,99.5 172.833,100.5 171.5,101.5C 171.429,98.9759 172.429,96.9759 174.5,95.5C 173.846,93.8849 173.346,92.2182 173,90.5C 169.757,88.1786 166.923,85.512 164.5,82.5 Z"/></g>
<g><path style="opacity:1" fill="#f9e6ad" d="M 164.5,82.5 C 166.923,85.512 169.757,88.1786 173,90.5C 173.346,92.2182 173.846,93.8849 174.5,95.5C 172.429,96.9759 171.429,98.9759 171.5,101.5C 170.5,101.5 169.5,101.5 168.5,101.5C 168.873,98.0177 167.873,95.0177 165.5,92.5C 164.513,89.2317 164.18,85.8984 164.5,82.5 Z"/></g>
<g><path style="opacity:1" fill="#b82929" d="M 190.5,86.5 C 192.527,86.3379 194.527,86.5045 196.5,87C 197.833,88.6667 197.833,90.3333 196.5,92C 194.527,92.4955 192.527,92.6621 190.5,92.5C 190.5,90.5 190.5,88.5 190.5,86.5 Z"/></g>
<g><path style="opacity:1" fill="#f7e6ad" d="M 163.5,81.5 C 163.833,81.5 164.167,81.5 164.5,81.5C 164.5,81.8333 164.5,82.1667 164.5,82.5C 164.18,85.8984 164.513,89.2317 165.5,92.5C 167.873,95.0177 168.873,98.0177 168.5,101.5C 167.596,102.209 167.263,103.209 167.5,104.5C 165.833,104.5 164.167,104.5 162.5,104.5C 160.359,96.8924 155.359,94.0591 147.5,96C 147.141,98.6305 146.141,100.797 144.5,102.5C 144.167,102.5 143.833,102.5 143.5,102.5C 143.5,102.167 143.5,101.833 143.5,101.5C 144.314,99.369 144.814,97.0356 145,94.5C 148.79,93.3622 151.957,91.3622 154.5,88.5C 154.833,87.5 155.5,86.8333 156.5,86.5C 158.527,86.6621 160.527,86.4955 162.5,86C 163.38,84.6439 163.714,83.1439 163.5,81.5 Z"/></g>
<g><path style="opacity:1" fill="#d1eea8" d="M 154.5,88.5 C 151.957,91.3622 148.79,93.3622 145,94.5C 144.814,97.0356 144.314,99.369 143.5,101.5C 142.566,100.432 142.232,99.099 142.5,97.5C 143.038,95.8828 143.371,94.2161 143.5,92.5C 147.341,91.5538 151.008,90.2205 154.5,88.5 Z"/></g>
<g><path style="opacity:1" fill="#26ae3d" d="M 140.5,103.5 C 140.719,104.675 140.386,105.675 139.5,106.5C 138.06,105.048 136.394,104.048 134.5,103.5C 133.395,102.4 132.062,101.733 130.5,101.5C 130.5,100.833 130.5,100.167 130.5,99.5C 130.5,98.5 130.5,97.5 130.5,96.5C 129.167,96.5 127.833,96.5 126.5,96.5C 126.39,93.9412 127.056,91.6079 128.5,89.5C 131.219,90.8624 133.719,90.5291 136,88.5C 136.5,88.8333 137,89.1667 137.5,89.5C 135.252,90.324 135.086,91.324 137,92.5C 138,91.1667 139,91.1667 140,92.5C 140.499,96.1516 140.665,99.8183 140.5,103.5 Z"/></g>
<g><path style="opacity:1" fill="#f5962a" d="M 225.5,94.5 C 222.957,96.9395 219.957,98.6062 216.5,99.5C 215.417,99.5394 214.417,99.8728 213.5,100.5C 212.417,99.635 212.251,98.635 213,97.5C 216.536,94.2988 219.703,90.7988 222.5,87C 223.872,86.5983 225.205,86.0983 226.5,85.5C 226.833,86.5 227.167,87.5 227.5,88.5C 227.281,90.6931 226.615,92.6931 225.5,94.5 Z"/></g>
<g><path style="opacity:1" fill="#bf2f27" d="M 84.5,79.5 C 82.7917,81.216 81.4584,83.216 80.5,85.5C 76.5961,86.403 73.9295,88.7363 72.5,92.5C 69.0923,93.0987 66.0923,94.4321 63.5,96.5C 70.2049,90.4611 77.2049,84.7944 84.5,79.5 Z"/></g>
<g><path style="opacity:1" fill="#f29538" d="M 225.5,94.5 C 226.615,92.6931 227.281,90.6931 227.5,88.5C 227.167,87.5 226.833,86.5 226.5,85.5C 225.205,86.0983 223.872,86.5983 222.5,87C 219.703,90.7988 216.536,94.2988 213,97.5C 212.251,98.635 212.417,99.635 213.5,100.5C 214.417,99.8728 215.417,99.5394 216.5,99.5C 216.167,100.167 215.833,100.833 215.5,101.5C 214.5,102.833 213.5,104.167 212.5,105.5C 211.833,105.5 211.167,105.5 210.5,105.5C 208.821,105.715 207.821,105.048 207.5,103.5C 208.584,100.996 209.917,98.6626 211.5,96.5C 214.646,92.853 217.98,89.353 221.5,86C 224.014,84.7475 226.68,84.2475 229.5,84.5C 230.251,88.8311 228.917,92.1644 225.5,94.5 Z"/></g>
<g><path style="opacity:1" fill="#bf2018" d="M 201.5,83.5 C 201.833,83.5 202.167,83.5 202.5,83.5C 203.167,83.5 203.833,83.5 204.5,83.5C 204.5,84.1667 204.833,84.5 205.5,84.5C 207.5,86.671 209.334,89.0043 211,91.5C 211.494,93.1341 211.66,94.8008 211.5,96.5C 209.917,98.6626 208.584,100.996 207.5,103.5C 207.167,103.5 206.833,103.5 206.5,103.5C 204.254,104.21 201.92,104.71 199.5,105C 197.963,106.707 196.296,108.207 194.5,109.5C 196.355,103.725 198.355,98.0584 200.5,92.5C 200.833,91.8333 201.167,91.1667 201.5,90.5C 202.417,88.3382 202.417,86.0048 201.5,83.5 Z"/></g>
<g><path style="opacity:1" fill="#c12620" d="M 90.5,80.5 C 89.8902,81.391 89.5569,82.391 89.5,83.5C 82.9499,94.5056 85.9499,101.506 98.5,104.5C 98.1667,105.5 97.5,106.167 96.5,106.5C 94.3915,107.237 92.2248,107.904 90,108.5C 88.9701,108.836 88.4701,109.503 88.5,110.5C 86.8007,110.473 85.4674,109.806 84.5,108.5C 83.525,105.933 82.8583,103.267 82.5,100.5C 81.5,100.5 80.5,100.5 79.5,100.5C 79.1667,100.5 78.8333,100.5 78.5,100.5C 77.0813,99.5489 75.4147,99.2155 73.5,99.5C 75.6979,98.8347 78.0312,98.1681 80.5,97.5C 79.4557,95.2324 79.289,92.8991 80,90.5C 82.1086,85.5545 85.6086,82.2211 90.5,80.5 Z"/></g>
<g><path style="opacity:1" fill="#c1413b" d="M 198.5,85.5 C 200.279,86.6697 201.279,88.3364 201.5,90.5C 201.167,91.1667 200.833,91.8333 200.5,92.5C 199.171,95.4799 196.837,96.8132 193.5,96.5C 191.447,96.5979 189.78,95.9313 188.5,94.5C 188.5,94.1667 188.5,93.8333 188.5,93.5C 196.673,97.3444 200.007,94.6777 198.5,85.5 Z"/></g>
<g><path style="opacity:1" fill="#689248" d="M 98.5,94.5 C 99.1667,94.5 99.8333,94.5 100.5,94.5C 103.257,96.0857 106.257,97.0857 109.5,97.5C 112.962,98.4816 116.629,98.815 120.5,98.5C 120.5,98.8333 120.5,99.1667 120.5,99.5C 120.167,99.5 119.833,99.5 119.5,99.5C 117.05,99.298 114.717,99.6314 112.5,100.5C 110.698,99.5418 108.698,98.8751 106.5,98.5C 103.461,97.7216 100.794,96.3883 98.5,94.5 Z"/></g>
<g><path style="opacity:1" fill="#815b30" d="M 126.5,97.5 C 126.5,97.8333 126.5,98.1667 126.5,98.5C 124.219,98.0773 122.552,98.744 121.5,100.5C 120.833,100.5 120.5,100.167 120.5,99.5C 120.5,99.1667 120.5,98.8333 120.5,98.5C 122.265,97.5386 124.265,97.2053 126.5,97.5 Z"/></g>
<g><path style="opacity:1" fill="#788944" d="M 126.5,98.5 C 126.5,98.1667 126.5,97.8333 126.5,97.5C 128.062,97.7329 129.395,98.3995 130.5,99.5C 130.5,100.167 130.5,100.833 130.5,101.5C 129.167,100.5 127.833,99.5 126.5,98.5 Z"/></g>
<g><path style="opacity:1" fill="#f4deac" d="M 168.5,101.5 C 169.5,101.5 170.5,101.5 171.5,101.5C 170.789,103.03 169.789,104.363 168.5,105.5C 166.95,106.441 165.284,107.107 163.5,107.5C 160.287,107.81 157.287,107.477 154.5,106.5C 155.833,105.833 156.833,104.833 157.5,103.5C 157.741,101.102 157.074,99.1016 155.5,97.5C 149.317,95.3338 146.65,97.6672 147.5,104.5C 146.833,104.5 146.167,104.5 145.5,104.5C 145.167,103.833 144.833,103.167 144.5,102.5C 146.141,100.797 147.141,98.6305 147.5,96C 155.359,94.0591 160.359,96.8924 162.5,104.5C 164.167,104.5 165.833,104.5 167.5,104.5C 167.263,103.209 167.596,102.209 168.5,101.5 Z"/></g>
<g><path style="opacity:1" fill="#d33026" d="M 90.5,91.5 C 90.5,91.8333 90.5,92.1667 90.5,92.5C 90.5,93.1667 90.5,93.8333 90.5,94.5C 91.1124,97.6973 93.1124,99.0306 96.5,98.5C 96.719,99.675 96.3857,100.675 95.5,101.5C 89.4022,99.9786 87.7355,96.6453 90.5,91.5 Z"/></g>
<g><path style="opacity:1" fill="#42341b" d="M 155.5,97.5 C 157.074,99.1016 157.741,101.102 157.5,103.5C 156.833,102.833 156.167,102.167 155.5,101.5C 155.672,100.508 155.338,99.8417 154.5,99.5C 153.391,98.71 152.058,98.21 150.5,98C 152.134,97.5065 153.801,97.3398 155.5,97.5 Z"/></g>
<g><path style="opacity:1" fill="#ce3127" d="M 188.5,94.5 C 189.78,95.9313 191.447,96.5979 193.5,96.5C 193.714,98.1439 193.38,99.6439 192.5,101C 185.693,106.119 178.027,108.286 169.5,107.5C 168.662,107.158 168.328,106.492 168.5,105.5C 169.789,104.363 170.789,103.03 171.5,101.5C 172.833,100.5 174.167,99.5 175.5,98.5C 177.156,97.8535 178.823,97.1869 180.5,96.5C 182.036,97.2485 183.369,98.2485 184.5,99.5C 185.308,99.1924 185.975,98.6924 186.5,98C 185.663,96.9887 185.33,95.8221 185.5,94.5C 186.5,94.5 187.5,94.5 188.5,94.5 Z"/></g>
<g><path style="opacity:0.231" fill="#f9ebce" d="M 232.5,83.5 C 234.242,88.5895 234.742,93.9228 234,99.5C 233.31,102.196 231.81,104.363 229.5,106C 221.898,108.802 214.565,112.135 207.5,116C 195.998,119.626 184.331,122.459 172.5,124.5C 182.243,121.818 191.91,118.818 201.5,115.5C 204.271,115.579 206.937,115.079 209.5,114C 213.745,110.979 218.078,108.145 222.5,105.5C 225.844,104.743 228.677,103.077 231,100.5C 232.289,94.9116 232.789,89.2449 232.5,83.5 Z"/></g>
<g><path style="opacity:1" fill="#c9704d" d="M 90.5,92.5 C 92.2972,93.7298 94.2972,94.3964 96.5,94.5C 97.1667,94.5 97.8333,94.5 98.5,94.5C 100.794,96.3883 103.461,97.7216 106.5,98.5C 106.19,100.144 105.19,101.144 103.5,101.5C 103.5,100.5 103.5,99.5 103.5,98.5C 99.2001,97.2036 94.8667,95.8703 90.5,94.5C 90.5,93.8333 90.5,93.1667 90.5,92.5 Z"/></g>
<g><path style="opacity:1" fill="#392d14" d="M 119.5,99.5 C 119.167,100.167 118.833,100.833 118.5,101.5C 117.833,101.5 117.167,101.5 116.5,101.5C 114.973,101.427 113.973,102.094 113.5,103.5C 113.167,103.5 112.833,103.5 112.5,103.5C 112.5,102.5 112.5,101.5 112.5,100.5C 114.717,99.6314 117.05,99.298 119.5,99.5 Z"/></g>
<g><path style="opacity:1" fill="#f9d195" d="M 231.5,83.5 C 231.833,83.5 232.167,83.5 232.5,83.5C 232.789,89.2449 232.289,94.9116 231,100.5C 228.677,103.077 225.844,104.743 222.5,105.5C 223.252,103.9 224.252,102.4 225.5,101C 221.329,102.596 216.996,104.096 212.5,105.5C 213.5,104.167 214.5,102.833 215.5,101.5C 226.176,100.161 231.51,94.161 231.5,83.5 Z"/></g>
<g><path style="opacity:1" fill="#5b2219" d="M 78.5,100.5 C 78.8333,100.5 79.1667,100.5 79.5,100.5C 81.6061,102.719 82.6061,105.385 82.5,108.5C 81.8333,108.5 81.5,108.833 81.5,109.5C 80.8333,107.833 80.1667,106.167 79.5,104.5C 76.7705,103.47 74.1038,103.47 71.5,104.5C 71.1667,104.5 70.8333,104.5 70.5,104.5C 71.9437,101.11 74.6104,99.7768 78.5,100.5 Z"/></g>
<g><path style="opacity:1" fill="#e8594a" d="M 89.5,83.5 C 89.2786,86.2788 89.612,88.9455 90.5,91.5C 87.7355,96.6453 89.4022,99.9786 95.5,101.5C 96.3857,100.675 96.719,99.675 96.5,98.5C 93.1124,99.0306 91.1124,97.6973 90.5,94.5C 94.8667,95.8703 99.2001,97.2036 103.5,98.5C 103.5,99.5 103.5,100.5 103.5,101.5C 101.851,102.473 100.184,103.473 98.5,104.5C 85.9499,101.506 82.9499,94.5056 89.5,83.5 Z"/></g>
<g><path style="opacity:1" fill="#51140c" d="M 119.5,99.5 C 119.833,99.5 120.167,99.5 120.5,99.5C 120.5,100.167 120.833,100.5 121.5,100.5C 122.994,104.025 122.661,107.358 120.5,110.5C 119.5,110.5 118.5,110.5 117.5,110.5C 117.5,110.167 117.5,109.833 117.5,109.5C 117.833,109.5 118.167,109.5 118.5,109.5C 121.148,106.878 121.148,104.211 118.5,101.5C 118.833,100.833 119.167,100.167 119.5,99.5 Z"/></g>
<g><path style="opacity:1" fill="#7a8643" d="M 130.5,101.5 C 132.062,101.733 133.395,102.4 134.5,103.5C 135.5,104.833 136.5,106.167 137.5,107.5C 135.589,106.925 133.922,105.925 132.5,104.5C 131.833,103.5 131.167,102.5 130.5,101.5 Z"/></g>
<g><path style="opacity:1" fill="#a43022" d="M 126.5,98.5 C 127.833,99.5 129.167,100.5 130.5,101.5C 131.167,102.5 131.833,103.5 132.5,104.5C 130.938,104.267 129.605,103.6 128.5,102.5C 125.965,98.2277 124.632,98.561 124.5,103.5C 124.515,106.626 123.515,109.293 121.5,111.5C 121.167,111.5 120.833,111.5 120.5,111.5C 120.5,111.167 120.5,110.833 120.5,110.5C 122.661,107.358 122.994,104.025 121.5,100.5C 122.552,98.744 124.219,98.0773 126.5,98.5 Z"/></g>
<g><path style="opacity:1" fill="#776645" d="M 155.5,97.5 C 153.801,97.3398 152.134,97.5065 150.5,98C 152.058,98.21 153.391,98.71 154.5,99.5C 152.833,99.5 151.167,99.5 149.5,99.5C 148.408,104.123 150.075,105.956 154.5,105C 155.337,103.989 155.67,102.822 155.5,101.5C 156.167,102.167 156.833,102.833 157.5,103.5C 156.833,104.833 155.833,105.833 154.5,106.5C 151.812,106.834 149.479,106.168 147.5,104.5C 146.65,97.6672 149.317,95.3338 155.5,97.5 Z"/></g>
<g><path style="opacity:1" fill="#e7dab2" d="M 154.5,99.5 C 155.338,99.8417 155.672,100.508 155.5,101.5C 155.67,102.822 155.337,103.989 154.5,105C 150.075,105.956 148.408,104.123 149.5,99.5C 151.167,99.5 152.833,99.5 154.5,99.5 Z"/></g>
<g><path style="opacity:1" fill="#ab3f36" d="M 79.5,100.5 C 80.5,100.5 81.5,100.5 82.5,100.5C 82.8583,103.267 83.525,105.933 84.5,108.5C 83.8333,108.5 83.1667,108.5 82.5,108.5C 82.6061,105.385 81.6061,102.719 79.5,100.5 Z"/></g>
<g><path style="opacity:1" fill="#8a4231" d="M 116.5,101.5 C 117.167,101.5 117.833,101.5 118.5,101.5C 121.148,104.211 121.148,106.878 118.5,109.5C 118.893,106.487 118.226,103.82 116.5,101.5 Z"/></g>
<g><path style="opacity:1" fill="#994628" d="M 143.5,102.5 C 143.833,102.5 144.167,102.5 144.5,102.5C 144.833,103.167 145.167,103.833 145.5,104.5C 145.833,105.167 146.167,105.833 146.5,106.5C 144.486,106.392 142.82,107.058 141.5,108.5C 141.5,108.167 141.5,107.833 141.5,107.5C 142.167,105.833 142.833,104.167 143.5,102.5 Z"/></g>
<g><path style="opacity:1" fill="#f2c2a2" d="M 145.5,104.5 C 146.167,104.5 146.833,104.5 147.5,104.5C 149.479,106.168 151.812,106.834 154.5,106.5C 157.287,107.477 160.287,107.81 163.5,107.5C 160.375,108.479 157.042,108.813 153.5,108.5C 151.079,108.122 148.746,107.455 146.5,106.5C 146.167,105.833 145.833,105.167 145.5,104.5 Z"/></g>
<g><path style="opacity:1" fill="#da3529" d="M 200.5,92.5 C 198.355,98.0584 196.355,103.725 194.5,109.5C 194.5,109.833 194.5,110.167 194.5,110.5C 190.429,109.588 186.429,109.588 182.5,110.5C 178.627,108.57 174.294,107.903 169.5,108.5C 169.5,108.167 169.5,107.833 169.5,107.5C 178.027,108.286 185.693,106.119 192.5,101C 193.38,99.6439 193.714,98.1439 193.5,96.5C 196.837,96.8132 199.171,95.4799 200.5,92.5 Z"/></g>
<g><path style="opacity:1" fill="#f8d79c" d="M 222.5,105.5 C 218.078,108.145 213.745,110.979 209.5,114C 206.937,115.079 204.271,115.579 201.5,115.5C 204.805,112.351 208.805,110.517 213.5,110C 213.957,109.586 214.291,109.086 214.5,108.5C 213.388,107.735 212.721,106.735 212.5,105.5C 216.996,104.096 221.329,102.596 225.5,101C 224.252,102.4 223.252,103.9 222.5,105.5 Z"/></g>
<g><path style="opacity:1" fill="#be3929" d="M 63.5,96.5 C 62.2073,98.2959 60.7073,99.9625 59,101.5C 58.3123,102.332 58.479,102.998 59.5,103.5C 64.269,102.257 68.9357,100.924 73.5,99.5C 75.4147,99.2155 77.0813,99.5489 78.5,100.5C 74.6104,99.7768 71.9437,101.11 70.5,104.5C 70.1667,104.5 69.8333,104.5 69.5,104.5C 67.0336,103.366 64.367,103.199 61.5,104C 58,106.334 55,109.168 52.5,112.5C 51.1667,113.167 50.1667,114.167 49.5,115.5C 49.1667,115.5 48.8333,115.5 48.5,115.5C 48.5,114.167 48.5,112.833 48.5,111.5C 49.675,111.719 50.675,111.386 51.5,110.5C 51.0431,109.702 50.3764,109.369 49.5,109.5C 49.5,109.167 49.5,108.833 49.5,108.5C 49.8333,107.833 50.1667,107.167 50.5,106.5C 54.8333,103.167 59.1667,99.8333 63.5,96.5 Z"/></g>
<g><path style="opacity:1" fill="#62532e" d="M 112.5,103.5 C 112.833,103.5 113.167,103.5 113.5,103.5C 112.599,107.241 113.932,109.241 117.5,109.5C 117.5,109.833 117.5,110.167 117.5,110.5C 112.585,110.313 110.919,107.98 112.5,103.5 Z"/></g>
<g><path style="opacity:1" fill="#4e9d42" d="M 142.5,97.5 C 142.232,99.099 142.566,100.432 143.5,101.5C 143.5,101.833 143.5,102.167 143.5,102.5C 142.833,104.167 142.167,105.833 141.5,107.5C 140.167,107.5 138.833,107.5 137.5,107.5C 136.5,106.167 135.5,104.833 134.5,103.5C 136.394,104.048 138.06,105.048 139.5,106.5C 140.386,105.675 140.719,104.675 140.5,103.5C 141.167,101.5 141.833,99.5 142.5,97.5 Z"/></g>
<g><path style="opacity:1" fill="#e36e3d" d="M 206.5,103.5 C 206.586,104.496 206.252,105.329 205.5,106C 203.5,106.333 201.5,106.667 199.5,107C 197.963,108.707 196.296,110.207 194.5,111.5C 194.5,111.167 194.5,110.833 194.5,110.5C 194.5,110.167 194.5,109.833 194.5,109.5C 196.296,108.207 197.963,106.707 199.5,105C 201.92,104.71 204.254,104.21 206.5,103.5 Z"/></g>
<g><path style="opacity:1" fill="#dc7e39" d="M 206.5,103.5 C 206.833,103.5 207.167,103.5 207.5,103.5C 207.821,105.048 208.821,105.715 210.5,105.5C 206.341,108.749 201.674,111.249 196.5,113C 191.316,113.452 186.316,114.619 181.5,116.5C 184.447,111.9 188.781,110.233 194.5,111.5C 196.296,110.207 197.963,108.707 199.5,107C 201.5,106.667 203.5,106.333 205.5,106C 206.252,105.329 206.586,104.496 206.5,103.5 Z"/></g>
<g><path style="opacity:1" fill="#fae7ae" d="M 73.5,115.5 C 74.2429,118.57 76.2429,120.236 79.5,120.5C 79.5,121.5 79.5,122.5 79.5,123.5C 76.2655,124.576 72.9322,125.243 69.5,125.5C 69.5,124.5 69.5,123.5 69.5,122.5C 64.4333,124.512 59.1,125.512 53.5,125.5C 51.5226,121.608 51.1892,117.608 52.5,113.5C 53.8068,112.847 55.1401,112.18 56.5,111.5C 57.1924,112.025 57.6924,112.692 58,113.5C 58.7311,111.101 59.8978,108.935 61.5,107C 63.6691,108.114 65.5024,107.614 67,105.5C 67.9203,108.101 68.587,110.768 69,113.5C 70.3297,114.582 71.8297,115.249 73.5,115.5 Z"/></g>
<g><path style="opacity:1" fill="#f9e5ad" d="M 109.5,108.5 C 109.44,107.957 109.107,107.624 108.5,107.5C 107.355,108.776 107.355,110.109 108.5,111.5C 107.167,112.5 105.833,113.5 104.5,114.5C 103.246,112.741 103.579,111.241 105.5,110C 103.919,107.605 101.919,107.105 99.5,108.5C 101.538,111.344 101.871,114.344 100.5,117.5C 101.167,118.833 102.167,119.833 103.5,120.5C 106.084,119.607 108.751,119.274 111.5,119.5C 110.486,120.674 109.153,121.34 107.5,121.5C 104.428,121.817 101.428,121.484 98.5,120.5C 99.7828,117.365 99.7828,114.365 98.5,111.5C 98.1667,110.833 97.8333,110.167 97.5,109.5C 98.5914,106.572 100.591,104.406 103.5,103C 105.677,101.798 108.011,101.298 110.5,101.5C 110.802,104.059 110.468,106.393 109.5,108.5 Z"/></g>
<g><path style="opacity:1" fill="#e8d2a8" d="M 116.5,101.5 C 118.226,103.82 118.893,106.487 118.5,109.5C 118.167,109.5 117.833,109.5 117.5,109.5C 113.932,109.241 112.599,107.241 113.5,103.5C 113.973,102.094 114.973,101.427 116.5,101.5 Z"/></g>
<g><path style="opacity:1" fill="#ecdaaf" d="M 79.5,104.5 C 80.7864,110.885 78.4531,112.885 72.5,110.5C 71.6518,108.591 71.3184,106.591 71.5,104.5C 74.1038,103.47 76.7705,103.47 79.5,104.5 Z"/></g>
<g><path style="opacity:1" fill="#a43c33" d="M 96.5,106.5 C 96.5,107.5 96.5,108.5 96.5,109.5C 95.8333,109.5 95.1667,109.5 94.5,109.5C 92.4352,109.517 90.4352,109.85 88.5,110.5C 88.4701,109.503 88.9701,108.836 90,108.5C 92.2248,107.904 94.3915,107.237 96.5,106.5 Z"/></g>
<g><path style="opacity:1" fill="#fad092" d="M 210.5,105.5 C 211.167,105.5 211.833,105.5 212.5,105.5C 212.721,106.735 213.388,107.735 214.5,108.5C 214.291,109.086 213.957,109.586 213.5,110C 208.805,110.517 204.805,112.351 201.5,115.5C 197.781,115.002 194.447,115.836 191.5,118C 186.425,119.43 181.425,119.93 176.5,119.5C 172.041,121.654 167.374,122.987 162.5,123.5C 158.846,123.942 155.179,124.276 151.5,124.5C 157.569,123.086 163.569,121.419 169.5,119.5C 173.397,118.945 177.063,117.945 180.5,116.5C 180.833,116.5 181.167,116.5 181.5,116.5C 186.316,114.619 191.316,113.452 196.5,113C 201.674,111.249 206.341,108.749 210.5,105.5 Z"/></g>
<g><path style="opacity:1" fill="#c11b19" d="M 128.5,102.5 C 128.892,104.179 129.392,105.846 130,107.5C 132.263,106.411 134.096,107.078 135.5,109.5C 134.726,110.711 133.893,110.711 133,109.5C 132.946,112.861 131.946,115.861 130,118.5C 128.176,117.251 128.343,116.085 130.5,115C 129.228,113.693 128.228,112.193 127.5,110.5C 126.391,111.59 125.391,111.59 124.5,110.5C 125.766,108.028 125.766,105.694 124.5,103.5C 124.632,98.561 125.965,98.2277 128.5,102.5 Z"/></g>
<g><path style="opacity:1" fill="#bd1f1b" d="M 128.5,102.5 C 129.605,103.6 130.938,104.267 132.5,104.5C 133.922,105.925 135.589,106.925 137.5,107.5C 138.538,109.519 139.872,109.853 141.5,108.5C 142.82,107.058 144.486,106.392 146.5,106.5C 148.746,107.455 151.079,108.122 153.5,108.5C 156.625,109.479 159.958,109.813 163.5,109.5C 163.579,110.93 163.246,112.264 162.5,113.5C 159.898,114.132 157.564,115.132 155.5,116.5C 152.728,116.759 150.395,117.759 148.5,119.5C 141.62,121.666 134.62,121.999 127.5,120.5C 127.108,118.821 126.608,117.154 126,115.5C 124.008,114.672 122.508,113.339 121.5,111.5C 123.515,109.293 124.515,106.626 124.5,103.5C 125.766,105.694 125.766,108.028 124.5,110.5C 125.391,111.59 126.391,111.59 127.5,110.5C 128.228,112.193 129.228,113.693 130.5,115C 128.343,116.085 128.176,117.251 130,118.5C 131.946,115.861 132.946,112.861 133,109.5C 133.893,110.711 134.726,110.711 135.5,109.5C 134.096,107.078 132.263,106.411 130,107.5C 129.392,105.846 128.892,104.179 128.5,102.5 Z"/></g>
<g><path style="opacity:1" fill="#848748" d="M 137.5,107.5 C 138.833,107.5 140.167,107.5 141.5,107.5C 141.5,107.833 141.5,108.167 141.5,108.5C 139.872,109.853 138.538,109.519 137.5,107.5 Z"/></g>
<g><path style="opacity:1" fill="#5a1712" d="M 94.5,109.5 C 94.5,109.833 94.5,110.167 94.5,110.5C 92.0672,110.273 90.4006,111.273 89.5,113.5C 88.596,114.209 88.2627,115.209 88.5,116.5C 87.2525,115.272 87.2525,113.272 88.5,110.5C 90.4352,109.85 92.4352,109.517 94.5,109.5 Z"/></g>
<g><path style="opacity:1" fill="#463423" d="M 94.5,110.5 C 94.5,110.167 94.5,109.833 94.5,109.5C 95.1667,109.5 95.8333,109.5 96.5,109.5C 96.8333,109.5 97.1667,109.5 97.5,109.5C 97.8333,110.167 98.1667,110.833 98.5,111.5C 98.631,112.239 98.4643,112.906 98,113.5C 97.2917,112.619 96.4584,111.953 95.5,111.5C 95.5,110.833 95.1667,110.5 94.5,110.5 Z"/></g>
<g><path style="opacity:1" fill="#d82d1f" d="M 169.5,108.5 C 174.294,107.903 178.627,108.57 182.5,110.5C 179.05,114.295 174.716,115.461 169.5,114C 163,112.02 163,110.187 169.5,108.5 Z"/></g>
<g><path style="opacity:0.294" fill="#f1c1be" d="M 50.5,106.5 C 50.1667,107.167 49.8333,107.833 49.5,108.5C 44.8521,112.143 40.1855,115.81 35.5,119.5C 35.369,118.761 35.5357,118.094 36,117.5C 39.7988,114.703 43.2988,111.536 46.5,108C 47.745,107.209 49.0783,106.709 50.5,106.5 Z"/></g>
<g><path style="opacity:1" fill="#5e4e2f" d="M 69.5,104.5 C 69.8333,104.5 70.1667,104.5 70.5,104.5C 70.8333,104.5 71.1667,104.5 71.5,104.5C 71.3184,106.591 71.6518,108.591 72.5,110.5C 78.4531,112.885 80.7864,110.885 79.5,104.5C 80.1667,106.167 80.8333,107.833 81.5,109.5C 81.5,109.833 81.5,110.167 81.5,110.5C 74.1387,115.486 70.1387,113.486 69.5,104.5 Z"/></g>
<g><path style="opacity:1" fill="#f9e7ab" d="M 109.5,108.5 C 111.959,111.087 113.626,114.087 114.5,117.5C 112.821,117.285 111.821,117.952 111.5,119.5C 108.751,119.274 106.084,119.607 103.5,120.5C 102.167,119.833 101.167,118.833 100.5,117.5C 101.871,114.344 101.538,111.344 99.5,108.5C 101.919,107.105 103.919,107.605 105.5,110C 103.579,111.241 103.246,112.741 104.5,114.5C 105.833,113.5 107.167,112.5 108.5,111.5C 107.355,110.109 107.355,108.776 108.5,107.5C 109.107,107.624 109.44,107.957 109.5,108.5 Z"/></g>
<g><path style="opacity:1" fill="#f3d4a5" d="M 106.5,98.5 C 108.698,98.8751 110.698,99.5418 112.5,100.5C 112.5,101.5 112.5,102.5 112.5,103.5C 110.919,107.98 112.585,110.313 117.5,110.5C 118.5,110.5 119.5,110.5 120.5,110.5C 120.5,110.833 120.5,111.167 120.5,111.5C 119.5,112.833 118.5,114.167 117.5,115.5C 116.05,117.61 114.05,118.943 111.5,119.5C 111.821,117.952 112.821,117.285 114.5,117.5C 113.626,114.087 111.959,111.087 109.5,108.5C 110.468,106.393 110.802,104.059 110.5,101.5C 108.011,101.298 105.677,101.798 103.5,103C 100.591,104.406 98.5914,106.572 97.5,109.5C 97.1667,109.5 96.8333,109.5 96.5,109.5C 96.5,108.5 96.5,107.5 96.5,106.5C 97.5,106.167 98.1667,105.5 98.5,104.5C 100.184,103.473 101.851,102.473 103.5,101.5C 105.19,101.144 106.19,100.144 106.5,98.5 Z"/></g>
<g><path style="opacity:1" fill="#c55347" d="M 49.5,108.5 C 49.5,108.833 49.5,109.167 49.5,109.5C 46.4744,112.195 43.4744,114.862 40.5,117.5C 38.066,120.438 35.3993,123.271 32.5,126C 31.552,126.483 30.552,126.649 29.5,126.5C 30.5,125.167 31.5,123.833 32.5,122.5C 33.1667,121.167 34.1667,120.167 35.5,119.5C 40.1855,115.81 44.8521,112.143 49.5,108.5 Z"/></g>
<g><path style="opacity:1" fill="#f7e2af" d="M 69.5,104.5 C 70.1387,113.486 74.1387,115.486 81.5,110.5C 81.5,111.833 81.5,113.167 81.5,114.5C 79.0637,114.317 76.897,114.984 75,116.5C 74.6174,115.944 74.1174,115.611 73.5,115.5C 71.8297,115.249 70.3297,114.582 69,113.5C 68.587,110.768 67.9203,108.101 67,105.5C 65.5024,107.614 63.6691,108.114 61.5,107C 59.8978,108.935 58.7311,111.101 58,113.5C 57.6924,112.692 57.1924,112.025 56.5,111.5C 55.1401,112.18 53.8068,112.847 52.5,113.5C 52.5,113.167 52.5,112.833 52.5,112.5C 55,109.168 58,106.334 61.5,104C 64.367,103.199 67.0336,103.366 69.5,104.5 Z"/></g>
<g><path style="opacity:1" fill="#d2937e" d="M 94.5,110.5 C 95.1667,110.5 95.5,110.833 95.5,111.5C 93.9519,111.821 93.2852,112.821 93.5,114.5C 91.901,114.768 90.5676,114.434 89.5,113.5C 90.4006,111.273 92.0672,110.273 94.5,110.5 Z"/></g>
<g><path style="opacity:1" fill="#c9261d" d="M 49.5,109.5 C 50.3764,109.369 51.0431,109.702 51.5,110.5C 50.675,111.386 49.675,111.719 48.5,111.5C 48.5,112.833 48.5,114.167 48.5,115.5C 48.5,115.833 48.5,116.167 48.5,116.5C 47.596,117.209 47.2627,118.209 47.5,119.5C 44.6122,120.01 42.2789,119.344 40.5,117.5C 43.4744,114.862 46.4744,112.195 49.5,109.5 Z"/></g>
<g><path style="opacity:1" fill="#ac5246" d="M 89.5,113.5 C 90.5676,114.434 91.901,114.768 93.5,114.5C 94.4345,115.568 94.7678,116.901 94.5,118.5C 97.2476,118.402 97.9143,119.402 96.5,121.5C 95.5,121.5 94.5,121.5 93.5,121.5C 93.5,119.5 93.5,117.5 93.5,115.5C 91.7085,115.366 90.0418,115.699 88.5,116.5C 88.2627,115.209 88.596,114.209 89.5,113.5 Z"/></g>
<g><path style="opacity:1" fill="#e5cbac" d="M 95.5,111.5 C 96.4584,111.953 97.2917,112.619 98,113.5C 98.4643,112.906 98.631,112.239 98.5,111.5C 99.7828,114.365 99.7828,117.365 98.5,120.5C 101.428,121.484 104.428,121.817 107.5,121.5C 105.052,122.473 102.385,122.806 99.5,122.5C 98.391,122.443 97.391,122.11 96.5,121.5C 97.9143,119.402 97.2476,118.402 94.5,118.5C 94.7678,116.901 94.4345,115.568 93.5,114.5C 93.2852,112.821 93.9519,111.821 95.5,111.5 Z"/></g>
<g><path style="opacity:1" fill="#cb3729" d="M 168.5,105.5 C 168.328,106.492 168.662,107.158 169.5,107.5C 169.5,107.833 169.5,108.167 169.5,108.5C 163,110.187 163,112.02 169.5,114C 174.716,115.461 179.05,114.295 182.5,110.5C 186.429,109.588 190.429,109.588 194.5,110.5C 194.5,110.833 194.5,111.167 194.5,111.5C 188.781,110.233 184.447,111.9 181.5,116.5C 181.167,116.5 180.833,116.5 180.5,116.5C 178.167,116.5 175.833,116.5 173.5,116.5C 167.514,115.297 161.514,115.297 155.5,116.5C 157.564,115.132 159.898,114.132 162.5,113.5C 163.246,112.264 163.579,110.93 163.5,109.5C 159.958,109.813 156.625,109.479 153.5,108.5C 157.042,108.813 160.375,108.479 163.5,107.5C 165.284,107.107 166.95,106.441 168.5,105.5 Z"/></g>
<g><path style="opacity:1" fill="#fae1ac" d="M 82.5,108.5 C 83.1667,108.5 83.8333,108.5 84.5,108.5C 85.6279,114.575 83.9612,119.575 79.5,123.5C 79.5,122.5 79.5,121.5 79.5,120.5C 76.2429,120.236 74.2429,118.57 73.5,115.5C 74.1174,115.611 74.6174,115.944 75,116.5C 76.897,114.984 79.0637,114.317 81.5,114.5C 81.5,113.167 81.5,111.833 81.5,110.5C 81.5,110.167 81.5,109.833 81.5,109.5C 81.5,108.833 81.8333,108.5 82.5,108.5 Z"/></g>
<g><path style="opacity:1" fill="#e75e51" d="M 120.5,111.5 C 120.833,111.5 121.167,111.5 121.5,111.5C 122.508,113.339 124.008,114.672 126,115.5C 126.608,117.154 127.108,118.821 127.5,120.5C 127.631,121.376 127.298,122.043 126.5,122.5C 125.827,119.003 123.827,117.837 120.5,119C 122.229,120.789 122.896,122.956 122.5,125.5C 118.833,125.5 115.167,125.5 111.5,125.5C 114.641,124.679 117.975,124.179 121.5,124C 120.691,121.988 119.025,120.155 116.5,118.5C 117.127,117.583 117.461,116.583 117.5,115.5C 118.5,114.167 119.5,112.833 120.5,111.5 Z"/></g>
<g><path style="opacity:1" fill="#a62b16" d="M 173.5,116.5 C 169.848,116.559 166.182,116.892 162.5,117.5C 157.919,118.49 153.253,119.157 148.5,119.5C 150.395,117.759 152.728,116.759 155.5,116.5C 161.514,115.297 167.514,115.297 173.5,116.5 Z"/></g>
<g><path style="opacity:1" fill="#d57645" d="M 162.5,117.5 C 166.182,116.892 169.848,116.559 173.5,116.5C 175.833,116.5 178.167,116.5 180.5,116.5C 177.063,117.945 173.397,118.945 169.5,119.5C 167.263,118.551 164.929,117.884 162.5,117.5 Z"/></g>
<g><path style="opacity:1" fill="#b4362b" d="M 84.5,108.5 C 85.4674,109.806 86.8007,110.473 88.5,110.5C 87.2525,113.272 87.2525,115.272 88.5,116.5C 90.0418,115.699 91.7085,115.366 93.5,115.5C 93.5,117.5 93.5,119.5 93.5,121.5C 90.9356,121.021 88.4356,120.355 86,119.5C 84.383,121.763 82.5497,123.763 80.5,125.5C 79.8333,125.5 79.1667,125.5 78.5,125.5C 78.8333,124.833 79.1667,124.167 79.5,123.5C 83.9612,119.575 85.6279,114.575 84.5,108.5 Z"/></g>
<g><path style="opacity:1" fill="#a94437" d="M 48.5,115.5 C 48.8333,115.5 49.1667,115.5 49.5,115.5C 49.0339,119.162 49.7006,122.495 51.5,125.5C 50.5,126.167 49.5,126.833 48.5,127.5C 48.7852,125.712 48.4519,124.045 47.5,122.5C 44.8401,121.297 42.1735,121.297 39.5,122.5C 39.6107,121.883 39.944,121.383 40.5,121C 43.146,120.503 45.8127,120.336 48.5,120.5C 48.5,119.167 48.5,117.833 48.5,116.5C 48.5,116.167 48.5,115.833 48.5,115.5 Z"/></g>
<g><path style="opacity:1" fill="#ed8973" d="M 117.5,115.5 C 117.461,116.583 117.127,117.583 116.5,118.5C 119.025,120.155 120.691,121.988 121.5,124C 117.975,124.179 114.641,124.679 111.5,125.5C 107.64,124.356 103.64,123.689 99.5,123.5C 99.5,123.167 99.5,122.833 99.5,122.5C 102.385,122.806 105.052,122.473 107.5,121.5C 109.153,121.34 110.486,120.674 111.5,119.5C 114.05,118.943 116.05,117.61 117.5,115.5 Z"/></g>
<g><path style="opacity:1" fill="#b22b1f" d="M 127.5,120.5 C 134.62,121.999 141.62,121.666 148.5,119.5C 147.833,120.833 146.833,121.833 145.5,122.5C 137.915,123.818 130.249,124.818 122.5,125.5C 122.896,122.956 122.229,120.789 120.5,119C 123.827,117.837 125.827,119.003 126.5,122.5C 127.298,122.043 127.631,121.376 127.5,120.5 Z"/></g>
<g><path style="opacity:1" fill="#e88e40" d="M 162.5,117.5 C 164.929,117.884 167.263,118.551 169.5,119.5C 163.569,121.419 157.569,123.086 151.5,124.5C 149.833,124.5 148.167,124.5 146.5,124.5C 145.662,124.158 145.328,123.492 145.5,122.5C 146.833,121.833 147.833,120.833 148.5,119.5C 153.253,119.157 157.919,118.49 162.5,117.5 Z"/></g>
<g><path style="opacity:1" fill="#f5d8a6" d="M 201.5,115.5 C 191.91,118.818 182.243,121.818 172.5,124.5C 171.833,124.5 171.167,124.5 170.5,124.5C 167.794,124.575 165.127,124.908 162.5,125.5C 162.5,124.833 162.5,124.167 162.5,123.5C 167.374,122.987 172.041,121.654 176.5,119.5C 181.425,119.93 186.425,119.43 191.5,118C 194.447,115.836 197.781,115.002 201.5,115.5 Z"/></g>
<g><path style="opacity:1" fill="#f8cda2" d="M 52.5,112.5 C 52.5,112.833 52.5,113.167 52.5,113.5C 51.1892,117.608 51.5226,121.608 53.5,125.5C 58.4589,127.827 63.7922,128.827 69.5,128.5C 66.0381,129.482 62.3714,129.815 58.5,129.5C 58.1667,129.5 57.8333,129.5 57.5,129.5C 55.1898,128.675 53.1898,127.342 51.5,125.5C 49.7006,122.495 49.0339,119.162 49.5,115.5C 50.1667,114.167 51.1667,113.167 52.5,112.5 Z"/></g>
<g><path style="opacity:1" fill="#bf221b" d="M 93.5,121.5 C 94.5,121.5 95.5,121.5 96.5,121.5C 97.391,122.11 98.391,122.443 99.5,122.5C 99.5,122.833 99.5,123.167 99.5,123.5C 101.019,124.41 102.685,125.243 104.5,126C 101.7,127.232 98.6996,127.899 95.5,128C 90.1357,128.829 84.8023,128.663 79.5,127.5C 79.8627,126.817 80.1961,126.15 80.5,125.5C 82.5497,123.763 84.383,121.763 86,119.5C 88.4356,120.355 90.9356,121.021 93.5,121.5 Z"/></g>
<g><path style="opacity:1" fill="#fce2ad" d="M 79.5,123.5 C 79.1667,124.167 78.8333,124.833 78.5,125.5C 75.8174,127.336 72.8174,128.336 69.5,128.5C 63.7922,128.827 58.4589,127.827 53.5,125.5C 59.1,125.512 64.4333,124.512 69.5,122.5C 69.5,123.5 69.5,124.5 69.5,125.5C 72.9322,125.243 76.2655,124.576 79.5,123.5 Z"/></g>
<g><path style="opacity:1" fill="#dc824c" d="M 145.5,122.5 C 145.328,123.492 145.662,124.158 146.5,124.5C 143.689,125.475 140.689,126.142 137.5,126.5C 132.724,126.296 127.724,126.296 122.5,126.5C 122.5,126.167 122.5,125.833 122.5,125.5C 130.249,124.818 137.915,123.818 145.5,122.5 Z"/></g>
<g><path style="opacity:1" fill="#f9d59b" d="M 162.5,123.5 C 162.5,124.167 162.5,124.833 162.5,125.5C 147.725,129.186 132.725,132.019 117.5,134C 116.944,134.383 116.611,134.883 116.5,135.5C 107.892,137.022 99.2254,138.022 90.5,138.5C 96.7494,136.389 103.249,134.723 110,133.5C 111.03,133.164 111.53,132.497 111.5,131.5C 120.171,129.832 128.837,128.165 137.5,126.5C 140.689,126.142 143.689,125.475 146.5,124.5C 148.167,124.5 149.833,124.5 151.5,124.5C 155.179,124.276 158.846,123.942 162.5,123.5 Z"/></g>
<g><path style="opacity:1" fill="#b6291c" d="M 99.5,123.5 C 103.64,123.689 107.64,124.356 111.5,125.5C 115.167,125.5 118.833,125.5 122.5,125.5C 122.5,125.833 122.5,126.167 122.5,126.5C 113.894,127.922 105.227,128.922 96.5,129.5C 86.7709,129.627 77.1042,130.127 67.5,131C 70.1013,130.08 72.7679,129.413 75.5,129C 77.0557,128.28 78.0557,127.113 78.5,125.5C 79.1667,125.5 79.8333,125.5 80.5,125.5C 80.1961,126.15 79.8627,126.817 79.5,127.5C 84.8023,128.663 90.1357,128.829 95.5,128C 98.6996,127.899 101.7,127.232 104.5,126C 102.685,125.243 101.019,124.41 99.5,123.5 Z"/></g>
<g><path style="opacity:0.529" fill="#f8e8c7" d="M 170.5,124.5 C 157.507,128.501 144.174,131.501 130.5,133.5C 125.759,133.735 121.092,134.402 116.5,135.5C 116.611,134.883 116.944,134.383 117.5,134C 132.725,132.019 147.725,129.186 162.5,125.5C 165.127,124.908 167.794,124.575 170.5,124.5 Z"/></g>
<g><path style="opacity:1" fill="#801816" d="M 48.5,127.5 C 48.67,128.822 48.3366,129.989 47.5,131C 45.1902,131.497 42.8568,131.663 40.5,131.5C 38.0246,130.313 37.0246,128.313 37.5,125.5C 37.9321,124.29 38.5987,123.29 39.5,122.5C 42.1735,121.297 44.8401,121.297 47.5,122.5C 48.4519,124.045 48.7852,125.712 48.5,127.5 Z"/></g>
<g><path style="opacity:1" fill="#a21217" d="M 41.5,123.5 C 43.1667,123.5 44.8333,123.5 46.5,123.5C 46.5,125.5 46.5,127.5 46.5,129.5C 44.8333,129.5 43.1667,129.5 41.5,129.5C 41.5,127.5 41.5,125.5 41.5,123.5 Z"/></g>
<g><path style="opacity:1" fill="#b73422" d="M 51.5,125.5 C 53.1898,127.342 55.1898,128.675 57.5,129.5C 52.2062,127.143 49.2062,128.809 48.5,134.5C 54.9709,136.645 60.9709,135.811 66.5,132C 64.1667,131.667 61.8333,131.333 59.5,131C 58.944,130.617 58.6107,130.117 58.5,129.5C 62.3714,129.815 66.0381,129.482 69.5,128.5C 72.8174,128.336 75.8174,127.336 78.5,125.5C 78.0557,127.113 77.0557,128.28 75.5,129C 72.7679,129.413 70.1013,130.08 67.5,131C 77.1042,130.127 86.7709,129.627 96.5,129.5C 93.1445,130.135 89.8112,131.135 86.5,132.5C 81.6668,133.708 76.8335,133.708 72,132.5C 68.0098,134.237 63.8431,135.571 59.5,136.5C 53.8464,135.612 48.1798,135.445 42.5,136C 40.9368,137.736 39.2701,139.236 37.5,140.5C 32.0411,140.008 26.7077,139.008 21.5,137.5C 22.5676,136.566 23.901,136.232 25.5,136.5C 29.3005,137.779 33.3005,138.279 37.5,138C 39.4812,137.395 39.8146,136.395 38.5,135C 39.305,133.887 39.9717,132.721 40.5,131.5C 42.8568,131.663 45.1902,131.497 47.5,131C 48.3366,129.989 48.67,128.822 48.5,127.5C 49.5,126.833 50.5,126.167 51.5,125.5 Z"/></g>
<g><path style="opacity:1" fill="#be221b" d="M 57.5,129.5 C 57.8333,129.5 58.1667,129.5 58.5,129.5C 58.6107,130.117 58.944,130.617 59.5,131C 61.8333,131.333 64.1667,131.667 66.5,132C 60.9709,135.811 54.9709,136.645 48.5,134.5C 49.2062,128.809 52.2062,127.143 57.5,129.5 Z"/></g>
<g><path style="opacity:1" fill="#e28a43" d="M 137.5,126.5 C 128.837,128.165 120.171,129.832 111.5,131.5C 102.464,132.173 93.4637,133.173 84.5,134.5C 85.1667,133.833 85.8333,133.167 86.5,132.5C 89.8112,131.135 93.1445,130.135 96.5,129.5C 105.227,128.922 113.894,127.922 122.5,126.5C 127.724,126.296 132.724,126.296 137.5,126.5 Z"/></g>
<g><path style="opacity:0.129" fill="#f1c6c1" d="M 32.5,122.5 C 31.5,123.833 30.5,125.167 29.5,126.5C 24.0996,128.309 20.7663,131.976 19.5,137.5C 19.1667,137.5 18.8333,137.5 18.5,137.5C 18.5,136.833 18.5,136.167 18.5,135.5C 19.5813,133.236 20.9146,131.069 22.5,129C 25.7196,126.563 29.053,124.397 32.5,122.5 Z"/></g>
<g><path style="opacity:1" fill="#c7372e" d="M 48.5,116.5 C 48.5,117.833 48.5,119.167 48.5,120.5C 45.8127,120.336 43.146,120.503 40.5,121C 39.944,121.383 39.6107,121.883 39.5,122.5C 38.5987,123.29 37.9321,124.29 37.5,125.5C 34.4965,126.418 31.6632,127.751 29,129.5C 28.8762,131.936 29.3762,134.269 30.5,136.5C 28.8333,136.5 27.1667,136.5 25.5,136.5C 23.901,136.232 22.5676,136.566 21.5,137.5C 20.8333,137.5 20.1667,137.5 19.5,137.5C 20.7663,131.976 24.0996,128.309 29.5,126.5C 30.552,126.649 31.552,126.483 32.5,126C 35.3993,123.271 38.066,120.438 40.5,117.5C 42.2789,119.344 44.6122,120.01 47.5,119.5C 47.2627,118.209 47.596,117.209 48.5,116.5 Z"/></g>
<g><path style="opacity:1" fill="#c42923" d="M 37.5,125.5 C 37.0246,128.313 38.0246,130.313 40.5,131.5C 39.9717,132.721 39.305,133.887 38.5,135C 39.8146,136.395 39.4812,137.395 37.5,138C 33.3005,138.279 29.3005,137.779 25.5,136.5C 27.1667,136.5 28.8333,136.5 30.5,136.5C 29.3762,134.269 28.8762,131.936 29,129.5C 31.6632,127.751 34.4965,126.418 37.5,125.5 Z"/></g>
<g><path style="opacity:1" fill="#de7f3f" d="M 86.5,132.5 C 85.8333,133.167 85.1667,133.833 84.5,134.5C 68.9476,137.081 53.281,139.081 37.5,140.5C 39.2701,139.236 40.9368,137.736 42.5,136C 48.1798,135.445 53.8464,135.612 59.5,136.5C 63.8431,135.571 68.0098,134.237 72,132.5C 76.8335,133.708 81.6668,133.708 86.5,132.5 Z"/></g>
<g><path style="opacity:0.176" fill="#fcf4dc" d="M 130.5,133.5 C 110.578,138.442 90.245,141.442 69.5,142.5C 76.6198,141.881 83.6198,140.548 90.5,138.5C 99.2254,138.022 107.892,137.022 116.5,135.5C 121.092,134.402 125.759,133.735 130.5,133.5 Z"/></g>
<g><path style="opacity:1" fill="#facf8f" d="M 111.5,131.5 C 111.53,132.497 111.03,133.164 110,133.5C 103.249,134.723 96.7494,136.389 90.5,138.5C 79.1575,139.134 67.8241,139.967 56.5,141C 54.9419,141.21 53.6085,141.71 52.5,142.5C 41.7152,144.408 30.7152,144.908 19.5,144C 18.5769,141.959 18.2436,139.792 18.5,137.5C 18.8333,137.5 19.1667,137.5 19.5,137.5C 19.5,138.833 19.5,140.167 19.5,141.5C 25.69,141.823 31.69,141.49 37.5,140.5C 53.281,139.081 68.9476,137.081 84.5,134.5C 93.4637,133.173 102.464,132.173 111.5,131.5 Z"/></g>
<g><path style="opacity:1" fill="#e38d51" d="M 19.5,137.5 C 20.1667,137.5 20.8333,137.5 21.5,137.5C 26.7077,139.008 32.0411,140.008 37.5,140.5C 31.69,141.49 25.69,141.823 19.5,141.5C 19.5,140.167 19.5,138.833 19.5,137.5 Z"/></g>
<g><path style="opacity:1" fill="#f5d8a8" d="M 90.5,138.5 C 83.6198,140.548 76.6198,141.881 69.5,142.5C 68.8333,142.5 68.1667,142.5 67.5,142.5C 62.5,142.5 57.5,142.5 52.5,142.5C 53.6085,141.71 54.9419,141.21 56.5,141C 67.8241,139.967 79.1575,139.134 90.5,138.5 Z"/></g>
<g><path style="opacity:0.89" fill="#f6e4c3" d="M 18.5,135.5 C 18.5,136.167 18.5,136.833 18.5,137.5C 18.2436,139.792 18.5769,141.959 19.5,144C 30.7152,144.908 41.7152,144.408 52.5,142.5C 57.5,142.5 62.5,142.5 67.5,142.5C 53.0393,144.649 38.3726,145.816 23.5,146C 16.5684,144.971 14.9017,141.471 18.5,135.5 Z"/></g>
</svg>
